<svg width="760" height="506" viewBox="0 0 760 506" fill="none" xmlns="http://www.w3.org/2000/svg">
<rect width="760" height="506" fill="#B9B9B9"/>
<rect width="760" height="506" fill="black"/>
<path d="M80.1826 140.1V86.387H118.779C132.591 86.387 140.878 93.3696 140.878 104.726C140.878 116.313 132.591 123.602 118.779 123.602H99.9029V140.1H80.1826ZM99.9029 111.095H114.405C118.779 111.095 120.16 108.332 120.16 105.186C120.16 102.424 118.779 99.8151 114.405 99.8151H99.9029V111.095Z" fill="white"/>
<path d="M133.159 140.1L157.406 86.387H180.426L205.748 140.1H184.953L180.733 130.585H155.641L151.651 140.1H133.159ZM160.706 118.384H175.362L167.842 101.196L160.706 118.384Z" fill="white"/>
<path d="M238.365 140.867C225.014 140.867 211.586 137.491 203.452 132.35L209.284 120.303C217.034 124.907 228.083 127.746 238.672 127.746C244.504 127.746 247.343 126.825 247.343 124.907C247.343 117.771 206.905 125.521 206.905 103.498C206.905 92.0652 217.494 85.6196 236.064 85.6196C247.727 85.6196 259.467 88.3053 267.063 92.6023L261.155 104.803C254.019 101.043 244.504 98.7409 235.373 98.7409C229.618 98.7409 227.086 99.6617 227.086 101.35C227.086 107.872 268.598 100.582 268.598 122.681C268.598 134.268 257.625 140.867 238.365 140.867Z" fill="white"/>
<path d="M303.708 140.867C290.357 140.867 276.928 137.491 268.795 132.35L274.626 120.303C282.376 124.907 293.426 127.746 304.015 127.746C309.847 127.746 312.686 126.825 312.686 124.907C312.686 117.771 272.248 125.521 272.248 103.498C272.248 92.0652 282.837 85.6196 301.406 85.6196C313.069 85.6196 324.809 88.3053 332.406 92.6023L326.498 104.803C319.361 101.043 309.847 98.7409 300.715 98.7409C294.961 98.7409 292.428 99.6617 292.428 101.35C292.428 107.872 333.941 100.582 333.941 122.681C333.941 134.268 322.968 140.867 303.708 140.867Z" fill="white"/>
<path d="M337.207 140.1V86.387H356.927V140.1H337.207Z" fill="white"/>
<path d="M396.832 140.867C375.347 140.867 360.998 129.818 360.998 113.32C360.998 96.6691 375.347 85.6196 396.832 85.6196C418.317 85.6196 432.666 96.6691 432.666 113.32C432.666 129.818 418.317 140.867 396.832 140.867ZM396.832 126.595C405.886 126.595 411.948 121.454 411.948 113.32C411.948 105.11 405.886 99.8919 396.832 99.8919C387.777 99.8919 381.716 105.11 381.716 113.32C381.716 121.454 387.777 126.595 396.832 126.595Z" fill="white"/>
<path d="M436.719 140.1V86.387H459.816L482.605 112.936H482.989V86.387H500.637V140.1H484.984L454.828 107.028H454.367V140.1H436.719Z" fill="white"/>
<path d="M503.033 140.1L527.281 86.387H550.301L575.622 140.1H554.828L550.607 130.585H525.516L521.526 140.1H503.033ZM530.58 118.384H545.236L537.716 101.196L530.58 118.384Z" fill="white"/>
<path d="M584.279 140.1V100.199H562.026V86.387H625.484V100.199H603.308V140.1H584.279Z" fill="white"/>
<path d="M628.7 140.1V86.387H686.557V100.352H648.42V106.721H675.123V119.535H648.42V126.134H687.324V140.1H628.7Z" fill="white"/>
<path d="M199.61 217.14C178.125 217.14 163.622 206.244 163.622 189.594C163.622 172.712 178.125 161.893 199.61 161.893C214.956 161.893 226.85 167.801 232.067 178.851L214.419 185.22C212.194 179.925 207.82 176.472 199.917 176.472C190.095 176.472 184.34 181.306 184.34 189.594C184.34 197.727 190.095 202.561 199.917 202.561C207.973 202.561 212.27 198.418 214.496 192.97L232.451 199.492C227.387 210.772 215.263 217.14 199.61 217.14Z" fill="white"/>
<path d="M266.613 217.064C247.123 217.064 234.308 208.163 234.308 191.051V162.66H254.029V189.594C254.029 198.648 259.016 202.792 267.38 202.792C276.051 202.792 281.115 198.648 281.115 189.594V162.66H299.301V191.051C299.301 208.163 286.256 217.064 266.613 217.064Z" fill="white"/>
<path d="M304.386 216.373V162.66H346.435C360.401 162.66 367.844 167.801 367.844 175.858C367.844 183.455 361.245 187.598 348.047 188.673V188.826H354.799C364.391 188.826 368.304 193.507 368.304 200.796V216.373H348.584V201.103H324.106V216.373H304.386ZM324.106 187.675H341.294C345.515 187.675 348.124 185.296 348.124 181.383C348.124 178.084 345.515 176.012 341.294 176.012H324.106V187.675Z" fill="white"/>
<path d="M372.876 216.373V162.66H392.596V216.373H372.876Z" fill="white"/>
<path d="M432.501 217.14C411.016 217.14 396.667 206.091 396.667 189.594C396.667 172.943 411.016 161.893 432.501 161.893C453.986 161.893 468.335 172.943 468.335 189.594C468.335 206.091 453.986 217.14 432.501 217.14ZM432.501 202.868C441.556 202.868 447.617 197.727 447.617 189.594C447.617 181.383 441.556 176.165 432.501 176.165C423.447 176.165 417.385 181.383 417.385 189.594C417.385 197.727 423.447 202.868 432.501 202.868Z" fill="white"/>
<path d="M504.079 217.064C484.589 217.064 471.774 208.163 471.774 191.051V162.66H491.495V189.594C491.495 198.648 496.482 202.792 504.846 202.792C513.517 202.792 518.581 198.648 518.581 189.594V162.66H536.767V191.051C536.767 208.163 523.722 217.064 504.079 217.064Z" fill="white"/>
<path d="M572.947 217.14C559.595 217.14 546.167 213.764 538.034 208.623L543.865 196.576C551.615 201.18 562.665 204.019 573.254 204.019C579.085 204.019 581.925 203.098 581.925 201.18C581.925 194.044 541.487 201.794 541.487 179.772C541.487 168.339 552.076 161.893 570.645 161.893C582.308 161.893 594.048 164.579 601.645 168.876L595.736 181.076C588.6 177.316 579.085 175.014 569.954 175.014C564.199 175.014 561.667 175.935 561.667 177.623C561.667 184.145 603.179 176.856 603.179 198.955C603.179 210.541 592.207 217.14 572.947 217.14Z" fill="white"/>
<path d="M44.8516 292.646V238.933H86.901C100.866 238.933 108.309 244.074 108.309 252.131C108.309 259.727 101.71 263.871 88.5124 264.945V265.099H95.2648C104.856 265.099 108.77 269.779 108.77 277.069V292.646H89.0495V277.376H64.5718V292.646H44.8516ZM64.5718 263.948H81.7599C85.9802 263.948 88.5891 261.569 88.5891 257.656C88.5891 254.356 85.9802 252.284 81.7599 252.284H64.5718V263.948Z" fill="white"/>
<path d="M113.341 292.646V238.933H171.198V252.898H133.062V259.267H159.764V272.081H133.062V278.68H171.965V292.646H113.341Z" fill="white"/>
<path d="M207.98 293.413C194.629 293.413 181.2 290.037 173.067 284.896L178.898 272.849C186.648 277.453 197.698 280.292 208.287 280.292C214.119 280.292 216.958 279.371 216.958 277.453C216.958 270.316 176.52 278.066 176.52 256.044C176.52 244.611 187.109 238.166 205.678 238.166C217.341 238.166 229.082 240.851 236.678 245.148L230.77 257.349C223.634 253.589 214.119 251.287 204.988 251.287C199.233 251.287 196.7 252.208 196.7 253.896C196.7 260.418 238.213 253.128 238.213 275.227C238.213 286.814 227.24 293.413 207.98 293.413Z" fill="white"/>
<path d="M241.479 292.646V238.933H280.075C293.887 238.933 302.174 245.916 302.174 257.272C302.174 268.859 293.887 276.148 280.075 276.148H261.199V292.646H241.479ZM261.199 263.641H275.701C280.075 263.641 281.456 260.878 281.456 257.732C281.456 254.97 280.075 252.361 275.701 252.361H261.199V263.641Z" fill="white"/>
<path d="M339.62 293.413C318.135 293.413 303.786 282.363 303.786 265.866C303.786 249.215 318.135 238.166 339.62 238.166C361.105 238.166 375.454 249.215 375.454 265.866C375.454 282.363 361.105 293.413 339.62 293.413ZM339.62 279.141C348.675 279.141 354.736 274 354.736 265.866C354.736 257.656 348.675 252.438 339.62 252.438C330.566 252.438 324.504 257.656 324.504 265.866C324.504 274 330.566 279.141 339.62 279.141Z" fill="white"/>
<path d="M379.507 292.646V238.933H402.604L425.393 265.482H425.777V238.933H443.425V292.646H427.772L397.616 259.574H397.156V292.646H379.507Z" fill="white"/>
<path d="M480.965 293.413C467.614 293.413 454.185 290.037 446.052 284.896L451.883 272.849C459.633 277.453 470.683 280.292 481.272 280.292C487.104 280.292 489.943 279.371 489.943 277.453C489.943 270.316 449.505 278.066 449.505 256.044C449.505 244.611 460.094 238.166 478.663 238.166C490.326 238.166 502.066 240.851 509.663 245.148L503.755 257.349C496.618 253.589 487.104 251.287 477.972 251.287C472.218 251.287 469.685 252.208 469.685 253.896C469.685 260.418 511.198 253.128 511.198 275.227C511.198 286.814 500.225 293.413 480.965 293.413Z" fill="white"/>
<path d="M514.464 292.646V238.933H534.184V292.646H514.464Z" fill="white"/>
<path d="M539.866 292.646V238.933H582.836C594.883 238.933 600.638 242.846 600.638 250.059C600.638 256.812 595.574 260.264 584.524 261.185V261.339C597.416 262.336 603.324 266.71 603.324 276.532C603.324 285.663 595.958 292.646 584.524 292.646H539.866ZM559.586 279.217H578.463C581.148 279.217 582.913 277.376 582.913 274.46C582.913 271.851 581.225 270.163 578.463 270.163H559.586V279.217ZM559.586 260.878H576.007C578.846 260.878 580.611 259.344 580.611 256.658C580.611 253.972 578.846 252.438 576.007 252.438H559.586V260.878Z" fill="white"/>
<path d="M606.108 292.646V238.933H625.828V278.834H660.818V292.646H606.108Z" fill="white"/>
<path d="M664.032 292.646V238.933H721.888V252.898H683.752V259.267H710.455V272.081H683.752V278.68H722.656V292.646H664.032Z" fill="white"/>
<path d="M284.843 369.441C263.358 369.441 249.009 358.392 249.009 341.894C249.009 325.243 263.358 314.194 284.843 314.194C306.328 314.194 320.677 325.243 320.677 341.894C320.677 358.392 306.328 369.441 284.843 369.441ZM284.843 355.169C293.897 355.169 299.959 350.028 299.959 341.894C299.959 333.684 293.897 328.466 284.843 328.466C275.788 328.466 269.727 333.684 269.727 341.894C269.727 350.028 275.788 355.169 284.843 355.169Z" fill="white"/>
<path d="M324.73 368.674V314.961H363.326C377.138 314.961 385.425 321.944 385.425 333.3C385.425 344.887 377.138 352.176 363.326 352.176H344.45V368.674H324.73ZM344.45 339.669H358.953C363.326 339.669 364.708 336.907 364.708 333.761C364.708 330.998 363.326 328.389 358.953 328.389H344.45V339.669Z" fill="white"/>
<path d="M388.649 368.674V314.961H446.505V328.926H408.369V335.295H435.072V348.11H408.369V354.709H447.272V368.674H388.649Z" fill="white"/>
<path d="M451.444 368.674V314.961H474.54L497.33 341.511H497.713V314.961H515.362V368.674H499.708L469.552 335.602H469.092V368.674H451.444Z" fill="white"/>
<path d="M289.054 32.1601C286.126 32.1601 283.79 31.2321 282.478 29.6001L283.726 28.5121C284.83 29.8721 286.558 30.6081 289.054 30.6081C291.358 30.6081 292.718 29.9841 292.718 28.9281C292.718 25.9201 283.038 28.4001 283.038 23.9521C283.038 21.8561 285.134 20.6401 288.462 20.6401C291.038 20.6401 293.054 21.4081 294.302 22.8321L293.07 23.9201C292.03 22.7521 290.622 22.1921 288.478 22.1921C286.286 22.1921 285.022 22.7681 285.022 23.7601C285.022 26.5121 294.75 23.9841 294.75 28.7201C294.75 30.8961 292.558 32.1601 289.054 32.1601Z" fill="white"/>
<path d="M300.141 32.0001V22.4001H295.005V20.8001H307.197V22.4001H302.093V32.0001H300.141Z" fill="white"/>
<path d="M308.702 32.0001V20.8001H316.142C318.718 20.8001 320.174 21.8401 320.174 23.4721C320.174 24.9121 319.054 25.8721 316.99 26.1121V26.1441H318.27C319.742 26.1441 320.494 26.9121 320.494 28.3041V32.0001H318.526V27.4881H310.67V32.0001H308.702ZM310.67 25.8881H315.854C317.358 25.8881 318.19 25.0561 318.19 23.9681C318.19 22.9601 317.47 22.3841 315.982 22.3841H310.67V25.8881Z" fill="white"/>
<path d="M322.671 32.0001V20.8001H324.639V32.0001H322.671Z" fill="white"/>
<path d="M333.346 32.1601C329.314 32.1601 326.642 29.8561 326.642 26.4161C326.642 22.9441 329.314 20.6401 333.346 20.6401C336.338 20.6401 338.53 21.9361 339.346 24.3041L337.474 24.8321C336.946 23.1841 335.458 22.2721 333.346 22.2721C330.514 22.2721 328.658 23.9361 328.658 26.4161C328.658 28.8801 330.514 30.5281 333.346 30.5281C335.474 30.5281 336.994 29.5841 337.506 27.9201L339.362 28.4481C338.594 30.8321 336.402 32.1601 333.346 32.1601Z" fill="white"/>
<path d="M350.932 32.0001V27.1201H343.124V32.0001H341.156V20.8001H343.124V25.5201H350.932V20.8001H352.9V32.0001H350.932Z" fill="white"/>
<path d="M355.499 32.0001V20.8001H362.363C365.179 20.8001 366.715 21.9201 366.715 24.1761C366.715 26.4801 365.179 27.6321 362.363 27.6321H357.467V32.0001H355.499ZM357.467 26.0961H362.107C363.899 26.0961 364.699 25.4721 364.699 24.1921C364.699 22.9601 363.899 22.3841 362.107 22.3841H357.467V26.0961Z" fill="white"/>
<path d="M374.134 32.1601C370.694 32.1601 368.246 30.2881 368.246 26.7681V20.8001H370.23V26.6721C370.23 29.2321 371.862 30.4961 374.166 30.4961C376.47 30.4961 378.118 29.2321 378.118 26.6721V20.8001H380.022V26.7681C380.022 30.2881 377.574 32.1601 374.134 32.1601Z" fill="white"/>
<path d="M382.468 32.0001V20.8001H385.076L392.356 28.9281H392.42V20.8001H394.26V32.0001H392.692L384.372 22.7681H384.308V32.0001H382.468Z" fill="white"/>
<path d="M396.859 32.0001V20.8001H398.827V26.1601L405.851 20.8001H408.523L402.923 25.1041L408.907 32.0001H406.267L401.387 26.3041L398.827 28.2721V32.0001H396.859Z" fill="white"/>
<path d="M414.094 32.0001V22.4001H408.958V20.8001H421.15V22.4001H416.046V32.0001H414.094Z" fill="white"/>
<path d="M431.554 32.1601C428.626 32.1601 426.29 31.2321 424.978 29.6001L426.226 28.5121C427.33 29.8721 429.058 30.6081 431.554 30.6081C433.858 30.6081 435.218 29.9841 435.218 28.9281C435.218 25.9201 425.538 28.4001 425.538 23.9521C425.538 21.8561 427.634 20.6401 430.962 20.6401C433.538 20.6401 435.554 21.4081 436.802 22.8321L435.57 23.9201C434.53 22.7521 433.122 22.1921 430.978 22.1921C428.786 22.1921 427.522 22.7681 427.522 23.7601C427.522 26.5121 437.25 23.9841 437.25 28.7201C437.25 30.8961 435.058 32.1601 431.554 32.1601Z" fill="white"/>
<path d="M437.519 32.0001L443.199 20.8001H445.503L451.231 32.0001H449.151L447.519 28.7681H441.055L439.439 32.0001H437.519ZM441.791 27.3121H446.783L444.287 22.3521L441.791 27.3121Z" fill="white"/>
<path d="M452.64 32.0001V20.8001H455.248L462.528 28.9281H462.592V20.8001H464.432V32.0001H462.864L454.544 22.7681H454.48V32.0001H452.64Z" fill="white"/>
<path d="M472.679 32.1601C469.751 32.1601 467.415 31.2321 466.103 29.6001L467.351 28.5121C468.455 29.8721 470.183 30.6081 472.679 30.6081C474.983 30.6081 476.343 29.9841 476.343 28.9281C476.343 25.9201 466.663 28.4001 466.663 23.9521C466.663 21.8561 468.759 20.6401 472.087 20.6401C474.663 20.6401 476.679 21.4081 477.927 22.8321L476.695 23.9201C475.655 22.7521 474.247 22.1921 472.103 22.1921C469.911 22.1921 468.647 22.7681 468.647 23.7601C468.647 26.5121 478.375 23.9841 478.375 28.7201C478.375 30.8961 476.183 32.1601 472.679 32.1601Z" fill="white"/>
<path d="M56.707 100.1V98.0996H62.327V88.8796L57.007 91.2796V89.1196L64.767 86.0996V98.0996H70.207V100.1H56.707Z" fill="#B591FF"/>
<path d="M148.826 171.653C152.026 169.673 152.606 168.413 152.606 167.133C152.606 165.373 150.946 164.133 148.606 164.133C145.966 164.133 144.266 165.533 143.806 167.773L141.606 166.973C142.206 164.093 144.846 162.173 148.686 162.173C152.346 162.173 154.886 164.133 154.886 167.133C154.886 168.893 154.406 170.513 150.246 172.973L147.866 174.373H155.686V176.373H141.486L148.826 171.653Z" fill="#B591FF"/>
<path d="M28.7298 268.439C25.5618 268.439 23.4558 267.233 22.3398 265.613L23.7618 264.371C24.6978 265.721 26.2098 266.693 28.7118 266.693C31.0158 266.693 32.5098 265.757 32.5098 264.353C32.5098 263.021 31.3578 262.373 29.1078 262.373H26.2278L30.6378 257.459H22.8978V255.659H34.8318L29.2878 261.725H29.4498C32.9238 261.725 34.7238 262.841 34.7238 264.785C34.7238 267.215 32.3118 268.439 28.7298 268.439Z" fill="#B591FF"/>
<path d="M230.647 324.931L237.505 315.319H239.899L234.121 323.275H240.619V318.109H242.671V323.275H245.029V324.931H242.671V327.919H240.619V324.931H230.647Z" fill="#B591FF"/>
<path d="M178.965 420.773V410.973H182.731C186.427 410.973 188.429 412.793 188.429 415.859C188.429 418.939 186.427 420.773 182.731 420.773H178.965ZM180.155 419.681H182.801C185.671 419.681 187.211 418.253 187.211 415.859C187.211 413.479 185.671 412.051 182.801 412.051H180.155V419.681Z" fill="#B591FF"/>
<path d="M193.823 420.913C191.345 420.913 189.833 419.485 189.833 417.217C189.833 414.977 191.387 413.479 193.669 413.479C196.091 413.479 197.379 414.865 197.379 417.441H191.023C191.107 419.121 192.045 419.919 193.837 419.919C195.041 419.919 195.881 419.527 196.301 418.715L197.211 419.121C196.679 420.213 195.573 420.913 193.823 420.913ZM191.065 416.545H196.231C196.077 415.187 195.223 414.473 193.683 414.473C192.227 414.473 191.289 415.131 191.065 416.545Z" fill="#B591FF"/>
<path d="M201.036 420.773L198.04 413.619H199.258L201.708 419.681H201.778L204.228 413.619H205.362L202.366 420.773H201.036Z" fill="#B591FF"/>
<path d="M210.051 420.913C207.573 420.913 206.061 419.485 206.061 417.217C206.061 414.977 207.615 413.479 209.897 413.479C212.319 413.479 213.607 414.865 213.607 417.441H207.251C207.335 419.121 208.273 419.919 210.065 419.919C211.269 419.919 212.109 419.527 212.529 418.715L213.439 419.121C212.907 420.213 211.801 420.913 210.051 420.913ZM207.293 416.545H212.459C212.305 415.187 211.451 414.473 209.911 414.473C208.455 414.473 207.517 415.131 207.293 416.545Z" fill="#B591FF"/>
<path d="M216.993 420.773C215.817 420.773 215.327 420.129 215.327 419.233V410.973H216.447V419.821H218.687V420.773H216.993Z" fill="#B591FF"/>
<path d="M223.051 420.913C220.727 420.913 219.145 419.429 219.145 417.217C219.145 414.977 220.727 413.479 223.051 413.479C225.389 413.479 226.971 414.977 226.971 417.217C226.971 419.429 225.389 420.913 223.051 420.913ZM223.051 419.891C224.773 419.891 225.781 418.869 225.781 417.217C225.781 415.537 224.773 414.501 223.051 414.501C221.343 414.501 220.335 415.537 220.335 417.217C220.335 418.869 221.343 419.891 223.051 419.891Z" fill="#B591FF"/>
<path d="M228.795 423.573V413.619H229.915V415.453H229.971C230.419 414.235 231.567 413.479 233.051 413.479C235.095 413.479 236.509 414.977 236.509 417.203C236.509 419.429 235.095 420.913 233.051 420.913C231.567 420.913 230.433 420.185 229.985 418.967H229.915V423.573H228.795ZM232.645 419.877C234.325 419.877 235.319 418.883 235.319 417.203C235.319 415.509 234.325 414.515 232.645 414.515C230.895 414.515 229.873 415.509 229.873 417.203C229.873 418.883 230.895 419.877 232.645 419.877Z" fill="#B591FF"/>
<path d="M241.838 420.913C239.36 420.913 237.848 419.485 237.848 417.217C237.848 414.977 239.402 413.479 241.684 413.479C244.106 413.479 245.394 414.865 245.394 417.441H239.038C239.122 419.121 240.06 419.919 241.852 419.919C243.056 419.919 243.896 419.527 244.316 418.715L245.226 419.121C244.694 420.213 243.588 420.913 241.838 420.913ZM239.08 416.545H244.246C244.092 415.187 243.238 414.473 241.698 414.473C240.242 414.473 239.304 415.131 239.08 416.545Z" fill="#B591FF"/>
<path d="M254.394 420.773H253.274V418.967H253.204C252.756 420.185 251.622 420.913 250.138 420.913C248.094 420.913 246.68 419.429 246.68 417.203C246.68 414.977 248.094 413.479 250.138 413.479C251.622 413.479 252.77 414.235 253.218 415.453H253.274V410.973H254.394V420.773ZM250.544 419.877C252.294 419.877 253.316 418.883 253.316 417.203C253.316 415.509 252.294 414.515 250.544 414.515C248.864 414.515 247.87 415.509 247.87 417.203C247.87 418.883 248.864 419.877 250.544 419.877Z" fill="#B591FF"/>
<path d="M262.232 420.913C260.734 420.913 259.656 420.199 259.656 418.953C259.656 417.749 260.552 416.853 262.638 416.601L265.27 416.293V416.069C265.27 414.991 264.598 414.459 263.24 414.459C261.994 414.459 261.294 414.879 261.028 415.761H259.922C260.174 414.347 261.462 413.479 263.282 413.479C265.172 413.479 266.39 414.389 266.39 416.111V419.821H267.72V420.773H266.908C265.872 420.773 265.284 420.325 265.284 419.345V418.953H265.242C264.808 420.227 263.702 420.913 262.232 420.913ZM260.818 418.883C260.818 419.569 261.35 419.989 262.456 419.989C264.108 419.989 265.27 419.121 265.27 417.749V417.147L262.68 417.469C261.322 417.637 260.818 418.183 260.818 418.883Z" fill="#B591FF"/>
<path d="M271.959 420.913C270.083 420.913 268.809 420.255 268.333 419.023L269.369 418.631C269.677 419.527 270.643 419.961 272.015 419.961C273.303 419.961 274.059 419.541 274.059 418.813C274.059 416.909 268.585 418.561 268.585 415.607C268.585 414.277 269.803 413.479 271.749 413.479C273.373 413.479 274.507 414.053 274.997 415.131L273.975 415.523C273.625 414.781 272.827 414.431 271.721 414.431C270.489 414.431 269.775 414.837 269.775 415.537C269.775 417.385 275.235 415.761 275.235 418.715C275.235 420.087 273.975 420.913 271.959 420.913Z" fill="#B591FF"/>
<path d="M280.379 423.573V413.619H281.499V415.453H281.555C282.003 414.235 283.151 413.479 284.635 413.479C286.679 413.479 288.093 414.977 288.093 417.203C288.093 419.429 286.679 420.913 284.635 420.913C283.151 420.913 282.017 420.185 281.569 418.967H281.499V423.573H280.379ZM284.229 419.877C285.909 419.877 286.903 418.883 286.903 417.203C286.903 415.509 285.909 414.515 284.229 414.515C282.479 414.515 281.457 415.509 281.457 417.203C281.457 418.883 282.479 419.877 284.229 419.877Z" fill="#B591FF"/>
<path d="M292.036 420.913C290.538 420.913 289.46 420.199 289.46 418.953C289.46 417.749 290.356 416.853 292.442 416.601L295.074 416.293V416.069C295.074 414.991 294.402 414.459 293.044 414.459C291.798 414.459 291.098 414.879 290.832 415.761H289.726C289.978 414.347 291.266 413.479 293.086 413.479C294.976 413.479 296.194 414.389 296.194 416.111V419.821H297.524V420.773H296.712C295.676 420.773 295.088 420.325 295.088 419.345V418.953H295.046C294.612 420.227 293.506 420.913 292.036 420.913ZM290.622 418.883C290.622 419.569 291.154 419.989 292.26 419.989C293.912 419.989 295.074 419.121 295.074 417.749V417.147L292.484 417.469C291.126 417.637 290.622 418.183 290.622 418.883Z" fill="#B591FF"/>
<path d="M298.836 420.773V413.619H299.956V415.299H300.012C300.306 414.095 300.978 413.619 302.112 413.619H303.316V414.655H302.056C300.208 414.655 299.956 415.859 299.956 417.035V420.773H298.836Z" fill="#B591FF"/>
<path d="M307.191 420.815C306.155 420.815 305.483 420.255 305.483 419.191V414.585H303.943V413.619H305.483V411.729L306.603 411.309V413.619H308.941V414.585H306.603V419.807H309.011V420.815H307.191Z" fill="#B591FF"/>
<path d="M317.387 420.913C315.063 420.913 313.481 419.429 313.481 417.217C313.481 414.977 315.063 413.479 317.387 413.479C319.725 413.479 321.307 414.977 321.307 417.217C321.307 419.429 319.725 420.913 317.387 420.913ZM317.387 419.891C319.109 419.891 320.117 418.869 320.117 417.217C320.117 415.537 319.109 414.501 317.387 414.501C315.679 414.501 314.671 415.537 314.671 417.217C314.671 418.869 315.679 419.891 317.387 419.891Z" fill="#B591FF"/>
<path d="M323.528 412.443C323.528 411.505 324.046 410.833 325.278 410.833H326.972V411.771H324.648V413.619H326.734V414.585H324.648V420.773H323.528V414.585H322.086V413.619H323.528V412.443Z" fill="#B591FF"/>
<path d="M333.346 420.815C332.31 420.815 331.638 420.255 331.638 419.191V414.585H330.098V413.619H331.638V411.729L332.758 411.309V413.619H335.096V414.585H332.758V419.807H335.166V420.815H333.346Z" fill="#B591FF"/>
<path d="M336.735 420.773V410.973H337.855V415.411H337.911C338.373 414.039 339.451 413.479 340.697 413.479C342.419 413.479 343.455 414.515 343.455 416.321V420.773H342.335V416.559C342.335 415.215 341.593 414.515 340.319 414.515C338.961 414.515 337.855 415.327 337.855 417.077V420.773H336.735Z" fill="#B591FF"/>
<path d="M349.19 420.913C346.712 420.913 345.2 419.485 345.2 417.217C345.2 414.977 346.754 413.479 349.036 413.479C351.458 413.479 352.746 414.865 352.746 417.441H346.39C346.474 419.121 347.412 419.919 349.204 419.919C350.408 419.919 351.248 419.527 351.668 418.715L352.578 419.121C352.046 420.213 350.94 420.913 349.19 420.913ZM346.432 416.545H351.598C351.444 415.187 350.59 414.473 349.05 414.473C347.594 414.473 346.656 415.131 346.432 416.545Z" fill="#B591FF"/>
<path d="M362 420.913C359.704 420.913 358.01 420.031 357.254 418.477L358.332 417.973C358.934 419.205 360.124 419.835 362.056 419.835C363.946 419.835 365.136 419.219 365.136 418.127C365.136 415.215 357.632 417.483 357.632 413.619C357.632 411.883 359.27 410.833 361.734 410.833C363.764 410.833 365.192 411.533 365.934 412.891L364.87 413.381C364.296 412.373 363.33 411.911 361.762 411.911C359.984 411.911 358.808 412.471 358.808 413.521C358.808 416.279 366.326 413.955 366.326 418.001C366.326 419.849 364.66 420.913 362 420.913Z" fill="#B591FF"/>
<path d="M370.301 420.815C369.265 420.815 368.593 420.255 368.593 419.191V414.585H367.053V413.619H368.593V411.729L369.713 411.309V413.619H372.051V414.585H369.713V419.807H372.121V420.815H370.301Z" fill="#B591FF"/>
<path d="M373.69 420.773V413.619H374.81V415.299H374.866C375.16 414.095 375.832 413.619 376.966 413.619H378.17V414.655H376.91C375.062 414.655 374.81 415.859 374.81 417.035V420.773H373.69Z" fill="#B591FF"/>
<path d="M379.651 420.773V413.619H380.771V420.773H379.651ZM379.595 412.429V410.973H380.869V412.429H379.595Z" fill="#B591FF"/>
<path d="M386.498 420.913C384.174 420.913 382.592 419.429 382.592 417.217C382.592 414.977 384.174 413.479 386.498 413.479C388.094 413.479 389.312 414.193 389.858 415.327L388.78 415.733C388.43 414.963 387.632 414.501 386.498 414.501C384.79 414.501 383.782 415.537 383.782 417.217C383.782 418.869 384.79 419.891 386.498 419.891C387.702 419.891 388.514 419.401 388.85 418.547L389.914 418.953C389.382 420.171 388.15 420.913 386.498 420.913Z" fill="#B591FF"/>
<path d="M391.6 420.773V410.973H392.72V415.411H392.776C393.238 414.039 394.316 413.479 395.562 413.479C397.284 413.479 398.32 414.515 398.32 416.321V420.773H397.2V416.559C397.2 415.215 396.458 414.515 395.184 414.515C393.826 414.515 392.72 415.327 392.72 417.077V420.773H391.6Z" fill="#B591FF"/>
<path d="M400.555 423.573V413.619H401.675V415.453H401.731C402.179 414.235 403.327 413.479 404.811 413.479C406.855 413.479 408.269 414.977 408.269 417.203C408.269 419.429 406.855 420.913 404.811 420.913C403.327 420.913 402.193 420.185 401.745 418.967H401.675V423.573H400.555ZM404.405 419.877C406.085 419.877 407.079 418.883 407.079 417.203C407.079 415.509 406.085 414.515 404.405 414.515C402.655 414.515 401.633 415.509 401.633 417.203C401.633 418.883 402.655 419.877 404.405 419.877Z" fill="#B591FF"/>
<path d="M412.8 420.913C411.078 420.913 410.014 419.877 410.014 418.071V413.619H411.134V417.833C411.134 419.177 411.89 419.877 413.178 419.877C414.522 419.877 415.53 419.065 415.53 417.315V413.619H416.65V420.773H415.53V418.981H415.474C415.012 420.353 414.032 420.913 412.8 420.913Z" fill="#B591FF"/>
<path d="M418.971 420.773V413.619H420.091V415.411H420.147C420.609 414.039 421.687 413.479 422.933 413.479C424.655 413.479 425.691 414.515 425.691 416.321V420.773H424.571V416.559C424.571 415.215 423.829 414.515 422.555 414.515C421.197 414.515 420.091 415.327 420.091 417.077V420.773H418.971Z" fill="#B591FF"/>
<path d="M433.428 420.773L430.348 416.909L429.046 417.931V420.773H427.926V410.973H429.046V416.727L433.036 413.619H434.506L431.216 416.223L434.828 420.773H433.428Z" fill="#B591FF"/>
<path d="M438.387 420.815C437.351 420.815 436.679 420.255 436.679 419.191V414.585H435.139V413.619H436.679V411.729L437.799 411.309V413.619H440.137V414.585H437.799V419.807H440.207V420.815H438.387Z" fill="#B591FF"/>
<path d="M445.18 420.773V410.973H446.3V415.453H446.356C446.804 414.235 447.952 413.479 449.436 413.479C451.48 413.479 452.894 414.977 452.894 417.203C452.894 419.429 451.48 420.913 449.436 420.913C447.952 420.913 446.818 420.185 446.37 418.967H446.3V420.773H445.18ZM449.03 419.877C450.71 419.877 451.704 418.883 451.704 417.203C451.704 415.509 450.71 414.515 449.03 414.515C447.28 414.515 446.258 415.509 446.258 417.203C446.258 418.883 447.28 419.877 449.03 419.877Z" fill="#B591FF"/>
<path d="M454.723 420.773V413.619H455.843V415.299H455.899C456.193 414.095 456.865 413.619 457.999 413.619H459.203V414.655H457.943C456.095 414.655 455.843 415.859 455.843 417.035V420.773H454.723Z" fill="#B591FF"/>
<path d="M462.484 420.913C460.986 420.913 459.908 420.199 459.908 418.953C459.908 417.749 460.804 416.853 462.89 416.601L465.522 416.293V416.069C465.522 414.991 464.85 414.459 463.492 414.459C462.246 414.459 461.546 414.879 461.28 415.761H460.174C460.426 414.347 461.714 413.479 463.534 413.479C465.424 413.479 466.642 414.389 466.642 416.111V419.821H467.972V420.773H467.16C466.124 420.773 465.536 420.325 465.536 419.345V418.953H465.494C465.06 420.227 463.954 420.913 462.484 420.913ZM461.07 418.883C461.07 419.569 461.602 419.989 462.708 419.989C464.36 419.989 465.522 419.121 465.522 417.749V417.147L462.932 417.469C461.574 417.637 461.07 418.183 461.07 418.883Z" fill="#B591FF"/>
<path d="M469.284 420.773V413.619H470.404V415.411H470.46C470.922 414.039 472 413.479 473.246 413.479C474.968 413.479 476.004 414.515 476.004 416.321V420.773H474.884V416.559C474.884 415.215 474.142 414.515 472.868 414.515C471.51 414.515 470.404 415.327 470.404 417.077V420.773H469.284Z" fill="#B591FF"/>
<path d="M485.463 420.773H484.343V418.967H484.273C483.825 420.185 482.691 420.913 481.207 420.913C479.163 420.913 477.749 419.429 477.749 417.203C477.749 414.977 479.163 413.479 481.207 413.479C482.691 413.479 483.839 414.235 484.287 415.453H484.343V410.973H485.463V420.773ZM481.613 419.877C483.363 419.877 484.385 418.883 484.385 417.203C484.385 415.509 483.363 414.515 481.613 414.515C479.933 414.515 478.939 415.509 478.939 417.203C478.939 418.883 479.933 419.877 481.613 419.877Z" fill="#B591FF"/>
<path d="M487.264 422.411V421.795H488.272V420.759H487.544V419.359H488.958V421.277C488.958 422.061 488.608 422.411 487.768 422.411H487.264Z" fill="#B591FF"/>
<path d="M496.15 420.815C495.114 420.815 494.442 420.255 494.442 419.191V414.585H492.902V413.619H494.442V411.729L495.562 411.309V413.619H497.9V414.585H495.562V419.807H497.97V420.815H496.15Z" fill="#B591FF"/>
<path d="M499.54 420.773V410.973H500.66V415.411H500.716C501.178 414.039 502.256 413.479 503.502 413.479C505.224 413.479 506.26 414.515 506.26 416.321V420.773H505.14V416.559C505.14 415.215 504.398 414.515 503.124 414.515C501.766 414.515 500.66 415.327 500.66 417.077V420.773H499.54Z" fill="#B591FF"/>
<path d="M511.995 420.913C509.517 420.913 508.005 419.485 508.005 417.217C508.005 414.977 509.559 413.479 511.841 413.479C514.263 413.479 515.551 414.865 515.551 417.441H509.195C509.279 419.121 510.217 419.919 512.009 419.919C513.213 419.919 514.053 419.527 514.473 418.715L515.383 419.121C514.851 420.213 513.745 420.913 511.995 420.913ZM509.237 416.545H514.403C514.249 415.187 513.395 414.473 511.855 414.473C510.399 414.473 509.461 415.131 509.237 416.545Z" fill="#B591FF"/>
<path d="M522.824 420.815C521.788 420.815 521.116 420.255 521.116 419.191V414.585H519.576V413.619H521.116V411.729L522.236 411.309V413.619H524.574V414.585H522.236V419.807H524.644V420.815H522.824Z" fill="#B591FF"/>
<path d="M526.633 423.699C526.115 423.699 525.555 423.573 525.037 423.209L525.499 422.327C525.835 422.579 526.213 422.733 526.661 422.733C527.347 422.733 527.753 422.453 528.033 421.865L528.565 420.717L525.233 413.619H526.451L529.167 419.415L531.603 413.619H532.765L529.041 422.117C528.537 423.223 527.879 423.699 526.633 423.699Z" fill="#B591FF"/>
<path d="M534.211 423.573V413.619H535.331V415.453H535.387C535.835 414.235 536.983 413.479 538.467 413.479C540.511 413.479 541.925 414.977 541.925 417.203C541.925 419.429 540.511 420.913 538.467 420.913C536.983 420.913 535.849 420.185 535.401 418.967H535.331V423.573H534.211ZM538.061 419.877C539.741 419.877 540.735 418.883 540.735 417.203C540.735 415.509 539.741 414.515 538.061 414.515C536.311 414.515 535.289 415.509 535.289 417.203C535.289 418.883 536.311 419.877 538.061 419.877Z" fill="#B591FF"/>
<path d="M547.254 420.913C544.776 420.913 543.264 419.485 543.264 417.217C543.264 414.977 544.818 413.479 547.1 413.479C549.522 413.479 550.81 414.865 550.81 417.441H544.454C544.538 419.121 545.476 419.919 547.268 419.919C548.472 419.919 549.312 419.527 549.732 418.715L550.642 419.121C550.11 420.213 549.004 420.913 547.254 420.913ZM544.496 416.545H549.662C549.508 415.187 548.654 414.473 547.114 414.473C545.658 414.473 544.72 415.131 544.496 416.545Z" fill="#B591FF"/>
<path d="M553.038 412.443C553.038 411.505 553.556 410.833 554.788 410.833H556.482V411.771H554.158V413.619H556.244V414.585H554.158V420.773H553.038V414.585H551.596V413.619H553.038V412.443Z" fill="#B591FF"/>
<path d="M559.568 420.913C558.07 420.913 556.992 420.199 556.992 418.953C556.992 417.749 557.888 416.853 559.974 416.601L562.606 416.293V416.069C562.606 414.991 561.934 414.459 560.576 414.459C559.33 414.459 558.63 414.879 558.364 415.761H557.258C557.51 414.347 558.798 413.479 560.618 413.479C562.508 413.479 563.726 414.389 563.726 416.111V419.821H565.056V420.773H564.244C563.208 420.773 562.62 420.325 562.62 419.345V418.953H562.578C562.144 420.227 561.038 420.913 559.568 420.913ZM558.154 418.883C558.154 419.569 558.686 419.989 559.792 419.989C561.444 419.989 562.606 419.121 562.606 417.749V417.147L560.016 417.469C558.658 417.637 558.154 418.183 558.154 418.883Z" fill="#B591FF"/>
<path d="M569.633 420.913C567.309 420.913 565.727 419.429 565.727 417.217C565.727 414.977 567.309 413.479 569.633 413.479C571.229 413.479 572.447 414.193 572.993 415.327L571.915 415.733C571.565 414.963 570.767 414.501 569.633 414.501C567.925 414.501 566.917 415.537 566.917 417.217C566.917 418.869 567.925 419.891 569.633 419.891C570.837 419.891 571.649 419.401 571.985 418.547L573.049 418.953C572.517 420.171 571.285 420.913 569.633 420.913Z" fill="#B591FF"/>
<path d="M578.167 420.913C575.689 420.913 574.177 419.485 574.177 417.217C574.177 414.977 575.731 413.479 578.013 413.479C580.435 413.479 581.723 414.865 581.723 417.441H575.366C575.45 419.121 576.389 419.919 578.181 419.919C579.385 419.919 580.225 419.527 580.645 418.715L581.555 419.121C581.023 420.213 579.917 420.913 578.167 420.913ZM575.409 416.545H580.574C580.42 415.187 579.566 414.473 578.026 414.473C576.57 414.473 575.633 415.131 575.409 416.545Z" fill="#B591FF"/>
<path d="M160.308 437.815C159.272 437.815 158.6 437.255 158.6 436.191V431.585H157.06V430.619H158.6V428.729L159.72 428.309V430.619H162.058V431.585H159.72V436.807H162.128V437.815H160.308Z" fill="#B591FF"/>
<path d="M163.697 437.773V430.619H164.817V432.299H164.873C165.167 431.095 165.839 430.619 166.973 430.619H168.177V431.655H166.917C165.069 431.655 164.817 432.859 164.817 434.035V437.773H163.697Z" fill="#B591FF"/>
<path d="M171.457 437.913C169.959 437.913 168.881 437.199 168.881 435.953C168.881 434.749 169.777 433.853 171.863 433.601L174.495 433.293V433.069C174.495 431.991 173.823 431.459 172.465 431.459C171.219 431.459 170.519 431.879 170.253 432.761H169.147C169.399 431.347 170.687 430.479 172.507 430.479C174.397 430.479 175.615 431.389 175.615 433.111V436.821H176.945V437.773H176.133C175.097 437.773 174.509 437.325 174.509 436.345V435.953H174.467C174.033 437.227 172.927 437.913 171.457 437.913ZM170.043 435.883C170.043 436.569 170.575 436.989 171.681 436.989C173.333 436.989 174.495 436.121 174.495 434.749V434.147L171.905 434.469C170.547 434.637 170.043 435.183 170.043 435.883Z" fill="#B591FF"/>
<path d="M178.257 437.773V430.619H179.377V432.411H179.433C179.895 431.039 180.973 430.479 182.219 430.479C183.941 430.479 184.977 431.515 184.977 433.321V437.773H183.857V433.559C183.857 432.215 183.115 431.515 181.841 431.515C180.483 431.515 179.377 432.327 179.377 434.077V437.773H178.257Z" fill="#B591FF"/>
<path d="M190.194 437.913C188.318 437.913 187.044 437.255 186.568 436.023L187.604 435.631C187.912 436.527 188.878 436.961 190.25 436.961C191.538 436.961 192.294 436.541 192.294 435.813C192.294 433.909 186.82 435.561 186.82 432.607C186.82 431.277 188.038 430.479 189.984 430.479C191.608 430.479 192.742 431.053 193.232 432.131L192.21 432.523C191.86 431.781 191.062 431.431 189.956 431.431C188.724 431.431 188.01 431.837 188.01 432.537C188.01 434.385 193.47 432.761 193.47 435.715C193.47 437.087 192.21 437.913 190.194 437.913Z" fill="#B591FF"/>
<path d="M196.82 437.773C195.644 437.773 195.154 437.129 195.154 436.233V427.973H196.274V436.821H198.514V437.773H196.82Z" fill="#B591FF"/>
<path d="M201.891 437.913C200.393 437.913 199.315 437.199 199.315 435.953C199.315 434.749 200.211 433.853 202.297 433.601L204.929 433.293V433.069C204.929 431.991 204.257 431.459 202.899 431.459C201.653 431.459 200.953 431.879 200.687 432.761H199.581C199.833 431.347 201.121 430.479 202.941 430.479C204.831 430.479 206.049 431.389 206.049 433.111V436.821H207.379V437.773H206.567C205.531 437.773 204.943 437.325 204.943 436.345V435.953H204.901C204.467 437.227 203.361 437.913 201.891 437.913ZM200.477 435.883C200.477 436.569 201.009 436.989 202.115 436.989C203.767 436.989 204.929 436.121 204.929 434.749V434.147L202.339 434.469C200.981 434.637 200.477 435.183 200.477 435.883Z" fill="#B591FF"/>
<path d="M210.77 437.815C209.734 437.815 209.062 437.255 209.062 436.191V431.585H207.522V430.619H209.062V428.729L210.182 428.309V430.619H212.52V431.585H210.182V436.807H212.59V437.815H210.77Z" fill="#B591FF"/>
<path d="M217.345 437.913C214.867 437.913 213.355 436.485 213.355 434.217C213.355 431.977 214.909 430.479 217.191 430.479C219.613 430.479 220.901 431.865 220.901 434.441H214.545C214.629 436.121 215.567 436.919 217.359 436.919C218.563 436.919 219.403 436.527 219.823 435.715L220.733 436.121C220.201 437.213 219.095 437.913 217.345 437.913ZM214.587 433.545H219.753C219.599 432.187 218.745 431.473 217.205 431.473C215.749 431.473 214.811 432.131 214.587 433.545Z" fill="#B591FF"/>
<path d="M225.659 437.913C223.783 437.913 222.509 437.255 222.033 436.023L223.069 435.631C223.377 436.527 224.343 436.961 225.715 436.961C227.003 436.961 227.759 436.541 227.759 435.813C227.759 433.909 222.285 435.561 222.285 432.607C222.285 431.277 223.503 430.479 225.449 430.479C227.073 430.479 228.207 431.053 228.697 432.131L227.675 432.523C227.325 431.781 226.527 431.431 225.421 431.431C224.189 431.431 223.475 431.837 223.475 432.537C223.475 434.385 228.935 432.761 228.935 435.715C228.935 437.087 227.675 437.913 225.659 437.913Z" fill="#B591FF"/>
<path d="M236.173 437.815C235.137 437.815 234.465 437.255 234.465 436.191V431.585H232.925V430.619H234.465V428.729L235.585 428.309V430.619H237.923V431.585H235.585V436.807H237.993V437.815H236.173Z" fill="#B591FF"/>
<path d="M239.562 437.773V427.973H240.682V432.411H240.738C241.2 431.039 242.278 430.479 243.524 430.479C245.246 430.479 246.282 431.515 246.282 433.321V437.773H245.162V433.559C245.162 432.215 244.42 431.515 243.146 431.515C241.788 431.515 240.682 432.327 240.682 434.077V437.773H239.562Z" fill="#B591FF"/>
<path d="M252.017 437.913C249.539 437.913 248.027 436.485 248.027 434.217C248.027 431.977 249.581 430.479 251.863 430.479C254.285 430.479 255.573 431.865 255.573 434.441H249.217C249.301 436.121 250.239 436.919 252.031 436.919C253.235 436.919 254.075 436.527 254.495 435.715L255.405 436.121C254.873 437.213 253.767 437.913 252.017 437.913ZM249.259 433.545H254.425C254.271 432.187 253.417 431.473 251.877 431.473C250.421 431.473 249.483 432.131 249.259 433.545Z" fill="#B591FF"/>
<path d="M263.735 437.913C261.859 437.913 260.585 437.255 260.109 436.023L261.145 435.631C261.453 436.527 262.419 436.961 263.791 436.961C265.079 436.961 265.835 436.541 265.835 435.813C265.835 433.909 260.361 435.561 260.361 432.607C260.361 431.277 261.579 430.479 263.525 430.479C265.149 430.479 266.283 431.053 266.773 432.131L265.751 432.523C265.401 431.781 264.603 431.431 263.497 431.431C262.265 431.431 261.551 431.837 261.551 432.537C261.551 434.385 267.011 432.761 267.011 435.715C267.011 437.087 265.751 437.913 263.735 437.913Z" fill="#B591FF"/>
<path d="M271.077 437.815C270.041 437.815 269.369 437.255 269.369 436.191V431.585H267.829V430.619H269.369V428.729L270.489 428.309V430.619H272.827V431.585H270.489V436.807H272.897V437.815H271.077Z" fill="#B591FF"/>
<path d="M277.168 437.913C275.446 437.913 274.382 436.877 274.382 435.071V430.619H275.502V434.833C275.502 436.177 276.258 436.877 277.546 436.877C278.89 436.877 279.898 436.065 279.898 434.315V430.619H281.018V437.773H279.898V435.981H279.842C279.38 437.353 278.4 437.913 277.168 437.913Z" fill="#B591FF"/>
<path d="M290.563 437.773H289.443V435.967H289.373C288.925 437.185 287.791 437.913 286.307 437.913C284.263 437.913 282.849 436.429 282.849 434.203C282.849 431.977 284.263 430.479 286.307 430.479C287.791 430.479 288.939 431.235 289.387 432.453H289.443V427.973H290.563V437.773ZM286.713 436.877C288.463 436.877 289.485 435.883 289.485 434.203C289.485 432.509 288.463 431.515 286.713 431.515C285.033 431.515 284.039 432.509 284.039 434.203C284.039 435.883 285.033 436.877 286.713 436.877Z" fill="#B591FF"/>
<path d="M292.882 437.773V430.619H294.002V437.773H292.882ZM292.826 429.429V427.973H294.1V429.429H292.826Z" fill="#B591FF"/>
<path d="M299.73 437.913C297.406 437.913 295.824 436.429 295.824 434.217C295.824 431.977 297.406 430.479 299.73 430.479C302.068 430.479 303.65 431.977 303.65 434.217C303.65 436.429 302.068 437.913 299.73 437.913ZM299.73 436.891C301.452 436.891 302.46 435.869 302.46 434.217C302.46 432.537 301.452 431.501 299.73 431.501C298.022 431.501 297.014 432.537 297.014 434.217C297.014 435.869 298.022 436.891 299.73 436.891Z" fill="#B591FF"/>
<path d="M304.331 431.011V430.395H305.339V429.359H304.611V427.959H306.025V429.877C306.025 430.661 305.675 431.011 304.835 431.011H304.331Z" fill="#B591FF"/>
<path d="M310.343 437.913C308.467 437.913 307.193 437.255 306.717 436.023L307.753 435.631C308.061 436.527 309.027 436.961 310.399 436.961C311.687 436.961 312.443 436.541 312.443 435.813C312.443 433.909 306.969 435.561 306.969 432.607C306.969 431.277 308.187 430.479 310.133 430.479C311.757 430.479 312.891 431.053 313.381 432.131L312.359 432.523C312.009 431.781 311.211 431.431 310.105 431.431C308.873 431.431 308.159 431.837 308.159 432.537C308.159 434.385 313.619 432.761 313.619 435.715C313.619 437.087 312.359 437.913 310.343 437.913Z" fill="#B591FF"/>
<path d="M320.549 437.773L317.553 430.619H318.771L321.221 436.681H321.291L323.741 430.619H324.875L321.879 437.773H320.549Z" fill="#B591FF"/>
<path d="M326.324 437.773V430.619H327.444V437.773H326.324ZM326.268 429.429V427.973H327.542V429.429H326.268Z" fill="#B591FF"/>
<path d="M332.751 437.913C330.875 437.913 329.601 437.255 329.125 436.023L330.161 435.631C330.469 436.527 331.435 436.961 332.807 436.961C334.095 436.961 334.851 436.541 334.851 435.813C334.851 433.909 329.377 435.561 329.377 432.607C329.377 431.277 330.595 430.479 332.541 430.479C334.165 430.479 335.299 431.053 335.789 432.131L334.767 432.523C334.417 431.781 333.619 431.431 332.513 431.431C331.281 431.431 330.567 431.837 330.567 432.537C330.567 434.385 336.027 432.761 336.027 435.715C336.027 437.087 334.767 437.913 332.751 437.913Z" fill="#B591FF"/>
<path d="M340.469 437.913C338.747 437.913 337.683 436.877 337.683 435.071V430.619H338.803V434.833C338.803 436.177 339.559 436.877 340.847 436.877C342.191 436.877 343.199 436.065 343.199 434.315V430.619H344.319V437.773H343.199V435.981H343.143C342.681 437.353 341.701 437.913 340.469 437.913Z" fill="#B591FF"/>
<path d="M348.754 437.913C347.256 437.913 346.178 437.199 346.178 435.953C346.178 434.749 347.074 433.853 349.16 433.601L351.792 433.293V433.069C351.792 431.991 351.12 431.459 349.762 431.459C348.516 431.459 347.816 431.879 347.55 432.761H346.444C346.696 431.347 347.984 430.479 349.804 430.479C351.694 430.479 352.912 431.389 352.912 433.111V436.821H354.242V437.773H353.43C352.394 437.773 351.806 437.325 351.806 436.345V435.953H351.764C351.33 437.227 350.224 437.913 348.754 437.913ZM347.34 435.883C347.34 436.569 347.872 436.989 348.978 436.989C350.63 436.989 351.792 436.121 351.792 434.749V434.147L349.202 434.469C347.844 434.637 347.34 435.183 347.34 435.883Z" fill="#B591FF"/>
<path d="M357.164 437.773C355.988 437.773 355.498 437.129 355.498 436.233V427.973H356.618V436.821H358.858V437.773H357.164Z" fill="#B591FF"/>
<path d="M363.169 437.773V430.619H364.289V437.773H363.169ZM363.113 429.429V427.973H364.387V429.429H363.113Z" fill="#B591FF"/>
<path d="M373.839 437.773H372.719V435.967H372.649C372.201 437.185 371.067 437.913 369.583 437.913C367.539 437.913 366.125 436.429 366.125 434.203C366.125 431.977 367.539 430.479 369.583 430.479C371.067 430.479 372.215 431.235 372.663 432.453H372.719V427.973H373.839V437.773ZM369.989 436.877C371.739 436.877 372.761 435.883 372.761 434.203C372.761 432.509 371.739 431.515 369.989 431.515C368.309 431.515 367.315 432.509 367.315 434.203C367.315 435.883 368.309 436.877 369.989 436.877Z" fill="#B591FF"/>
<path d="M379.658 437.913C377.18 437.913 375.668 436.485 375.668 434.217C375.668 431.977 377.222 430.479 379.504 430.479C381.926 430.479 383.214 431.865 383.214 434.441H376.858C376.942 436.121 377.88 436.919 379.672 436.919C380.876 436.919 381.716 436.527 382.136 435.715L383.046 436.121C382.514 437.213 381.408 437.913 379.658 437.913ZM376.9 433.545H382.066C381.912 432.187 381.058 431.473 379.518 431.473C378.062 431.473 377.124 432.131 376.9 433.545Z" fill="#B591FF"/>
<path d="M384.99 437.773V430.619H386.11V432.411H386.166C386.628 431.039 387.706 430.479 388.952 430.479C390.674 430.479 391.71 431.515 391.71 433.321V437.773H390.59V433.559C390.59 432.215 389.848 431.515 388.574 431.515C387.216 431.515 386.11 432.327 386.11 434.077V437.773H384.99Z" fill="#B591FF"/>
<path d="M396.188 437.815C395.152 437.815 394.48 437.255 394.48 436.191V431.585H392.94V430.619H394.48V428.729L395.6 428.309V430.619H397.938V431.585H395.6V436.807H398.008V437.815H396.188Z" fill="#B591FF"/>
<path d="M399.578 437.773V430.619H400.698V437.773H399.578ZM399.522 429.429V427.973H400.796V429.429H399.522Z" fill="#B591FF"/>
<path d="M405.417 437.815C404.381 437.815 403.709 437.255 403.709 436.191V431.585H402.169V430.619H403.709V428.729L404.829 428.309V430.619H407.167V431.585H404.829V436.807H407.237V437.815H405.417Z" fill="#B591FF"/>
<path d="M409.226 440.699C408.708 440.699 408.148 440.573 407.63 440.209L408.092 439.327C408.428 439.579 408.806 439.733 409.254 439.733C409.94 439.733 410.346 439.453 410.626 438.865L411.158 437.717L407.826 430.619H409.044L411.76 436.415L414.196 430.619H415.358L411.634 439.117C411.13 440.223 410.472 440.699 409.226 440.699Z" fill="#B591FF"/>
<path d="M419.88 437.773V430.619H421V437.773H419.88ZM419.824 429.429V427.973H421.098V429.429H419.824Z" fill="#B591FF"/>
<path d="M423.326 437.773V430.619H424.446V432.411H424.502C424.964 431.039 426.042 430.479 427.288 430.479C429.01 430.479 430.046 431.515 430.046 433.321V437.773H428.926V433.559C428.926 432.215 428.184 431.515 426.91 431.515C425.552 431.515 424.446 432.327 424.446 434.077V437.773H423.326Z" fill="#B591FF"/>
<path d="M434.524 437.815C433.488 437.815 432.816 437.255 432.816 436.191V431.585H431.276V430.619H432.816V428.729L433.936 428.309V430.619H436.274V431.585H433.936V436.807H436.344V437.815H434.524Z" fill="#B591FF"/>
<path d="M441.001 437.913C438.677 437.913 437.095 436.429 437.095 434.217C437.095 431.977 438.677 430.479 441.001 430.479C443.339 430.479 444.921 431.977 444.921 434.217C444.921 436.429 443.339 437.913 441.001 437.913ZM441.001 436.891C442.723 436.891 443.731 435.869 443.731 434.217C443.731 432.537 442.723 431.501 441.001 431.501C439.293 431.501 438.285 432.537 438.285 434.217C438.285 435.869 439.293 436.891 441.001 436.891Z" fill="#B591FF"/>
<path d="M452.264 437.913C450.766 437.913 449.688 437.199 449.688 435.953C449.688 434.749 450.584 433.853 452.67 433.601L455.302 433.293V433.069C455.302 431.991 454.63 431.459 453.272 431.459C452.026 431.459 451.326 431.879 451.06 432.761H449.954C450.206 431.347 451.494 430.479 453.314 430.479C455.204 430.479 456.422 431.389 456.422 433.111V436.821H457.752V437.773H456.94C455.904 437.773 455.316 437.325 455.316 436.345V435.953H455.274C454.84 437.227 453.734 437.913 452.264 437.913ZM450.85 435.883C450.85 436.569 451.382 436.989 452.488 436.989C454.14 436.989 455.302 436.121 455.302 434.749V434.147L452.712 434.469C451.354 434.637 450.85 435.183 450.85 435.883Z" fill="#B591FF"/>
<path d="M464.302 437.815C463.266 437.815 462.594 437.255 462.594 436.191V431.585H461.054V430.619H462.594V428.729L463.714 428.309V430.619H466.052V431.585H463.714V436.807H466.122V437.815H464.302Z" fill="#B591FF"/>
<path d="M468.111 440.699C467.593 440.699 467.033 440.573 466.515 440.209L466.977 439.327C467.313 439.579 467.691 439.733 468.139 439.733C468.825 439.733 469.231 439.453 469.511 438.865L470.043 437.717L466.711 430.619H467.929L470.645 436.415L473.081 430.619H474.243L470.519 439.117C470.015 440.223 469.357 440.699 468.111 440.699Z" fill="#B591FF"/>
<path d="M475.689 440.573V430.619H476.809V432.453H476.865C477.313 431.235 478.461 430.479 479.945 430.479C481.989 430.479 483.403 431.977 483.403 434.203C483.403 436.429 481.989 437.913 479.945 437.913C478.461 437.913 477.327 437.185 476.879 435.967H476.809V440.573H475.689ZM479.539 436.877C481.219 436.877 482.213 435.883 482.213 434.203C482.213 432.509 481.219 431.515 479.539 431.515C477.789 431.515 476.767 432.509 476.767 434.203C476.767 435.883 477.789 436.877 479.539 436.877Z" fill="#B591FF"/>
<path d="M488.634 437.913C486.31 437.913 484.728 436.429 484.728 434.217C484.728 431.977 486.31 430.479 488.634 430.479C490.972 430.479 492.554 431.977 492.554 434.217C492.554 436.429 490.972 437.913 488.634 437.913ZM488.634 436.891C490.356 436.891 491.364 435.869 491.364 434.217C491.364 432.537 490.356 431.501 488.634 431.501C486.926 431.501 485.918 432.537 485.918 434.217C485.918 435.869 486.926 436.891 488.634 436.891Z" fill="#B591FF"/>
<path d="M497.654 440.713C495.946 440.713 494.672 440.181 494.042 439.229L494.798 438.613C495.4 439.383 496.31 439.761 497.654 439.761C499.418 439.761 500.454 439.075 500.454 437.899V435.883H500.398C499.95 437.017 498.872 437.703 497.402 437.703C495.302 437.703 493.888 436.261 493.888 434.105C493.888 431.949 495.302 430.507 497.402 430.507C498.858 430.507 499.95 431.179 500.398 432.355H500.454V430.619H501.574V437.885C501.574 439.621 499.964 440.713 497.654 440.713ZM497.752 436.695C499.502 436.695 500.524 435.729 500.524 434.105C500.524 432.467 499.502 431.501 497.752 431.501C496.072 431.501 495.078 432.467 495.078 434.105C495.078 435.729 496.072 436.695 497.752 436.695Z" fill="#B591FF"/>
<path d="M503.894 437.773V430.619H505.014V432.299H505.07C505.364 431.095 506.036 430.619 507.17 430.619H508.374V431.655H507.114C505.266 431.655 505.014 432.859 505.014 434.035V437.773H503.894Z" fill="#B591FF"/>
<path d="M511.655 437.913C510.157 437.913 509.079 437.199 509.079 435.953C509.079 434.749 509.975 433.853 512.061 433.601L514.693 433.293V433.069C514.693 431.991 514.021 431.459 512.663 431.459C511.417 431.459 510.717 431.879 510.451 432.761H509.345C509.597 431.347 510.885 430.479 512.705 430.479C514.595 430.479 515.813 431.389 515.813 433.111V436.821H517.143V437.773H516.331C515.295 437.773 514.707 437.325 514.707 436.345V435.953H514.665C514.231 437.227 513.125 437.913 511.655 437.913ZM510.241 435.883C510.241 436.569 510.773 436.989 511.879 436.989C513.531 436.989 514.693 436.121 514.693 434.749V434.147L512.103 434.469C510.745 434.637 510.241 435.183 510.241 435.883Z" fill="#B591FF"/>
<path d="M518.455 440.573V430.619H519.575V432.453H519.631C520.079 431.235 521.227 430.479 522.711 430.479C524.755 430.479 526.169 431.977 526.169 434.203C526.169 436.429 524.755 437.913 522.711 437.913C521.227 437.913 520.093 437.185 519.645 435.967H519.575V440.573H518.455ZM522.305 436.877C523.985 436.877 524.979 435.883 524.979 434.203C524.979 432.509 523.985 431.515 522.305 431.515C520.555 431.515 519.533 432.509 519.533 434.203C519.533 435.883 520.555 436.877 522.305 436.877Z" fill="#B591FF"/>
<path d="M527.998 437.773V427.973H529.118V432.411H529.174C529.636 431.039 530.714 430.479 531.96 430.479C533.682 430.479 534.718 431.515 534.718 433.321V437.773H533.598V433.559C533.598 432.215 532.856 431.515 531.582 431.515C530.224 431.515 529.118 432.327 529.118 434.077V437.773H527.998Z" fill="#B591FF"/>
<path d="M536.953 437.773V430.619H538.073V437.773H536.953ZM536.897 429.429V427.973H538.171V429.429H536.897Z" fill="#B591FF"/>
<path d="M543.8 437.913C541.476 437.913 539.894 436.429 539.894 434.217C539.894 431.977 541.476 430.479 543.8 430.479C545.396 430.479 546.614 431.193 547.16 432.327L546.082 432.733C545.732 431.963 544.934 431.501 543.8 431.501C542.092 431.501 541.084 432.537 541.084 434.217C541.084 435.869 542.092 436.891 543.8 436.891C545.004 436.891 545.816 436.401 546.152 435.547L547.216 435.953C546.684 437.171 545.452 437.913 543.8 437.913Z" fill="#B591FF"/>
<path d="M555.288 437.913C553.412 437.913 552.138 437.255 551.662 436.023L552.698 435.631C553.006 436.527 553.972 436.961 555.344 436.961C556.632 436.961 557.388 436.541 557.388 435.813C557.388 433.909 551.914 435.561 551.914 432.607C551.914 431.277 553.132 430.479 555.078 430.479C556.702 430.479 557.836 431.053 558.326 432.131L557.304 432.523C556.954 431.781 556.156 431.431 555.05 431.431C553.818 431.431 553.104 431.837 553.104 432.537C553.104 434.385 558.564 432.761 558.564 435.715C558.564 437.087 557.304 437.913 555.288 437.913Z" fill="#B591FF"/>
<path d="M560.519 440.699C560.001 440.699 559.441 440.573 558.923 440.209L559.385 439.327C559.721 439.579 560.099 439.733 560.547 439.733C561.233 439.733 561.639 439.453 561.919 438.865L562.451 437.717L559.119 430.619H560.337L563.053 436.415L565.489 430.619H566.651L562.927 439.117C562.423 440.223 561.765 440.699 560.519 440.699Z" fill="#B591FF"/>
<path d="M570.888 437.913C569.012 437.913 567.738 437.255 567.262 436.023L568.298 435.631C568.606 436.527 569.572 436.961 570.944 436.961C572.232 436.961 572.988 436.541 572.988 435.813C572.988 433.909 567.514 435.561 567.514 432.607C567.514 431.277 568.732 430.479 570.678 430.479C572.302 430.479 573.436 431.053 573.926 432.131L572.904 432.523C572.554 431.781 571.756 431.431 570.65 431.431C569.418 431.431 568.704 431.837 568.704 432.537C568.704 434.385 574.164 432.761 574.164 435.715C574.164 437.087 572.904 437.913 570.888 437.913Z" fill="#B591FF"/>
<path d="M578.229 437.815C577.193 437.815 576.521 437.255 576.521 436.191V431.585H574.981V430.619H576.521V428.729L577.641 428.309V430.619H579.979V431.585H577.641V436.807H580.049V437.815H578.229Z" fill="#B591FF"/>
<path d="M584.804 437.913C582.326 437.913 580.814 436.485 580.814 434.217C580.814 431.977 582.368 430.479 584.65 430.479C587.072 430.479 588.36 431.865 588.36 434.441H582.004C582.088 436.121 583.026 436.919 584.818 436.919C586.022 436.919 586.862 436.527 587.282 435.715L588.192 436.121C587.66 437.213 586.554 437.913 584.804 437.913ZM582.046 433.545H587.212C587.058 432.187 586.204 431.473 584.664 431.473C583.208 431.473 582.27 432.131 582.046 433.545Z" fill="#B591FF"/>
<path d="M590.136 437.773V430.619H591.256V432.411H591.326C591.802 431.039 592.768 430.479 594 430.479C595.456 430.479 596.38 431.221 596.632 432.537H596.688C597.164 431.067 598.186 430.479 599.46 430.479C601.182 430.479 602.176 431.515 602.176 433.321V437.773H601.056V433.559C601.056 432.215 600.384 431.515 599.11 431.515C597.752 431.515 596.716 432.327 596.716 434.077V437.773H595.596V433.559C595.596 432.215 594.924 431.515 593.65 431.515C592.292 431.515 591.256 432.327 591.256 434.077V437.773H590.136Z" fill="#B591FF"/>
<path d="M248.102 454.815C247.066 454.815 246.394 454.255 246.394 453.191V448.585H244.854V447.619H246.394V445.729L247.514 445.309V447.619H249.852V448.585H247.514V453.807H249.922V454.815H248.102Z" fill="#B591FF"/>
<path d="M251.491 454.773V444.973H252.611V449.411H252.667C253.129 448.039 254.207 447.479 255.453 447.479C257.175 447.479 258.211 448.515 258.211 450.321V454.773H257.091V450.559C257.091 449.215 256.349 448.515 255.075 448.515C253.717 448.515 252.611 449.327 252.611 451.077V454.773H251.491Z" fill="#B591FF"/>
<path d="M262.56 454.913C261.062 454.913 259.984 454.199 259.984 452.953C259.984 451.749 260.88 450.853 262.966 450.601L265.598 450.293V450.069C265.598 448.991 264.926 448.459 263.568 448.459C262.322 448.459 261.622 448.879 261.356 449.761H260.25C260.502 448.347 261.79 447.479 263.61 447.479C265.5 447.479 266.718 448.389 266.718 450.111V453.821H268.048V454.773H267.236C266.2 454.773 265.612 454.325 265.612 453.345V452.953H265.57C265.136 454.227 264.03 454.913 262.56 454.913ZM261.146 452.883C261.146 453.569 261.678 453.989 262.784 453.989C264.436 453.989 265.598 453.121 265.598 451.749V451.147L263.008 451.469C261.65 451.637 261.146 452.183 261.146 452.883Z" fill="#B591FF"/>
<path d="M271.439 454.815C270.403 454.815 269.731 454.255 269.731 453.191V448.585H268.191V447.619H269.731V445.729L270.851 445.309V447.619H273.189V448.585H270.851V453.807H273.259V454.815H271.439Z" fill="#B591FF"/>
<path d="M281.733 454.913C279.255 454.913 277.743 453.485 277.743 451.217C277.743 448.977 279.297 447.479 281.579 447.479C284.001 447.479 285.289 448.865 285.289 451.441H278.933C279.017 453.121 279.955 453.919 281.747 453.919C282.951 453.919 283.791 453.527 284.211 452.715L285.121 453.121C284.589 454.213 283.483 454.913 281.733 454.913ZM278.975 450.545H284.141C283.987 449.187 283.133 448.473 281.593 448.473C280.137 448.473 279.199 449.131 278.975 450.545Z" fill="#B591FF"/>
<path d="M287.065 454.773V447.619H288.185V449.411H288.255C288.731 448.039 289.697 447.479 290.929 447.479C292.385 447.479 293.309 448.221 293.561 449.537H293.617C294.093 448.067 295.115 447.479 296.389 447.479C298.111 447.479 299.105 448.515 299.105 450.321V454.773H297.985V450.559C297.985 449.215 297.313 448.515 296.039 448.515C294.681 448.515 293.645 449.327 293.645 451.077V454.773H292.525V450.559C292.525 449.215 291.853 448.515 290.579 448.515C289.221 448.515 288.185 449.327 288.185 451.077V454.773H287.065Z" fill="#B591FF"/>
<path d="M301.338 454.773V444.973H302.458V449.453H302.514C302.962 448.235 304.11 447.479 305.594 447.479C307.638 447.479 309.052 448.977 309.052 451.203C309.052 453.429 307.638 454.913 305.594 454.913C304.11 454.913 302.976 454.185 302.528 452.967H302.458V454.773H301.338ZM305.188 453.877C306.868 453.877 307.862 452.883 307.862 451.203C307.862 449.509 306.868 448.515 305.188 448.515C303.438 448.515 302.416 449.509 302.416 451.203C302.416 452.883 303.438 453.877 305.188 453.877Z" fill="#B591FF"/>
<path d="M314.283 454.913C311.959 454.913 310.377 453.429 310.377 451.217C310.377 448.977 311.959 447.479 314.283 447.479C316.621 447.479 318.203 448.977 318.203 451.217C318.203 453.429 316.621 454.913 314.283 454.913ZM314.283 453.891C316.005 453.891 317.013 452.869 317.013 451.217C317.013 449.537 316.005 448.501 314.283 448.501C312.575 448.501 311.567 449.537 311.567 451.217C311.567 452.869 312.575 453.891 314.283 453.891Z" fill="#B591FF"/>
<path d="M327.252 454.773H326.132V452.967H326.062C325.614 454.185 324.48 454.913 322.996 454.913C320.952 454.913 319.538 453.429 319.538 451.203C319.538 448.977 320.952 447.479 322.996 447.479C324.48 447.479 325.628 448.235 326.076 449.453H326.132V444.973H327.252V454.773ZM323.402 453.877C325.152 453.877 326.174 452.883 326.174 451.203C326.174 449.509 325.152 448.515 323.402 448.515C321.722 448.515 320.728 449.509 320.728 451.203C320.728 452.883 321.722 453.877 323.402 453.877Z" fill="#B591FF"/>
<path d="M329.571 454.773V447.619H330.691V454.773H329.571ZM329.515 446.429V444.973H330.789V446.429H329.515Z" fill="#B591FF"/>
<path d="M336.516 454.913C334.038 454.913 332.526 453.485 332.526 451.217C332.526 448.977 334.08 447.479 336.362 447.479C338.784 447.479 340.072 448.865 340.072 451.441H333.716C333.8 453.121 334.738 453.919 336.53 453.919C337.734 453.919 338.574 453.527 338.994 452.715L339.904 453.121C339.372 454.213 338.266 454.913 336.516 454.913ZM333.758 450.545H338.924C338.77 449.187 337.916 448.473 336.376 448.473C334.92 448.473 333.982 449.131 333.758 450.545Z" fill="#B591FF"/>
<path d="M344.83 454.913C342.954 454.913 341.68 454.255 341.204 453.023L342.24 452.631C342.548 453.527 343.514 453.961 344.886 453.961C346.174 453.961 346.93 453.541 346.93 452.813C346.93 450.909 341.456 452.561 341.456 449.607C341.456 448.277 342.674 447.479 344.62 447.479C346.244 447.479 347.378 448.053 347.868 449.131L346.846 449.523C346.496 448.781 345.698 448.431 344.592 448.431C343.36 448.431 342.646 448.837 342.646 449.537C342.646 451.385 348.106 449.761 348.106 452.715C348.106 454.087 346.846 454.913 344.83 454.913Z" fill="#B591FF"/>
<path d="M355.344 454.815C354.308 454.815 353.636 454.255 353.636 453.191V448.585H352.096V447.619H353.636V445.729L354.756 445.309V447.619H357.094V448.585H354.756V453.807H357.164V454.815H355.344Z" fill="#B591FF"/>
<path d="M358.733 454.773V444.973H359.853V449.411H359.909C360.371 448.039 361.449 447.479 362.695 447.479C364.417 447.479 365.453 448.515 365.453 450.321V454.773H364.333V450.559C364.333 449.215 363.591 448.515 362.317 448.515C360.959 448.515 359.853 449.327 359.853 451.077V454.773H358.733Z" fill="#B591FF"/>
<path d="M371.188 454.913C368.71 454.913 367.198 453.485 367.198 451.217C367.198 448.977 368.752 447.479 371.034 447.479C373.456 447.479 374.744 448.865 374.744 451.441H368.388C368.472 453.121 369.41 453.919 371.202 453.919C372.406 453.919 373.246 453.527 373.666 452.715L374.576 453.121C374.044 454.213 372.938 454.913 371.188 454.913ZM368.43 450.545H373.596C373.442 449.187 372.588 448.473 371.048 448.473C369.592 448.473 368.654 449.131 368.43 450.545Z" fill="#B591FF"/>
<path d="M383.998 454.913C381.702 454.913 380.008 454.031 379.252 452.477L380.33 451.973C380.932 453.205 382.122 453.835 384.054 453.835C385.944 453.835 387.134 453.219 387.134 452.127C387.134 449.215 379.63 451.483 379.63 447.619C379.63 445.883 381.268 444.833 383.732 444.833C385.762 444.833 387.19 445.533 387.932 446.891L386.868 447.381C386.294 446.373 385.328 445.911 383.76 445.911C381.982 445.911 380.806 446.471 380.806 447.521C380.806 450.279 388.324 447.955 388.324 452.001C388.324 453.849 386.658 454.913 383.998 454.913Z" fill="#B591FF"/>
<path d="M392.299 454.815C391.263 454.815 390.591 454.255 390.591 453.191V448.585H389.051V447.619H390.591V445.729L391.711 445.309V447.619H394.049V448.585H391.711V453.807H394.119V454.815H392.299Z" fill="#B591FF"/>
<path d="M395.688 454.773V447.619H396.808V449.299H396.864C397.158 448.095 397.83 447.619 398.964 447.619H400.168V448.655H398.908C397.06 448.655 396.808 449.859 396.808 451.035V454.773H395.688Z" fill="#B591FF"/>
<path d="M401.649 454.773V447.619H402.769V454.773H401.649ZM401.593 446.429V444.973H402.867V446.429H401.593Z" fill="#B591FF"/>
<path d="M408.496 454.913C406.172 454.913 404.59 453.429 404.59 451.217C404.59 448.977 406.172 447.479 408.496 447.479C410.092 447.479 411.31 448.193 411.856 449.327L410.778 449.733C410.428 448.963 409.63 448.501 408.496 448.501C406.788 448.501 405.78 449.537 405.78 451.217C405.78 452.869 406.788 453.891 408.496 453.891C409.7 453.891 410.512 453.401 410.848 452.547L411.912 452.953C411.38 454.171 410.148 454.913 408.496 454.913Z" fill="#B591FF"/>
<path d="M413.598 454.773V444.973H414.718V449.411H414.774C415.236 448.039 416.314 447.479 417.56 447.479C419.282 447.479 420.318 448.515 420.318 450.321V454.773H419.198V450.559C419.198 449.215 418.456 448.515 417.182 448.515C415.824 448.515 414.718 449.327 414.718 451.077V454.773H413.598Z" fill="#B591FF"/>
<path d="M422.553 457.573V447.619H423.673V449.453H423.729C424.177 448.235 425.325 447.479 426.809 447.479C428.853 447.479 430.267 448.977 430.267 451.203C430.267 453.429 428.853 454.913 426.809 454.913C425.325 454.913 424.191 454.185 423.743 452.967H423.673V457.573H422.553ZM426.403 453.877C428.083 453.877 429.077 452.883 429.077 451.203C429.077 449.509 428.083 448.515 426.403 448.515C424.653 448.515 423.631 449.509 423.631 451.203C423.631 452.883 424.653 453.877 426.403 453.877Z" fill="#B591FF"/>
<path d="M434.798 454.913C433.076 454.913 432.012 453.877 432.012 452.071V447.619H433.132V451.833C433.132 453.177 433.888 453.877 435.176 453.877C436.52 453.877 437.528 453.065 437.528 451.315V447.619H438.648V454.773H437.528V452.981H437.472C437.01 454.353 436.03 454.913 434.798 454.913Z" fill="#B591FF"/>
<path d="M440.969 454.773V447.619H442.089V449.411H442.145C442.607 448.039 443.685 447.479 444.931 447.479C446.653 447.479 447.689 448.515 447.689 450.321V454.773H446.569V450.559C446.569 449.215 445.827 448.515 444.553 448.515C443.195 448.515 442.089 449.327 442.089 451.077V454.773H440.969Z" fill="#B591FF"/>
<path d="M455.426 454.773L452.346 450.909L451.044 451.931V454.773H449.924V444.973H451.044V450.727L455.034 447.619H456.504L453.214 450.223L456.826 454.773H455.426Z" fill="#B591FF"/>
<path d="M460.385 454.815C459.349 454.815 458.677 454.255 458.677 453.191V448.585H457.137V447.619H458.677V445.729L459.797 445.309V447.619H462.135V448.585H459.797V453.807H462.205V454.815H460.385Z" fill="#B591FF"/>
<path d="M468.964 454.773L465.968 447.619H467.186L469.636 453.681H469.706L472.156 447.619H473.29L470.294 454.773H468.964Z" fill="#B591FF"/>
<path d="M476.484 454.913C474.986 454.913 473.908 454.199 473.908 452.953C473.908 451.749 474.804 450.853 476.89 450.601L479.522 450.293V450.069C479.522 448.991 478.85 448.459 477.492 448.459C476.246 448.459 475.546 448.879 475.28 449.761H474.174C474.426 448.347 475.714 447.479 477.534 447.479C479.424 447.479 480.642 448.389 480.642 450.111V453.821H481.972V454.773H481.16C480.124 454.773 479.536 454.325 479.536 453.345V452.953H479.494C479.06 454.227 477.954 454.913 476.484 454.913ZM475.07 452.883C475.07 453.569 475.602 453.989 476.708 453.989C478.36 453.989 479.522 453.121 479.522 451.749V451.147L476.932 451.469C475.574 451.637 475.07 452.183 475.07 452.883Z" fill="#B591FF"/>
<path d="M484.894 454.773C483.718 454.773 483.228 454.129 483.228 453.233V444.973H484.348V453.821H486.588V454.773H484.894Z" fill="#B591FF"/>
<path d="M490.388 454.913C488.666 454.913 487.602 453.877 487.602 452.071V447.619H488.722V451.833C488.722 453.177 489.478 453.877 490.766 453.877C492.11 453.877 493.118 453.065 493.118 451.315V447.619H494.238V454.773H493.118V452.981H493.062C492.6 454.353 491.62 454.913 490.388 454.913Z" fill="#B591FF"/>
<path d="M500.059 454.913C497.581 454.913 496.069 453.485 496.069 451.217C496.069 448.977 497.623 447.479 499.905 447.479C502.327 447.479 503.615 448.865 503.615 451.441H497.259C497.343 453.121 498.281 453.919 500.073 453.919C501.277 453.919 502.117 453.527 502.537 452.715L503.447 453.121C502.915 454.213 501.809 454.913 500.059 454.913ZM497.301 450.545H502.467C502.313 449.187 501.459 448.473 499.919 448.473C498.463 448.473 497.525 449.131 497.301 450.545Z" fill="#B591FF"/>
<path d="M508.373 454.913C506.497 454.913 505.223 454.255 504.747 453.023L505.783 452.631C506.091 453.527 507.057 453.961 508.429 453.961C509.717 453.961 510.473 453.541 510.473 452.813C510.473 450.909 504.999 452.561 504.999 449.607C504.999 448.277 506.217 447.479 508.163 447.479C509.787 447.479 510.921 448.053 511.411 449.131L510.389 449.523C510.039 448.781 509.241 448.431 508.135 448.431C506.903 448.431 506.189 448.837 506.189 449.537C506.189 451.385 511.649 449.761 511.649 452.715C511.649 454.087 510.389 454.913 508.373 454.913Z" fill="#B591FF"/>
<path d="M513.123 454.773V453.359H514.551V454.773H513.123Z" fill="#B591FF"/>
</svg>
