<svg width="760" height="506" viewBox="0 0 760 506" fill="none" xmlns="http://www.w3.org/2000/svg">
<rect width="760" height="506" fill="#B9B9B9"/>
<g clip-path="url(#clip0_3466_848)">
<rect width="760" height="506" fill="black"/>
<path d="M251.85 90.9999V23.6666H214.299V0.358887H321.385V23.6666H283.963V90.9999H251.85Z" fill="white"/>
<path d="M402.303 90.9999V57.4627H360.091V90.9999H326.812V0.358887H360.091V34.155H402.303V0.358887H435.582V90.9999H402.303Z" fill="white"/>
<path d="M445.172 90.9999V0.358887H542.805V23.9256H478.45V34.673H523.511V56.2974H478.45V67.4333H544.1V90.9999H445.172Z" fill="white"/>
<path d="M51.2727 195V104.359H148.388V127.926H84.5509V143.464H129.354V166.124H84.5509V195H51.2727Z" fill="white"/>
<path d="M207.43 196.165C174.54 196.165 152.916 181.145 152.916 152.269V104.359H186.194V149.809C186.194 165.088 194.611 172.081 208.725 172.081C223.357 172.081 231.903 165.088 231.903 149.809V104.359H262.592V152.269C262.592 181.145 240.579 196.165 207.43 196.165Z" fill="white"/>
<path d="M304.581 195V127.667H267.03V104.359H374.116V127.667H336.694V195H304.581Z" fill="white"/>
<path d="M433.021 196.165C400.131 196.165 378.507 181.145 378.507 152.269V104.359H411.785V149.809C411.785 165.088 420.202 172.081 434.316 172.081C448.948 172.081 457.494 165.088 457.494 149.809V104.359H488.183V152.269C488.183 181.145 466.17 196.165 433.021 196.165Z" fill="white"/>
<path d="M496.764 195V104.359H567.723C591.29 104.359 603.85 113.035 603.85 126.631C603.85 139.45 592.714 146.442 570.442 148.255V148.514H581.837C598.023 148.514 604.627 156.413 604.627 168.714V195H571.349V169.232H530.042V195H496.764ZM530.042 146.572H559.048C566.169 146.572 570.572 142.558 570.572 135.954C570.572 130.386 566.169 126.89 559.048 126.89H530.042V146.572Z" fill="white"/>
<path d="M612.342 195V104.359H709.975V127.926H645.62V138.673H690.681V160.297H645.62V171.433H711.27V195H612.342Z" fill="white"/>
<path d="M-20.0464 299V208.359H52.4664C72.7959 208.359 82.5075 214.963 82.5075 227.135C82.5075 238.529 73.9613 244.356 55.3152 245.91V246.169C77.069 247.852 87.0395 255.233 87.0395 271.808C87.0395 287.217 74.6087 299 55.3152 299H-20.0464ZM13.2318 276.34H45.0857C49.6177 276.34 52.5959 273.232 52.5959 268.311C52.5959 263.909 49.7472 261.06 45.0857 261.06H13.2318V276.34ZM13.2318 245.392H40.9421C45.7331 245.392 48.7113 242.802 48.7113 238.27C48.7113 233.738 45.7331 231.149 40.9421 231.149H13.2318V245.392Z" fill="white"/>
<path d="M91.7375 299V208.359H189.371V231.926H125.016V242.673H170.077V264.297H125.016V275.433H190.666V299H91.7375Z" fill="white"/>
<path d="M197.705 299V208.359H230.983V275.692H290.029V299H197.705Z" fill="white"/>
<path d="M348.651 300.295C312.395 300.295 288.181 281.649 288.181 253.809C288.181 225.71 312.395 207.064 348.651 207.064C384.908 207.064 409.122 225.71 409.122 253.809C409.122 281.649 384.908 300.295 348.651 300.295ZM348.651 276.21C363.931 276.21 374.16 267.535 374.16 253.809C374.16 239.954 363.931 231.149 348.651 231.149C333.372 231.149 323.142 239.954 323.142 253.809C323.142 267.535 333.372 276.21 348.651 276.21Z" fill="white"/>
<path d="M415.961 299V208.359H454.937L493.395 253.161H494.042V208.359H523.824V299H497.409L446.52 243.191H445.743V299H415.961Z" fill="white"/>
<path d="M577.72 300.295C547.42 300.295 530.846 281.519 530.846 253.809C530.846 225.322 554.93 207.064 592.352 207.064C614.494 207.064 631.846 213.279 642.723 224.545L620.969 241.767C615.401 234.256 604.524 231.149 593.647 231.149C576.425 231.149 565.807 239.306 565.807 253.291C565.807 267.276 574.353 276.469 592.741 276.469C605.042 276.469 616.178 272.585 619.674 265.592H588.985V247.335H647.773V299H620.192V271.937H619.933C615.919 290.195 599.474 300.295 577.72 300.295Z" fill="white"/>
<path d="M709.326 300.295C686.795 300.295 664.135 294.597 650.409 285.922L660.25 265.592C673.328 273.361 691.974 278.152 709.844 278.152C719.685 278.152 724.476 276.599 724.476 273.361C724.476 261.319 656.236 274.397 656.236 237.235C656.236 217.941 674.105 207.064 705.441 207.064C725.123 207.064 744.934 211.596 757.754 218.847L747.783 239.436C735.741 233.091 719.684 229.206 704.276 229.206C694.564 229.206 690.291 230.76 690.291 233.609C690.291 244.615 760.344 232.314 760.344 269.606C760.344 289.159 741.827 300.295 709.326 300.295Z" fill="white"/>
<path d="M126.979 403V335.667H89.4275V312.359H196.513V335.667H159.092V403H126.979Z" fill="white"/>
<path d="M254.634 404.295C218.377 404.295 194.163 385.649 194.163 357.809C194.163 329.71 218.377 311.064 254.634 311.064C290.89 311.064 315.104 329.71 315.104 357.809C315.104 385.649 290.89 404.295 254.634 404.295ZM254.634 380.21C269.913 380.21 280.143 371.535 280.143 357.809C280.143 343.954 269.913 335.149 254.634 335.149C239.354 335.149 229.125 343.954 229.125 357.809C229.125 371.535 239.354 380.21 254.634 380.21Z" fill="white"/>
<path d="M376.722 403V335.667H339.171V312.359H446.257V335.667H408.835V403H376.722Z" fill="white"/>
<path d="M527.175 403V369.463H484.962V403H451.684V312.359H484.962V346.155H527.175V312.359H560.453V403H527.175Z" fill="white"/>
<path d="M570.043 403V312.359H667.677V335.926H603.322V346.673H648.383V368.297H603.322V379.433H668.972V403H570.043Z" fill="white"/>
<path d="M111.59 507V416.359H184.103C204.433 416.359 214.144 422.963 214.144 435.135C214.144 446.529 205.598 452.356 186.952 453.91V454.169C208.706 455.852 218.676 463.233 218.676 479.808C218.676 495.217 206.246 507 186.952 507H111.59ZM144.869 484.34H176.723C181.255 484.34 184.233 481.232 184.233 476.311C184.233 471.909 181.384 469.06 176.723 469.06H144.869V484.34ZM144.869 453.392H172.579C177.37 453.392 180.348 450.802 180.348 446.27C180.348 441.738 177.37 439.149 172.579 439.149H144.869V453.392Z" fill="white"/>
<path d="M223.374 507V416.359H294.333C317.9 416.359 330.46 425.035 330.46 438.631C330.46 451.45 319.324 458.442 297.053 460.255V460.514H308.447C324.633 460.514 331.237 468.413 331.237 480.714V507H297.959V481.232H256.653V507H223.374ZM256.653 458.572H285.658C292.779 458.572 297.182 454.558 297.182 447.954C297.182 442.386 292.779 438.89 285.658 438.89H256.653V458.572Z" fill="white"/>
<path d="M333.384 507L374.302 416.359H413.148L455.879 507H420.788L413.666 490.944H371.324L364.59 507H333.384ZM379.87 470.355H404.602L391.912 441.35L379.87 470.355Z" fill="white"/>
<path d="M475.527 507L431.372 416.359H468.276L490.807 465.564H491.584L514.115 416.359H548.558L504.532 507H475.527Z" fill="white"/>
<path d="M552.024 507V416.359H649.657V439.926H585.302V450.673H630.364V472.297H585.302V483.433H650.952V507H552.024Z" fill="white"/>
<rect x="323.653" y="162.614" width="180.353" height="50.3554" rx="4.36773" transform="rotate(-11.7131 323.653 162.614)" fill="#B591FF"/>
<path d="M357.094 189.985L354.403 177.01L347.462 178.449L347.013 176.286L363.492 172.87L363.94 175.033L357.042 176.463L359.732 189.438L357.094 189.985Z" fill="black"/>
<path d="M374.828 186.309L373.55 180.145L363.969 172.771L367.04 172.134L374.464 177.7L379.063 169.642L382.048 169.023L376.205 179.572L377.488 185.757L374.828 186.309Z" fill="black"/>
<path d="M387.081 183.768L383.942 168.63L393.22 166.707C397.026 165.917 399.416 167.001 400.048 170.05C400.694 173.164 398.941 175.152 395.134 175.941L388.517 177.313L389.741 183.217L387.081 183.768ZM388.087 175.237L394.358 173.936C396.78 173.434 397.687 172.367 397.328 170.637C396.983 168.971 395.74 168.417 393.318 168.919L387.046 170.219L388.087 175.237Z" fill="black"/>
<path d="M404.525 180.151L401.387 165.013L416.092 161.964L416.55 164.17L404.504 166.668L405.343 170.712L413.344 169.053L413.783 171.172L405.782 172.831L406.728 177.394L418.99 174.852L419.447 177.058L404.525 180.151Z" fill="black"/>
<path d="M421.822 176.565L418.683 161.427L433.389 158.378L433.846 160.584L421.8 163.082L422.715 167.493L431.928 165.583L432.376 167.746L423.164 169.656L424.482 176.014L421.822 176.565Z" fill="black"/>
<path d="M433.971 174.046L438.51 157.317L441.624 156.671L452.504 170.204L449.693 170.787L446.581 166.876L437.844 168.687L436.566 173.508L433.971 174.046ZM438.431 166.513L445.179 165.114L440.415 159.11L438.431 166.513Z" fill="black"/>
<path d="M461.679 168.527C456.23 169.657 451.973 167.292 451.009 162.642C450.036 157.949 453.001 154.087 458.451 152.957C462.495 152.118 465.821 153.256 467.588 156.228L465.205 157.466C464.03 155.386 461.763 154.571 458.908 155.163C455.081 155.956 453.038 158.725 453.733 162.077C454.424 165.408 457.394 167.115 461.222 166.321C464.098 165.725 465.888 164.023 466.114 161.631L468.77 161.824C468.4 165.262 465.81 167.671 461.679 168.527Z" fill="black"/>
<path d="M472.19 166.122L469.052 150.984L483.757 147.936L484.215 150.141L472.169 152.639L473.008 156.683L481.009 155.024L481.449 157.143L473.447 158.802L474.393 163.365L486.655 160.823L487.112 163.029L472.19 166.122Z" fill="black"/>
<rect x="297.849" y="411.799" width="184.427" height="48.4598" rx="4.36773" transform="rotate(7.83406 297.849 411.799)" fill="#B591FF"/>
<path d="M312.719 446.091L314.826 430.775L329.704 432.822L329.397 435.054L317.21 433.377L316.647 437.468L324.743 438.582L324.448 440.726L316.352 439.613L315.717 444.229L328.123 445.936L327.816 448.168L312.719 446.091Z" fill="black"/>
<path d="M336.629 449.38L330.728 432.963L333.813 433.387L338.307 445.933L338.46 445.954L346.175 435.088L348.998 435.477L338.861 449.687L336.629 449.38Z" fill="black"/>
<path d="M348.829 451.059L350.936 435.743L365.814 437.79L365.507 440.022L353.32 438.345L352.757 442.437L360.853 443.551L360.558 445.695L352.462 444.581L351.827 449.197L364.233 450.904L363.926 453.136L348.829 451.059Z" fill="black"/>
<path d="M366.328 453.467L368.435 438.151L378.609 439.551C382.132 440.035 383.927 441.732 383.62 443.963C383.349 445.932 381.637 447.034 378.769 446.974L378.763 447.018L380.514 447.259C382.527 447.536 383.411 448.728 383.149 450.631L382.453 455.685L379.762 455.315L380.611 449.145L369.868 447.667L369.019 453.837L366.328 453.467ZM370.169 445.479L377.258 446.454C379.315 446.737 380.609 445.756 380.814 444.268C381.004 442.89 380.127 441.967 378.092 441.687L370.828 440.687L370.169 445.479Z" fill="black"/>
<path d="M390.575 456.803L391.433 450.567L384.871 440.412L387.978 440.84L393.112 448.569L400.143 442.514L403.163 442.929L394.127 450.915L393.266 457.173L390.575 456.803Z" fill="black"/>
<path d="M410.051 459.705C404.274 458.911 400.816 455.202 401.464 450.498C402.111 445.794 406.442 443.157 412.218 443.952C417.994 444.747 421.409 448.449 420.761 453.153C420.114 457.857 415.827 460.5 410.051 459.705ZM410.355 457.495C414.468 458.061 417.538 456.165 418.005 452.774C418.471 449.383 416.027 446.728 411.914 446.162C407.757 445.59 404.687 447.486 404.22 450.877C403.754 454.269 406.198 456.924 410.355 457.495Z" fill="black"/>
<path d="M422.416 461.184L424.523 445.868L428.09 446.359L436.515 458.843L436.603 458.855L438.132 447.74L440.648 448.087L438.541 463.402L436.397 463.107L426.757 448.917L426.669 448.905L424.932 461.53L422.416 461.184Z" fill="black"/>
<path d="M442.095 463.891L444.202 448.576L459.08 450.623L458.773 452.854L446.586 451.178L446.023 455.269L454.119 456.383L453.824 458.527L445.728 457.413L445.093 462.03L457.499 463.737L457.192 465.968L442.095 463.891Z" fill="black"/>
</g>
<defs>
<clipPath id="clip0_3466_848">
<rect width="760" height="506" fill="white"/>
</clipPath>
</defs>
</svg>
