<svg width="760" height="506" viewBox="0 0 760 506" fill="none" xmlns="http://www.w3.org/2000/svg">
<rect width="760" height="506" fill="#B9B9B9"/>
<g clip-path="url(#clip0_3466_848)">
<rect width="760" height="506" fill="black"/>
<path d="M251.85 90.9999V23.6666H214.299V0.358887H321.385V23.6666H283.963V90.9999H251.85Z" fill="white"/>
<path d="M402.303 90.9999V57.4627H360.091V90.9999H326.812V0.358887H360.091V34.155H402.303V0.358887H435.582V90.9999H402.303Z" fill="white"/>
<path d="M445.172 90.9999V0.358887H542.805V23.9256H478.45V34.673H523.511V56.2974H478.45V67.4333H544.1V90.9999H445.172Z" fill="white"/>
<path d="M51.2727 195V104.359H148.388V127.926H84.5509V143.464H129.354V166.124H84.5509V195H51.2727Z" fill="white"/>
<path d="M207.43 196.165C174.54 196.165 152.916 181.145 152.916 152.269V104.359H186.194V149.809C186.194 165.088 194.611 172.081 208.725 172.081C223.357 172.081 231.903 165.088 231.903 149.809V104.359H262.592V152.269C262.592 181.145 240.579 196.165 207.43 196.165Z" fill="white"/>
<path d="M304.581 195V127.667H267.03V104.359H374.116V127.667H336.694V195H304.581Z" fill="white"/>
<path d="M433.021 196.165C400.131 196.165 378.507 181.145 378.507 152.269V104.359H411.785V149.809C411.785 165.088 420.202 172.081 434.316 172.081C448.948 172.081 457.494 165.088 457.494 149.809V104.359H488.183V152.269C488.183 181.145 466.17 196.165 433.021 196.165Z" fill="white"/>
<path d="M496.764 195V104.359H567.723C591.29 104.359 603.85 113.035 603.85 126.631C603.85 139.45 592.714 146.442 570.442 148.255V148.514H581.837C598.023 148.514 604.627 156.413 604.627 168.714V195H571.349V169.232H530.042V195H496.764ZM530.042 146.572H559.048C566.169 146.572 570.572 142.558 570.572 135.954C570.572 130.386 566.169 126.89 559.048 126.89H530.042V146.572Z" fill="white"/>
<path d="M612.342 195V104.359H709.975V127.926H645.62V138.673H690.681V160.297H645.62V171.433H711.27V195H612.342Z" fill="white"/>
<path d="M-20.0464 299V208.359H52.4664C72.7959 208.359 82.5075 214.963 82.5075 227.135C82.5075 238.529 73.9613 244.356 55.3152 245.91V246.169C77.069 247.852 87.0395 255.233 87.0395 271.808C87.0395 287.217 74.6087 299 55.3152 299H-20.0464ZM13.2318 276.34H45.0857C49.6177 276.34 52.5959 273.232 52.5959 268.311C52.5959 263.909 49.7472 261.06 45.0857 261.06H13.2318V276.34ZM13.2318 245.392H40.9421C45.7331 245.392 48.7113 242.802 48.7113 238.27C48.7113 233.738 45.7331 231.149 40.9421 231.149H13.2318V245.392Z" fill="white"/>
<path d="M91.7375 299V208.359H189.371V231.926H125.016V242.673H170.077V264.297H125.016V275.433H190.666V299H91.7375Z" fill="white"/>
<path d="M197.705 299V208.359H230.983V275.692H290.029V299H197.705Z" fill="white"/>
<path d="M348.651 300.295C312.395 300.295 288.181 281.649 288.181 253.809C288.181 225.71 312.395 207.064 348.651 207.064C384.908 207.064 409.122 225.71 409.122 253.809C409.122 281.649 384.908 300.295 348.651 300.295ZM348.651 276.21C363.931 276.21 374.16 267.535 374.16 253.809C374.16 239.954 363.931 231.149 348.651 231.149C333.372 231.149 323.142 239.954 323.142 253.809C323.142 267.535 333.372 276.21 348.651 276.21Z" fill="white"/>
<path d="M415.961 299V208.359H454.937L493.395 253.161H494.042V208.359H523.824V299H497.409L446.52 243.191H445.743V299H415.961Z" fill="white"/>
<path d="M577.72 300.295C547.42 300.295 530.846 281.519 530.846 253.809C530.846 225.322 554.93 207.064 592.352 207.064C614.494 207.064 631.846 213.279 642.723 224.545L620.969 241.767C615.401 234.256 604.524 231.149 593.647 231.149C576.425 231.149 565.807 239.306 565.807 253.291C565.807 267.276 574.353 276.469 592.741 276.469C605.042 276.469 616.178 272.585 619.674 265.592H588.985V247.335H647.773V299H620.192V271.937H619.933C615.919 290.195 599.474 300.295 577.72 300.295Z" fill="white"/>
<path d="M709.326 300.295C686.795 300.295 664.135 294.597 650.409 285.922L660.25 265.592C673.328 273.361 691.974 278.152 709.844 278.152C719.685 278.152 724.476 276.599 724.476 273.361C724.476 261.319 656.236 274.397 656.236 237.235C656.236 217.941 674.105 207.064 705.441 207.064C725.123 207.064 744.934 211.596 757.754 218.847L747.783 239.436C735.741 233.091 719.684 229.206 704.276 229.206C694.564 229.206 690.291 230.76 690.291 233.609C690.291 244.615 760.344 232.314 760.344 269.606C760.344 289.159 741.827 300.295 709.326 300.295Z" fill="white"/>
<path d="M126.979 403V335.667H89.4275V312.359H196.513V335.667H159.092V403H126.979Z" fill="white"/>
<path d="M254.634 404.295C218.377 404.295 194.163 385.649 194.163 357.809C194.163 329.71 218.377 311.064 254.634 311.064C290.89 311.064 315.104 329.71 315.104 357.809C315.104 385.649 290.89 404.295 254.634 404.295ZM254.634 380.21C269.913 380.21 280.143 371.535 280.143 357.809C280.143 343.954 269.913 335.149 254.634 335.149C239.354 335.149 229.125 343.954 229.125 357.809C229.125 371.535 239.354 380.21 254.634 380.21Z" fill="white"/>
<path d="M376.722 403V335.667H339.171V312.359H446.257V335.667H408.835V403H376.722Z" fill="white"/>
<path d="M527.175 403V369.463H484.962V403H451.684V312.359H484.962V346.155H527.175V312.359H560.453V403H527.175Z" fill="white"/>
<path d="M570.043 403V312.359H667.677V335.926H603.322V346.673H648.383V368.297H603.322V379.433H668.972V403H570.043Z" fill="white"/>
<path d="M111.59 507V416.359H184.103C204.433 416.359 214.144 422.963 214.144 435.135C214.144 446.529 205.598 452.356 186.952 453.91V454.169C208.706 455.852 218.676 463.233 218.676 479.808C218.676 495.217 206.246 507 186.952 507H111.59ZM144.869 484.34H176.723C181.255 484.34 184.233 481.232 184.233 476.311C184.233 471.909 181.384 469.06 176.723 469.06H144.869V484.34ZM144.869 453.392H172.579C177.37 453.392 180.348 450.802 180.348 446.27C180.348 441.738 177.37 439.149 172.579 439.149H144.869V453.392Z" fill="white"/>
<path d="M223.374 507V416.359H294.333C317.9 416.359 330.46 425.035 330.46 438.631C330.46 451.45 319.324 458.442 297.053 460.255V460.514H308.447C324.633 460.514 331.237 468.413 331.237 480.714V507H297.959V481.232H256.653V507H223.374ZM256.653 458.572H285.658C292.779 458.572 297.182 454.558 297.182 447.954C297.182 442.386 292.779 438.89 285.658 438.89H256.653V458.572Z" fill="white"/>
<path d="M333.384 507L374.302 416.359H413.148L455.879 507H420.788L413.666 490.944H371.324L364.59 507H333.384ZM379.87 470.355H404.602L391.912 441.35L379.87 470.355Z" fill="white"/>
<path d="M475.527 507L431.372 416.359H468.276L490.807 465.564H491.584L514.115 416.359H548.558L504.532 507H475.527Z" fill="white"/>
<path d="M552.024 507V416.359H649.657V439.926H585.302V450.673H630.364V472.297H585.302V483.433H650.952V507H552.024Z" fill="white"/>
<rect x="212.261" y="88" width="224.431" height="62.9443" rx="5.45966" transform="rotate(10.3057 212.261 88)" fill="#B591FF"/>
<path d="M235.586 134.828L238.549 118.531L229.83 116.946L230.324 114.23L251.022 117.993L250.528 120.709L241.863 119.134L238.9 135.431L235.586 134.828Z" fill="black"/>
<path d="M257.86 138.878L259.267 131.137L251.62 118.102L255.477 118.803L261.472 128.732L270.579 121.549L274.327 122.231L262.613 131.718L261.201 139.486L257.86 138.878Z" fill="black"/>
<path d="M273.25 141.677L276.707 122.664L288.359 124.782C293.14 125.652 295.402 128.027 294.705 131.857C293.994 135.768 291.031 137.25 286.251 136.381L277.939 134.869L276.591 142.284L273.25 141.677ZM278.413 132.262L286.29 133.694C289.332 134.247 290.883 133.435 291.278 131.262C291.658 129.17 290.478 127.946 287.436 127.392L279.559 125.96L278.413 132.262Z" fill="black"/>
<path d="M295.16 145.661L298.617 126.648L317.087 130.006L316.583 132.777L301.454 130.026L300.53 135.105L310.58 136.932L310.096 139.594L300.046 137.767L299.004 143.498L314.405 146.298L313.901 149.069L295.16 145.661Z" fill="black"/>
<path d="M316.884 149.611L320.341 130.598L338.811 133.956L338.307 136.727L323.178 133.976L322.171 139.517L333.741 141.621L333.248 144.337L321.677 142.233L320.225 150.218L316.884 149.611Z" fill="black"/>
<path d="M332.143 152.386L345.243 135.126L349.154 135.837L355.421 156.618L351.89 155.976L350.117 149.986L339.143 147.99L335.402 152.978L332.143 152.386ZM340.842 145.746L349.317 147.287L346.611 138.096L340.842 145.746Z" fill="black"/>
<path d="M366.839 158.975C359.994 157.73 356.169 152.994 357.231 147.155C358.303 141.26 363.55 138.174 370.395 139.419C375.474 140.342 378.795 143.219 379.449 147.491L376.109 147.809C375.721 144.849 373.476 142.841 369.891 142.189C365.083 141.315 361.419 143.567 360.653 147.777C359.893 151.96 362.535 155.33 367.343 156.205C370.955 156.861 373.827 155.728 375.21 153.061L378.197 154.531C376.158 158.341 372.027 159.918 366.839 158.975Z" fill="black"/>
<path d="M380.146 161.114L383.604 142.101L402.074 145.459L401.57 148.23L386.441 145.479L385.517 150.558L395.567 152.386L395.083 155.047L385.033 153.22L383.991 158.951L399.392 161.752L398.888 164.522L380.146 161.114Z" fill="black"/>
<rect x="317" y="406.433" width="233.419" height="60.5747" rx="5.45966" transform="rotate(-11.9756 317 406.433)" fill="#B591FF"/>
<path d="M350.296 440.181L346.286 421.276L364.65 417.381L365.235 420.136L350.192 423.326L351.263 428.377L361.256 426.257L361.817 428.904L351.825 431.023L353.033 436.721L368.346 433.473L368.93 436.228L350.296 440.181Z" fill="black"/>
<path d="M379.809 433.921L365.914 417.113L369.722 416.305L380.322 429.155L380.511 429.115L384.981 413.069L388.465 412.33L382.563 433.336L379.809 433.921Z" fill="black"/>
<path d="M394.867 430.727L390.857 411.822L409.221 407.927L409.806 410.682L394.763 413.872L395.834 418.923L405.827 416.803L406.388 419.45L396.396 421.569L397.604 427.267L412.917 424.019L413.501 426.774L394.867 430.727Z" fill="black"/>
<path d="M416.467 426.145L412.457 407.241L425.015 404.577C429.363 403.655 432.193 404.889 432.777 407.644C433.293 410.074 431.746 412.095 428.348 413.24L428.359 413.294L430.52 412.835C433.005 412.308 434.549 413.335 435.047 415.685L436.37 421.923L433.049 422.628L431.433 415.012L418.173 417.825L419.788 425.441L416.467 426.145ZM417.6 415.124L426.35 413.268C428.889 412.73 429.995 411.027 429.606 409.191C429.245 407.49 427.823 406.775 425.312 407.308L416.346 409.21L417.6 415.124Z" fill="black"/>
<path d="M446.395 419.797L444.762 412.1L432.744 402.938L436.579 402.124L445.891 409.039L451.594 398.939L455.321 398.149L448.078 411.369L449.717 419.092L446.395 419.797Z" fill="black"/>
<path d="M470.529 414.96C463.399 416.472 457.761 413.576 456.53 407.77C455.298 401.963 459.275 397.028 466.404 395.516C473.534 394.003 479.118 396.911 480.349 402.717C481.581 408.524 477.658 413.448 470.529 414.96ZM469.95 412.233C475.027 411.156 477.834 407.625 476.946 403.439C476.058 399.253 472.06 397.166 466.983 398.243C461.852 399.332 459.045 402.862 459.932 407.048C460.82 411.234 464.819 413.321 469.95 412.233Z" fill="black"/>
<path d="M485.697 411.461L481.687 392.556L486.089 391.622L501.287 402.735L501.395 402.712L498.485 388.993L501.591 388.334L505.6 407.239L502.954 407.8L485.605 395.196L485.497 395.219L488.803 410.802L485.697 411.461Z" fill="black"/>
<path d="M509.987 406.308L505.977 387.404L524.341 383.509L524.925 386.263L509.883 389.454L510.954 394.504L520.946 392.385L521.508 395.031L511.515 397.151L512.724 402.849L528.037 399.601L528.621 402.356L509.987 406.308Z" fill="black"/>
</g>
<defs>
<clipPath id="clip0_3466_848">
<rect width="760" height="506" fill="white"/>
</clipPath>
</defs>
</svg>
