<svg width="760" height="506" viewBox="0 0 760 506" fill="none" xmlns="http://www.w3.org/2000/svg">
<rect width="760" height="506" fill="#B9B9B9"/>
<rect width="760" height="506" fill="#B591FF"/>
<path d="M187.183 486.499V251.425H371.212C432.331 251.425 464.906 273.925 464.906 309.186C464.906 342.432 436.025 360.567 378.264 365.268V365.94H407.817C449.794 365.94 466.921 386.425 466.921 418.328V486.499H380.615V419.671H273.489V486.499H187.183ZM273.489 360.902H348.712C367.182 360.902 378.6 350.492 378.6 333.365C378.6 318.925 367.182 309.858 348.712 309.858H273.489V360.902Z" fill="black"/>
<path d="M547.04 489.857C504.727 489.857 477.861 470.044 477.861 437.805C477.861 406.574 502.712 387.432 557.115 382.395L631.331 375.679V374.671C631.331 358.552 617.562 354.522 600.099 354.522C574.577 354.522 568.197 361.91 563.831 369.634H484.913C489.279 335.38 529.242 307.507 600.771 307.507C670.622 307.507 715.286 332.694 715.286 388.775V436.126H740.808V486.499H684.726C649.465 486.499 632.338 468.029 632.002 430.753H630.995C626.965 471.051 600.771 489.857 547.04 489.857ZM565.174 429.745C565.174 440.156 573.57 444.857 590.025 444.857C616.555 444.857 631.331 432.768 631.331 412.619V408.253L589.689 412.954C571.891 414.969 565.174 420.343 565.174 429.745Z" fill="black"/>
<path d="M20.6221 42.9144V20.6072H29.1945C37.6075 20.6072 42.1645 24.75 42.1645 31.729C42.1645 38.7398 37.6075 42.9144 29.1945 42.9144H20.6221ZM23.3309 40.4287H29.3538C35.8866 40.4287 39.392 37.1783 39.392 31.729C39.392 26.3115 35.8866 23.061 29.3538 23.061H23.3309V40.4287Z" fill="black"/>
<path d="M46.4135 42.9144V26.6302H48.9629V42.9144H46.4135ZM46.2861 23.9215V20.6072H49.186V23.9215H46.2861Z" fill="black"/>
<path d="M61.0437 43.2331C56.7734 43.2331 53.8735 41.7353 52.79 38.931L55.1482 38.0387C55.8493 40.0782 58.0481 41.0661 61.1711 41.0661C64.1029 41.0661 65.8238 40.1101 65.8238 38.453C65.8238 34.119 53.3636 37.8794 53.3636 31.1553C53.3636 28.1279 56.1361 26.3115 60.5656 26.3115C64.2623 26.3115 66.8435 27.6181 67.9589 30.0719L65.6326 30.9641C64.8359 29.2752 63.0194 28.4785 60.5019 28.4785C57.6976 28.4785 56.0723 29.4026 56.0723 30.996C56.0723 35.2025 68.5006 31.5059 68.5006 38.2299C68.5006 41.3529 65.6326 43.2331 61.0437 43.2331Z" fill="black"/>
<path d="M77.7551 43.01C75.3969 43.01 73.8673 41.7353 73.8673 39.3134V28.829H70.3619V26.6302H73.8673V22.3281L76.4167 21.3721V26.6302H81.7385V28.829H76.4167V40.7156H81.8978V43.01H77.7551Z" fill="black"/>
<path d="M85.4697 42.9144V26.6302H88.0191V42.9144H85.4697ZM85.3423 23.9215V20.6072H88.2422V23.9215H85.3423Z" fill="black"/>
<path d="M93.3121 42.9144V26.6302H95.8615V30.7092H95.9889C97.0406 27.5862 99.4944 26.3115 102.331 26.3115C106.25 26.3115 108.608 28.6697 108.608 32.7806V42.9144H106.059V33.3223C106.059 30.2631 104.37 28.6697 101.47 28.6697C98.379 28.6697 95.8615 30.518 95.8615 34.5014V42.9144H93.3121Z" fill="black"/>
<path d="M121.44 43.2331C116.15 43.2331 112.549 39.8551 112.549 34.8201C112.549 29.7213 116.15 26.3115 121.44 26.3115C125.073 26.3115 127.845 27.9367 129.088 30.518L126.634 31.4422C125.837 29.6894 124.021 28.6378 121.44 28.6378C117.552 28.6378 115.257 30.996 115.257 34.8201C115.257 38.5804 117.552 40.9068 121.44 40.9068C124.18 40.9068 126.029 39.7914 126.793 37.8475L129.215 38.7716C128.004 41.5441 125.2 43.2331 121.44 43.2331Z" fill="black"/>
<path d="M138.409 43.01C136.051 43.01 134.521 41.7353 134.521 39.3134V28.829H131.016V26.6302H134.521V22.3281L137.07 21.3721V26.6302H142.392V28.829H137.07V40.7156H142.552V43.01H138.409Z" fill="black"/>
<path d="M146.124 42.9144V26.6302H148.673V42.9144H146.124ZM145.996 23.9215V20.6072H148.896V23.9215H145.996Z" fill="black"/>
<path d="M158.778 42.9144L151.958 26.6302H154.731L160.307 40.4287H160.467L166.044 26.6302H168.625L161.805 42.9144H158.778Z" fill="black"/>
<path d="M179.298 43.2331C173.657 43.2331 170.216 39.9826 170.216 34.8201C170.216 29.7213 173.753 26.3115 178.947 26.3115C184.46 26.3115 187.392 29.4664 187.392 35.33H172.924C173.116 39.1541 175.251 40.9705 179.33 40.9705C182.07 40.9705 183.982 40.0782 184.938 38.2299L187.01 39.1541C185.799 41.6397 183.281 43.2331 179.298 43.2331ZM173.02 33.2905H184.779C184.429 30.1993 182.485 28.5741 178.979 28.5741C175.665 28.5741 173.53 30.0719 173.02 33.2905Z" fill="black"/>
<path d="M215.627 42.9144H213.078V38.8035H212.919C211.899 41.576 209.318 43.2331 205.94 43.2331C201.287 43.2331 198.069 39.8551 198.069 34.7882C198.069 29.7213 201.287 26.3115 205.94 26.3115C209.318 26.3115 211.931 28.0323 212.951 30.8048H213.078V20.6072H215.627V42.9144ZM206.864 40.8749C210.847 40.8749 213.174 38.6123 213.174 34.7882C213.174 30.9323 210.847 28.6697 206.864 28.6697C203.04 28.6697 200.777 30.9323 200.777 34.7882C200.777 38.6123 203.04 40.8749 206.864 40.8749Z" fill="black"/>
<path d="M228.873 43.2331C223.232 43.2331 219.791 39.9826 219.791 34.8201C219.791 29.7213 223.328 26.3115 228.522 26.3115C234.035 26.3115 236.967 29.4664 236.967 35.33H222.499C222.691 39.1541 224.826 40.9705 228.905 40.9705C231.645 40.9705 233.557 40.0782 234.513 38.2299L236.585 39.1541C235.374 41.6397 232.856 43.2331 228.873 43.2331ZM222.595 33.2905H234.354C234.003 30.1993 232.06 28.5741 228.554 28.5741C225.24 28.5741 223.105 30.0719 222.595 33.2905Z" fill="black"/>
<path d="M246.086 43.01C243.728 43.01 242.198 41.7353 242.198 39.3134V28.829H238.692V26.6302H242.198V22.3281L244.747 21.3721V26.6302H250.069V28.829H244.747V40.7156H250.228V43.01H246.086Z" fill="black"/>
<path d="M258.612 43.2331C255.202 43.2331 252.749 41.6078 252.749 38.7716C252.749 36.0311 254.788 33.9915 259.536 33.4179L265.528 32.7168V32.207C265.528 29.7532 263.998 28.5422 260.907 28.5422C258.071 28.5422 256.477 29.4982 255.872 31.5059H253.354C253.928 28.2873 256.86 26.3115 261.002 26.3115C265.304 26.3115 268.077 28.3829 268.077 32.3026V40.7474H271.104V42.9144H269.256C266.898 42.9144 265.559 41.8946 265.559 39.6639V38.7716H265.464C264.476 41.6716 261.958 43.2331 258.612 43.2331ZM255.394 38.6123C255.394 40.1738 256.605 41.1298 259.122 41.1298C262.883 41.1298 265.528 39.1541 265.528 36.031V34.6608L259.632 35.3937C256.541 35.7761 255.394 37.0189 255.394 38.6123Z" fill="black"/>
<path d="M274.091 42.9144V26.6302H276.64V42.9144H274.091ZM273.963 23.9215V20.6072H276.863V23.9215H273.963Z" fill="black"/>
<path d="M285.598 42.9144C282.921 42.9144 281.806 41.4485 281.806 39.409V20.6072H284.355V40.7474H289.454V42.9144H285.598Z" fill="black"/>
<path d="M298.897 43.2331C294.627 43.2331 291.727 41.7353 290.644 38.931L293.002 38.0387C293.703 40.0782 295.902 41.0661 299.025 41.0661C301.957 41.0661 303.677 40.1101 303.677 38.453C303.677 34.119 291.217 37.8794 291.217 31.1553C291.217 28.1279 293.99 26.3115 298.419 26.3115C302.116 26.3115 304.697 27.6181 305.813 30.0719L303.486 30.9641C302.69 29.2752 300.873 28.4785 298.356 28.4785C295.551 28.4785 293.926 29.4026 293.926 30.996C293.926 35.2025 306.354 31.5059 306.354 38.2299C306.354 41.3529 303.486 43.2331 298.897 43.2331Z" fill="black"/>
<path d="M324.852 43.2331C320.582 43.2331 317.682 41.7353 316.598 38.931L318.956 38.0387C319.657 40.0782 321.856 41.0661 324.979 41.0661C327.911 41.0661 329.632 40.1101 329.632 38.453C329.632 34.119 317.172 37.8794 317.172 31.1553C317.172 28.1279 319.944 26.3115 324.374 26.3115C328.07 26.3115 330.652 27.6181 331.767 30.0719L329.441 30.9641C328.644 29.2752 326.828 28.4785 324.31 28.4785C321.506 28.4785 319.881 29.4026 319.881 30.996C319.881 35.2025 332.309 31.5059 332.309 38.2299C332.309 41.3529 329.441 43.2331 324.852 43.2331Z" fill="black"/>
<path d="M336.27 42.9144V20.6072H338.819V30.7092H338.946C339.998 27.5862 342.452 26.3115 345.288 26.3115C349.208 26.3115 351.566 28.6697 351.566 32.7806V42.9144H349.017V33.3223C349.017 30.2631 347.328 28.6697 344.428 28.6697C341.336 28.6697 338.819 30.518 338.819 34.5014V42.9144H336.27Z" fill="black"/>
<path d="M361.465 43.2331C358.056 43.2331 355.602 41.6078 355.602 38.7716C355.602 36.0311 357.641 33.9915 362.39 33.4179L368.381 32.7168V32.207C368.381 29.7532 366.851 28.5422 363.76 28.5422C360.924 28.5422 359.33 29.4982 358.725 31.5059H356.207C356.781 28.2873 359.713 26.3115 363.855 26.3115C368.158 26.3115 370.93 28.3829 370.93 32.3026V40.7474H373.957V42.9144H372.109C369.751 42.9144 368.413 41.8946 368.413 39.6639V38.7716H368.317C367.329 41.6716 364.812 43.2331 361.465 43.2331ZM358.247 38.6123C358.247 40.1738 359.458 41.1298 361.975 41.1298C365.736 41.1298 368.381 39.1541 368.381 36.031V34.6608L362.485 35.3937C359.394 35.7761 358.247 37.0189 358.247 38.6123Z" fill="black"/>
<path d="M376.944 49.2879V26.6302H379.493V30.8048H379.621C380.641 28.0323 383.254 26.3115 386.632 26.3115C391.284 26.3115 394.503 29.7213 394.503 34.7882C394.503 39.8551 391.284 43.2331 386.632 43.2331C383.254 43.2331 380.672 41.576 379.653 38.8035H379.493V49.2879H376.944ZM385.708 40.8749C389.532 40.8749 391.794 38.6123 391.794 34.7882C391.794 30.9323 389.532 28.6697 385.708 28.6697C381.724 28.6697 379.398 30.9323 379.398 34.7882C379.398 38.6123 381.724 40.8749 385.708 40.8749Z" fill="black"/>
<path d="M406.633 43.2331C400.992 43.2331 397.551 39.9826 397.551 34.8201C397.551 29.7213 401.088 26.3115 406.282 26.3115C411.795 26.3115 414.727 29.4664 414.727 35.33H400.259C400.451 39.1541 402.586 40.9705 406.665 40.9705C409.405 40.9705 411.317 40.0782 412.273 38.2299L414.345 39.1541C413.134 41.6397 410.616 43.2331 406.633 43.2331ZM400.355 33.2905H412.114C411.764 30.1993 409.82 28.5741 406.314 28.5741C403 28.5741 400.865 30.0719 400.355 33.2905Z" fill="black"/>
<path d="M435.792 43.2331C430.566 43.2331 426.71 41.2254 424.989 37.6882L427.443 36.5409C428.813 39.3453 431.522 40.7793 435.92 40.7793C440.222 40.7793 442.931 39.3771 442.931 36.8915C442.931 30.2631 425.85 35.4256 425.85 26.6302C425.85 22.6786 429.578 20.2886 435.187 20.2886C439.808 20.2886 443.058 21.8819 444.747 24.9731L442.325 26.0884C441.019 23.794 438.82 22.7424 435.251 22.7424C431.203 22.7424 428.527 24.0171 428.527 26.4071C428.527 32.685 445.639 27.395 445.639 36.6047C445.639 40.8112 441.847 43.2331 435.792 43.2331Z" fill="black"/>
<path d="M454.686 43.01C452.328 43.01 450.798 41.7353 450.798 39.3134V28.829H447.293V26.6302H450.798V22.3281L453.348 21.3721V26.6302H458.67V28.829H453.348V40.7156H458.829V43.01H454.686Z" fill="black"/>
<path d="M462.401 42.9144V26.6302H464.95V30.4543H465.078C465.747 27.7137 467.277 26.6302 469.858 26.6302H472.598V28.9884H469.73C465.524 28.9884 464.95 31.729 464.95 34.4058V42.9144H462.401Z" fill="black"/>
<path d="M475.969 42.9144V26.6302H478.519V42.9144H475.969ZM475.842 23.9215V20.6072H478.742V23.9215H475.842Z" fill="black"/>
<path d="M491.555 43.2331C486.266 43.2331 482.664 39.8551 482.664 34.8201C482.664 29.7213 486.266 26.3115 491.555 26.3115C495.188 26.3115 497.961 27.9367 499.204 30.518L496.75 31.4422C495.953 29.6894 494.137 28.6378 491.555 28.6378C487.668 28.6378 485.373 30.996 485.373 34.8201C485.373 38.5804 487.668 40.9068 491.555 40.9068C494.296 40.9068 496.144 39.7914 496.909 37.8475L499.331 38.7716C498.12 41.5441 495.316 43.2331 491.555 43.2331Z" fill="black"/>
<path d="M503.169 42.9144V20.6072H505.718V30.7092H505.845C506.897 27.5862 509.351 26.3115 512.187 26.3115C516.107 26.3115 518.465 28.6697 518.465 32.7806V42.9144H515.916V33.3223C515.916 30.2631 514.227 28.6697 511.327 28.6697C508.236 28.6697 505.718 30.518 505.718 34.5014V42.9144H503.169Z" fill="black"/>
<path d="M523.553 49.2879V26.6302H526.102V30.8048H526.229C527.249 28.0323 529.862 26.3115 533.24 26.3115C537.893 26.3115 541.111 29.7213 541.111 34.7882C541.111 39.8551 537.893 43.2331 533.24 43.2331C529.862 43.2331 527.281 41.576 526.261 38.8035H526.102V49.2879H523.553ZM532.316 40.8749C536.14 40.8749 538.403 38.6123 538.403 34.7882C538.403 30.9323 536.14 28.6697 532.316 28.6697C528.333 28.6697 526.006 30.9323 526.006 34.7882C526.006 38.6123 528.333 40.8749 532.316 40.8749Z" fill="black"/>
<path d="M551.425 43.2331C547.505 43.2331 545.083 40.8749 545.083 36.764V26.6302H547.633V36.2223C547.633 39.2815 549.354 40.8749 552.285 40.8749C555.345 40.8749 557.639 39.0266 557.639 35.0432V26.6302H560.189V42.9144H557.639V38.8354H557.512C556.46 41.9584 554.229 43.2331 551.425 43.2331Z" fill="black"/>
<path d="M565.472 42.9144V26.6302H568.021V30.7092H568.149C569.2 27.5862 571.654 26.3115 574.49 26.3115C578.41 26.3115 580.768 28.6697 580.768 32.7806V42.9144H578.219V33.3223C578.219 30.2631 576.53 28.6697 573.63 28.6697C570.539 28.6697 568.021 30.518 568.021 34.5014V42.9144H565.472Z" fill="black"/>
<path d="M598.38 42.9144L591.369 34.119L588.405 36.4453V42.9144H585.856V20.6072H588.405V33.7047L597.487 26.6302H600.833L593.345 32.5575L601.566 42.9144H598.38Z" fill="black"/>
<path d="M609.666 43.01C607.308 43.01 605.778 41.7353 605.778 39.3134V28.829H602.273V26.6302H605.778V22.3281L608.328 21.3721V26.6302H613.65V28.829H608.328V40.7156H613.809V43.01H609.666Z" fill="black"/>
<path d="M634.403 43.2331C629.177 43.2331 625.321 41.2254 623.6 37.6882L626.054 36.5409C627.424 39.3453 630.133 40.7793 634.531 40.7793C638.833 40.7793 641.541 39.3771 641.541 36.8915C641.541 30.2631 624.461 35.4256 624.461 26.6302C624.461 22.6786 628.189 20.2886 633.798 20.2886C638.418 20.2886 641.669 21.8819 643.358 24.9731L640.936 26.0884C639.629 23.794 637.431 22.7424 633.861 22.7424C629.814 22.7424 627.137 24.0171 627.137 26.4071C627.137 32.685 644.25 27.395 644.25 36.6047C644.25 40.8112 640.458 43.2331 634.403 43.2331Z" fill="black"/>
<path d="M653.002 43.2331C649.592 43.2331 647.138 41.6078 647.138 38.7716C647.138 36.0311 649.178 33.9915 653.926 33.4179L659.917 32.7168V32.207C659.917 29.7532 658.388 28.5422 655.296 28.5422C652.46 28.5422 650.867 29.4982 650.261 31.5059H647.744C648.318 28.2873 651.249 26.3115 655.392 26.3115C659.694 26.3115 662.467 28.3829 662.467 32.3026V40.7474H665.494V42.9144H663.646C661.288 42.9144 659.949 41.8946 659.949 39.6639V38.7716H659.853C658.866 41.6716 656.348 43.2331 653.002 43.2331ZM649.783 38.6123C649.783 40.1738 650.994 41.1298 653.512 41.1298C657.272 41.1298 659.917 39.1541 659.917 36.031V34.6608L654.022 35.3937C650.931 35.7761 649.783 37.0189 649.783 38.6123Z" fill="black"/>
<path d="M668.481 42.9144V26.6302H671.03V30.7092H671.157C672.209 27.5862 674.663 26.3115 677.499 26.3115C681.419 26.3115 683.777 28.6697 683.777 32.7806V42.9144H681.227V33.3223C681.227 30.2631 679.539 28.6697 676.639 28.6697C673.547 28.6697 671.03 30.518 671.03 34.5014V42.9144H668.481Z" fill="black"/>
<path d="M695.652 43.2331C691.382 43.2331 688.482 41.7353 687.399 38.931L689.757 38.0387C690.458 40.0782 692.657 41.0661 695.78 41.0661C698.711 41.0661 700.432 40.1101 700.432 38.453C700.432 34.119 687.972 37.8794 687.972 31.1553C687.972 28.1279 690.745 26.3115 695.174 26.3115C698.871 26.3115 701.452 27.6181 702.567 30.0719L700.241 30.9641C699.444 29.2752 697.628 28.4785 695.11 28.4785C692.306 28.4785 690.681 29.4026 690.681 30.996C690.681 35.2025 703.109 31.5059 703.109 38.2299C703.109 41.3529 700.241 43.2331 695.652 43.2331Z" fill="black"/>
<path d="M704.997 27.5225V26.1203H707.292V23.7621H705.635V20.5754H708.853V24.9412C708.853 26.7258 708.057 27.5225 706.145 27.5225H704.997Z" fill="black"/>
<path d="M28.0472 81.2331C22.7573 81.2331 19.1562 77.8551 19.1562 72.8201C19.1562 67.7213 22.7573 64.3115 28.0472 64.3115C31.6801 64.3115 34.4526 65.9367 35.6954 68.518L33.2416 69.4422C32.4449 67.6894 30.6285 66.6378 28.0472 66.6378C24.1594 66.6378 21.865 68.996 21.865 72.8201C21.865 76.5804 24.1594 78.9068 28.0472 78.9068C30.7878 78.9068 32.6361 77.7914 33.401 75.8475L35.8229 76.7716C34.6119 79.5441 31.8076 81.2331 28.0472 81.2331Z" fill="black"/>
<path d="M39.6604 80.9144V58.6072H42.2098V68.7092H42.3373C43.3889 65.5862 45.8427 64.3115 48.6789 64.3115C52.5986 64.3115 54.9567 66.6697 54.9567 70.7806V80.9144H52.4073V71.3223C52.4073 68.2631 50.7184 66.6697 47.8184 66.6697C44.7273 66.6697 42.2098 68.518 42.2098 72.5014V80.9144H39.6604Z" fill="black"/>
<path d="M64.8563 81.2331C61.4465 81.2331 58.9927 79.6078 58.9927 76.7716C58.9927 74.031 61.0322 71.9915 65.7804 71.4179L71.7715 70.7168V70.207C71.7715 67.7532 70.2419 66.5422 67.1507 66.5422C64.3145 66.5422 62.7212 67.4982 62.1157 69.5059H59.5982C60.1718 66.2873 63.1036 64.3115 67.2463 64.3115C71.5484 64.3115 74.3209 66.3829 74.3209 70.3026V78.7474H77.3483V80.9144H75.5C73.1418 80.9144 71.8034 79.8946 71.8034 77.6639V76.7716H71.7078C70.7199 79.6716 68.2024 81.2331 64.8563 81.2331ZM61.6377 76.6123C61.6377 78.1738 62.8486 79.1298 65.3662 79.1298C69.1265 79.1298 71.7715 77.1541 71.7715 74.0311V72.6608L65.876 73.3937C62.7849 73.7761 61.6377 75.0189 61.6377 76.6123Z" fill="black"/>
<path d="M80.3349 80.9144V64.6302H82.8842V68.4543H83.0117C83.6809 65.7137 85.2106 64.6302 87.7918 64.6302H90.5324V66.9884H87.6643C83.4579 66.9884 82.8842 69.729 82.8842 72.4058V80.9144H80.3349Z" fill="black"/>
<path d="M97.9996 81.2331C94.5898 81.2331 92.136 79.6078 92.136 76.7716C92.136 74.031 94.1755 71.9915 98.9237 71.4179L104.915 70.7168V70.207C104.915 67.7532 103.385 66.5422 100.294 66.5422C97.4578 66.5422 95.8645 67.4982 95.259 69.5059H92.7415C93.3151 66.2873 96.2469 64.3115 100.39 64.3115C104.692 64.3115 107.464 66.3829 107.464 70.3026V78.7474H110.492V80.9144H108.643C106.285 80.9144 104.947 79.8946 104.947 77.6639V76.7716H104.851C103.863 79.6716 101.346 81.2331 97.9996 81.2331ZM94.781 76.6123C94.781 78.1738 95.9919 79.1298 98.5095 79.1298C102.27 79.1298 104.915 77.1541 104.915 74.0311V72.6608L99.0193 73.3937C95.9282 73.7761 94.781 75.0189 94.781 76.6123Z" fill="black"/>
<path d="M120.911 81.2331C115.621 81.2331 112.02 77.8551 112.02 72.8201C112.02 67.7213 115.621 64.3115 120.911 64.3115C124.544 64.3115 127.316 65.9367 128.559 68.518L126.105 69.4422C125.308 67.6894 123.492 66.6378 120.911 66.6378C117.023 66.6378 114.728 68.996 114.728 72.8201C114.728 76.5804 117.023 78.9068 120.911 78.9068C123.651 78.9068 125.5 77.7914 126.264 75.8475L128.686 76.7716C127.475 79.5441 124.671 81.2331 120.911 81.2331Z" fill="black"/>
<path d="M137.88 81.01C135.522 81.01 133.992 79.7353 133.992 77.3134V66.829H130.487V64.6302H133.992V60.3281L136.541 59.3721V64.6302H141.863V66.829H136.541V78.7155H142.023V81.01H137.88Z" fill="black"/>
<path d="M152.846 81.2331C147.205 81.2331 143.763 77.9826 143.763 72.8201C143.763 67.7213 147.301 64.3115 152.495 64.3115C158.008 64.3115 160.94 67.4664 160.94 73.33H146.472C146.663 77.1541 148.798 78.9705 152.877 78.9705C155.618 78.9705 157.53 78.0782 158.486 76.2299L160.557 77.154C159.346 79.6397 156.829 81.2331 152.846 81.2331ZM146.568 71.2905H158.327C157.976 68.1993 156.032 66.5741 152.527 66.5741C149.213 66.5741 147.078 68.0719 146.568 71.2905Z" fill="black"/>
<path d="M164.983 80.9144V64.6302H167.532V68.4543H167.659C168.329 65.7137 169.858 64.6302 172.439 64.6302H175.18V66.9884H172.312C168.106 66.9884 167.532 69.729 167.532 72.4058V80.9144H164.983Z" fill="black"/>
<path d="M178.137 80.9144V77.6958H181.387V80.9144H178.137ZM178.137 64.6302H181.387V67.8488H178.137V64.6302Z" fill="black"/>
<path d="M193.987 80.9144V64.6302H196.536V68.4543H196.664C197.333 65.7137 198.863 64.6302 201.444 64.6302H204.184V66.9884H201.316C197.11 66.9884 196.536 69.729 196.536 72.4058V80.9144H193.987Z" fill="black"/>
<path d="M214.365 81.2331C209.075 81.2331 205.474 77.8551 205.474 72.8201C205.474 67.7213 209.075 64.3115 214.365 64.3115C219.687 64.3115 223.288 67.7213 223.288 72.8201C223.288 77.8551 219.687 81.2331 214.365 81.2331ZM214.365 78.9068C218.285 78.9068 220.58 76.5804 220.58 72.8201C220.58 68.996 218.285 66.6378 214.365 66.6378C210.478 66.6378 208.183 68.996 208.183 72.8201C208.183 76.5804 210.478 78.9068 214.365 78.9068Z" fill="black"/>
<path d="M233.592 81.2331C229.672 81.2331 227.25 78.8749 227.25 74.764V64.6302H229.799V74.2223C229.799 77.2815 231.52 78.8749 234.452 78.8749C237.511 78.8749 239.806 77.0266 239.806 73.0432V64.6302H242.355V80.9144H239.806V76.8354H239.678C238.627 79.9584 236.396 81.2331 233.592 81.2331Z" fill="black"/>
<path d="M247.638 80.9144V64.6302H250.188V68.7092H250.315C251.367 65.5862 253.821 64.3115 256.657 64.3115C260.577 64.3115 262.935 66.6697 262.935 70.7806V80.9144H260.385V71.3223C260.385 68.2631 258.696 66.6697 255.797 66.6697C252.705 66.6697 250.188 68.518 250.188 72.5014V80.9144H247.638Z" fill="black"/>
<path d="M284.466 80.9144H281.917V76.8035H281.757C280.737 79.576 278.156 81.2331 274.778 81.2331C270.126 81.2331 266.907 77.8551 266.907 72.7882C266.907 67.7213 270.126 64.3115 274.778 64.3115C278.156 64.3115 280.769 66.0323 281.789 68.8048H281.917V58.6072H284.466V80.9144ZM275.702 78.8749C279.686 78.8749 282.012 76.6123 282.012 72.7882C282.012 68.9323 279.686 66.6697 275.702 66.6697C271.878 66.6697 269.616 68.9323 269.616 72.7882C269.616 76.6123 271.878 78.8749 275.702 78.8749Z" fill="black"/>
<path d="M297.711 81.2331C292.071 81.2331 288.629 77.9826 288.629 72.8201C288.629 67.7213 292.166 64.3115 297.361 64.3115C302.874 64.3115 305.806 67.4664 305.806 73.33H291.338C291.529 77.1541 293.664 78.9705 297.743 78.9705C300.484 78.9705 302.396 78.0782 303.352 76.2299L305.423 77.154C304.212 79.6397 301.695 81.2331 297.711 81.2331ZM291.433 71.2905H303.193C302.842 68.1993 300.898 66.5741 297.393 66.5741C294.078 66.5741 291.943 68.0719 291.433 71.2905Z" fill="black"/>
<path d="M326.292 80.9144H323.742V76.8035H323.583C322.563 79.576 319.982 81.2331 316.604 81.2331C311.952 81.2331 308.733 77.8551 308.733 72.7882C308.733 67.7213 311.952 64.3115 316.604 64.3115C319.982 64.3115 322.595 66.0323 323.615 68.8048H323.742V58.6072H326.292V80.9144ZM317.528 78.8749C321.512 78.8749 323.838 76.6123 323.838 72.7882C323.838 68.9323 321.512 66.6697 317.528 66.6697C313.704 66.6697 311.442 68.9323 311.442 72.7882C311.442 76.6123 313.704 78.8749 317.528 78.8749Z" fill="black"/>
<path d="M340.316 61.9533C340.316 59.8182 341.495 58.2886 344.3 58.2886H348.156V60.4237H342.866V64.6302H347.614V66.829H342.866V80.9144H340.316V66.829H337.034V64.6302H340.316V61.9533Z" fill="black"/>
<path d="M357.831 81.2331C352.541 81.2331 348.94 77.8551 348.94 72.8201C348.94 67.7213 352.541 64.3115 357.831 64.3115C363.153 64.3115 366.754 67.7213 366.754 72.8201C366.754 77.8551 363.153 81.2331 357.831 81.2331ZM357.831 78.9068C361.75 78.9068 364.045 76.5804 364.045 72.8201C364.045 68.996 361.75 66.6378 357.831 66.6378C353.943 66.6378 351.649 68.996 351.649 72.8201C351.649 76.5804 353.943 78.9068 357.831 78.9068Z" fill="black"/>
<path d="M370.907 80.9144V64.6302H373.456V68.4543H373.584C374.253 65.7137 375.782 64.6302 378.364 64.6302H381.104V66.9884H378.236C374.03 66.9884 373.456 69.729 373.456 72.4058V80.9144H370.907Z" fill="black"/>
<path d="M384.475 80.9144V64.6302H387.025V68.7092H387.184C388.267 65.5862 390.466 64.3115 393.271 64.3115C396.585 64.3115 398.688 66.0005 399.262 68.996H399.389C400.473 65.6499 402.799 64.3115 405.699 64.3115C409.619 64.3115 411.881 66.6697 411.881 70.7806V80.9144H409.332V71.3223C409.332 68.2631 407.802 66.6697 404.902 66.6697C401.811 66.6697 399.453 68.518 399.453 72.5014V80.9144H396.903V71.3223C396.903 68.2631 395.374 66.6697 392.474 66.6697C389.383 66.6697 387.025 68.518 387.025 72.5014V80.9144H384.475Z" fill="black"/>
<path d="M423.753 81.2331C419.482 81.2331 416.583 79.7353 415.499 76.931L417.857 76.0387C418.558 78.0782 420.757 79.0661 423.88 79.0661C426.812 79.0661 428.533 78.1101 428.533 76.453C428.533 72.119 416.073 75.8794 416.073 69.1553C416.073 66.1279 418.845 64.3115 423.275 64.3115C426.971 64.3115 429.553 65.6181 430.668 68.0719L428.342 68.9641C427.545 67.2752 425.728 66.4785 423.211 66.4785C420.407 66.4785 418.781 67.4026 418.781 68.996C418.781 73.2025 431.21 69.5059 431.21 76.2299C431.21 79.3529 428.342 81.2331 423.753 81.2331Z" fill="black"/>
<path d="M442.919 80.9144V64.6302H445.469V68.7092H445.628C446.712 65.5862 448.91 64.3115 451.715 64.3115C455.029 64.3115 457.132 66.0005 457.706 68.996H457.833C458.917 65.6499 461.243 64.3115 464.143 64.3115C468.063 64.3115 470.325 66.6697 470.325 70.7806V80.9144H467.776V71.3223C467.776 68.2631 466.246 66.6697 463.346 66.6697C460.255 66.6697 457.897 68.518 457.897 72.5014V80.9144H455.348V71.3223C455.348 68.2631 453.818 66.6697 450.918 66.6697C447.827 66.6697 445.469 68.518 445.469 72.5014V80.9144H442.919Z" fill="black"/>
<path d="M483.376 81.2331C477.735 81.2331 474.294 77.9826 474.294 72.8201C474.294 67.7213 477.831 64.3115 483.025 64.3115C488.539 64.3115 491.47 67.4664 491.47 73.33H477.003C477.194 77.1541 479.329 78.9705 483.408 78.9705C486.148 78.9705 488.06 78.0782 489.017 76.2299L491.088 77.154C489.877 79.6397 487.359 81.2331 483.376 81.2331ZM477.098 71.2905H488.857C488.507 68.1993 486.563 66.5741 483.057 66.5741C479.743 66.5741 477.608 68.0719 477.098 71.2905Z" fill="black"/>
<path d="M503.48 81.2331C497.839 81.2331 494.398 77.9826 494.398 72.8201C494.398 67.7213 497.935 64.3115 503.129 64.3115C508.642 64.3115 511.574 67.4664 511.574 73.33H497.106C497.298 77.1541 499.433 78.9705 503.512 78.9705C506.252 78.9705 508.164 78.0782 509.12 76.2299L511.192 77.154C509.981 79.6397 507.463 81.2331 503.48 81.2331ZM497.202 71.2905H508.961C508.61 68.1993 506.667 66.5741 503.161 66.5741C499.847 66.5741 497.712 68.0719 497.202 71.2905Z" fill="black"/>
<path d="M520.693 81.01C518.335 81.01 516.805 79.7353 516.805 77.3134V66.829H513.299V64.6302H516.805V60.3281L519.354 59.3721V64.6302H524.676V66.829H519.354V78.7155H524.835V81.01H520.693Z" fill="black"/>
<path d="M542.944 81.2331C538.674 81.2331 535.774 79.7353 534.69 76.931L537.049 76.0387C537.75 78.0782 539.949 79.0661 543.072 79.0661C546.003 79.0661 547.724 78.1101 547.724 76.453C547.724 72.119 535.264 75.8794 535.264 69.1553C535.264 66.1279 538.037 64.3115 542.466 64.3115C546.163 64.3115 548.744 65.6181 549.859 68.0719L547.533 68.9641C546.736 67.2752 544.92 66.4785 542.402 66.4785C539.598 66.4785 537.973 67.4026 537.973 68.996C537.973 73.2025 550.401 69.5059 550.401 76.2299C550.401 79.3529 547.533 81.2331 542.944 81.2331Z" fill="black"/>
<path d="M554.362 80.9144V58.6072H556.911V68.7092H557.039C558.09 65.5862 560.544 64.3115 563.38 64.3115C567.3 64.3115 569.658 66.6697 569.658 70.7806V80.9144H567.109V71.3223C567.109 68.2631 565.42 66.6697 562.52 66.6697C559.429 66.6697 556.911 68.518 556.911 72.5014V80.9144H554.362Z" fill="black"/>
<path d="M579.558 81.2331C576.148 81.2331 573.694 79.6078 573.694 76.7716C573.694 74.031 575.734 71.9915 580.482 71.4179L586.473 70.7168V70.207C586.473 67.7532 584.943 66.5422 581.852 66.5422C579.016 66.5422 577.423 67.4982 576.817 69.5059H574.3C574.873 66.2873 577.805 64.3115 581.948 64.3115C586.25 64.3115 589.022 66.3829 589.022 70.3026V78.7474H592.05V80.9144H590.201C587.843 80.9144 586.505 79.8946 586.505 77.6639V76.7716H586.409C585.421 79.6716 582.904 81.2331 579.558 81.2331ZM576.339 76.6123C576.339 78.1738 577.55 79.1298 580.068 79.1298C583.828 79.1298 586.473 77.1541 586.473 74.0311V72.6608L580.577 73.3937C577.486 73.7761 576.339 75.0189 576.339 76.6123Z" fill="black"/>
<path d="M595.036 80.9144V64.6302H597.586V68.4543H597.713C598.382 65.7137 599.912 64.6302 602.493 64.6302H605.234V66.9884H602.366C598.159 66.9884 597.586 69.729 597.586 72.4058V80.9144H595.036Z" fill="black"/>
<path d="M608.605 87.2879V64.6302H611.154V68.8048H611.282C612.301 66.0323 614.914 64.3115 618.292 64.3115C622.945 64.3115 626.164 67.7213 626.164 72.7882C626.164 77.8551 622.945 81.2331 618.292 81.2331C614.914 81.2331 612.333 79.576 611.313 76.8035H611.154V87.2879H608.605ZM617.368 78.8749C621.192 78.8749 623.455 76.6123 623.455 72.7882C623.455 68.9323 621.192 66.6697 617.368 66.6697C613.385 66.6697 611.059 68.9323 611.059 72.7882C611.059 76.6123 613.385 78.8749 617.368 78.8749Z" fill="black"/>
<path d="M628.37 84.6429V83.2407H630.664V80.8825H629.007V77.6958H632.226V82.0616C632.226 83.8462 631.429 84.6429 629.517 84.6429H628.37Z" fill="black"/>
<path d="M25.1154 119.233C21.7056 119.233 19.2519 117.608 19.2519 114.772C19.2519 112.031 21.2914 109.992 26.0396 109.418L32.0307 108.717V108.207C32.0307 105.753 30.501 104.542 27.4099 104.542C24.5737 104.542 22.9803 105.498 22.3749 107.506H19.8573C20.4309 104.287 23.3627 102.312 27.5055 102.312C31.8076 102.312 34.5801 104.383 34.5801 108.303V116.747H37.6075V118.914H35.7591C33.401 118.914 32.0625 117.895 32.0625 115.664V114.772H31.9669C30.979 117.672 28.4615 119.233 25.1154 119.233ZM21.8968 114.612C21.8968 116.174 23.1078 117.13 25.6253 117.13C29.3857 117.13 32.0307 115.154 32.0307 112.031V110.661L26.1352 111.394C23.0441 111.776 21.8968 113.019 21.8968 114.612Z" fill="black"/>
<path d="M40.594 118.914V102.63H43.1434V106.709H43.2709C44.3225 103.586 46.7763 102.312 49.6125 102.312C53.5322 102.312 55.8904 104.67 55.8904 108.781V118.914H53.341V109.322C53.341 106.263 51.652 104.67 48.7521 104.67C45.6609 104.67 43.1434 106.518 43.1434 110.501V118.914H40.594Z" fill="black"/>
<path d="M68.4349 125.607C64.5471 125.607 61.6471 124.396 60.2131 122.229L61.9339 120.826C63.3042 122.579 65.3756 123.44 68.4349 123.44C72.4502 123.44 74.8084 121.878 74.8084 119.201V114.612H74.6809C73.6611 117.194 71.2073 118.755 67.8613 118.755C63.0812 118.755 59.8626 115.473 59.8626 110.565C59.8626 105.658 63.0812 102.375 67.8613 102.375C71.1755 102.375 73.6611 103.905 74.6809 106.582H74.8084V102.63H77.3577V119.169C77.3577 123.121 73.693 125.607 68.4349 125.607ZM68.658 116.461C72.6414 116.461 74.9677 114.262 74.9677 110.565C74.9677 106.837 72.6414 104.638 68.658 104.638C64.8339 104.638 62.5713 106.837 62.5713 110.565C62.5713 114.262 64.8339 116.461 68.658 116.461Z" fill="black"/>
<path d="M88.7882 119.233C84.8685 119.233 82.4466 116.875 82.4466 112.764V102.63H84.996V112.222C84.996 115.282 86.7168 116.875 89.6486 116.875C92.7079 116.875 95.0023 115.027 95.0023 111.043V102.63H97.5517V118.914H95.0023V114.835H94.8748C93.8232 117.958 91.5925 119.233 88.7882 119.233Z" fill="black"/>
<path d="M106.5 118.914C103.823 118.914 102.707 117.448 102.707 115.409V96.6072H105.257V116.747H110.356V118.914H106.5Z" fill="black"/>
<path d="M118.041 119.233C114.631 119.233 112.178 117.608 112.178 114.772C112.178 112.031 114.217 109.992 118.965 109.418L124.956 108.717V108.207C124.956 105.753 123.427 104.542 120.336 104.542C117.499 104.542 115.906 105.498 115.301 107.506H112.783C113.357 104.287 116.288 102.312 120.431 102.312C124.733 102.312 127.506 104.383 127.506 108.303V116.747H130.533V118.914H128.685C126.327 118.914 124.988 117.895 124.988 115.664V114.772H124.893C123.905 117.672 121.387 119.233 118.041 119.233ZM114.823 114.612C114.823 116.174 116.034 117.13 118.551 117.13C122.311 117.13 124.956 115.154 124.956 112.031V110.661L119.061 111.394C115.97 111.776 114.823 113.019 114.823 114.612Z" fill="black"/>
<path d="M133.52 118.914V102.63H136.069V106.454H136.197C136.866 103.714 138.395 102.63 140.977 102.63H143.717V104.988H140.849C136.643 104.988 136.069 107.729 136.069 110.406V118.914H133.52Z" fill="black"/>
<path d="M154.994 99.9533C154.994 97.8182 156.173 96.2886 158.977 96.2886H162.833V98.4237H157.543V102.63H162.291V104.829H157.543V118.914H154.994V104.829H151.712V102.63H154.994V99.9533Z" fill="black"/>
<path d="M172.732 119.233C167.091 119.233 163.649 115.983 163.649 110.82C163.649 105.721 167.187 102.312 172.381 102.312C177.894 102.312 180.826 105.466 180.826 111.33H166.358C166.549 115.154 168.684 116.97 172.763 116.97C175.504 116.97 177.416 116.078 178.372 114.23L180.443 115.154C179.232 117.64 176.715 119.233 172.732 119.233ZM166.454 109.29H178.213C177.862 106.199 175.918 104.574 172.413 104.574C169.099 104.574 166.964 106.072 166.454 109.29Z" fill="black"/>
<path d="M189.68 119.233C186.271 119.233 183.817 117.608 183.817 114.772C183.817 112.031 185.856 109.992 190.605 109.418L196.596 108.717V108.207C196.596 105.753 195.066 104.542 191.975 104.542C189.139 104.542 187.545 105.498 186.94 107.506H184.422C184.996 104.287 187.928 102.312 192.071 102.312C196.373 102.312 199.145 104.383 199.145 108.303V116.747H202.172V118.914H200.324C197.966 118.914 196.628 117.895 196.628 115.664V114.772H196.532C195.544 117.672 193.027 119.233 189.68 119.233ZM186.462 114.612C186.462 116.174 187.673 117.13 190.19 117.13C193.951 117.13 196.596 115.154 196.596 112.031V110.661L190.7 111.394C187.609 111.776 186.462 113.019 186.462 114.612Z" fill="black"/>
<path d="M209.893 119.01C207.534 119.01 206.005 117.735 206.005 115.313V104.829H202.499V102.63H206.005V98.3281L208.554 97.3721V102.63H213.876V104.829H208.554V116.716H214.035V119.01H209.893Z" fill="black"/>
<path d="M223.758 119.233C219.838 119.233 217.416 116.875 217.416 112.764V102.63H219.965V112.222C219.965 115.282 221.686 116.875 224.618 116.875C227.677 116.875 229.972 115.027 229.972 111.043V102.63H232.521V118.914H229.972V114.835H229.844C228.793 117.958 226.562 119.233 223.758 119.233Z" fill="black"/>
<path d="M237.804 118.914V102.63H240.354V106.454H240.481C241.15 103.714 242.68 102.63 245.261 102.63H248.002V104.988H245.134C240.927 104.988 240.354 107.729 240.354 110.406V118.914H237.804Z" fill="black"/>
<path d="M258.406 119.233C252.766 119.233 249.324 115.983 249.324 110.82C249.324 105.721 252.861 102.312 258.056 102.312C263.569 102.312 266.5 105.466 266.5 111.33H252.033C252.224 115.154 254.359 116.97 258.438 116.97C261.179 116.97 263.091 116.078 264.047 114.23L266.118 115.154C264.907 117.64 262.39 119.233 258.406 119.233ZM252.128 109.29H263.887C263.537 106.199 261.593 104.574 258.087 104.574C254.773 104.574 252.638 106.072 252.128 109.29Z" fill="black"/>
<path d="M277.331 119.233C273.061 119.233 270.161 117.735 269.077 114.931L271.435 114.039C272.137 116.078 274.335 117.066 277.458 117.066C280.39 117.066 282.111 116.11 282.111 114.453C282.111 110.119 269.651 113.879 269.651 107.155C269.651 104.128 272.423 102.312 276.853 102.312C280.549 102.312 283.131 103.618 284.246 106.072L281.92 106.964C281.123 105.275 279.307 104.478 276.789 104.478C273.985 104.478 272.36 105.403 272.36 106.996C272.36 111.203 284.788 107.506 284.788 114.23C284.788 117.353 281.92 119.233 277.331 119.233Z" fill="black"/>
<path d="M296.498 118.914V102.63H299.047V118.914H296.498ZM296.37 99.9215V96.6072H299.27V99.9215H296.37Z" fill="black"/>
<path d="M304.34 118.914V102.63H306.889V106.709H307.017C308.068 103.586 310.522 102.312 313.358 102.312C317.278 102.312 319.636 104.67 319.636 108.781V118.914H317.087V109.322C317.087 106.263 315.398 104.67 312.498 104.67C309.407 104.67 306.889 106.518 306.889 110.501V118.914H304.34Z" fill="black"/>
<path d="M338.623 119.233C334.704 119.233 332.282 116.875 332.282 112.764V102.63H334.831V112.222C334.831 115.282 336.552 116.875 339.484 116.875C342.543 116.875 344.837 115.027 344.837 111.043V102.63H347.387V118.914H344.837V114.835H344.71C343.658 117.958 341.428 119.233 338.623 119.233Z" fill="black"/>
<path d="M352.67 118.914V102.63H355.219V106.709H355.347C356.399 103.586 358.852 102.312 361.689 102.312C365.608 102.312 367.966 104.67 367.966 108.781V118.914H365.417V109.322C365.417 106.263 363.728 104.67 360.828 104.67C357.737 104.67 355.219 106.518 355.219 110.501V118.914H352.67Z" fill="black"/>
<path d="M381.021 119.233C375.38 119.233 371.939 115.983 371.939 110.82C371.939 105.721 375.476 102.312 380.67 102.312C386.183 102.312 389.115 105.466 389.115 111.33H374.647C374.839 115.154 376.974 116.97 381.053 116.97C383.793 116.97 385.705 116.078 386.661 114.23L388.733 115.154C387.522 117.64 385.004 119.233 381.021 119.233ZM374.743 109.29H386.502C386.151 106.199 384.208 104.574 380.702 104.574C377.388 104.574 375.253 106.072 374.743 109.29Z" fill="black"/>
<path d="M390.181 118.914L396.714 110.597L390.308 102.63H393.463L398.435 109.036L403.406 102.63H406.37L399.996 110.597L406.465 118.914H403.247L398.148 112.286L393.113 118.914H390.181Z" fill="black"/>
<path d="M409.589 125.288V102.63H412.139V106.805H412.266C413.286 104.032 415.899 102.312 419.277 102.312C423.93 102.312 427.148 105.721 427.148 110.788C427.148 115.855 423.93 119.233 419.277 119.233C415.899 119.233 413.318 117.576 412.298 114.804H412.139V125.288H409.589ZM418.353 116.875C422.177 116.875 424.44 114.612 424.44 110.788C424.44 106.932 422.177 104.67 418.353 104.67C414.369 104.67 412.043 106.932 412.043 110.788C412.043 114.612 414.369 116.875 418.353 116.875Z" fill="black"/>
<path d="M439.278 119.233C433.638 119.233 430.196 115.983 430.196 110.82C430.196 105.721 433.733 102.312 438.928 102.312C444.441 102.312 447.373 105.466 447.373 111.33H432.905C433.096 115.154 435.231 116.97 439.31 116.97C442.051 116.97 443.963 116.078 444.919 114.23L446.99 115.154C445.779 117.64 443.262 119.233 439.278 119.233ZM433 109.29H444.759C444.409 106.199 442.465 104.574 438.96 104.574C435.645 104.574 433.51 106.072 433 109.29Z" fill="black"/>
<path d="M459.159 119.233C453.869 119.233 450.268 115.855 450.268 110.82C450.268 105.721 453.869 102.312 459.159 102.312C462.792 102.312 465.564 103.937 466.807 106.518L464.353 107.442C463.557 105.689 461.74 104.638 459.159 104.638C455.271 104.638 452.977 106.996 452.977 110.82C452.977 114.58 455.271 116.907 459.159 116.907C461.9 116.907 463.748 115.791 464.513 113.847L466.935 114.772C465.724 117.544 462.919 119.233 459.159 119.233Z" fill="black"/>
<path d="M476.128 119.01C473.77 119.01 472.24 117.735 472.24 115.313V104.829H468.735V102.63H472.24V98.3281L474.79 97.3721V102.63H480.112V104.829H474.79V116.716H480.271V119.01H476.128Z" fill="black"/>
<path d="M491.094 119.233C485.453 119.233 482.012 115.983 482.012 110.82C482.012 105.721 485.549 102.312 490.743 102.312C496.256 102.312 499.188 105.466 499.188 111.33H484.72C484.912 115.154 487.047 116.97 491.126 116.97C493.866 116.97 495.778 116.078 496.734 114.23L498.806 115.154C497.595 117.64 495.077 119.233 491.094 119.233ZM484.816 109.29H496.575C496.225 106.199 494.281 104.574 490.775 104.574C487.461 104.574 485.326 106.072 484.816 109.29Z" fill="black"/>
<path d="M519.674 118.914H517.125V114.804H516.966C515.946 117.576 513.365 119.233 509.987 119.233C505.334 119.233 502.116 115.855 502.116 110.788C502.116 105.721 505.334 102.312 509.987 102.312C513.365 102.312 515.978 104.032 516.998 106.805H517.125V96.6072H519.674V118.914ZM510.911 116.875C514.894 116.875 517.221 114.612 517.221 110.788C517.221 106.932 514.894 104.67 510.911 104.67C507.087 104.67 504.824 106.932 504.824 110.788C504.824 114.612 507.087 116.875 510.911 116.875Z" fill="black"/>
<path d="M535.938 118.914L530.106 102.63H532.751L537.372 115.983H537.467L542.184 102.63H544.797L549.513 115.983H549.609L554.293 102.63H556.779L550.915 118.914H548.143L543.427 105.785H543.299L538.646 118.914H535.938Z" fill="black"/>
<path d="M564.277 119.233C560.868 119.233 558.414 117.608 558.414 114.772C558.414 112.031 560.453 109.992 565.202 109.418L571.193 108.717V108.207C571.193 105.753 569.663 104.542 566.572 104.542C563.736 104.542 562.142 105.498 561.537 107.506H559.019C559.593 104.287 562.525 102.312 566.668 102.312C570.97 102.312 573.742 104.383 573.742 108.303V116.747H576.769V118.914H574.921C572.563 118.914 571.225 117.895 571.225 115.664V114.772H571.129C570.141 117.672 567.624 119.233 564.277 119.233ZM561.059 114.612C561.059 116.174 562.27 117.13 564.787 117.13C568.548 117.13 571.193 115.154 571.193 112.031V110.661L565.297 111.394C562.206 111.776 561.059 113.019 561.059 114.612Z" fill="black"/>
<path d="M579.654 125.575C578.475 125.575 577.2 125.288 576.021 124.459L577.073 122.452C577.838 123.025 578.698 123.376 579.718 123.376C581.279 123.376 582.203 122.738 582.841 121.4L584.052 118.787L576.467 102.63H579.24L585.422 115.823L590.967 102.63H593.612L585.135 121.974C583.988 124.491 582.49 125.575 579.654 125.575Z" fill="black"/>
<path d="M603.256 119.233C598.985 119.233 596.085 117.735 595.002 114.931L597.36 114.039C598.061 116.078 600.26 117.066 603.383 117.066C606.315 117.066 608.036 116.11 608.036 114.453C608.036 110.119 595.576 113.879 595.576 107.155C595.576 104.128 598.348 102.312 602.778 102.312C606.474 102.312 609.055 103.618 610.171 106.072L607.844 106.964C607.048 105.275 605.231 104.478 602.714 104.478C599.909 104.478 598.284 105.403 598.284 106.996C598.284 111.203 610.712 107.506 610.712 114.23C610.712 117.353 607.844 119.233 603.256 119.233Z" fill="black"/>
<path d="M621.626 111.043V108.685H651.9V111.043H621.626Z" fill="black"/>
<path d="M20.3035 156.914V140.63H22.8529V144.709H23.0122C24.0957 141.586 26.2945 140.312 29.0989 140.312C32.4131 140.312 34.5163 142 35.0899 144.996H35.2174C36.3009 141.65 38.6272 140.312 41.5271 140.312C45.4468 140.312 47.7094 142.67 47.7094 146.781V156.914H45.16V147.322C45.16 144.263 43.6304 142.67 40.7305 142.67C37.6393 142.67 35.2811 144.518 35.2811 148.501V156.914H32.7317V147.322C32.7317 144.263 31.2021 142.67 28.3022 142.67C25.211 142.67 22.8529 144.518 22.8529 148.501V156.914H20.3035Z" fill="black"/>
<path d="M60.537 157.233C55.247 157.233 51.646 153.855 51.646 148.82C51.646 143.721 55.247 140.312 60.537 140.312C65.8589 140.312 69.4599 143.721 69.4599 148.82C69.4599 153.855 65.8589 157.233 60.537 157.233ZM60.537 154.907C64.4567 154.907 66.7511 152.58 66.7511 148.82C66.7511 144.996 64.4567 142.638 60.537 142.638C56.6492 142.638 54.3547 144.996 54.3547 148.82C54.3547 152.58 56.6492 154.907 60.537 154.907Z" fill="black"/>
<path d="M80.4006 157.233C76.1304 157.233 73.2304 155.735 72.1469 152.931L74.5051 152.039C75.2062 154.078 77.405 155.066 80.528 155.066C83.4598 155.066 85.1807 154.11 85.1807 152.453C85.1807 148.119 72.7205 151.879 72.7205 145.155C72.7205 142.128 75.493 140.312 79.9226 140.312C83.6192 140.312 86.2004 141.618 87.3158 144.072L84.9895 144.964C84.1928 143.275 82.3764 142.478 79.8588 142.478C77.0545 142.478 75.4293 143.403 75.4293 144.996C75.4293 149.203 87.8575 145.506 87.8575 152.23C87.8575 155.353 84.9895 157.233 80.4006 157.233Z" fill="black"/>
<path d="M97.112 157.01C94.7538 157.01 93.2242 155.735 93.2242 153.313V142.829H89.7188V140.63H93.2242V136.328L95.7736 135.372V140.63H101.095V142.829H95.7736V154.716H101.255V157.01H97.112Z" fill="black"/>
<path d="M112.576 156.914V140.63H115.125V144.709H115.253C116.304 141.586 118.758 140.312 121.594 140.312C125.514 140.312 127.872 142.67 127.872 146.781V156.914H125.323V147.322C125.323 144.263 123.634 142.67 120.734 142.67C117.643 142.67 115.125 144.518 115.125 148.501V156.914H112.576Z" fill="black"/>
<path d="M140.703 157.233C135.413 157.233 131.812 153.855 131.812 148.82C131.812 143.721 135.413 140.312 140.703 140.312C146.025 140.312 149.626 143.721 149.626 148.82C149.626 153.855 146.025 157.233 140.703 157.233ZM140.703 154.907C144.623 154.907 146.917 152.58 146.917 148.82C146.917 144.996 144.623 142.638 140.703 142.638C136.816 142.638 134.521 144.996 134.521 148.82C134.521 152.58 136.816 154.907 140.703 154.907Z" fill="black"/>
<path d="M158.699 157.01C156.341 157.01 154.812 155.735 154.812 153.313V142.829H151.306V140.63H154.812V136.328L157.361 135.372V140.63H162.683V142.829H157.361V154.716H162.842V157.01H158.699Z" fill="black"/>
<path d="M171.226 157.233C167.816 157.233 165.362 155.608 165.362 152.772C165.362 150.031 167.402 147.992 172.15 147.418L178.141 146.717V146.207C178.141 143.753 176.612 142.542 173.52 142.542C170.684 142.542 169.091 143.498 168.485 145.506H165.968C166.542 142.287 169.473 140.312 173.616 140.312C177.918 140.312 180.691 142.383 180.691 146.303V154.747H183.718V156.914H181.87C179.512 156.914 178.173 155.895 178.173 153.664V152.772H178.078C177.09 155.672 174.572 157.233 171.226 157.233ZM168.007 152.612C168.007 154.174 169.218 155.13 171.736 155.13C175.496 155.13 178.141 153.154 178.141 150.031V148.661L172.246 149.394C169.155 149.776 168.007 151.019 168.007 152.612Z" fill="black"/>
<path d="M186.705 156.914V134.607H189.254V144.805H189.381C190.401 142.032 193.014 140.312 196.392 140.312C201.045 140.312 204.264 143.721 204.264 148.788C204.264 153.855 201.045 157.233 196.392 157.233C193.014 157.233 190.433 155.576 189.413 152.804H189.254V156.914H186.705ZM195.468 154.875C199.292 154.875 201.555 152.612 201.555 148.788C201.555 144.932 199.292 142.67 195.468 142.67C191.485 142.67 189.158 144.932 189.158 148.788C189.158 152.612 191.485 154.875 195.468 154.875Z" fill="black"/>
<path d="M212.091 156.914C209.415 156.914 208.299 155.449 208.299 153.409V134.607H210.849V154.747H215.947V156.914H212.091Z" fill="black"/>
<path d="M218.314 163.575C217.135 163.575 215.861 163.288 214.681 162.459L215.733 160.452C216.498 161.025 217.358 161.376 218.378 161.376C219.94 161.376 220.864 160.738 221.501 159.4L222.712 156.787L215.128 140.63H217.9L224.082 153.823L229.627 140.63H232.272L223.795 159.974C222.648 162.491 221.15 163.575 218.314 163.575Z" fill="black"/>
<path d="M242.566 156.914V140.63H245.115V156.914H242.566ZM242.438 137.921V134.607H245.338V137.921H242.438Z" fill="black"/>
<path d="M250.408 156.914V140.63H252.958V144.709H253.085C254.137 141.586 256.59 140.312 259.427 140.312C263.346 140.312 265.705 142.67 265.705 146.781V156.914H263.155V147.322C263.155 144.263 261.466 142.67 258.566 142.67C255.475 142.67 252.958 144.518 252.958 148.501V156.914H250.408Z" fill="black"/>
<path d="M283.306 157.01C280.948 157.01 279.418 155.735 279.418 153.313V142.829H275.913V140.63H279.418V136.328L281.967 135.372V140.63H287.289V142.829H281.967V154.716H287.449V157.01H283.306Z" fill="black"/>
<path d="M291.02 156.914V134.607H293.57V144.709H293.697C294.749 141.586 297.203 140.312 300.039 140.312C303.959 140.312 306.317 142.67 306.317 146.781V156.914H303.767V147.322C303.767 144.263 302.078 142.67 299.178 142.67C296.087 142.67 293.57 144.518 293.57 148.501V156.914H291.02Z" fill="black"/>
<path d="M319.371 157.233C313.731 157.233 310.289 153.983 310.289 148.82C310.289 143.721 313.826 140.312 319.021 140.312C324.534 140.312 327.465 143.466 327.465 149.33H312.998C313.189 153.154 315.324 154.97 319.403 154.97C322.144 154.97 324.056 154.078 325.012 152.23L327.083 153.154C325.872 155.64 323.355 157.233 319.371 157.233ZM313.093 147.29H324.852C324.502 144.199 322.558 142.574 319.052 142.574C315.738 142.574 313.603 144.072 313.093 147.29Z" fill="black"/>
<path d="M342.922 156.914C340.245 156.914 339.13 155.449 339.13 153.409V134.607H341.679V154.747H346.778V156.914H342.922Z" fill="black"/>
<path d="M356.934 157.233C351.293 157.233 347.851 153.983 347.851 148.82C347.851 143.721 351.389 140.312 356.583 140.312C362.096 140.312 365.028 143.466 365.028 149.33H350.56C350.751 153.154 352.886 154.97 356.965 154.97C359.706 154.97 361.618 154.078 362.574 152.23L364.645 153.154C363.434 155.64 360.917 157.233 356.934 157.233ZM350.656 147.29H362.415C362.064 144.199 360.12 142.574 356.615 142.574C353.301 142.574 351.166 144.072 350.656 147.29Z" fill="black"/>
<path d="M376.527 163.607C372.64 163.607 369.74 162.396 368.306 160.229L370.027 158.826C371.397 160.579 373.468 161.44 376.527 161.44C380.543 161.44 382.901 159.878 382.901 157.201V152.612H382.773C381.754 155.194 379.3 156.755 375.954 156.755C371.174 156.755 367.955 153.473 367.955 148.565C367.955 143.658 371.174 140.375 375.954 140.375C379.268 140.375 381.754 141.905 382.773 144.582H382.901V140.63H385.45V157.169C385.45 161.121 381.786 163.607 376.527 163.607ZM376.751 154.461C380.734 154.461 383.06 152.262 383.06 148.565C383.06 144.837 380.734 142.638 376.751 142.638C372.926 142.638 370.664 144.837 370.664 148.565C370.664 152.262 372.926 154.461 376.751 154.461Z" fill="black"/>
<path d="M406.223 157.233C400.933 157.233 397.332 153.855 397.332 148.82C397.332 143.721 400.933 140.312 406.223 140.312C411.545 140.312 415.146 143.721 415.146 148.82C415.146 153.855 411.545 157.233 406.223 157.233ZM406.223 154.907C410.143 154.907 412.437 152.58 412.437 148.82C412.437 144.996 410.143 142.638 406.223 142.638C402.335 142.638 400.041 144.996 400.041 148.82C400.041 152.58 402.335 154.907 406.223 154.907Z" fill="black"/>
<path d="M420.202 137.953C420.202 135.818 421.382 134.289 424.186 134.289H428.042V136.424H422.752V140.63H427.5V142.829H422.752V156.914H420.202V142.829H416.92V140.63H420.202V137.953Z" fill="black"/>
<path d="M442.549 157.01C440.191 157.01 438.661 155.735 438.661 153.313V142.829H435.156V140.63H438.661V136.328L441.211 135.372V140.63H446.533V142.829H441.211V154.716H446.692V157.01H442.549Z" fill="black"/>
<path d="M450.264 156.914V134.607H452.813V144.709H452.941C453.992 141.586 456.446 140.312 459.282 140.312C463.202 140.312 465.56 142.67 465.56 146.781V156.914H463.011V147.322C463.011 144.263 461.322 142.67 458.422 142.67C455.331 142.67 452.813 144.518 452.813 148.501V156.914H450.264Z" fill="black"/>
<path d="M478.615 157.233C472.974 157.233 469.532 153.983 469.532 148.82C469.532 143.721 473.07 140.312 478.264 140.312C483.777 140.312 486.709 143.466 486.709 149.33H472.241C472.432 153.154 474.567 154.97 478.646 154.97C481.387 154.97 483.299 154.078 484.255 152.23L486.326 153.154C485.116 155.64 482.598 157.233 478.615 157.233ZM472.337 147.29H484.096C483.745 144.199 481.801 142.574 478.296 142.574C474.982 142.574 472.847 144.072 472.337 147.29Z" fill="black"/>
<path d="M498.819 156.914V134.607H510.355C515.04 134.607 517.844 136.551 517.844 139.961C517.844 142.415 516.187 144.295 513.319 145.028V145.123H514.689C516.984 145.123 518.226 146.334 518.226 148.661V156.914H515.518V147.163H501.528V156.914H498.819ZM501.528 144.677H510.196C513.383 144.677 515.135 143.116 515.135 140.63C515.135 138.272 513.542 137.061 510.355 137.061H501.528V144.677Z" fill="black"/>
<path d="M521.938 160.643V159.241H524.232V156.883H522.575V153.696H525.794V158.062C525.794 159.846 524.997 160.643 523.085 160.643H521.938Z" fill="black"/>
<path d="M542.166 157.01C539.808 157.01 538.278 155.735 538.278 153.313V142.829H534.773V140.63H538.278V136.328L540.827 135.372V140.63H546.149V142.829H540.827V154.716H546.309V157.01H542.166Z" fill="black"/>
<path d="M549.88 156.914V134.607H552.43V144.709H552.557C553.609 141.586 556.063 140.312 558.899 140.312C562.819 140.312 565.177 142.67 565.177 146.781V156.914H562.627V147.322C562.627 144.263 560.938 142.67 558.039 142.67C554.947 142.67 552.43 144.518 552.43 148.501V156.914H549.88Z" fill="black"/>
<path d="M578.231 157.233C572.591 157.233 569.149 153.983 569.149 148.82C569.149 143.721 572.686 140.312 577.881 140.312C583.394 140.312 586.326 143.466 586.326 149.33H571.858C572.049 153.154 574.184 154.97 578.263 154.97C581.004 154.97 582.916 154.078 583.872 152.23L585.943 153.154C584.732 155.64 582.215 157.233 578.231 157.233ZM571.953 147.29H583.712C583.362 144.199 581.418 142.574 577.913 142.574C574.598 142.574 572.463 144.072 571.953 147.29Z" fill="black"/>
<path d="M602.882 157.01C600.524 157.01 598.994 155.735 598.994 153.313V142.829H595.489V140.63H598.994V136.328L601.543 135.372V140.63H606.865V142.829H601.543V154.716H607.025V157.01H602.882Z" fill="black"/>
<path d="M615.408 157.233C611.999 157.233 609.545 155.608 609.545 152.772C609.545 150.031 611.584 147.992 616.333 147.418L622.324 146.717V146.207C622.324 143.753 620.794 142.542 617.703 142.542C614.867 142.542 613.273 143.498 612.668 145.506H610.15C610.724 142.287 613.656 140.312 617.799 140.312C622.101 140.312 624.873 142.383 624.873 146.303V154.747H627.9V156.914H626.052C623.694 156.914 622.356 155.895 622.356 153.664V152.772H622.26C621.272 155.672 618.755 157.233 615.408 157.233ZM612.19 152.612C612.19 154.174 613.401 155.13 615.918 155.13C619.679 155.13 622.324 153.154 622.324 150.031V148.661L616.428 149.394C613.337 149.776 612.19 151.019 612.19 152.612Z" fill="black"/>
<path d="M630.887 156.914V140.63H633.436V156.914H630.887ZM630.76 137.921V134.607H633.659V137.921H630.76Z" fill="black"/>
<path d="M642.394 156.914C639.717 156.914 638.602 155.449 638.602 153.409V134.607H641.151V154.747H646.25V156.914H642.394Z" fill="black"/>
<path d="M655.694 157.233C651.423 157.233 648.523 155.735 647.44 152.931L649.798 152.039C650.499 154.078 652.698 155.066 655.821 155.066C658.753 155.066 660.474 154.11 660.474 152.453C660.474 148.119 648.013 151.879 648.013 145.155C648.013 142.128 650.786 140.312 655.216 140.312C658.912 140.312 661.493 141.618 662.609 144.072L660.282 144.964C659.486 143.275 657.669 142.478 655.152 142.478C652.347 142.478 650.722 143.403 650.722 144.996C650.722 149.203 663.15 145.506 663.15 152.23C663.15 155.353 660.282 157.233 655.694 157.233Z" fill="black"/>
<path d="M28.0472 195.233C22.7573 195.233 19.1562 191.855 19.1562 186.82C19.1562 181.721 22.7573 178.312 28.0472 178.312C33.3691 178.312 36.9701 181.721 36.9701 186.82C36.9701 191.855 33.3691 195.233 28.0472 195.233ZM28.0472 192.907C31.9669 192.907 34.2614 190.58 34.2614 186.82C34.2614 182.996 31.9669 180.638 28.0472 180.638C24.1594 180.638 21.865 182.996 21.865 186.82C21.865 190.58 24.1594 192.907 28.0472 192.907Z" fill="black"/>
<path d="M42.0266 175.953C42.0266 173.818 43.2056 172.289 46.01 172.289H49.8659V174.424H44.5759V178.63H49.3242V180.829H44.5759V194.914H42.0266V180.829H38.7442V178.63H42.0266V175.953Z" fill="black"/>
<path d="M64.4206 195.233C61.0108 195.233 58.557 193.608 58.557 190.772C58.557 188.031 60.5965 185.992 65.3447 185.418L71.3358 184.717V184.207C71.3358 181.753 69.8062 180.542 66.715 180.542C63.8789 180.542 62.2855 181.498 61.68 183.506H59.1625C59.7361 180.287 62.6679 178.312 66.8106 178.312C71.1127 178.312 73.8852 180.383 73.8852 184.303V192.747H76.9126V194.914H75.0643C72.7061 194.914 71.3677 193.895 71.3677 191.664V190.772H71.2721C70.2842 193.672 67.7667 195.233 64.4206 195.233ZM61.202 190.612C61.202 192.174 62.413 193.13 64.9305 193.13C68.6908 193.13 71.3358 191.154 71.3358 188.031V186.661L65.4403 187.394C62.3492 187.776 61.202 189.019 61.202 190.612Z" fill="black"/>
<path d="M91.8689 195.233C88.459 195.233 86.0053 193.608 86.0053 190.772C86.0053 188.031 88.0448 185.992 92.793 185.418L98.7841 184.717V184.207C98.7841 181.753 97.2544 180.542 94.1633 180.542C91.3271 180.542 89.7337 181.498 89.1283 183.506H86.6107C87.1843 180.287 90.1161 178.312 94.2589 178.312C98.561 178.312 101.333 180.383 101.333 184.303V192.747H104.361V194.914H102.513C100.154 194.914 98.8159 193.895 98.8159 191.664V190.772H98.7203C97.7324 193.672 95.2149 195.233 91.8689 195.233ZM88.6502 190.612C88.6502 192.174 89.8612 193.13 92.3787 193.13C96.1391 193.13 98.7841 191.154 98.7841 188.031V186.661L92.8886 187.394C89.7975 187.776 88.6502 189.019 88.6502 190.612Z" fill="black"/>
<path d="M107.347 194.914V178.63H109.897V182.709H110.024C111.076 179.586 113.53 178.312 116.366 178.312C120.286 178.312 122.644 180.67 122.644 184.781V194.914H120.094V185.322C120.094 182.263 118.405 180.67 115.505 180.67C112.414 180.67 109.897 182.518 109.897 186.501V194.914H107.347Z" fill="black"/>
<path d="M144.175 194.914H141.625V190.804H141.466C140.446 193.576 137.865 195.233 134.487 195.233C129.835 195.233 126.616 191.855 126.616 186.788C126.616 181.721 129.835 178.312 134.487 178.312C137.865 178.312 140.478 180.032 141.498 182.805H141.625V172.607H144.175V194.914ZM135.411 192.875C139.395 192.875 141.721 190.612 141.721 186.788C141.721 182.932 139.395 180.67 135.411 180.67C131.587 180.67 129.325 182.932 129.325 186.788C129.325 190.612 131.587 192.875 135.411 192.875Z" fill="black"/>
<path d="M160.867 194.914C158.19 194.914 157.075 193.449 157.075 191.409V172.607H159.624V192.747H164.723V194.914H160.867Z" fill="black"/>
<path d="M166.418 198.643V197.241H168.712V194.883H167.055V191.696H170.273V196.062C170.273 197.846 169.477 198.643 167.565 198.643H166.418Z" fill="black"/>
<path d="M186.693 195.233C183.283 195.233 180.829 193.608 180.829 190.772C180.829 188.031 182.869 185.992 187.617 185.418L193.608 184.717V184.207C193.608 181.753 192.078 180.542 188.987 180.542C186.151 180.542 184.558 181.498 183.952 183.506H181.435C182.008 180.287 184.94 178.312 189.083 178.312C193.385 178.312 196.158 180.383 196.158 184.303V192.747H199.185V194.914H197.337C194.978 194.914 193.64 193.895 193.64 191.664V190.772H193.544C192.557 193.672 190.039 195.233 186.693 195.233ZM183.474 190.612C183.474 192.174 184.685 193.13 187.203 193.13C190.963 193.13 193.608 191.154 193.608 188.031V186.661L187.713 187.394C184.622 187.776 183.474 189.019 183.474 190.612Z" fill="black"/>
<path d="M202.171 194.914V178.63H204.721V182.709H204.848C205.9 179.586 208.354 178.312 211.19 178.312C215.11 178.312 217.468 180.67 217.468 184.781V194.914H214.918V185.322C214.918 182.263 213.229 180.67 210.33 180.67C207.238 180.67 204.721 182.518 204.721 186.501V194.914H202.171Z" fill="black"/>
<path d="M238.999 194.914H236.45V190.804H236.29C235.27 193.576 232.689 195.233 229.311 195.233C224.659 195.233 221.44 191.855 221.44 186.788C221.44 181.721 224.659 178.312 229.311 178.312C232.689 178.312 235.302 180.032 236.322 182.805H236.45V172.607H238.999V194.914ZM230.235 192.875C234.219 192.875 236.545 190.612 236.545 186.788C236.545 182.932 234.219 180.67 230.235 180.67C226.411 180.67 224.149 182.932 224.149 186.788C224.149 190.612 226.411 192.875 230.235 192.875Z" fill="black"/>
<path d="M256.791 195.01C254.433 195.01 252.903 193.735 252.903 191.313V180.829H249.398V178.63H252.903V174.328L255.453 173.372V178.63H260.775V180.829H255.453V192.716H260.934V195.01H256.791Z" fill="black"/>
<path d="M264.506 194.914V172.607H267.055V182.709H267.183C268.234 179.586 270.688 178.312 273.524 178.312C277.444 178.312 279.802 180.67 279.802 184.781V194.914H277.253V185.322C277.253 182.263 275.564 180.67 272.664 180.67C269.573 180.67 267.055 182.518 267.055 186.501V194.914H264.506Z" fill="black"/>
<path d="M292.857 195.233C287.216 195.233 283.774 191.983 283.774 186.82C283.774 181.721 287.312 178.312 292.506 178.312C298.019 178.312 300.951 181.466 300.951 187.33H286.483C286.674 191.154 288.809 192.97 292.888 192.97C295.629 192.97 297.541 192.078 298.497 190.23L300.568 191.154C299.357 193.64 296.84 195.233 292.857 195.233ZM286.579 185.29H298.338C297.987 182.199 296.043 180.574 292.538 180.574C289.224 180.574 287.089 182.072 286.579 185.29Z" fill="black"/>
<path d="M320.486 195.233C315.196 195.233 311.595 191.855 311.595 186.82C311.595 181.721 315.196 178.312 320.486 178.312C324.119 178.312 326.892 179.937 328.134 182.518L325.681 183.442C324.884 181.689 323.068 180.638 320.486 180.638C316.598 180.638 314.304 182.996 314.304 186.82C314.304 190.58 316.598 192.907 320.486 192.907C323.227 192.907 325.075 191.791 325.84 189.847L328.262 190.772C327.051 193.544 324.247 195.233 320.486 195.233Z" fill="black"/>
<path d="M339.688 195.233C334.398 195.233 330.797 191.855 330.797 186.82C330.797 181.721 334.398 178.312 339.688 178.312C345.009 178.312 348.61 181.721 348.61 186.82C348.61 191.855 345.009 195.233 339.688 195.233ZM339.688 192.907C343.607 192.907 345.902 190.58 345.902 186.82C345.902 182.996 343.607 180.638 339.688 180.638C335.8 180.638 333.505 182.996 333.505 186.82C333.505 190.58 335.8 192.907 339.688 192.907Z" fill="black"/>
<path d="M352.763 194.914V178.63H355.313V182.709H355.44C356.492 179.586 358.946 178.312 361.782 178.312C365.702 178.312 368.06 180.67 368.06 184.781V194.914H365.51V185.322C365.51 182.263 363.821 180.67 360.921 180.67C357.83 180.67 355.313 182.518 355.313 186.501V194.914H352.763Z" fill="black"/>
<path d="M379.935 195.233C375.665 195.233 372.765 193.735 371.681 190.931L374.04 190.039C374.741 192.078 376.94 193.066 380.063 193.066C382.994 193.066 384.715 192.11 384.715 190.453C384.715 186.119 372.255 189.879 372.255 183.155C372.255 180.128 375.027 178.312 379.457 178.312C383.154 178.312 385.735 179.618 386.85 182.072L384.524 182.964C383.727 181.275 381.911 180.478 379.393 180.478C376.589 180.478 374.964 181.403 374.964 182.996C374.964 187.202 387.392 183.506 387.392 190.23C387.392 193.353 384.524 195.233 379.935 195.233Z" fill="black"/>
<path d="M396.647 195.01C394.288 195.01 392.759 193.735 392.759 191.313V180.829H389.253V178.63H392.759V174.328L395.308 173.372V178.63H400.63V180.829H395.308V192.716H400.789V195.01H396.647Z" fill="black"/>
<path d="M404.361 194.914V178.63H406.911V182.454H407.038C407.707 179.714 409.237 178.63 411.818 178.63H414.559V180.988H411.691C407.484 180.988 406.911 183.729 406.911 186.406V194.914H404.361Z" fill="black"/>
<path d="M424.08 195.233C420.16 195.233 417.738 192.875 417.738 188.764V178.63H420.288V188.222C420.288 191.282 422.009 192.875 424.94 192.875C428 192.875 430.294 191.027 430.294 187.043V178.63H432.844V194.914H430.294V190.835H430.167C429.115 193.958 426.884 195.233 424.08 195.233Z" fill="black"/>
<path d="M445.871 195.233C440.581 195.233 436.98 191.855 436.98 186.82C436.98 181.721 440.581 178.312 445.871 178.312C449.504 178.312 452.276 179.937 453.519 182.518L451.065 183.442C450.268 181.689 448.452 180.638 445.871 180.638C441.983 180.638 439.688 182.996 439.688 186.82C439.688 190.58 441.983 192.907 445.871 192.907C448.611 192.907 450.46 191.791 451.224 189.847L453.646 190.772C452.435 193.544 449.631 195.233 445.871 195.233Z" fill="black"/>
<path d="M462.84 195.01C460.482 195.01 458.952 193.735 458.952 191.313V180.829H455.447V178.63H458.952V174.328L461.501 173.372V178.63H466.823V180.829H461.501V192.716H466.982V195.01H462.84Z" fill="black"/>
<path d="M470.554 194.914V178.63H473.104V194.914H470.554ZM470.427 175.921V172.607H473.327V175.921H470.427Z" fill="black"/>
<path d="M486.141 195.233C480.851 195.233 477.25 191.855 477.25 186.82C477.25 181.721 480.851 178.312 486.141 178.312C491.462 178.312 495.063 181.721 495.063 186.82C495.063 191.855 491.462 195.233 486.141 195.233ZM486.141 192.907C490.06 192.907 492.355 190.58 492.355 186.82C492.355 182.996 490.06 180.638 486.141 180.638C482.253 180.638 479.958 182.996 479.958 186.82C479.958 190.58 482.253 192.907 486.141 192.907Z" fill="black"/>
<path d="M499.216 194.914V178.63H501.766V182.709H501.893C502.945 179.586 505.399 178.312 508.235 178.312C512.154 178.312 514.513 180.67 514.513 184.781V194.914H511.963V185.322C511.963 182.263 510.274 180.67 507.374 180.67C504.283 180.67 501.766 182.518 501.766 186.501V194.914H499.216Z" fill="black"/>
<path d="M535.093 195.233C529.803 195.233 526.202 191.855 526.202 186.82C526.202 181.721 529.803 178.312 535.093 178.312C540.415 178.312 544.016 181.721 544.016 186.82C544.016 191.855 540.415 195.233 535.093 195.233ZM535.093 192.907C539.013 192.907 541.307 190.58 541.307 186.82C541.307 182.996 539.013 180.638 535.093 180.638C531.205 180.638 528.911 182.996 528.911 186.82C528.911 190.58 531.205 192.907 535.093 192.907Z" fill="black"/>
<path d="M549.072 175.953C549.072 173.818 550.251 172.289 553.056 172.289H556.912V174.424H551.622V178.63H556.37V180.829H551.622V194.914H549.072V180.829H545.79V178.63H549.072V175.953Z" fill="black"/>
<path d="M571.419 195.01C569.061 195.01 567.531 193.735 567.531 191.313V180.829H564.026V178.63H567.531V174.328L570.081 173.372V178.63H575.402V180.829H570.081V192.716H575.562V195.01H571.419Z" fill="black"/>
<path d="M578.528 194.914V191.696H581.779V194.914H578.528Z" fill="black"/>
</svg>
