<svg width="760" height="506" viewBox="0 0 760 506" fill="none" xmlns="http://www.w3.org/2000/svg">
<g clip-path="url(#clip0_11245_110)">
<rect width="760" height="506" fill="black"/>
<path d="M-192.183 62.9124V0.886089H-167.461C-155.233 0.886089 -147.524 5.9368 -147.524 15.9496C-147.524 21.7978 -150.803 26.8485 -156.385 29.684V29.9498H-155.676C-150.36 29.9498 -147.436 32.7853 -147.436 38.1905V62.9124H-154.525V35.6208H-185.095V62.9124H-192.183ZM-185.095 28.9751H-167.904C-159.221 28.9751 -154.613 25.3422 -154.613 17.9876C-154.613 10.8103 -159.221 7.53176 -167.904 7.53176H-185.095V28.9751Z" fill="white"/>
<path d="M-115.022 63.7984C-128.579 63.7984 -136.377 54.7603 -136.377 40.4057C-136.377 26.3169 -128.225 16.8357 -116.174 16.8357C-103.237 16.8357 -96.6802 25.4308 -96.6802 41.912H-129.288C-128.934 52.5451 -124.415 57.773 -114.934 57.773C-109.706 57.773 -105.364 55.5578 -102.971 50.7729L-97.6549 53.3426C-100.579 59.811 -106.693 63.7984 -115.022 63.7984ZM-129.022 36.2411H-103.503C-104.123 27.4688 -108.288 22.8611 -116.086 22.8611C-123.44 22.8611 -128.048 27.2916 -129.022 36.2411Z" fill="white"/>
<path d="M-67.6172 81.5202C-77.0983 81.5202 -84.2757 77.6214 -86.6681 70.6213L-80.6427 68.1403C-78.5161 73.191 -74.0856 75.672 -67.6172 75.672C-59.3765 75.672 -54.3258 71.3302 -54.3258 64.9504V53.7856H-54.8575C-57.6044 59.2794 -62.5665 62.5579 -69.8324 62.5579C-80.8199 62.5579 -88.3517 53.4312 -88.3517 39.7854C-88.3517 26.2283 -80.8199 17.0129 -69.8324 17.0129C-62.5665 17.0129 -57.4271 20.3801 -54.7689 26.1396H-54.3258V17.7218H-47.6802V64.8618C-47.6802 75.0518 -55.3005 81.5202 -67.6172 81.5202ZM-67.9716 56.5325C-59.1993 56.5325 -54.1486 50.2413 -54.1486 39.7854C-54.1486 29.241 -59.1993 23.0383 -67.9716 23.0383C-76.3008 23.0383 -81.263 29.241 -81.263 39.7854C-81.263 50.2413 -76.3008 56.5325 -67.9716 56.5325Z" fill="white"/>
<path d="M-18.3707 63.7984C-27.3202 63.7984 -33.257 58.0389 -33.257 47.14V17.7218H-26.6113V45.7222C-26.6113 53.9629 -22.4467 57.5958 -15.8896 57.5958C-8.88952 57.5958 -4.37047 53.4312 -4.37047 42.5323V17.7218H2.27521V62.9124H-4.37047V54.3173H-4.81351C-7.649 61.3174 -12.6111 63.7984 -18.3707 63.7984Z" fill="white"/>
<path d="M27.1259 62.9124C19.9486 62.9124 16.9358 59.0136 16.9358 53.5198V0.886089H23.5815V57.1528H35.5437V62.9124H27.1259Z" fill="white"/>
<path d="M55.4613 63.7984C47.7524 63.7984 40.8409 59.811 40.8409 51.8362C40.8409 43.95 47.0435 38.1018 58.5627 36.4183L70.6135 34.6461V31.8992C70.6135 25.608 67.4236 22.7725 60.4235 22.7725C53.8664 22.7725 50.6765 24.9877 48.9929 30.6587H42.4358C43.765 21.8864 51.0309 16.8357 60.8665 16.8357C71.1451 16.8357 77.3478 21.8864 77.3478 32.165V57.1528H84.8795V62.9124H80.6263C74.9553 62.9124 70.8793 60.3427 70.8793 54.8489V54.4945H70.5249C67.778 60.3427 62.4615 63.7984 55.4613 63.7984ZM47.9296 51.1274C47.9296 55.2034 50.4106 58.0389 56.1702 58.0389C64.3222 58.0389 70.6135 52.6337 70.6135 45.545V39.7854L58.5627 41.7348C51.7398 42.7981 47.9296 46.2539 47.9296 51.1274Z" fill="white"/>
<path d="M93.7003 62.9124V17.7218H100.346V24.6333H100.789C102.738 19.6712 106.549 17.7218 111.333 17.7218H117.713V23.9244H110.713C101.764 23.9244 100.346 29.684 100.346 37.1272V62.9124H93.7003Z" fill="white"/>
<path d="M166.428 63.7984C152.251 63.7984 142.504 57.6844 142.504 46.8741C142.504 37.6588 149.238 33.4942 156.947 30.3929C151.542 25.3422 148.706 21.0889 148.706 15.6838C148.706 6.29123 156.15 0 167.58 0C178.833 0 185.125 5.75958 185.125 14.7977C185.125 24.7219 176.973 28.5321 168.466 31.722L187.694 47.14C190.175 42.8867 191.593 37.4816 192.036 30.7473L199.036 31.4562C198.682 39.6968 196.644 46.3425 193.099 51.4818L199.834 56.8869H209.581V62.9124H202.049C198.15 62.9124 195.492 61.849 193.099 59.8997L188.846 56.4439C183.264 61.3174 175.732 63.7984 166.428 63.7984ZM149.858 46.6083C149.858 53.4312 156.327 57.5958 166.694 57.5958C173.871 57.5958 179.365 55.8236 183.53 52.1907L161.998 34.7347L161.466 34.2917C155.086 36.8613 149.858 40.0512 149.858 46.6083ZM155.972 15.7724C155.972 20.2028 158.631 23.57 163.77 27.9118C171.567 25.0763 178.479 22.1522 178.479 15.1521C178.479 9.56976 174.492 5.9368 167.58 5.9368C159.782 5.9368 155.972 10.1014 155.972 15.7724Z" fill="white"/>
<path d="M250.53 62.9124L228.821 0.886089H236.264L253.986 51.3932H254.341L273.835 0.886089H282.784L302.278 51.4818H302.633L320.354 0.886089H327.177L305.468 62.9124H299.443L278.176 8.9495H277.911L256.733 62.9124H250.53Z" fill="white"/>
<path d="M336.505 62.9124V17.6332H343.594V62.9124H336.505ZM336.151 10.1014V0.886089H344.214V10.1014H336.151Z" fill="white"/>
<path d="M404.034 62.9124H396.945V51.4818H396.502C393.666 59.1908 386.489 63.7984 377.097 63.7984C364.16 63.7984 355.21 54.4059 355.21 40.3171C355.21 26.2282 364.16 16.7471 377.097 16.7471C386.489 16.7471 393.755 21.532 396.591 29.241H396.945V0.886089H404.034V62.9124ZM379.666 57.2414C390.742 57.2414 397.211 50.9501 397.211 40.3171C397.211 29.5954 390.742 23.3042 379.666 23.3042C369.033 23.3042 362.742 29.5954 362.742 40.3171C362.742 50.9501 369.033 57.2414 379.666 57.2414Z" fill="white"/>
<path d="M440.863 63.7984C425.179 63.7984 415.61 54.7603 415.61 40.4057C415.61 26.2283 425.445 16.7471 439.888 16.7471C455.218 16.7471 463.37 25.5194 463.37 41.8234H423.141C423.673 52.4565 429.61 57.5072 440.952 57.5072C448.572 57.5072 453.889 55.0262 456.547 49.8868L462.307 52.4565C458.939 59.368 451.939 63.7984 440.863 63.7984ZM423.407 36.1525H456.104C455.129 27.5574 449.724 23.0383 439.977 23.0383C430.762 23.0383 424.825 27.2029 423.407 36.1525Z" fill="white"/>
<path d="M519.206 63.7984C503.699 63.7984 492.18 57.773 492.18 46.6969C492.18 36.8613 500.066 32.8739 508.839 30.127C502.725 25.3422 499.092 21.3548 499.092 15.6838C499.092 6.29123 507.421 0 519.738 0C532.497 0 539.586 6.11402 539.586 15.3294C539.586 25.4308 530.991 29.0637 521.687 31.8992L543.13 47.3172C546.409 42.7981 548.181 36.9499 548.447 30.0384L555.624 30.6587C555.27 39.431 552.966 46.2539 548.979 51.4818L556.245 56.7097H567.586V62.9124H560.143C555.27 62.9124 552.08 61.9377 549.422 59.9883L544.371 56.2667C538.08 61.3174 529.573 63.7984 519.206 63.7984ZM499.889 46.3425C499.889 53.4312 507.687 57.5958 519.117 57.5958C527.358 57.5958 533.738 55.6464 538.523 52.0135L514.155 34.1144C506.358 36.5069 499.889 39.3424 499.889 46.3425ZM506.712 15.861C506.712 19.937 509.636 23.0383 516.282 28.0004C524.966 25.5194 532.409 22.9497 532.409 15.6838C532.409 9.65838 527.978 5.9368 519.915 5.9368C510.611 5.9368 506.712 10.4559 506.712 15.861Z" fill="white"/>
<path d="M595.688 62.9124V0.886089H654.258V8.15202H603.663V27.0257H636.891V34.2031H603.663V55.6464H655.145V62.9124H595.688Z" fill="white"/>
<path d="M658.593 62.9124L679.771 39.7854L658.948 17.6332H668.606L684.822 35.2664L701.037 17.6332H710.252L689.518 39.7854L710.518 62.9124H700.683L684.113 44.6589L667.632 62.9124H658.593Z" fill="white"/>
<path d="M718.368 80.6341V17.6332H725.899V31.4562H726.165C729.267 22.5953 738.482 16.7471 750.09 16.7471C764.887 16.7471 775.255 26.1396 775.255 40.3171C775.255 54.4059 764.887 63.7984 750.09 63.7984C738.482 63.7984 729.178 57.9503 726.165 49.0894H725.899V80.6341H718.368ZM746.811 56.9756C759.748 56.9756 767.28 50.7729 767.28 40.3171C767.28 29.7726 759.748 23.57 746.811 23.57C733.431 23.57 725.545 29.7726 725.545 40.3171C725.545 50.7729 733.431 56.9756 746.811 56.9756Z" fill="white"/>
<path d="M801.796 63.7984C790.542 63.7984 783.808 58.8363 783.808 51.0388C783.808 43.6842 789.125 38.0132 803.834 36.5955L825.1 34.5575V34.4689C825.1 27.0257 819.872 23.2155 809.682 23.2155C800.467 23.2155 794.796 26.1396 793.024 31.722H785.58C787.53 22.5067 796.479 16.7471 809.771 16.7471C823.416 16.7471 832.632 23.2155 832.632 34.7347V56.7097H841.936V62.9124H835.91C828.467 62.9124 825.1 59.811 825.1 52.8995V48.3805H824.923C822.264 58.3933 813.492 63.7984 801.796 63.7984ZM791.429 50.8615C791.429 55.4692 795.682 57.8616 803.922 57.8616C816.771 57.8616 825.1 52.3679 825.1 42.0006V40.1399L804.365 42.3551C793.998 43.4184 791.429 46.7855 791.429 50.8615Z" fill="white"/>
<path d="M849.724 62.9124V17.6332H857.255V31.6334H857.521C860.534 21.3548 868.154 16.7471 878.078 16.7471C890.927 16.7471 898.724 24.1016 898.724 36.0638V62.9124H891.193V37.6588C891.193 28.8865 885.433 23.6586 875.775 23.6586C865.673 23.6586 857.255 29.7726 857.255 40.9373V62.9124H849.724Z" fill="white"/>
<path d="M966.42 62.9124H958.888V49.0894H958.623C955.61 57.9503 946.306 63.7984 934.698 63.7984C919.901 63.7984 909.533 54.4059 909.533 40.3171C909.533 26.1396 919.901 16.7471 934.698 16.7471C946.306 16.7471 955.521 22.5953 958.623 31.4562H958.888V0.886089H966.42V62.9124ZM937.977 56.9756C951.357 56.9756 959.243 50.7729 959.243 40.3171C959.243 29.7726 951.357 23.57 937.977 23.57C925.04 23.57 917.508 29.7726 917.508 40.3171C917.508 50.7729 925.04 56.9756 937.977 56.9756Z" fill="white"/>
<path d="M1006.87 63.7984C988.974 63.7984 977.721 54.7603 977.721 40.4057C977.721 26.2283 989.24 16.7471 1006.08 16.7471C1023.8 16.7471 1033.54 25.608 1033.54 41.8234H985.784C986.404 52.1907 993.67 57.2414 1006.96 57.2414C1016.89 57.2414 1023.27 54.5831 1026.19 49.0008L1032.39 51.659C1028.58 58.925 1020.61 63.7984 1006.87 63.7984ZM986.05 36.1525H1025.75C1024.42 27.7346 1017.77 23.3042 1006.16 23.3042C995.088 23.3042 987.822 27.3802 986.05 36.1525Z" fill="white"/>
<path d="M1098.38 62.9124H1090.85V49.0894H1090.58C1087.57 57.9503 1078.27 63.7984 1066.66 63.7984C1051.86 63.7984 1041.49 54.4059 1041.49 40.3171C1041.49 26.1396 1051.86 16.7471 1066.66 16.7471C1078.27 16.7471 1087.48 22.5953 1090.58 31.4562H1090.85V0.886089H1098.38V62.9124ZM1069.94 56.9756C1083.32 56.9756 1091.2 50.7729 1091.2 40.3171C1091.2 29.7726 1083.32 23.57 1069.94 23.57C1057 23.57 1049.47 29.7726 1049.47 40.3171C1049.47 50.7729 1057 56.9756 1069.94 56.9756Z" fill="white"/>
<path d="M-169.766 152.303L-191.387 99.7582H-191.741V151.506H-200.513V89.4796H-186.247L-169.234 130.86L-152.221 89.4796H-138.133V151.506H-147.702V99.7582H-148.057L-169.766 152.303Z" fill="white"/>
<path d="M-105.588 152.392C-119.411 152.392 -127.652 143.265 -127.652 128.911C-127.652 114.733 -119.145 105.252 -106.563 105.252C-92.5627 105.252 -85.6512 114.467 -86.0056 131.037H-118.082C-117.55 140.696 -113.652 145.215 -105.234 145.215C-100.537 145.215 -96.6387 143.088 -94.5121 138.569L-86.9803 141.227C-89.9044 148.316 -96.5501 152.392 -105.588 152.392ZM-117.905 124.569H-95.0437C-95.5754 116.771 -99.2969 112.429 -106.297 112.429C-113.031 112.429 -116.93 116.505 -117.905 124.569Z" fill="white"/>
<path d="M-36.1381 151.506H-45.2649V142.645H-45.7965C-48.5434 149.113 -53.4169 152.392 -60.417 152.392C-71.4045 152.392 -78.8476 143.088 -78.8476 128.822C-78.8476 114.556 -71.4045 105.252 -60.417 105.252C-53.4169 105.252 -48.3662 108.531 -45.7079 115.176H-45.2649V89.4796H-36.1381V151.506ZM-57.4043 144.949C-49.5181 144.949 -45.0877 139.012 -45.0877 128.822C-45.0877 118.543 -49.5181 112.695 -57.4043 112.695C-65.0247 112.695 -69.3665 118.543 -69.3665 128.822C-69.3665 139.012 -65.0247 144.949 -57.4043 144.949Z" fill="white"/>
<path d="M-23.0545 151.506V106.138H-13.9278V151.506H-23.0545ZM-23.3203 99.0494V89.4796H-13.5733V99.0494H-23.3203Z" fill="white"/>
<path d="M13.6255 152.392C4.32153 152.392 -1.26081 146.189 -1.26081 135.556V106.138H7.86589V134.05C7.86589 141.316 11.4989 144.594 17.347 144.594C23.5497 144.594 27.4485 140.961 27.4485 131.48V106.138H36.5752V151.506H27.4485V143.088H27.0054C24.2585 149.822 19.4737 152.392 13.6255 152.392Z" fill="white"/>
<path d="M49.8056 151.506V106.138H58.9323V114.556H59.464C62.2995 107.91 67.7046 105.252 73.5528 105.252C80.5529 105.252 85.2492 108.708 87.1986 115.176H87.6416C90.6543 107.999 96.5912 105.252 102.705 105.252C112.009 105.252 117.503 111.455 117.503 121.999V151.506H108.376V123.594C108.376 116.328 105.098 113.05 99.2494 113.05C93.0468 113.05 88.2619 116.683 88.2619 126.075V151.506H79.1352V123.594C79.1352 116.328 75.8566 113.05 70.0085 113.05C63.8058 113.05 58.9323 116.683 58.9323 126.075V151.506H49.8056Z" fill="white"/>
<path d="M167.647 152.392C154.356 152.392 146.381 146.101 146.381 135.556C146.381 127.05 152.229 122.619 158.786 119.252C154.001 113.847 152.229 109.594 152.229 104.543C152.229 95.0619 158.875 88.5935 169.774 88.5935C179.787 88.5935 185.723 94.1759 185.723 103.125C185.723 112.429 178.546 116.594 171.369 120.05L186.078 133.873C187.761 130.151 188.825 125.455 189.356 119.695L197.951 120.759C197.508 128.29 195.47 134.759 192.28 139.721L197.42 144.506H206.104V151.506H196.888C193.61 151.506 191.394 150.443 188.825 147.961L186.787 146.012C181.736 150.177 175.268 152.392 167.647 152.392ZM155.419 135.025C155.419 141.227 160.115 144.949 168.711 144.949C173.85 144.949 177.926 143.62 181.204 140.784L163.394 123.948C158.786 126.607 155.419 129.708 155.419 135.025ZM161.002 104.366C161.002 108.531 163.217 111.986 166.672 115.531C172.787 112.607 177.926 109.505 177.926 103.48C177.926 98.8721 174.913 95.7708 169.774 95.7708C164.28 95.7708 161.002 99.138 161.002 104.366Z" fill="white"/>
<path d="M247.84 151.506L225.953 89.4796H236.409L252.979 136.442H253.333L271.144 89.4796H283.106L301.005 136.531H301.36L317.929 89.4796H327.322L305.347 151.506H296.575L276.726 100.29H276.46L256.789 151.506H247.84Z" fill="white"/>
<path d="M335.273 151.506V106.049H345.02V151.506H335.273ZM334.742 99.138V89.4796H345.552V99.138H334.742Z" fill="white"/>
<path d="M405.705 151.506H395.958V140.164H395.603C392.679 147.961 385.856 152.392 376.641 152.392C363.97 152.392 355.198 143.177 355.198 128.822C355.198 114.467 363.97 105.163 376.641 105.163C385.768 105.163 392.679 109.594 395.603 117.569H395.958V89.4796H405.705V151.506ZM380.54 144.506C390.464 144.506 396.224 138.746 396.224 128.822C396.224 118.809 390.464 113.05 380.54 113.05C370.97 113.05 365.388 118.898 365.388 128.822C365.388 138.746 370.97 144.506 380.54 144.506Z" fill="white"/>
<path d="M441.819 152.392C425.692 152.392 415.768 143.265 415.768 128.911C415.768 114.645 425.958 105.163 440.933 105.163C457.237 105.163 465.655 114.467 465.389 130.86H426.135C426.756 140.341 431.895 144.772 442.085 144.772C448.908 144.772 453.516 142.556 455.908 137.771L464.326 140.43C460.87 147.961 453.25 152.392 441.819 152.392ZM426.401 124.48H455.465C454.579 116.683 449.794 112.607 441.199 112.607C432.87 112.607 427.642 116.683 426.401 124.48Z" fill="white"/>
<path d="M520.09 152.392C503.254 152.392 491.647 146.455 491.647 135.202C491.647 125.366 499.444 121.379 508.039 118.721C502.545 114.29 499.001 110.214 499.001 104.809C499.001 95.1506 507.773 88.5935 521.065 88.5935C534.445 88.5935 542.242 94.7075 542.242 104.366C542.242 114.556 533.559 118.189 524.343 120.759L544.28 134.582C547.559 130.328 549.42 124.746 549.774 118.1L559.167 118.898C558.635 127.67 555.977 134.582 551.723 139.809L557.394 143.708H569.534V151.506H561.205C555.888 151.506 552.166 150.443 548.622 147.961L545.432 145.658C538.786 150.177 530.103 152.392 520.09 152.392ZM502.102 134.404C502.102 140.873 509.014 144.683 520.001 144.683C527.356 144.683 533.293 143.177 537.989 140.341L514.508 123.505C507.685 125.543 502.102 128.202 502.102 134.404ZM508.837 104.986C508.837 108.619 511.406 111.455 517.698 116.062C525.85 113.847 532.85 111.366 532.85 104.72C532.85 99.3152 528.685 95.948 521.153 95.948C512.647 95.948 508.837 100.024 508.837 104.986Z" fill="white"/>
<path d="M595.752 151.506V89.4796H656.006V98.5177H606.651V115.088H639.436V123.771H606.651V142.468H656.892V151.506H595.752Z" fill="white"/>
<path d="M659.619 151.506L680.177 128.556L660.151 105.961H673.088L687.797 122.885L702.595 105.961H714.823L694.797 128.29L715 151.506H701.797L686.645 134.138L671.404 151.506H659.619Z" fill="white"/>
<path d="M721.635 169.228V105.961H732.091V119.961H732.357C735.547 110.746 744.23 105.075 755.572 105.075C769.927 105.075 780.117 114.379 780.117 128.822C780.117 143.177 769.927 152.392 755.572 152.392C744.23 152.392 735.458 146.721 732.357 137.594H732.091V169.228H721.635ZM750.699 144.063C762.307 144.063 769.13 138.392 769.13 128.822C769.13 119.164 762.307 113.404 750.699 113.404C738.825 113.404 731.648 119.075 731.648 128.822C731.648 138.392 738.825 144.063 750.699 144.063Z" fill="white"/>
<path d="M805.502 152.392C794.249 152.392 787.426 147.341 787.426 139.455C787.426 131.923 792.92 126.341 807.629 124.923L828.541 122.974V122.885C828.541 116.062 823.667 112.784 814.54 112.784C805.857 112.784 800.983 115.442 799.3 120.404H789.198C790.97 111.277 800.274 105.163 814.718 105.163C829.249 105.163 838.996 111.632 838.996 123.771V143.885H847.769V151.506H840.06C832.174 151.506 828.629 148.05 828.629 140.518V136.974H828.363C826.06 147.075 817.642 152.392 805.502 152.392ZM798.148 138.835C798.148 143.088 801.958 145.303 809.401 145.303C821.097 145.303 828.541 140.253 828.541 130.86V129.176L809.756 131.214C800.629 132.1 798.148 135.113 798.148 138.835Z" fill="white"/>
<path d="M854.549 151.506V105.961H865.004V120.581H865.27C868.017 110.037 875.46 105.163 885.65 105.163C898.41 105.163 906.03 112.518 906.03 124.657V151.506H895.575V126.961C895.575 118.632 890.435 113.847 881.574 113.847C872.359 113.847 865.004 119.429 865.004 129.442V151.506H854.549Z" fill="white"/>
<path d="M973.798 151.506H963.342V137.594H963.077C959.975 146.721 951.203 152.392 939.861 152.392C925.506 152.392 915.316 143.177 915.316 128.822C915.316 114.379 925.506 105.075 939.861 105.075C951.203 105.075 959.887 110.746 963.077 119.961H963.342V89.4796H973.798V151.506ZM944.735 144.063C956.608 144.063 963.785 138.392 963.785 128.822C963.785 119.075 956.608 113.404 944.735 113.404C933.127 113.404 926.304 119.164 926.304 128.822C926.304 138.392 933.127 144.063 944.735 144.063Z" fill="white"/>
<path d="M1013.63 152.392C995.285 152.392 983.677 143.265 983.677 128.911C983.677 114.645 995.55 105.075 1013.01 105.075C1031.53 105.075 1041.54 114.467 1041.27 130.683H994.753C995.55 140.164 1002.02 144.417 1013.8 144.417C1022.75 144.417 1028.34 141.936 1030.91 136.974L1040.03 139.632C1036.13 147.607 1027.54 152.392 1013.63 152.392ZM995.107 124.392H1030.46C1029.31 116.86 1023.37 112.872 1013.09 112.872C1003.17 112.872 996.791 116.594 995.107 124.392Z" fill="white"/>
<path d="M1106.54 151.506H1096.08V137.594H1095.82C1092.72 146.721 1083.94 152.392 1072.6 152.392C1058.25 152.392 1048.06 143.177 1048.06 128.822C1048.06 114.379 1058.25 105.075 1072.6 105.075C1083.94 105.075 1092.63 110.746 1095.82 119.961H1096.08V89.4796H1106.54V151.506ZM1077.47 144.063C1089.35 144.063 1096.53 138.392 1096.53 128.822C1096.53 119.075 1089.35 113.404 1077.47 113.404C1065.87 113.404 1059.04 119.164 1059.04 128.822C1059.04 138.392 1065.87 144.063 1077.47 144.063Z" fill="white"/>
<path d="M-219.866 240.985C-233.954 240.985 -243.347 235.137 -246.36 225.302L-235.106 222.112C-233.246 228.226 -227.84 231.681 -219.423 231.681C-211.182 231.681 -206.22 228.757 -206.22 223.352C-206.22 208.289 -245.031 220.96 -245.031 196.415C-245.031 184.542 -235.284 177.187 -220.22 177.187C-207.638 177.187 -199.397 182.149 -196.296 191.276L-207.283 194.289C-208.967 189.238 -213.574 186.491 -220.309 186.491C-228.018 186.491 -233.157 189.238 -233.157 194.732C-233.157 208.82 -194.169 196.77 -194.169 221.58C-194.169 234.074 -203.827 240.985 -219.866 240.985Z" fill="white"/>
<path d="M-165.596 240.985C-179.685 240.985 -188.369 231.77 -188.369 217.415C-188.369 203.149 -179.508 193.668 -166.394 193.668C-151.33 193.668 -144.153 203.681 -144.773 220.162H-176.406C-175.786 228.757 -172.33 232.568 -164.976 232.568C-160.811 232.568 -157.355 230.618 -155.495 226.365L-145.659 229.2C-148.672 236.821 -155.761 240.985 -165.596 240.985ZM-176.229 212.896H-156.115C-156.469 205.985 -159.748 201.909 -165.951 201.909C-171.976 201.909 -175.343 205.985 -176.229 212.896Z" fill="white"/>
<path d="M-136.216 240.099V194.554H-124.608V202.706H-124.165C-121.418 196.415 -116.102 193.668 -110.165 193.668C-102.988 193.668 -98.4686 197.301 -96.6078 203.415H-96.2534C-93.4179 196.681 -87.5697 193.668 -81.2785 193.668C-71.6201 193.668 -66.4808 200.314 -66.4808 210.593V240.099H-78V212.188C-78 205.896 -80.924 203.061 -85.9747 203.061C-91.3799 203.061 -95.5445 206.162 -95.5445 214.137V240.099H-107.152V212.188C-107.152 205.896 -109.988 203.061 -115.127 203.061C-120.532 203.061 -124.608 206.162 -124.608 214.137V240.099H-136.216Z" fill="white"/>
<path d="M-55.568 240.099V194.554H-43.9603V240.099H-55.568ZM-55.9225 188.086V178.073H-43.6058V188.086H-55.9225Z" fill="white"/>
<path d="M-32.637 240.099V178.073H-21.0292V203.327H-20.5862C-17.8393 196.592 -12.9658 193.668 -6.32018 193.668C4.66733 193.668 12.0219 202.884 12.0219 217.327C12.0219 231.859 4.66733 240.985 -6.32018 240.985C-13.0545 240.985 -17.8393 237.884 -20.5862 231.504H-21.1179V240.099H-32.637ZM-10.3962 232.213C-3.66189 232.213 0.148283 226.897 0.148283 217.327C0.148283 207.668 -3.66189 202.352 -10.3962 202.352C-17.4849 202.352 -21.2951 207.668 -21.2951 217.327C-21.2951 226.897 -17.4849 232.213 -10.3962 232.213Z" fill="white"/>
<path d="M40.7769 240.985C27.6628 240.985 18.1816 231.77 18.1816 217.415C18.1816 202.972 27.6628 193.668 40.7769 193.668C53.9796 193.668 63.4608 202.972 63.4608 217.415C63.4608 231.77 53.9796 240.985 40.7769 240.985ZM40.7769 232.302C47.6884 232.302 51.5872 226.985 51.5872 217.415C51.5872 207.668 47.6884 202.352 40.7769 202.352C33.954 202.352 30.0552 207.668 30.0552 217.415C30.0552 226.985 33.954 232.302 40.7769 232.302Z" fill="white"/>
<path d="M83.1409 240.099C74.9003 240.099 71.799 236.378 71.799 228.935V178.073H83.4068V231.859H93.8626V240.099H83.1409Z" fill="white"/>
<path d="M141.589 240.099H130.07V231.504H129.538C126.791 237.884 122.006 240.985 115.272 240.985C104.285 240.985 96.93 231.859 96.93 217.327C96.93 202.884 104.285 193.668 115.272 193.668C121.918 193.668 126.791 196.592 129.538 203.327H129.981V178.073H141.589V240.099ZM119.348 232.213C126.437 232.213 130.247 226.897 130.247 217.327C130.247 207.668 126.437 202.352 119.348 202.352C112.614 202.352 108.804 207.668 108.804 217.327C108.804 226.897 112.614 232.213 119.348 232.213Z" fill="white"/>
<path d="M195.301 240.985C179.263 240.985 169.516 234.96 169.516 223.884C169.516 214.757 176.073 210.593 183.782 207.58C178.909 202.884 176.427 198.719 176.427 193.757C176.427 183.921 184.491 177.187 197.251 177.187C209.301 177.187 216.745 183.035 216.745 192.694C216.745 202.263 209.036 206.162 200.884 209.086L216.745 221.669C219.226 217.681 220.643 212.719 220.998 207.048L232.074 208.2C231.454 216.264 228.973 222.909 224.897 228.137L228.973 231.327H240.049V240.099H229.947C225.251 240.099 221.884 238.859 218.34 235.935L217.276 235.049C211.251 238.947 203.63 240.985 195.301 240.985ZM181.567 222.821C181.567 228.58 186.795 232.036 196.01 232.036C201.327 232.036 205.846 230.884 209.479 228.757L190.073 212.985C185.2 215.112 181.567 217.858 181.567 222.821ZM187.769 193.58C187.769 197.035 189.807 199.959 194.415 203.858C201.061 201.466 206.289 198.719 206.289 193.048C206.289 188.618 203.01 185.782 197.339 185.782C191.048 185.782 187.769 189.061 187.769 193.58Z" fill="white"/>
<path d="M278.423 240.099L256.27 178.073H269.65L285.068 221.491H285.423L301.727 178.073H316.613L332.917 221.58H333.272L348.69 178.073H360.652L338.499 240.099H326.98L308.55 191.63H308.284L290.03 240.099H278.423Z" fill="white"/>
<path d="M367.137 240.099V194.377H379.631V240.099H367.137ZM366.694 188.086V178.073H380.163V188.086H366.694Z" fill="white"/>
<path d="M440.563 240.099H428.069V228.846H427.715C424.702 236.821 418.234 240.985 409.284 240.985C396.879 240.985 388.195 231.859 388.195 217.327C388.195 202.795 396.879 193.491 409.284 193.491C418.145 193.491 424.702 197.744 427.715 205.896H428.069V178.073H440.563V240.099ZM414.601 231.681C423.284 231.681 428.424 226.454 428.424 217.327C428.424 208.023 423.284 202.795 414.601 202.795C406.006 202.795 401.132 208.112 401.132 217.327C401.132 226.454 406.006 231.681 414.601 231.681Z" fill="white"/>
<path d="M475.872 240.985C459.39 240.985 449.112 231.77 449.112 217.327C449.112 203.061 459.656 193.491 475.251 193.491C492.442 193.491 501.214 203.415 500.594 219.808H462.137C462.935 228.403 467.454 232.125 476.315 232.125C482.429 232.125 486.505 229.909 488.543 225.567L499.53 228.314C495.986 236.555 487.834 240.985 475.872 240.985ZM462.403 212.719H488.011C487.302 206.073 483.049 202.175 475.517 202.175C468.074 202.175 463.644 205.808 462.403 212.719Z" fill="white"/>
<path d="M554.938 240.985C536.773 240.985 525.077 235.226 525.077 223.707C525.077 213.96 532.52 209.884 541.292 207.225C536.064 203.061 532.874 199.073 532.874 194.023C532.874 184.01 542.178 177.187 556.356 177.187C570.267 177.187 578.862 183.39 578.862 193.402C578.862 203.592 570.267 207.225 561.052 209.618L579.394 221.935C582.761 217.77 584.711 212.365 585.065 206.162L596.584 207.137C595.875 215.909 592.951 222.821 588.432 228.049L592.508 230.795H605.534V240.099H596.23C590.47 240.099 586.217 238.859 581.786 235.846L580.369 234.871C573.546 238.947 564.685 240.985 554.938 240.985ZM538.191 222.466C538.191 228.314 544.305 231.859 554.938 231.859C561.318 231.859 566.812 230.618 571.242 228.403L548.824 212.719C542.71 214.58 538.191 217.061 538.191 222.466ZM544.925 194.023C544.925 197.301 547.052 199.959 553.077 204.213C560.963 202.175 567.343 199.782 567.343 193.757C567.343 189.061 563.356 186.048 556.444 186.048C548.558 186.048 544.925 189.592 544.925 194.023Z" fill="white"/>
<path d="M629.866 240.099V178.073H691.715V188.883H643.777V203.149H676.031V213.339H643.777V229.289H692.601V240.099H629.866Z" fill="white"/>
<path d="M694.698 240.099L714.723 217.327L695.318 194.289H711.533L724.736 210.593L738.116 194.289H753.357L733.952 216.707L753.534 240.099H736.964L723.318 223.795L709.23 240.099H694.698Z" fill="white"/>
<path d="M758.691 257.821V194.289H772.16V208.466H772.426C775.704 198.896 783.856 193.402 795.021 193.402C808.844 193.402 818.857 202.618 818.857 217.327C818.857 231.947 808.844 240.985 795.021 240.985C783.768 240.985 775.616 235.58 772.426 226.099H772.071V257.821H758.691ZM788.464 231.238C798.743 231.238 804.857 226.011 804.857 217.327C804.857 208.555 798.743 203.238 788.464 203.238C778.008 203.238 771.717 208.466 771.717 217.327C771.717 226.011 778.008 231.238 788.464 231.238Z" fill="white"/>
<path d="M842.911 240.985C831.746 240.985 824.835 235.935 824.835 227.871C824.835 220.162 830.683 214.669 845.215 213.339L865.772 211.39V211.213C865.772 205.099 861.253 202.352 853.278 202.352C845.037 202.352 840.961 204.922 839.455 209.086H826.607C828.29 199.871 837.86 193.491 853.367 193.491C868.962 193.491 879.152 200.048 879.152 212.896V231.061H887.481V240.099H877.911C869.671 240.099 865.86 236.201 865.86 228.137V225.479H865.683C863.645 235.757 855.582 240.985 842.911 240.985ZM838.657 226.897C838.657 230.707 842.025 232.656 848.759 232.656C859.215 232.656 865.772 228.137 865.772 219.719V218.213L848.936 219.985C840.784 220.871 838.657 223.441 838.657 226.897Z" fill="white"/>
<path d="M893.076 240.099V194.289H906.456V209.618H906.81C909.203 198.985 916.557 193.491 927.013 193.491C939.595 193.491 947.216 200.934 947.216 213.339V240.099H933.836V216.264C933.836 208.466 929.14 204.036 921.165 204.036C912.836 204.036 906.456 209.086 906.456 218.036V240.099H893.076Z" fill="white"/>
<path d="M1015.06 240.099H1001.68V226.099H1001.32C998.132 235.58 989.98 240.985 978.726 240.985C964.903 240.985 954.89 231.947 954.89 217.327C954.89 202.618 964.903 193.402 978.726 193.402C989.891 193.402 998.043 198.896 1001.32 208.466H1001.59V178.073H1015.06V240.099ZM985.283 231.238C995.739 231.238 1002.03 226.011 1002.03 217.327C1002.03 208.466 995.739 203.238 985.283 203.238C975.005 203.238 968.891 208.555 968.891 217.327C968.891 226.011 975.005 231.238 985.283 231.238Z" fill="white"/>
<path d="M1054.17 240.985C1035.3 240.985 1023.34 231.77 1023.34 217.327C1023.34 203.061 1035.57 193.402 1053.64 193.402C1072.96 193.402 1083.24 203.238 1082.62 219.542H1037.43C1038.31 227.96 1043.89 231.593 1054.35 231.593C1062.33 231.593 1067.02 229.378 1069.33 224.859L1081.38 227.517C1077.39 236.201 1068.26 240.985 1054.17 240.985ZM1037.87 212.542H1068.79C1067.73 205.896 1062.5 202.441 1053.73 202.441C1044.96 202.441 1039.46 205.719 1037.87 212.542Z" fill="white"/>
<path d="M1148.49 240.099H1135.11V226.099H1134.75C1131.56 235.58 1123.41 240.985 1112.16 240.985C1098.34 240.985 1088.32 231.947 1088.32 217.327C1088.32 202.618 1098.34 193.402 1112.16 193.402C1123.32 193.402 1131.48 198.896 1134.75 208.466H1135.02V178.073H1148.49V240.099ZM1118.72 231.238C1129.17 231.238 1135.46 226.011 1135.46 217.327C1135.46 208.466 1129.17 203.238 1118.72 203.238C1108.44 203.238 1102.32 208.555 1102.32 217.327C1102.32 226.011 1108.44 231.238 1118.72 231.238Z" fill="white"/>
<path d="M-147.989 328.693V266.667H-117.241C-104.482 266.667 -98.5448 271.451 -98.5448 280.49C-98.5448 287.756 -102.355 292.363 -110.507 294.047V294.313C-100.671 296.085 -95.8865 301.313 -95.8865 309.996C-95.8865 321.427 -104.039 328.693 -117.507 328.693H-147.989ZM-133.457 317.971H-120.431C-114.317 317.971 -111.304 314.693 -111.304 309.731C-111.304 304.946 -114.229 301.933 -119.722 301.933H-133.457V317.971ZM-133.457 292.363H-120.963C-115.824 292.363 -113.165 289.439 -113.165 284.654C-113.165 279.781 -116.001 277.477 -121.672 277.477H-133.457V292.363Z" fill="white"/>
<path d="M-67.378 329.579C-81.0238 329.579 -90.948 320.364 -90.948 305.92C-90.948 291.3 -81.0238 282.085 -67.378 282.085C-53.7322 282.085 -43.808 291.3 -43.808 305.92C-43.808 320.364 -53.7322 329.579 -67.378 329.579ZM-67.378 319.566C-61.264 319.566 -58.0741 314.958 -58.0741 305.92C-58.0741 296.794 -61.264 292.009 -67.378 292.009C-73.492 292.009 -76.6819 296.794 -76.6819 305.92C-76.6819 314.958 -73.492 319.566 -67.378 319.566Z" fill="white"/>
<path d="M-24.944 328.693C-33.7163 328.693 -36.9062 324.971 -36.9062 316.553V266.667H-22.8174V319.212H-13.0704V328.693H-24.944Z" fill="white"/>
<path d="M35.8798 328.693H21.8796V320.275H21.4365C18.601 326.743 13.8162 329.49 7.52493 329.49C-3.46258 329.49 -10.8171 320.541 -10.8171 305.743C-10.8171 291.123 -3.46258 281.996 7.52493 281.996C13.8162 281.996 18.6897 285.009 21.3479 291.388H21.791V266.667H35.8798V328.693ZM12.6642 319.566C18.8669 319.566 22.1454 314.87 22.1454 305.832C22.1454 296.705 18.8669 291.92 12.6642 291.92C6.63884 291.92 3.44893 296.705 3.44893 305.832C3.44893 314.87 6.63884 319.566 12.6642 319.566Z" fill="white"/>
<path d="M89.048 329.579C72.035 329.579 62.2881 323.554 62.2881 312.389C62.2881 303.351 68.8451 299.097 76.3769 296.173C71.7692 291.566 69.4654 287.49 69.4654 282.705C69.4654 272.692 77.8832 265.78 91.3518 265.78C103.846 265.78 111.732 271.717 111.732 281.641C111.732 291.034 104.466 294.844 96.4911 297.68L110.58 308.933C113.061 305.034 114.479 300.427 114.833 295.199L127.859 296.528C127.15 304.591 124.314 311.325 120.15 316.376L122.808 318.503H134.504V328.693H123.074C118.289 328.693 114.745 327.452 110.669 324.262C104.377 327.807 96.9342 329.579 89.048 329.579ZM76.6427 310.971C76.6427 316.11 81.2504 319.3 89.9341 319.3C94.3645 319.3 98.3519 318.414 101.542 316.908L83.5542 302.287C79.4782 304.237 76.6427 306.806 76.6427 310.971ZM82.934 282.439C82.934 285.452 84.8833 288.287 89.048 291.832C94.8961 289.705 99.5038 287.047 99.5038 281.996C99.5038 278.186 96.5797 275.705 91.4404 275.705C85.9466 275.705 82.934 278.452 82.934 282.439Z" fill="white"/>
<path d="M171.809 328.693L149.391 266.667H165.783L180.049 306.541H180.404L195.024 266.667H213.012L227.632 306.629H227.987L242.253 266.667H256.785L234.455 328.693H220.101L203.176 282.971H202.822L186.075 328.693H171.809Z" fill="white"/>
<path d="M261.894 328.693V282.793H277.046V328.693H261.894ZM261.362 277.122V266.667H277.489V277.122H261.362Z" fill="white"/>
<path d="M338.309 328.693H323.246V317.439H322.803C319.79 325.503 313.587 329.579 304.903 329.579C292.675 329.579 284.169 320.629 284.169 305.743C284.169 291.034 292.675 281.907 304.903 281.907C313.499 281.907 319.701 286.072 322.714 294.224H323.157V266.667H338.309V328.693ZM311.549 318.946C319.17 318.946 323.511 314.25 323.511 305.832C323.511 297.237 319.17 292.54 311.549 292.54C304.017 292.54 299.764 297.325 299.764 305.832C299.764 314.25 304.017 318.946 311.549 318.946Z" fill="white"/>
<path d="M372.903 329.579C355.978 329.579 345.345 320.275 345.345 305.832C345.345 291.477 356.244 281.907 372.371 281.907C390.536 281.907 399.574 292.186 398.599 308.756H361.206C362.004 316.199 365.814 319.389 373.523 319.389C378.839 319.389 382.206 317.351 383.979 313.452L397.536 316.288C393.991 325.06 385.308 329.579 372.903 329.579ZM361.383 300.958H383.447C382.915 295.021 379.194 291.743 372.814 291.743C366.257 291.743 362.535 295.021 361.383 300.958Z" fill="white"/>
<path d="M453.281 329.579C433.699 329.579 422.002 323.908 422.002 312.3C422.002 302.73 429.357 298.477 437.863 295.908C433.167 292.097 430.154 288.021 430.154 283.148C430.154 272.781 439.99 265.869 455.142 265.869C469.674 265.869 478.978 271.983 478.978 282.439C478.978 292.629 470.649 296.173 461.433 298.477L478.092 309.287C481.459 305.3 483.408 300.249 483.851 294.224L497.586 295.464C496.788 303.882 493.687 310.794 488.813 316.199L491.206 317.794H504.94V328.693H494.75C488.548 328.693 483.674 327.275 478.623 323.908C471.535 327.63 462.762 329.579 453.281 329.579ZM437.863 310.528C437.863 315.667 443.18 318.946 453.281 318.946C458.775 318.946 463.648 318.06 467.725 316.465L446.458 302.022C441.496 303.616 437.863 305.92 437.863 310.528ZM444.42 283.148C444.42 286.072 446.281 288.464 452.129 292.452C459.572 290.591 465.243 288.287 465.243 282.882C465.243 278.717 461.61 276.059 455.142 276.059C448.053 276.059 444.42 279.072 444.42 283.148Z" fill="white"/>
<path d="M527.389 328.693V266.667H590.921V279.249H544.225V291.211H576.035V302.996H544.225V316.11H591.808V328.693H527.389Z" fill="white"/>
<path d="M593.183 328.693L612.766 306.009L594.069 282.705H613.474L625.171 298.034L637.133 282.705H655.386L636.513 305.3L655.475 328.693H635.538L623.31 313.363L610.462 328.693H593.183Z" fill="white"/>
<path d="M659.332 346.415V282.705H675.636V297.059H675.99C679.269 287.312 686.978 281.819 697.877 281.819C711.257 281.819 721.004 290.945 721.004 305.743C721.004 320.629 711.257 329.579 697.877 329.579C686.889 329.579 679.18 324.44 675.902 314.693H675.636V346.415H659.332ZM689.725 318.326C698.763 318.326 703.991 313.718 703.991 305.743C703.991 297.946 698.763 293.072 689.725 293.072C680.775 293.072 675.193 297.768 675.193 305.743C675.193 313.629 680.775 318.326 689.725 318.326Z" fill="white"/>
<path d="M743.903 329.579C732.65 329.579 725.738 324.44 725.738 316.199C725.738 308.313 731.764 303.085 746.296 301.667L766.587 299.806V299.629C766.587 294.047 762.245 291.92 755.423 291.92C747.714 291.92 744.435 294.224 743.017 297.68H727.599C729.017 288.642 738.941 281.907 755.6 281.907C772.081 281.907 782.891 288.464 782.891 301.933V318.237H790.6V328.693H779.347C770.752 328.693 766.676 324.44 766.676 315.667V314.072H766.41C764.726 324.44 757.106 329.579 743.903 329.579ZM742.574 314.87C742.574 318.414 745.675 320.098 751.524 320.098C760.916 320.098 766.587 315.933 766.587 308.667V307.161L751.701 308.844C744.789 309.553 742.574 311.769 742.574 314.87Z" fill="white"/>
<path d="M795.187 328.693V282.705H811.491V298.566H811.757C813.972 287.578 821.238 281.907 831.871 281.907C844.365 281.907 851.808 289.439 851.808 301.933V328.693H835.504V305.654C835.504 298.211 831.428 294.224 824.34 294.224C816.896 294.224 811.491 298.743 811.491 306.541V328.693H795.187Z" fill="white"/>
<path d="M919.893 328.693H903.589V314.693H903.323C900.045 324.44 892.336 329.579 881.348 329.579C867.968 329.579 858.221 320.629 858.221 305.743C858.221 290.945 867.968 281.819 881.348 281.819C892.247 281.819 899.956 287.312 903.235 297.059H903.589V266.667H919.893V328.693ZM889.5 318.326C898.45 318.326 904.032 313.629 904.032 305.743C904.032 297.768 898.45 293.072 889.5 293.072C880.462 293.072 875.234 297.946 875.234 305.743C875.234 313.718 880.462 318.326 889.5 318.326Z" fill="white"/>
<path d="M958.3 329.579C938.894 329.579 926.666 320.275 926.666 305.832C926.666 291.388 939.249 281.819 957.857 281.819C978.059 281.819 988.692 291.832 987.718 308.313H943.856C944.742 315.667 949.527 318.769 958.477 318.769C965.477 318.769 969.464 316.642 971.414 312.832L986.477 315.49C982.401 324.883 972.566 329.579 958.3 329.579ZM944.211 300.781H970.793C970.085 294.933 965.566 291.92 957.945 291.92C950.413 291.92 945.717 294.844 944.211 300.781Z" fill="white"/>
<path d="M1054.02 328.693H1037.71V314.693H1037.45C1034.17 324.44 1026.46 329.579 1015.47 329.579C1002.09 329.579 992.346 320.629 992.346 305.743C992.346 290.945 1002.09 281.819 1015.47 281.819C1026.37 281.819 1034.08 287.312 1037.36 297.059H1037.71V266.667H1054.02V328.693ZM1023.63 318.326C1032.57 318.326 1038.16 313.629 1038.16 305.743C1038.16 297.768 1032.57 293.072 1023.63 293.072C1014.59 293.072 1009.36 297.946 1009.36 305.743C1009.36 313.718 1014.59 318.326 1023.63 318.326Z" fill="white"/>
<path d="M-267.772 417.286V355.26H-218.594V368.02H-250.759V379.539H-229.67V392.033H-250.759V404.527H-217.797V417.286H-267.772Z" fill="white"/>
<path d="M-216.41 417.286L-202.233 394.957L-215.435 371.298H-197.448L-190.891 386.007L-183.359 371.298H-166.7L-179.903 392.83L-165.903 417.286H-184.599L-192.042 402.489L-200.194 417.286H-216.41Z" fill="white"/>
<path d="M-144.04 417.375C-153.876 417.375 -158.749 412.147 -158.749 403.818V382.109H-165.306V371.298H-158.749V361.197L-142.179 357.83V371.298H-132.521V382.109H-142.179V406.21H-132.344V417.375H-144.04Z" fill="white"/>
<path d="M-126.741 417.286V371.298H-110.26V380.602H-109.728C-107.779 373.691 -104.234 371.298 -98.4749 371.298H-92.7153V386.273H-100.336C-107.956 386.273 -110.26 389.906 -110.26 398.413V417.286H-126.741Z" fill="white"/>
<path d="M-75.4663 418.172C-84.4158 418.172 -90.3526 414.008 -90.3526 406.476C-90.3526 396.995 -83.0867 391.856 -68.1118 390.349L-61.2889 389.64V386.805C-61.2889 382.995 -63.0611 381.4 -66.7826 381.4C-70.6814 381.4 -72.7194 382.995 -73.5169 386.982H-89.5552C-88.8463 377.146 -79.7195 370.501 -66.694 370.501C-53.3141 370.501 -44.6304 376.438 -44.6304 388.134V406.565H-38.6936V417.286H-48.8836C-54.3774 417.286 -59.7825 415.426 -60.4028 407.982H-60.9345C-63.1497 414.362 -68.3776 418.172 -75.4663 418.172ZM-74.3144 403.197C-74.3144 405.501 -72.5422 406.919 -69.2637 406.919C-64.7446 406.919 -61.2889 404.172 -61.2889 400.096V397.438L-68.289 398.324C-72.2764 398.767 -74.3144 400.805 -74.3144 403.197Z" fill="white"/>
<path d="M-34.3248 417.286V355.26H-17.7549V379.539H-17.3119C-14.565 373.07 -9.8687 370.412 -3.9319 370.412C7.05561 370.412 14.3215 379.45 14.3215 394.248C14.3215 409.312 7.05561 418.084 -3.9319 418.084C-9.95731 418.084 -14.6536 415.514 -17.4891 409.134H-17.9321V417.286H-34.3248ZM-10.1345 406.83C-4.9952 406.83 -2.33696 402.754 -2.33696 394.337C-2.33696 385.83 -4.9952 381.577 -10.1345 381.577C-15.5397 381.577 -18.1979 385.83 -18.1979 394.337C-18.1979 402.754 -15.5397 406.83 -10.1345 406.83Z" fill="white"/>
<path d="M42.7858 418.172C28.7856 418.172 18.2411 409.046 18.2411 394.425C18.2411 379.628 28.7856 370.501 42.7858 370.501C56.8746 370.501 67.4191 379.628 67.4191 394.425C67.4191 409.046 56.8746 418.172 42.7858 418.172ZM42.7858 406.919C48.1023 406.919 50.7606 402.843 50.7606 394.425C50.7606 385.83 48.1023 381.666 42.7858 381.666C37.5578 381.666 34.8996 385.83 34.8996 394.425C34.8996 402.843 37.5578 406.919 42.7858 406.919Z" fill="white"/>
<path d="M85.2031 417.286C75.8992 417.286 72.7093 413.653 72.7093 404.261V355.26H89.2792V406.565H98.2286V417.286H85.2031Z" fill="white"/>
<path d="M148.491 417.286H132.099V409.134H131.656C128.82 415.514 124.124 418.084 118.099 418.084C107.111 418.084 99.8451 409.312 99.8451 394.248C99.8451 379.45 107.111 370.412 118.099 370.412C124.035 370.412 128.732 373.07 131.478 379.539H131.922V355.26H148.491V417.286ZM124.301 406.83C129.706 406.83 132.365 402.754 132.365 394.337C132.365 385.83 129.706 381.577 124.301 381.577C119.162 381.577 116.504 385.83 116.504 394.337C116.504 402.754 119.162 406.83 124.301 406.83Z" fill="white"/>
<path d="M197.133 418.172C179.234 418.172 169.487 412.236 169.487 400.894C169.487 391.856 175.955 387.602 183.487 384.678C179.145 380.248 177.019 376.26 177.019 371.741C177.019 361.551 185.791 354.374 199.88 354.374C212.817 354.374 221.235 360.311 221.235 370.589C221.235 379.805 214.234 383.704 206.525 386.45L218.842 396.109C221.235 392.476 222.652 388.134 223.007 383.349L238.07 384.855C237.184 392.919 234.171 399.565 229.741 404.704L231.07 405.679H243.475V417.286H230.716C226.019 417.286 222.475 416.223 218.488 413.388C212.108 416.577 204.665 418.172 197.133 418.172ZM186.145 399.121C186.145 403.729 190.221 406.565 198.285 406.565C201.829 406.565 205.108 405.944 207.943 404.881L191.639 391.678C188.272 393.451 186.145 395.666 186.145 399.121ZM192.525 371.387C192.525 373.868 194.12 376.438 198.108 379.805C203.247 377.855 207.146 375.374 207.146 370.944C207.146 367.754 204.487 365.627 200.057 365.627C195.272 365.627 192.525 367.931 192.525 371.387Z" fill="white"/>
<path d="M279.533 417.286L257.026 355.26H276.254L289.369 391.501H289.723L302.749 355.26H323.749L336.774 391.678H337.129L350.243 355.26H367.344L344.838 417.286H327.736L312.141 374.311H311.787L296.546 417.286H279.533Z" fill="white"/>
<path d="M370.988 417.286V371.121H388.887V417.286H370.988ZM370.545 366.159V355.26H389.33V366.159H370.545Z" fill="white"/>
<path d="M450.397 417.286H432.587V406.122H432.144C429.043 414.362 423.194 418.172 414.777 418.172C402.814 418.172 394.396 409.312 394.396 394.248C394.396 379.273 402.814 370.235 414.777 370.235C423.106 370.235 428.954 374.222 432.055 382.552H432.498V355.26H450.397V417.286ZM422.751 406.122C429.22 406.122 432.941 401.957 432.941 394.337C432.941 386.45 429.22 382.286 422.751 382.286C416.283 382.286 412.739 386.539 412.739 394.337C412.739 402.046 416.283 406.122 422.751 406.122Z" fill="white"/>
<path d="M484.098 418.172C466.908 418.172 455.832 408.78 455.832 394.337C455.832 379.893 467.086 370.235 483.744 370.235C502.884 370.235 512.276 381.134 510.947 397.792H474.44C475.238 404.084 478.516 406.653 484.896 406.653C489.504 406.653 492.251 404.881 493.757 401.337L509.884 404.172C506.251 413.653 497.035 418.172 484.098 418.172ZM474.617 389.286H493.137C492.694 384.235 489.592 381.222 484.276 381.222C478.605 381.222 475.681 384.058 474.617 389.286Z" fill="white"/>
<path d="M565.878 418.172C544.967 418.172 533.182 412.679 533.182 400.805C533.182 391.324 540.27 387.071 548.777 384.501C544.524 381.045 541.777 376.881 541.777 372.362C541.777 361.64 552.144 354.463 568.182 354.463C583.246 354.463 593.347 360.665 593.347 371.475C593.347 381.666 585.106 385.21 576.068 387.248L590.955 396.64C594.41 392.742 596.448 387.868 596.891 382.286L612.752 383.704C611.778 392.121 608.411 399.033 603.36 404.438L604.069 404.881H618.689V417.286H607.525C601.499 417.286 596.537 415.957 591.398 412.944C584.043 416.4 575.182 418.172 565.878 418.172ZM551.701 398.59C551.701 403.109 556.22 406.122 565.967 406.122C570.486 406.122 574.651 405.501 578.372 404.349L558.524 391.147C554.536 392.564 551.701 394.78 551.701 398.59ZM558.258 372.184C558.258 374.754 559.764 376.969 565.435 380.602C572.347 378.919 577.486 376.792 577.486 371.919C577.486 368.463 574.03 366.159 568.182 366.159C561.714 366.159 558.258 368.64 558.258 372.184Z" fill="white"/>
<path d="M639.339 417.286V355.26H704.466V369.615H659.187V379.273H690.466V392.564H659.187V402.932H705.352V417.286H639.339Z" fill="white"/>
<path d="M706.184 417.286L725.323 394.691L707.158 371.032H729.842L739.944 385.476L750.577 371.032H771.843L753.501 393.716L771.932 417.286H748.627L737.728 403.109L726.209 417.286H706.184Z" fill="white"/>
<path d="M774.31 435.008V371.032H793.627V385.564H793.981C797.348 375.463 804.526 370.146 815.247 370.146C828.096 370.146 837.665 379.184 837.665 394.248C837.665 409.4 828.096 418.172 815.247 418.172C804.348 418.172 797.26 413.299 793.893 403.197H793.538V435.008H774.31ZM805.412 405.501C813.121 405.501 817.64 401.337 817.64 394.248C817.64 387.336 813.121 382.906 805.412 382.906C797.88 382.906 793.184 387.159 793.184 394.248C793.184 401.248 797.88 405.501 805.412 405.501Z" fill="white"/>
<path d="M859.234 418.172C848.07 418.172 841.069 413.033 841.069 404.615C841.069 396.552 847.449 391.413 861.804 390.083L881.741 388.223V387.957C881.741 383.083 877.754 381.488 872.083 381.488C864.817 381.488 862.336 383.704 861.095 386.362H842.93C844.259 377.235 854.449 370.235 872.171 370.235C889.716 370.235 900.969 376.881 900.969 391.058V405.413H908.235V417.286H895.121C886.171 417.286 881.829 412.59 881.829 403.286V402.577H881.652C880.235 413.122 872.969 418.172 859.234 418.172ZM861.006 402.932C861.006 406.033 863.665 407.451 868.804 407.451C876.956 407.451 881.741 403.818 881.741 397.527V396.197L868.804 397.615C862.867 398.324 861.006 400.096 861.006 402.932Z" fill="white"/>
<path d="M911.637 417.286V371.032H930.865V387.602H931.219C933.08 376.526 940.257 370.235 951.156 370.235C963.473 370.235 970.916 377.855 970.916 390.615V417.286H951.688V394.957C951.688 388.045 948.055 384.412 941.852 384.412C935.295 384.412 930.865 388.4 930.865 395.134V417.286H911.637Z" fill="white"/>
<path d="M1039.07 417.286H1019.84V403.197H1019.49C1016.12 413.299 1009.03 418.172 998.136 418.172C985.287 418.172 975.718 409.4 975.718 394.248C975.718 379.184 985.287 370.146 998.136 370.146C1008.86 370.146 1016.03 375.463 1019.4 385.564H1019.76V355.26H1039.07V417.286ZM1007.97 405.501C1015.5 405.501 1020.2 401.248 1020.2 394.248C1020.2 387.159 1015.5 382.906 1007.97 382.906C1000.26 382.906 995.743 387.336 995.743 394.248C995.743 401.337 1000.26 405.501 1007.97 405.501Z" fill="white"/>
<path d="M1076.77 418.172C1056.83 418.172 1044.25 408.78 1044.25 394.248C1044.25 379.805 1057.19 370.146 1076.41 370.146C1097.41 370.146 1108.31 380.602 1106.98 397.172H1064.45C1065.34 403.463 1069.33 405.944 1076.95 405.944C1082.97 405.944 1086.07 404.084 1087.76 400.716L1105.74 403.375C1101.58 413.476 1091.21 418.172 1076.77 418.172ZM1064.89 388.931H1087.14C1086.52 383.969 1082.62 381.488 1076.5 381.488C1070.12 381.488 1066.31 383.881 1064.89 388.931Z" fill="white"/>
<path d="M1173.8 417.286H1154.58V403.197H1154.22C1150.85 413.299 1143.77 418.172 1132.87 418.172C1120.02 418.172 1110.45 409.4 1110.45 394.248C1110.45 379.184 1120.02 370.146 1132.87 370.146C1143.59 370.146 1150.77 375.463 1154.13 385.564H1154.49V355.26H1173.8V417.286ZM1142.7 405.501C1150.23 405.501 1154.93 401.248 1154.93 394.248C1154.93 387.159 1150.23 382.906 1142.7 382.906C1134.99 382.906 1130.47 387.336 1130.47 394.248C1130.47 401.337 1134.99 405.501 1142.7 405.501Z" fill="white"/>
<path d="M-185.676 505.88V443.854H-150.232C-137.029 443.854 -131.181 448.107 -131.181 457.145C-131.181 464.145 -134.726 468.31 -142.878 470.082V470.436C-133.219 472.563 -128.789 477.702 -128.789 486.297C-128.789 498.082 -137.738 505.88 -151.207 505.88H-185.676ZM-166.182 492.411H-155.637C-151.739 492.411 -149.523 489.753 -149.523 486.031C-149.523 482.398 -151.739 480.183 -155.637 480.183H-166.182V492.411ZM-166.182 468.487H-157.055C-152.713 468.487 -150.675 466.272 -150.675 462.727C-150.675 459.36 -152.713 457.411 -156.966 457.411H-166.182V468.487Z" fill="white"/>
<path d="M-111.75 505.88C-121.586 505.88 -124.864 502.335 -124.864 491.968V443.854H-105.813V493.918H-97.5729V505.88H-111.75Z" fill="white"/>
<path d="M-81.0168 506.766C-90.2321 506.766 -95.9917 502.513 -95.9917 495.158C-95.9917 485.234 -88.3714 480.272 -72.599 478.854L-67.0166 478.322V475.487C-67.0166 472.386 -68.4344 471.057 -71.3585 471.057C-74.637 471.057 -76.4092 472.563 -76.9408 476.107H-95.3715C-94.7512 465.829 -85.1814 458.917 -71.3585 458.917C-57.181 458.917 -47.9657 465.031 -47.9657 477.171V493.918H-42.3833V505.88H-54.0797C-59.4848 505.88 -65.2444 504.196 -66.0419 496.399H-66.5736C-68.7002 502.956 -73.8395 506.766 -81.0168 506.766ZM-77.6497 491.259C-77.6497 493.12 -76.0547 494.183 -73.3964 494.183C-69.8521 494.183 -67.0166 492.057 -67.0166 488.778V486.829L-72.7762 487.449C-76.1433 487.804 -77.6497 489.487 -77.6497 491.259Z" fill="white"/>
<path d="M-16.2208 506.766C-30.6641 506.766 -41.7402 497.728 -41.7402 482.93C-41.7402 467.955 -30.6641 458.917 -16.2208 458.917C-5.05611 458.917 3.89341 464.234 7.26055 473.538L-9.30933 478.5C-10.3726 473.538 -12.2334 471.322 -15.6892 471.322C-20.2968 471.322 -22.6893 474.955 -22.6893 482.93C-22.6893 490.728 -20.2968 494.272 -15.6892 494.272C-12.2334 494.272 -10.3726 492.145 -9.30933 487.361L7.17193 492.323C3.80479 501.449 -5.05611 506.766 -16.2208 506.766Z" fill="white"/>
<path d="M40.5207 505.88L32.0143 488.956L29.2674 491.614V505.88H10.2165V443.854H29.2674V473.183L42.1157 459.715H61.6097L45.3056 475.841L62.4072 505.88H40.5207Z" fill="white"/>
<path d="M103.427 506.766C84.6418 506.766 74.8062 500.829 74.8062 489.31C74.8062 480.36 81.0974 476.107 88.6292 473.183C84.6418 468.93 82.6924 465.031 82.6924 460.778C82.6924 450.322 91.8191 442.967 106.617 442.967C119.908 442.967 128.858 448.993 128.858 459.537C128.858 468.487 122.123 472.386 114.592 475.044L125.313 483.373C127.617 480.006 129.035 475.93 129.389 471.5L146.402 473.183C145.428 481.158 142.238 487.715 137.63 492.854H150.478V505.88H136.478C131.959 505.88 128.415 504.905 124.427 502.335C117.782 505.348 110.516 506.766 103.427 506.766ZM93.8571 487.183C93.8571 491.259 97.3129 493.74 104.756 493.74C107.414 493.74 109.984 493.386 112.199 492.766L97.7559 481.069C95.4521 482.487 93.8571 484.436 93.8571 487.183ZM100.326 460.246C100.326 462.284 101.389 464.588 105.288 467.778C109.718 466.006 112.908 463.791 112.908 459.892C112.908 457.233 110.604 455.55 106.705 455.55C102.718 455.55 100.326 457.322 100.326 460.246Z" fill="white"/>
<path d="M185.293 505.88L162.521 443.854H184.762L196.724 476.55H197.078L208.509 443.854H232.522L243.952 476.639H244.307L256.269 443.854H275.94L253.168 505.88H233.231L219.142 465.651H218.787L204.964 505.88H185.293Z" fill="white"/>
<path d="M278.118 505.88V459.537H298.675V505.88H278.118ZM277.675 455.107V443.854H299.207V455.107H277.675Z" fill="white"/>
<path d="M360.519 505.88H340.051V494.804H339.608C336.506 503.133 330.924 506.677 322.683 506.677C310.987 506.677 302.746 498.082 302.746 482.753C302.746 467.512 310.987 458.651 322.683 458.651C330.747 458.651 336.418 462.461 339.519 470.791H339.874V443.854H360.519V505.88ZM332.076 493.386C337.393 493.386 340.405 489.753 340.405 482.753C340.405 475.664 337.393 471.943 332.076 471.943C326.671 471.943 323.747 475.753 323.747 482.753C323.747 489.753 326.671 493.386 332.076 493.386Z" fill="white"/>
<path d="M393.503 506.766C375.87 506.766 364.44 497.285 364.44 482.753C364.44 468.31 376.048 458.651 393.326 458.651C413.44 458.651 423.01 470.082 421.415 486.74H385.794C386.681 491.968 389.25 493.918 394.478 493.918C398.288 493.918 400.326 492.411 401.567 489.133L420.352 492.145C416.63 502.335 406.883 506.766 393.503 506.766ZM385.972 477.525H400.947C400.769 473.538 398.111 470.791 393.947 470.791C389.25 470.791 386.858 473.36 385.972 477.525Z" fill="white"/>
<path d="M476.596 506.766C454.355 506.766 442.481 501.361 442.481 489.31C442.481 479.917 449.304 475.576 457.811 473.006C454.089 469.993 451.52 465.829 451.52 461.487C451.52 450.499 462.33 443.056 479.343 443.056C495.027 443.056 505.837 449.259 505.837 460.512C505.837 470.613 497.862 474.158 489.001 476.107L501.938 483.993C505.394 480.36 507.52 475.753 508.052 470.348L526.128 471.943C525.065 479.917 521.698 486.652 516.824 491.88H530.47V505.88H518.419C512.571 505.88 507.609 504.817 502.115 501.892C494.672 505.082 485.811 506.766 476.596 506.766ZM463.748 486.652C463.748 490.55 467.381 493.209 476.684 493.209C480.317 493.209 483.773 492.854 486.874 492.145L468.887 480.36C465.697 481.69 463.748 483.55 463.748 486.652ZM470.216 461.31C470.216 463.348 471.191 465.297 476.153 468.31L476.95 468.753C483.242 467.246 487.761 465.297 487.761 460.955C487.761 458.12 484.571 456.17 479.254 456.17C473.583 456.17 470.216 458.208 470.216 461.31Z" fill="white"/>
<path d="M549.236 505.88V443.854H616.047V459.98H572.008V467.335H602.844V482.133H572.008V489.753H616.933V505.88H549.236Z" fill="white"/>
<path d="M617.043 505.88L635.74 483.373L618.195 459.36H644.157L652.752 472.74L661.968 459.36H686.247L668.348 482.221L686.247 505.88H659.575L650.183 492.766L639.816 505.88H617.043Z" fill="white"/>
<path d="M687.411 523.602V459.36H709.652V474.069H710.006C713.462 463.613 720.108 458.474 730.564 458.474C742.969 458.474 752.361 467.424 752.361 482.753C752.361 498.171 742.969 506.766 730.564 506.766C719.931 506.766 713.373 502.07 709.918 491.702H709.563V523.602H687.411ZM719.133 492.588C725.513 492.588 729.323 488.956 729.323 482.753C729.323 476.727 725.513 472.74 719.133 472.74C713.108 472.74 709.12 476.462 709.12 482.753C709.12 488.867 713.108 492.588 719.133 492.588Z" fill="white"/>
<path d="M772.687 506.766C761.523 506.766 754.434 501.538 754.434 493.032C754.434 484.791 760.991 479.74 775.346 478.411L794.928 476.639V476.373C794.928 472.12 791.295 471.057 786.688 471.057C779.953 471.057 778.27 473.006 777.118 475.044H756.295C757.447 466.006 767.991 458.651 786.865 458.651C805.295 458.651 817.081 465.297 817.081 480.095V492.588H823.815V505.88H809.017C799.713 505.88 795.194 501.006 795.105 491.171H794.84C793.776 501.804 786.865 506.766 772.687 506.766ZM777.472 490.905C777.472 493.652 779.688 494.892 784.029 494.892C791.03 494.892 794.928 491.702 794.928 486.386V485.234L783.941 486.474C779.244 487.006 777.472 488.424 777.472 490.905Z" fill="white"/>
<path d="M826.209 505.88V459.36H848.361V476.55H848.715C850.31 465.208 857.31 458.651 868.475 458.651C880.703 458.651 887.969 466.272 887.969 479.209V505.88H865.817V484.259C865.817 477.791 862.804 474.601 857.399 474.601C851.728 474.601 848.361 478.057 848.361 483.639V505.88H826.209Z" fill="white"/>
<path d="M956.198 505.88H934.046V491.702H933.691C930.235 502.07 923.678 506.766 913.045 506.766C900.64 506.766 891.248 498.171 891.248 482.753C891.248 467.424 900.64 458.474 913.045 458.474C923.501 458.474 930.147 463.613 933.603 474.069H933.957V443.854H956.198V505.88ZM924.476 492.588C930.501 492.588 934.489 488.867 934.489 482.753C934.489 476.462 930.501 472.74 924.476 472.74C918.096 472.74 914.286 476.727 914.286 482.753C914.286 488.956 918.096 492.588 924.476 492.588Z" fill="white"/>
<path d="M993.183 506.766C972.802 506.766 959.866 497.285 959.866 482.753C959.866 468.221 973.157 458.474 993.005 458.474C1014.8 458.474 1025.97 469.462 1024.37 486.031H983.17C984.056 491.259 987.334 493.12 993.448 493.12C998.499 493.12 1000.8 491.437 1002.13 488.69L1023.04 491.348C1018.79 502.158 1007.8 506.766 993.183 506.766ZM983.524 477.171H1001.42C1000.98 473.094 997.879 471.057 993.094 471.057C987.866 471.057 984.765 473.006 983.524 477.171Z" fill="white"/>
<path d="M1091.62 505.88H1069.47V491.702H1069.11C1065.66 502.07 1059.1 506.766 1048.47 506.766C1036.06 506.766 1026.67 498.171 1026.67 482.753C1026.67 467.424 1036.06 458.474 1048.47 458.474C1058.92 458.474 1065.57 463.613 1069.03 474.069H1069.38V443.854H1091.62V505.88ZM1059.9 492.588C1065.92 492.588 1069.91 488.867 1069.91 482.753C1069.91 476.462 1065.92 472.74 1059.9 472.74C1053.52 472.74 1049.71 476.727 1049.71 482.753C1049.71 488.956 1053.52 492.588 1059.9 492.588Z" fill="white"/>
<rect x="30" y="392.264" width="257.447" height="134.867" rx="5.44251" transform="rotate(-11.7131 30 392.264)" fill="#B591FF"/>
<path d="M74.2695 431.473L73.7108 428.779L81.283 427.209L78.7074 414.786L72.2098 419.506L71.6064 416.595L81.2184 410.359L84.5705 426.527L91.9002 425.007L92.4589 427.702L74.2695 431.473Z" fill="black"/>
<path d="M104.878 425.408C99.0308 426.621 94.8233 425.441 94.1362 422.127C93.611 419.594 95.4138 417.309 99.847 416.052L99.8302 415.972C96.1736 416.364 93.7578 415.151 93.2662 412.779C92.6237 409.68 95.628 407.09 100.856 406.006C106.03 404.934 109.88 406.018 110.539 409.198C111.025 411.543 109.486 413.604 105.866 414.72L105.883 414.801C110.348 414.241 112.911 415.62 113.43 418.127C114.123 421.468 110.699 424.202 104.878 425.408ZM104.386 422.897C108.266 422.092 110.446 420.404 110.032 418.41C109.619 416.415 106.948 415.733 103.067 416.537C99.1329 417.353 96.986 419.063 97.3938 421.03C97.8072 423.024 100.478 423.707 104.386 422.897ZM102.603 414.3C105.945 413.608 107.785 412.046 107.411 410.24C107.037 408.435 104.738 407.787 101.397 408.48C98.0013 409.184 96.1499 410.692 96.5242 412.497C96.8985 414.303 99.2081 415.004 102.603 414.3Z" fill="black"/>
<path d="M133.689 419.435C128.758 420.457 124.5 419.71 121.72 417.42L123.442 415.152C125.776 417.057 128.944 417.693 133.147 416.821C137.028 416.017 139.1 414.491 138.732 412.712C137.681 407.646 122.244 415.203 120.691 407.712C119.959 404.182 123.065 401.402 128.67 400.24C133.008 399.34 136.672 399.93 139.271 401.892L137.576 404.155C135.416 402.551 132.849 402.099 129.238 402.848C125.547 403.613 123.619 405.025 123.965 406.696C124.926 411.331 140.428 403.676 142.081 411.652C142.841 415.317 139.591 418.212 133.689 419.435Z" fill="black"/>
<path d="M152.307 415.294L148.955 399.126L140.305 400.919L139.746 398.224L160.28 393.967L160.839 396.662L152.242 398.444L155.595 414.612L152.307 415.294Z" fill="black"/>
<path d="M174.405 410.712L172.813 403.033L160.874 393.844L164.7 393.051L173.952 399.986L179.683 389.944L183.402 389.173L176.122 402.318L177.719 410.025L174.405 410.712Z" fill="black"/>
<path d="M189.673 407.547L185.763 388.684L189.077 387.997L192.429 404.165L206.334 401.282L206.893 403.977L189.673 407.547Z" fill="black"/>
<path d="M209.437 403.449L205.526 384.586L223.85 380.787L224.42 383.536L209.41 386.648L210.455 391.687L220.425 389.62L220.973 392.261L211.002 394.328L212.181 400.014L227.46 396.846L228.03 399.594L209.437 403.449Z" fill="black"/>
<path d="M240.557 397.278C235.626 398.301 231.368 397.553 228.588 395.263L230.31 392.995C232.644 394.9 235.812 395.536 240.016 394.664C243.896 393.86 245.969 392.334 245.6 390.555C244.549 385.489 229.112 393.046 227.559 385.555C226.827 382.025 229.933 379.245 235.538 378.083C239.876 377.183 243.54 377.773 246.139 379.735L244.444 381.998C242.285 380.394 239.718 379.943 236.107 380.691C232.415 381.457 230.487 382.868 230.834 384.539C231.795 389.174 247.296 381.519 248.95 389.496C249.709 393.16 246.459 396.055 240.557 397.278Z" fill="black"/>
<path d="M94.1153 456.235C89.3726 457.219 85.8454 456.067 83.6719 453.988L85.4152 451.687C87.2355 453.418 89.8007 454.404 93.5464 453.627C96.9957 452.912 98.9418 451.047 98.506 448.945C98.0926 446.951 96.1668 446.338 92.7984 447.037L88.4868 447.931L93.5637 439.205L81.9763 441.608L81.4176 438.913L99.2837 435.209L92.8667 446.011L93.1093 445.96C98.3101 444.882 101.351 445.994 101.955 448.905C102.709 452.542 99.4778 455.123 94.1153 456.235Z" fill="black"/>
<path d="M118.58 450.882L106.747 433.661L110.115 432.963L119.205 446.031L119.339 446.003L122.861 430.32L126.661 429.533L136.106 442.555L136.241 442.527L139.38 426.896L142.398 426.27L138.387 446.776L135.719 447.329L125.334 433.433L125.28 433.445L121.329 450.312L118.58 450.882Z" fill="black"/>
<path d="M148.858 444.605L144.947 425.741L148.262 425.054L152.172 443.917L148.858 444.605Z" fill="black"/>
<path d="M156.542 443.011L152.631 424.148L161.686 422.271C169.931 420.561 174.727 423.221 175.945 429.096C177.174 435.024 173.842 439.425 165.596 441.134L156.542 443.011ZM159.292 439.603L165.032 438.413C171.203 437.133 173.421 434.003 172.549 429.799C171.695 425.677 168.421 423.713 162.25 424.993L156.51 426.183L159.292 439.603Z" fill="black"/>
<path d="M186.649 436.769L183.297 420.601L174.647 422.394L174.088 419.7L194.622 415.442L195.181 418.137L186.585 419.919L189.937 436.088L186.649 436.769Z" fill="black"/>
<path d="M217.533 430.366L215.829 422.147L202.679 424.874L204.383 433.093L201.068 433.78L197.157 414.917L200.472 414.23L202.12 422.179L215.27 419.453L213.622 411.503L216.937 410.816L220.848 429.679L217.533 430.366Z" fill="black"/>
<path d="M234.794 427.069C229.863 428.091 225.605 427.344 222.825 425.053L224.547 422.785C226.881 424.69 230.049 425.326 234.252 424.455C238.133 423.65 240.206 422.124 239.837 420.346C238.786 415.28 223.349 422.837 221.796 415.345C221.064 411.815 224.17 409.035 229.775 407.873C234.113 406.974 237.777 407.563 240.376 409.526L238.681 411.788C236.521 410.184 233.955 409.733 230.344 410.482C226.652 411.247 224.724 412.658 225.071 414.329C226.032 418.964 241.533 411.31 243.186 419.286C243.946 422.951 240.696 425.845 234.794 427.069Z" fill="black"/>
<path d="M87.233 486.258C82.113 487.319 78.2086 486.246 77.499 482.823C76.8789 479.832 78.9988 478.128 81.4451 476.777C79.495 475.777 78.1601 474.76 77.8193 473.117C77.2104 470.179 79.4647 467.632 83.5068 466.794C87.5759 465.95 90.3327 467.318 90.9417 470.255C91.5842 473.354 89.1724 475.007 86.5319 476.369L93.4666 479.316C94.1955 477.816 94.4094 476.001 94.0982 473.957L97.0049 473.608C97.3963 476.309 97.0237 478.579 96.0598 480.437L98.0303 481.265L101.722 480.499L102.214 482.871L99.6807 483.396C98.0638 483.731 96.865 483.642 95.6307 483.111L94.5153 482.612C92.7792 484.405 90.278 485.626 87.233 486.258ZM80.6285 481.921C81.0364 483.889 83.3785 484.612 86.72 483.919C88.9566 483.455 90.6671 482.623 91.9165 481.464L83.714 477.825C81.7675 478.875 80.2374 480.035 80.6285 481.921ZM80.8217 472.55C81.0507 473.655 82.011 474.356 84.2148 475.36C86.5542 474.172 88.5267 472.977 88.1076 470.955C87.7668 469.312 86.288 468.55 83.9975 469.025C81.4105 469.562 80.5088 471.041 80.8217 472.55Z" fill="black"/>
<path d="M117.161 479.772L103.388 462.953L107.187 462.166L117.695 475.024L117.883 474.984L122.413 459.009L125.889 458.288L119.91 479.202L117.161 479.772Z" fill="black"/>
<path d="M126.431 477.85L132.086 457.003L135.967 456.199L149.525 473.062L146.022 473.788L142.144 468.915L131.258 471.172L129.665 477.179L126.431 477.85ZM131.989 468.462L140.396 466.719L134.461 459.237L131.989 468.462Z" fill="black"/>
<path d="M151.897 472.57L147.987 453.707L160.517 451.109C164.856 450.209 167.671 451.452 168.241 454.201C168.744 456.626 167.193 458.634 163.8 459.759L163.811 459.813L165.967 459.366C168.446 458.852 169.981 459.883 170.467 462.227L171.758 468.452L168.443 469.139L166.868 461.54L153.636 464.283L155.212 471.883L151.897 472.57ZM153.078 461.589L161.809 459.779C164.342 459.253 165.452 457.562 165.073 455.729C164.721 454.032 163.307 453.313 160.801 453.832L151.854 455.687L153.078 461.589Z" fill="black"/>
<path d="M175.424 467.692L171.513 448.829L174.827 448.142L178.738 467.005L175.424 467.692Z" fill="black"/>
<path d="M181.168 466.501L186.823 445.655L190.704 444.85L204.262 461.713L200.758 462.44L196.881 457.566L185.994 459.823L184.401 465.831L181.168 466.501ZM186.726 457.114L195.133 455.371L189.197 447.889L186.726 457.114Z" fill="black"/>
<path d="M206.634 461.221L202.723 442.358L215.281 439.755C219.08 438.967 221.749 440.044 222.302 442.712C222.782 445.029 221.301 446.966 218.367 447.996L218.378 448.05C222.293 447.548 224.591 448.87 225.205 451.834C225.864 455.014 223.746 457.674 219.326 458.59L206.634 461.221ZM209.396 457.866L218.18 456.045C220.687 455.525 222.15 454.042 221.758 452.155C221.412 450.485 219.874 449.707 217.368 450.227L208.206 452.127L209.396 457.866ZM207.72 449.782L216.477 447.966C218.633 447.519 219.515 446.213 219.179 444.596C218.822 442.871 217.295 442.148 215.139 442.595L206.597 444.366L207.72 449.782Z" fill="black"/>
<path d="M229.503 456.48L225.592 437.617L228.906 436.93L232.258 453.098L246.163 450.215L246.722 452.91L229.503 456.48Z" fill="black"/>
<path d="M249.266 452.383L245.355 433.52L263.679 429.72L264.249 432.469L249.239 435.581L250.284 440.62L260.254 438.553L260.802 441.194L250.831 443.261L252.01 448.947L267.289 445.779L267.859 448.528L249.266 452.383Z" fill="black"/>
</g>
<defs>
<clipPath id="clip0_11245_110">
<rect width="760" height="506" fill="white"/>
</clipPath>
</defs>
</svg>
