<svg width="760" height="506" viewBox="0 0 760 506" fill="none" xmlns="http://www.w3.org/2000/svg">
<rect width="760" height="506" fill="#B9B9B9"/>
<g clip-path="url(#clip0_3466_848)">
<rect width="760" height="506" fill="black"/>
<path d="M31.7616 60.8577C16.8403 60.8577 1.83317 57.0845 -7.25684 51.3389L-0.739473 37.8754C7.92176 43.0207 20.2704 46.1936 32.1046 46.1936C38.622 46.1936 41.7949 45.1646 41.7949 43.0207C41.7949 35.0455 -3.39787 43.7067 -3.39787 19.0951C-3.39787 6.31766 8.43629 -0.885742 29.1889 -0.885742C42.2237 -0.885742 55.3441 2.11568 63.8339 6.91794L57.2307 20.5529C49.2556 16.351 38.622 13.7783 28.4171 13.7783C21.9855 13.7783 19.1556 14.8074 19.1556 16.694C19.1556 23.9831 65.549 15.8364 65.549 40.5338C65.549 53.4828 53.286 60.8577 31.7616 60.8577Z" fill="white"/>
<path d="M90.3187 60.0001V15.4077H65.4498V-0.0281954H136.369V15.4077H111.586V60.0001H90.3187Z" fill="white"/>
<path d="M139.963 60.0001V-0.0281954H186.957C202.564 -0.0281954 210.883 5.71738 210.883 14.7216C210.883 23.2113 203.508 27.8421 188.758 29.0427V29.2142H196.304C207.024 29.2142 211.397 34.4452 211.397 42.5919V60.0001H189.358V42.9349H162.002V60.0001H139.963ZM162.002 27.9279H181.211C185.928 27.9279 188.844 25.2695 188.844 20.896C188.844 17.2085 185.928 14.8931 181.211 14.8931H162.002V27.9279Z" fill="white"/>
<path d="M216.506 60.0001V-0.0281954H238.545V60.0001H216.506Z" fill="white"/>
<path d="M283.314 60.8577C259.302 60.8577 243.095 48.6805 243.095 30.0717C243.095 11.2057 259.302 -0.885742 283.314 -0.885742C300.465 -0.885742 313.757 5.71738 319.588 18.0661L299.864 25.1837C297.378 19.2666 292.49 15.4077 283.657 15.4077C272.68 15.4077 266.249 20.8102 266.249 30.0717C266.249 39.1617 272.68 44.5643 283.657 44.5643C292.661 44.5643 297.463 39.9335 299.95 33.8449L320.017 41.1341C314.357 53.74 300.808 60.8577 283.314 60.8577Z" fill="white"/>
<path d="M372.773 60.0001V37.7897H344.817V60.0001H322.778V-0.0281954H344.817V22.3538H372.773V-0.0281954H394.812V60.0001H372.773Z" fill="white"/>
<path d="M401.164 60.0001V-0.0281954H444.298C459.734 -0.0281954 468.996 7.77549 468.996 20.4672C468.996 33.4162 459.734 41.5629 444.298 41.5629H423.203V60.0001H401.164ZM423.203 27.5848H439.41C444.298 27.5848 445.842 24.4977 445.842 20.9817C445.842 17.8946 444.298 14.9789 439.41 14.9789H423.203V27.5848Z" fill="white"/>
<path d="M508.015 60.7719C486.233 60.7719 471.912 50.8244 471.912 31.7011V-0.0281954H493.951V30.0717C493.951 40.1908 499.525 44.8215 508.872 44.8215C518.563 44.8215 524.222 40.1908 524.222 30.0717V-0.0281954H544.546V31.7011C544.546 50.8244 529.968 60.7719 508.015 60.7719Z" fill="white"/>
<path d="M550.229 60.0001V-0.0281954H576.042L601.511 29.643H601.94V-0.0281954H621.663V60.0001H604.169L570.468 23.0398H569.953V60.0001H550.229Z" fill="white"/>
<path d="M628.029 60.0001V-0.0281954H650.068V20.8102L675.194 -0.0281954H702.292L675.279 22.0965L703.578 60.0001H675.451L659.072 35.3885L650.068 42.7634V60.0001H628.029Z" fill="white"/>
<path d="M727.282 60.0001V15.4077H702.413V-0.0281954H773.333V15.4077H748.549V60.0001H727.282Z" fill="white"/>
<path d="M31.7616 131.858C16.8403 131.858 1.83317 128.084 -7.25684 122.339L-0.739473 108.875C7.92176 114.021 20.2704 117.194 32.1046 117.194C38.622 117.194 41.7949 116.165 41.7949 114.021C41.7949 106.046 -3.39787 114.707 -3.39787 90.0951C-3.39787 77.3177 8.43629 70.1143 29.1889 70.1143C42.2237 70.1143 55.3441 73.1157 63.8339 77.9179L57.2307 91.5529C49.2556 87.351 38.622 84.7783 28.4171 84.7783C21.9855 84.7783 19.1556 85.8074 19.1556 87.694C19.1556 94.9831 65.549 86.8364 65.549 111.534C65.549 124.483 53.286 131.858 31.7616 131.858Z" fill="white"/>
<path d="M62.9153 131L90.0138 70.9718H115.74L144.039 131H120.8L116.083 120.367H88.0415L83.5822 131H62.9153ZM93.7013 106.732H110.08L101.676 87.5225L93.7013 106.732Z" fill="white"/>
<path d="M146.077 131V70.9718H171.889L197.358 100.643H197.787V70.9718H217.51V131H200.016L166.315 94.0398H165.8V131H146.077Z" fill="white"/>
<path d="M259.464 131.858C244.543 131.858 229.536 128.084 220.445 122.339L226.963 108.875C235.624 114.021 247.973 117.194 259.807 117.194C266.324 117.194 269.497 116.165 269.497 114.021C269.497 106.046 224.304 114.707 224.304 90.0951C224.304 77.3177 236.139 70.1143 256.891 70.1143C269.926 70.1143 283.046 73.1157 291.536 77.9179L284.933 91.5529C276.958 87.351 266.324 84.7783 256.119 84.7783C249.688 84.7783 246.858 85.8074 246.858 87.694C246.858 94.9831 293.251 86.8364 293.251 111.534C293.251 124.483 280.988 131.858 259.464 131.858Z" fill="white"/>
<path d="M348.233 131.858C333.312 131.858 318.305 128.084 309.215 122.339L315.732 108.875C324.394 114.021 336.742 117.194 348.577 117.194C355.094 117.194 358.267 116.165 358.267 114.021C358.267 106.046 313.074 114.707 313.074 90.0951C313.074 77.3177 324.908 70.1143 345.661 70.1143C358.696 70.1143 371.816 73.1157 380.306 77.9179L373.703 91.5529C365.727 87.351 355.094 84.7783 344.889 84.7783C338.457 84.7783 335.628 85.8074 335.628 87.694C335.628 94.9831 382.021 86.8364 382.021 111.534C382.021 124.483 369.758 131.858 348.233 131.858Z" fill="white"/>
<path d="M406.791 131V86.4077H381.922V70.9718H452.841V86.4077H428.058V131H406.791Z" fill="white"/>
<path d="M456.435 131V70.9718H503.429C519.036 70.9718 527.354 76.7174 527.354 85.7216C527.354 94.2113 519.979 98.8421 505.23 100.043V100.214H512.776C523.495 100.214 527.869 105.445 527.869 113.592V131H505.83V113.935H478.474V131H456.435ZM478.474 98.9279H497.683C502.4 98.9279 505.315 96.2695 505.315 91.896C505.315 88.2085 502.4 85.8931 497.683 85.8931H478.474V98.9279Z" fill="white"/>
<path d="M532.978 131V70.9718H555.017V131H532.978Z" fill="white"/>
<path d="M599.786 131.858C575.774 131.858 559.567 119.681 559.567 101.072C559.567 82.2057 575.774 70.1143 599.786 70.1143C616.937 70.1143 630.229 76.7174 636.06 89.0661L616.336 96.1837C613.849 90.2666 608.961 86.4077 600.129 86.4077C589.152 86.4077 582.721 91.8102 582.721 101.072C582.721 110.162 589.152 115.564 600.129 115.564C609.133 115.564 613.935 110.934 616.422 104.845L636.489 112.134C630.829 124.74 617.28 131.858 599.786 131.858Z" fill="white"/>
<path d="M689.245 131V108.79H661.289V131H639.25V70.9718H661.289V93.3538H689.245V70.9718H711.284V131H689.245Z" fill="white"/>
<path d="M717.635 131V70.9718H760.77C776.206 70.9718 785.468 78.7755 785.468 91.4672C785.468 104.416 776.206 112.563 760.77 112.563H739.674V131H717.635ZM739.674 98.5848H755.882C760.77 98.5848 762.314 95.4977 762.314 91.9817C762.314 88.8946 760.77 85.9789 755.882 85.9789H739.674V98.5848Z" fill="white"/>
<path d="M31.5901 202.772C9.80836 202.772 -4.51268 192.824 -4.51268 173.701V141.972H17.5263V172.072C17.5263 182.191 23.1004 186.822 32.4476 186.822C42.1379 186.822 47.7977 182.191 47.7977 172.072V141.972H68.1216V173.701C68.1216 192.824 53.5433 202.772 31.5901 202.772Z" fill="white"/>
<path d="M73.8049 202V141.972H99.6171L125.086 171.643H125.515V141.972H145.239V202H127.745L94.043 165.04H93.5285V202H73.8049Z" fill="white"/>
<path d="M151.604 202V141.972H173.643V162.81L198.769 141.972H225.867L198.855 164.097L227.154 202H199.026L182.647 177.389L173.643 184.763V202H151.604Z" fill="white"/>
<path d="M250.858 202V157.408H225.989V141.972H296.908V157.408H272.125V202H250.858Z" fill="white"/>
<path d="M350.243 202.858C335.322 202.858 320.315 199.084 311.225 193.339L317.742 179.875C326.404 185.021 338.752 188.194 350.586 188.194C357.104 188.194 360.277 187.165 360.277 185.021C360.277 177.045 315.084 185.707 315.084 161.095C315.084 148.318 326.918 141.114 347.671 141.114C360.705 141.114 373.826 144.116 382.316 148.918L375.713 162.553C367.737 158.351 357.104 155.778 346.899 155.778C340.467 155.778 337.637 156.807 337.637 158.694C337.637 165.983 384.031 157.836 384.031 182.534C384.031 195.483 371.768 202.858 350.243 202.858Z" fill="white"/>
<path d="M381.397 202L408.496 141.972H434.222L462.521 202H439.282L434.565 191.367H406.523L402.064 202H381.397ZM412.183 177.732H428.562L420.158 158.522L412.183 177.732Z" fill="white"/>
<path d="M464.558 202V141.972H490.371L515.84 171.643H516.269V141.972H535.992V202H518.498L484.797 165.04H484.282V202H464.558Z" fill="white"/>
<path d="M577.946 202.858C563.024 202.858 548.017 199.084 538.927 193.339L545.445 179.875C554.106 185.021 566.455 188.194 578.289 188.194C584.806 188.194 587.979 187.165 587.979 185.021C587.979 177.045 542.786 185.707 542.786 161.095C542.786 148.318 554.62 141.114 575.373 141.114C588.408 141.114 601.528 144.116 610.018 148.918L603.415 162.553C595.44 158.351 584.806 155.778 574.601 155.778C568.17 155.778 565.34 156.807 565.34 158.694C565.34 165.983 611.733 157.836 611.733 182.534C611.733 195.483 599.47 202.858 577.946 202.858Z" fill="white"/>
<path d="M666.715 202.858C651.794 202.858 636.787 199.084 627.697 193.339L634.214 179.875C642.875 185.021 655.224 188.194 667.058 188.194C673.576 188.194 676.749 187.165 676.749 185.021C676.749 177.045 631.556 185.707 631.556 161.095C631.556 148.318 643.39 141.114 664.143 141.114C677.177 141.114 690.298 144.116 698.788 148.918L692.184 162.553C684.209 158.351 673.576 155.778 663.371 155.778C656.939 155.778 654.109 156.807 654.109 158.694C654.109 165.983 700.503 157.836 700.503 182.534C700.503 195.483 688.24 202.858 666.715 202.858Z" fill="white"/>
<path d="M725.272 202V157.408H700.404V141.972H771.323V157.408H746.54V202H725.272Z" fill="white"/>
<path d="M-3.82665 273V212.972H43.167C58.7743 212.972 67.0925 218.717 67.0925 227.722C67.0925 236.211 59.7176 240.842 44.9678 242.043V242.214H52.5142C63.2336 242.214 67.6071 247.445 67.6071 255.592V273H45.5681V255.935H18.2123V273H-3.82665ZM18.2123 240.928H37.4214C42.1379 240.928 45.0536 238.269 45.0536 233.896C45.0536 230.209 42.1379 227.893 37.4214 227.893H18.2123V240.928Z" fill="white"/>
<path d="M72.7162 273V212.972H94.7551V273H72.7162Z" fill="white"/>
<path d="M139.524 273.858C115.513 273.858 99.3048 261.681 99.3048 243.072C99.3048 224.206 115.513 212.114 139.524 212.114C156.675 212.114 169.967 218.717 175.798 231.066L156.075 238.184C153.588 232.267 148.7 228.408 139.867 228.408C128.89 228.408 122.459 233.81 122.459 243.072C122.459 252.162 128.89 257.564 139.867 257.564C148.871 257.564 153.673 252.934 156.16 246.845L176.227 254.134C170.567 266.74 157.018 273.858 139.524 273.858Z" fill="white"/>
<path d="M228.983 273V250.79H201.027V273H178.988V212.972H201.027V235.354H228.983V212.972H251.022V273H228.983Z" fill="white"/>
<path d="M257.374 273V212.972H300.508C315.944 212.972 325.206 220.775 325.206 233.467C325.206 246.416 315.944 254.563 300.508 254.563H279.413V273H257.374ZM279.413 240.585H295.62C300.508 240.585 302.052 237.498 302.052 233.982C302.052 230.895 300.508 227.979 295.62 227.979H279.413V240.585Z" fill="white"/>
<path d="M364.225 273.772C342.443 273.772 328.122 263.824 328.122 244.701V212.972H350.161V243.072C350.161 253.191 355.735 257.822 365.082 257.822C374.773 257.822 380.432 253.191 380.432 243.072V212.972H400.756V244.701C400.756 263.824 386.178 273.772 364.225 273.772Z" fill="white"/>
<path d="M406.44 273V212.972H432.252L457.721 242.643H458.15V212.972H477.873V273H460.379L426.678 236.04H426.163V273H406.44Z" fill="white"/>
<path d="M484.239 273V212.972H506.278V233.81L531.404 212.972H558.502L531.489 235.097L559.789 273H531.661L515.282 248.389L506.278 255.763V273H484.239Z" fill="white"/>
<path d="M583.492 273V228.408H558.623V212.972H629.543V228.408H604.759V273H583.492Z" fill="white"/>
<path d="M682.878 273.858C667.957 273.858 652.95 270.084 643.86 264.339L650.377 250.875C659.038 256.021 671.387 259.194 683.221 259.194C689.738 259.194 692.911 258.165 692.911 256.021C692.911 248.045 647.719 256.707 647.719 232.095C647.719 219.318 659.553 212.114 680.305 212.114C693.34 212.114 706.461 215.116 714.95 219.918L708.347 233.553C700.372 229.351 689.738 226.778 679.534 226.778C673.102 226.778 670.272 227.807 670.272 229.694C670.272 236.983 716.665 228.836 716.665 253.534C716.665 266.483 704.402 273.858 682.878 273.858Z" fill="white"/>
<path d="M714.032 273L741.13 212.972H766.857L795.156 273H771.916L767.2 262.367H739.158L734.699 273H714.032ZM744.818 248.732H761.197L752.793 229.522L744.818 248.732Z" fill="white"/>
<path d="M101.409 367.338L109.284 349.838H111.809L119.709 367.338H117.484L115.034 361.863H105.984L103.534 367.338H101.409ZM106.784 360.038H114.234L110.509 351.688L106.784 360.038Z" fill="#B591FF"/>
<path d="M127.4 367.338V349.838H129.4V357.763H129.5C130.325 355.313 132.25 354.313 134.475 354.313C137.55 354.313 139.4 356.163 139.4 359.388V367.338H137.4V359.813C137.4 357.413 136.075 356.163 133.8 356.163C131.375 356.163 129.4 357.613 129.4 360.738V367.338H127.4Z" fill="#B591FF"/>
<path d="M143.726 372.563C142.801 372.563 141.801 372.338 140.876 371.688L141.701 370.113C142.301 370.563 142.976 370.838 143.776 370.838C145.001 370.838 145.726 370.338 146.226 369.288L147.176 367.238L141.226 354.563H143.401L148.251 364.913L152.601 354.563H154.676L148.026 369.738C147.126 371.713 145.951 372.563 143.726 372.563Z" fill="#B591FF"/>
<path d="M157.258 372.338V354.563H159.258V357.838H159.358C160.158 355.663 162.208 354.313 164.858 354.313C168.508 354.313 171.033 356.988 171.033 360.963C171.033 364.938 168.508 367.588 164.858 367.588C162.208 367.588 160.183 366.288 159.383 364.113H159.258V372.338H157.258ZM164.133 365.738C167.133 365.738 168.908 363.963 168.908 360.963C168.908 357.938 167.133 356.163 164.133 356.163C161.008 356.163 159.183 357.938 159.183 360.963C159.183 363.963 161.008 365.738 164.133 365.738Z" fill="#B591FF"/>
<path d="M180.549 367.588C176.124 367.588 173.424 365.038 173.424 360.988C173.424 356.988 176.199 354.313 180.274 354.313C184.599 354.313 186.899 356.788 186.899 361.388H175.549C175.699 364.388 177.374 365.813 180.574 365.813C182.724 365.813 184.224 365.113 184.974 363.663L186.599 364.388C185.649 366.338 183.674 367.588 180.549 367.588ZM175.624 359.788H184.849C184.574 357.363 183.049 356.088 180.299 356.088C177.699 356.088 176.024 357.263 175.624 359.788Z" fill="#B591FF"/>
<path d="M190.071 367.338V354.563H192.071V357.563H192.171C192.696 355.413 193.896 354.563 195.921 354.563H198.071V356.413H195.821C192.521 356.413 192.071 358.563 192.071 360.663V367.338H190.071Z" fill="#B591FF"/>
<path d="M198.747 361.238V359.288H207.572V361.238H198.747Z" fill="#B591FF"/>
<path d="M211.043 367.338V354.563H213.043V357.763H213.168C214.018 355.313 215.743 354.313 217.943 354.313C220.543 354.313 222.193 355.638 222.643 357.988H222.743C223.593 355.363 225.418 354.313 227.693 354.313C230.768 354.313 232.543 356.163 232.543 359.388V367.338H230.543V359.813C230.543 357.413 229.343 356.163 227.068 356.163C224.643 356.163 222.793 357.613 222.793 360.738V367.338H220.793V359.813C220.793 357.413 219.593 356.163 217.318 356.163C214.893 356.163 213.043 357.613 213.043 360.738V367.338H211.043Z" fill="#B591FF"/>
<path d="M242.606 367.588C238.456 367.588 235.631 364.938 235.631 360.988C235.631 356.988 238.456 354.313 242.606 354.313C246.781 354.313 249.606 356.988 249.606 360.988C249.606 364.938 246.781 367.588 242.606 367.588ZM242.606 365.763C245.681 365.763 247.481 363.938 247.481 360.988C247.481 357.988 245.681 356.138 242.606 356.138C239.556 356.138 237.756 357.988 237.756 360.988C237.756 363.938 239.556 365.763 242.606 365.763Z" fill="#B591FF"/>
<path d="M265.764 367.338H263.764V364.113H263.639C262.839 366.288 260.814 367.588 258.164 367.588C254.514 367.588 251.989 364.938 251.989 360.963C251.989 356.988 254.514 354.313 258.164 354.313C260.814 354.313 262.864 355.663 263.664 357.838H263.764V349.838H265.764V367.338ZM258.889 365.738C262.014 365.738 263.839 363.963 263.839 360.963C263.839 357.938 262.014 356.163 258.889 356.163C255.889 356.163 254.114 357.938 254.114 360.963C254.114 363.963 255.889 365.738 258.889 365.738Z" fill="#B591FF"/>
<path d="M276.155 367.588C271.73 367.588 269.03 365.038 269.03 360.988C269.03 356.988 271.805 354.313 275.88 354.313C280.205 354.313 282.505 356.788 282.505 361.388H271.155C271.305 364.388 272.98 365.813 276.18 365.813C278.33 365.813 279.83 365.113 280.58 363.663L282.205 364.388C281.255 366.338 279.28 367.588 276.155 367.588ZM271.23 359.788H280.455C280.18 357.363 278.655 356.088 275.905 356.088C273.305 356.088 271.63 357.263 271.23 359.788Z" fill="#B591FF"/>
<path d="M285.676 367.338V354.563H287.676V357.563H287.776C288.301 355.413 289.501 354.563 291.526 354.563H293.676V356.413H291.426C288.126 356.413 287.676 358.563 287.676 360.663V367.338H285.676Z" fill="#B591FF"/>
<path d="M296.321 367.338V354.563H298.321V357.763H298.421C299.246 355.313 301.171 354.313 303.396 354.313C306.471 354.313 308.321 356.163 308.321 359.388V367.338H306.321V359.813C306.321 357.413 304.996 356.163 302.721 356.163C300.296 356.163 298.321 357.613 298.321 360.738V367.338H296.321Z" fill="#B591FF"/>
<path d="M323.716 367.588C320.366 367.588 318.091 366.413 317.241 364.213L319.091 363.513C319.641 365.113 321.366 365.888 323.816 365.888C326.116 365.888 327.466 365.138 327.466 363.838C327.466 360.438 317.691 363.388 317.691 358.113C317.691 355.738 319.866 354.313 323.341 354.313C326.241 354.313 328.266 355.338 329.141 357.263L327.316 357.963C326.691 356.638 325.266 356.013 323.291 356.013C321.091 356.013 319.816 356.738 319.816 357.988C319.816 361.288 329.566 358.388 329.566 363.663C329.566 366.113 327.316 367.588 323.716 367.588Z" fill="#B591FF"/>
<path d="M336.448 367.588C333.773 367.588 331.848 366.313 331.848 364.088C331.848 361.938 333.448 360.338 337.173 359.888L341.873 359.338V358.938C341.873 357.013 340.673 356.063 338.248 356.063C336.023 356.063 334.773 356.813 334.298 358.388H332.323C332.773 355.863 335.073 354.313 338.323 354.313C341.698 354.313 343.873 355.938 343.873 359.013V365.638H346.248V367.338H344.798C342.948 367.338 341.898 366.538 341.898 364.788V364.088H341.823C341.048 366.363 339.073 367.588 336.448 367.588ZM333.923 363.963C333.923 365.188 334.873 365.938 336.848 365.938C339.798 365.938 341.873 364.388 341.873 361.938V360.863L337.248 361.438C334.823 361.738 333.923 362.713 333.923 363.963Z" fill="#B591FF"/>
<path d="M348.591 367.338V354.563H350.591V357.763H350.691C351.516 355.313 353.441 354.313 355.666 354.313C358.741 354.313 360.591 356.163 360.591 359.388V367.338H358.591V359.813C358.591 357.413 357.266 356.163 354.991 356.163C352.566 356.163 350.591 357.613 350.591 360.738V367.338H348.591Z" fill="#B591FF"/>
<path d="M369.908 367.588C366.558 367.588 364.283 366.413 363.433 364.213L365.283 363.513C365.833 365.113 367.558 365.888 370.008 365.888C372.308 365.888 373.658 365.138 373.658 363.838C373.658 360.438 363.883 363.388 363.883 358.113C363.883 355.738 366.058 354.313 369.533 354.313C372.433 354.313 374.458 355.338 375.333 357.263L373.508 357.963C372.883 356.638 371.458 356.013 369.483 356.013C367.283 356.013 366.008 356.738 366.008 357.988C366.008 361.288 375.758 358.388 375.758 363.663C375.758 366.113 373.508 367.588 369.908 367.588Z" fill="#B591FF"/>
<path d="M390.269 367.588C386.919 367.588 384.644 366.413 383.794 364.213L385.644 363.513C386.194 365.113 387.919 365.888 390.369 365.888C392.669 365.888 394.019 365.138 394.019 363.838C394.019 360.438 384.244 363.388 384.244 358.113C384.244 355.738 386.419 354.313 389.894 354.313C392.794 354.313 394.819 355.338 395.694 357.263L393.869 357.963C393.244 356.638 391.819 356.013 389.844 356.013C387.644 356.013 386.369 356.738 386.369 357.988C386.369 361.288 396.119 358.388 396.119 363.663C396.119 366.113 393.869 367.588 390.269 367.588Z" fill="#B591FF"/>
<path d="M405.476 367.588C401.051 367.588 398.351 365.038 398.351 360.988C398.351 356.988 401.126 354.313 405.201 354.313C409.526 354.313 411.826 356.788 411.826 361.388H400.476C400.626 364.388 402.301 365.813 405.501 365.813C407.651 365.813 409.151 365.113 409.901 363.663L411.526 364.388C410.576 366.338 408.601 367.588 405.476 367.588ZM400.551 359.788H409.776C409.501 357.363 407.976 356.088 405.226 356.088C402.626 356.088 400.951 357.263 400.551 359.788Z" fill="#B591FF"/>
<path d="M414.998 367.338V354.563H416.998V357.563H417.098C417.623 355.413 418.823 354.563 420.848 354.563H422.998V356.413H420.748C417.448 356.413 416.998 358.563 416.998 360.663V367.338H414.998Z" fill="#B591FF"/>
<path d="M425.642 367.338V354.563H427.642V367.338H425.642ZM425.542 352.438V349.838H427.817V352.438H425.542Z" fill="#B591FF"/>
<path d="M432.87 352.463C432.87 350.788 433.795 349.588 435.995 349.588H439.02V351.263H434.87V354.563H438.595V356.288H434.87V367.338H432.87V356.288H430.295V354.563H432.87V352.463Z" fill="#B591FF"/>
<path d="M450.401 367.413C448.551 367.413 447.351 366.413 447.351 364.513V356.288H444.601V354.563H447.351V351.188L449.351 350.438V354.563H453.526V356.288H449.351V365.613H453.651V367.413H450.401Z" fill="#B591FF"/>
<path d="M456.453 367.338V349.838H458.453V357.763H458.553C459.378 355.313 461.303 354.313 463.528 354.313C466.603 354.313 468.453 356.163 468.453 359.388V367.338H466.453V359.813C466.453 357.413 465.128 356.163 462.853 356.163C460.428 356.163 458.453 357.613 458.453 360.738V367.338H456.453Z" fill="#B591FF"/>
<path d="M476.219 367.588C473.544 367.588 471.619 366.313 471.619 364.088C471.619 361.938 473.219 360.338 476.944 359.888L481.644 359.338V358.938C481.644 357.013 480.444 356.063 478.019 356.063C475.794 356.063 474.544 356.813 474.069 358.388H472.094C472.544 355.863 474.844 354.313 478.094 354.313C481.469 354.313 483.644 355.938 483.644 359.013V365.638H486.019V367.338H484.569C482.719 367.338 481.669 366.538 481.669 364.788V364.088H481.594C480.819 366.363 478.844 367.588 476.219 367.588ZM473.694 363.963C473.694 365.188 474.644 365.938 476.619 365.938C479.569 365.938 481.644 364.388 481.644 361.938V360.863L477.019 361.438C474.594 361.738 473.694 362.713 473.694 363.963Z" fill="#B591FF"/>
<path d="M492.075 367.413C490.225 367.413 489.025 366.413 489.025 364.513V356.288H486.275V354.563H489.025V351.188L491.025 350.438V354.563H495.2V356.288H491.025V365.613H495.325V367.413H492.075Z" fill="#B591FF"/>
<path d="M504.207 367.338V354.563H506.207V357.563H506.307C506.832 355.413 508.032 354.563 510.057 354.563H512.207V356.413H509.957C506.657 356.413 506.207 358.563 506.207 360.663V367.338H504.207Z" fill="#B591FF"/>
<path d="M520.369 367.588C515.944 367.588 513.244 365.038 513.244 360.988C513.244 356.988 516.019 354.313 520.094 354.313C524.419 354.313 526.719 356.788 526.719 361.388H515.369C515.519 364.388 517.194 365.813 520.394 365.813C522.544 365.813 524.044 365.113 524.794 363.663L526.419 364.388C525.469 366.338 523.494 367.588 520.369 367.588ZM515.444 359.788H524.669C524.394 357.363 522.869 356.088 520.119 356.088C517.519 356.088 515.844 357.263 515.444 359.788Z" fill="#B591FF"/>
<path d="M529.89 367.338V354.563H531.89V367.338H529.89ZM529.79 352.438V349.838H532.065V352.438H529.79Z" fill="#B591FF"/>
<path d="M536.043 367.338V354.563H538.043V357.763H538.143C538.968 355.313 540.893 354.313 543.118 354.313C546.193 354.313 548.043 356.163 548.043 359.388V367.338H546.043V359.813C546.043 357.413 544.718 356.163 542.443 356.163C540.018 356.163 538.043 357.613 538.043 360.738V367.338H536.043Z" fill="#B591FF"/>
<path d="M556.04 367.413C554.19 367.413 552.99 366.413 552.99 364.513V356.288H550.24V354.563H552.99V351.188L554.99 350.438V354.563H559.165V356.288H554.99V365.613H559.29V367.413H556.04Z" fill="#B591FF"/>
<path d="M567.781 367.588C563.356 367.588 560.656 365.038 560.656 360.988C560.656 356.988 563.431 354.313 567.506 354.313C571.831 354.313 574.131 356.788 574.131 361.388H562.781C562.931 364.388 564.606 365.813 567.806 365.813C569.956 365.813 571.456 365.113 572.206 363.663L573.831 364.388C572.881 366.338 570.906 367.588 567.781 367.588ZM562.856 359.788H572.081C571.806 357.363 570.281 356.088 567.531 356.088C564.931 356.088 563.256 357.263 562.856 359.788Z" fill="#B591FF"/>
<path d="M577.302 367.338V354.563H579.302V357.563H579.402C579.927 355.413 581.127 354.563 583.152 354.563H585.302V356.413H583.052C579.752 356.413 579.302 358.563 579.302 360.663V367.338H577.302Z" fill="#B591FF"/>
<path d="M587.947 372.338V354.563H589.947V357.838H590.047C590.847 355.663 592.897 354.313 595.547 354.313C599.197 354.313 601.722 356.988 601.722 360.963C601.722 364.938 599.197 367.588 595.547 367.588C592.897 367.588 590.872 366.288 590.072 364.113H589.947V372.338H587.947ZM594.822 365.738C597.822 365.738 599.597 363.963 599.597 360.963C599.597 357.938 597.822 356.163 594.822 356.163C591.697 356.163 589.872 357.938 589.872 360.963C589.872 363.963 591.697 365.738 594.822 365.738Z" fill="#B591FF"/>
<path d="M604.988 367.338V354.563H606.988V357.563H607.088C607.613 355.413 608.813 354.563 610.838 354.563H612.988V356.413H610.738C607.438 356.413 606.988 358.563 606.988 360.663V367.338H604.988Z" fill="#B591FF"/>
<path d="M621.15 367.588C616.725 367.588 614.025 365.038 614.025 360.988C614.025 356.988 616.8 354.313 620.875 354.313C625.2 354.313 627.5 356.788 627.5 361.388H616.15C616.3 364.388 617.975 365.813 621.175 365.813C623.325 365.813 624.825 365.113 625.575 363.663L627.2 364.388C626.25 366.338 624.275 367.588 621.15 367.588ZM616.225 359.788H625.45C625.175 357.363 623.65 356.088 620.9 356.088C618.3 356.088 616.625 357.263 616.225 359.788Z" fill="#B591FF"/>
<path d="M634.654 367.413C632.804 367.413 631.604 366.413 631.604 364.513V356.288H628.854V354.563H631.604V351.188L633.604 350.438V354.563H637.779V356.288H633.604V365.613H637.904V367.413H634.654Z" fill="#B591FF"/>
<path d="M646.031 367.588C642.681 367.588 640.406 366.413 639.556 364.213L641.406 363.513C641.956 365.113 643.681 365.888 646.131 365.888C648.431 365.888 649.781 365.138 649.781 363.838C649.781 360.438 640.006 363.388 640.006 358.113C640.006 355.738 642.181 354.313 645.656 354.313C648.556 354.313 650.581 355.338 651.456 357.263L649.631 357.963C649.006 356.638 647.581 356.013 645.606 356.013C643.406 356.013 642.131 356.738 642.131 357.988C642.131 361.288 651.881 358.388 651.881 363.663C651.881 366.113 649.631 367.588 646.031 367.588Z" fill="#B591FF"/>
<path d="M80.8449 397.413C78.9949 397.413 77.7949 396.413 77.7949 394.513V386.288H75.0449V384.563H77.7949V381.188L79.7949 380.438V384.563H83.9699V386.288H79.7949V395.613H84.0949V397.413H80.8449Z" fill="#B591FF"/>
<path d="M86.8971 397.338V379.838H88.8971V387.763H88.9971C89.8221 385.313 91.7471 384.313 93.9721 384.313C97.0471 384.313 98.8971 386.163 98.8971 389.388V397.338H96.8971V389.813C96.8971 387.413 95.5721 386.163 93.2971 386.163C90.8721 386.163 88.8971 387.613 88.8971 390.738V397.338H86.8971Z" fill="#B591FF"/>
<path d="M109.138 397.588C104.713 397.588 102.013 395.038 102.013 390.988C102.013 386.988 104.788 384.313 108.863 384.313C113.188 384.313 115.488 386.788 115.488 391.388H104.138C104.288 394.388 105.963 395.813 109.163 395.813C111.313 395.813 112.813 395.113 113.563 393.663L115.188 394.388C114.238 396.338 112.263 397.588 109.138 397.588ZM104.213 389.788H113.438C113.163 387.363 111.638 386.088 108.888 386.088C106.288 386.088 104.613 387.263 104.213 389.788Z" fill="#B591FF"/>
<path d="M130.064 397.588C126.714 397.588 124.439 396.413 123.589 394.213L125.439 393.513C125.989 395.113 127.714 395.888 130.164 395.888C132.464 395.888 133.814 395.138 133.814 393.838C133.814 390.438 124.039 393.388 124.039 388.113C124.039 385.738 126.214 384.313 129.689 384.313C132.589 384.313 134.614 385.338 135.489 387.263L133.664 387.963C133.039 386.638 131.614 386.013 129.639 386.013C127.439 386.013 126.164 386.738 126.164 387.988C126.164 391.288 135.914 388.388 135.914 393.663C135.914 396.113 133.664 397.588 130.064 397.588Z" fill="#B591FF"/>
<path d="M139.021 402.338V384.563H141.021V387.838H141.121C141.921 385.663 143.971 384.313 146.621 384.313C150.271 384.313 152.796 386.988 152.796 390.963C152.796 394.938 150.271 397.588 146.621 397.588C143.971 397.588 141.946 396.288 141.146 394.113H141.021V402.338H139.021ZM145.896 395.738C148.896 395.738 150.671 393.963 150.671 390.963C150.671 387.938 148.896 386.163 145.896 386.163C142.771 386.163 140.946 387.938 140.946 390.963C140.946 393.963 142.771 395.738 145.896 395.738Z" fill="#B591FF"/>
<path d="M156.062 397.338V384.563H158.062V397.338H156.062ZM155.962 382.438V379.838H158.237V382.438H155.962Z" fill="#B591FF"/>
<path d="M162.214 397.338V384.563H164.214V387.563H164.314C164.839 385.413 166.039 384.563 168.064 384.563H170.214V386.413H167.964C164.664 386.413 164.214 388.563 164.214 390.663V397.338H162.214Z" fill="#B591FF"/>
<path d="M172.859 397.338V384.563H174.859V397.338H172.859ZM172.759 382.438V379.838H175.034V382.438H172.759Z" fill="#B591FF"/>
<path d="M183.286 397.413C181.436 397.413 180.236 396.413 180.236 394.513V386.288H177.486V384.563H180.236V381.188L182.236 380.438V384.563H186.411V386.288H182.236V395.613H186.536V397.413H183.286Z" fill="#B591FF"/>
<path d="M201.493 397.588C197.343 397.588 194.518 394.938 194.518 390.988C194.518 386.988 197.343 384.313 201.493 384.313C205.668 384.313 208.493 386.988 208.493 390.988C208.493 394.938 205.668 397.588 201.493 397.588ZM201.493 395.763C204.568 395.763 206.368 393.938 206.368 390.988C206.368 387.988 204.568 386.138 201.493 386.138C198.443 386.138 196.643 387.988 196.643 390.988C196.643 393.938 198.443 395.763 201.493 395.763Z" fill="#B591FF"/>
<path d="M212.459 382.463C212.459 380.788 213.384 379.588 215.584 379.588H218.609V381.263H214.459V384.563H218.184V386.288H214.459V397.338H212.459V386.288H209.884V384.563H212.459V382.463Z" fill="#B591FF"/>
<path d="M232.503 397.588C228.078 397.588 225.378 395.038 225.378 390.988C225.378 386.988 228.153 384.313 232.228 384.313C236.553 384.313 238.853 386.788 238.853 391.388H227.503C227.653 394.388 229.328 395.813 232.528 395.813C234.678 395.813 236.178 395.113 236.928 393.663L238.553 394.388C237.603 396.338 235.628 397.588 232.503 397.588ZM227.578 389.788H236.803C236.528 387.363 235.003 386.088 232.253 386.088C229.653 386.088 227.978 387.263 227.578 389.788Z" fill="#B591FF"/>
<path d="M245.799 397.588C243.124 397.588 241.199 396.313 241.199 394.088C241.199 391.938 242.799 390.338 246.524 389.888L251.224 389.338V388.938C251.224 387.013 250.024 386.063 247.599 386.063C245.374 386.063 244.124 386.813 243.649 388.388H241.674C242.124 385.863 244.424 384.313 247.674 384.313C251.049 384.313 253.224 385.938 253.224 389.013V395.638H255.599V397.338H254.149C252.299 397.338 251.249 396.538 251.249 394.788V394.088H251.174C250.399 396.363 248.424 397.588 245.799 397.588ZM243.274 393.963C243.274 395.188 244.224 395.938 246.199 395.938C249.149 395.938 251.224 394.388 251.224 391.938V390.863L246.599 391.438C244.174 391.738 243.274 392.713 243.274 393.963Z" fill="#B591FF"/>
<path d="M257.942 397.338V384.563H259.942V387.563H260.042C260.567 385.413 261.767 384.563 263.792 384.563H265.942V386.413H263.692C260.392 386.413 259.942 388.563 259.942 390.663V397.338H257.942Z" fill="#B591FF"/>
<path d="M271.462 397.338C269.362 397.338 268.487 396.188 268.487 394.588V379.838H270.487V395.638H274.487V397.338H271.462Z" fill="#B591FF"/>
<path d="M276.343 402.563C275.418 402.563 274.418 402.338 273.493 401.688L274.318 400.113C274.918 400.563 275.593 400.838 276.393 400.838C277.618 400.838 278.343 400.338 278.843 399.288L279.793 397.238L273.843 384.563H276.018L280.868 394.913L285.218 384.563H287.293L280.643 399.738C279.743 401.713 278.568 402.563 276.343 402.563Z" fill="#B591FF"/>
<path d="M301.219 402.588C298.169 402.588 295.894 401.638 294.769 399.938L296.119 398.838C297.194 400.213 298.819 400.888 301.219 400.888C304.369 400.888 306.219 399.663 306.219 397.563V393.963H306.119C305.319 395.988 303.394 397.213 300.769 397.213C297.019 397.213 294.494 394.638 294.494 390.788C294.494 386.938 297.019 384.363 300.769 384.363C303.369 384.363 305.319 385.563 306.119 387.663H306.219V384.563H308.219V397.538C308.219 400.638 305.344 402.588 301.219 402.588ZM301.394 395.413C304.519 395.413 306.344 393.688 306.344 390.788C306.344 387.863 304.519 386.138 301.394 386.138C298.394 386.138 296.619 387.863 296.619 390.788C296.619 393.688 298.394 395.413 301.394 395.413Z" fill="#B591FF"/>
<path d="M312.361 397.338V384.563H314.361V387.563H314.461C314.986 385.413 316.186 384.563 318.211 384.563H320.361V386.413H318.111C314.811 386.413 314.361 388.563 314.361 390.663V397.338H312.361Z" fill="#B591FF"/>
<path d="M328.348 397.588C324.198 397.588 321.373 394.938 321.373 390.988C321.373 386.988 324.198 384.313 328.348 384.313C332.523 384.313 335.348 386.988 335.348 390.988C335.348 394.938 332.523 397.588 328.348 397.588ZM328.348 395.763C331.423 395.763 333.223 393.938 333.223 390.988C333.223 387.988 331.423 386.138 328.348 386.138C325.298 386.138 323.498 387.988 323.498 390.988C323.498 393.938 325.298 395.763 328.348 395.763Z" fill="#B591FF"/>
<path d="M342.466 397.413C340.616 397.413 339.416 396.413 339.416 394.513V386.288H336.666V384.563H339.416V381.188L341.416 380.438V384.563H345.591V386.288H341.416V395.613H345.716V397.413H342.466Z" fill="#B591FF"/>
<path d="M354.207 397.588C349.782 397.588 347.082 395.038 347.082 390.988C347.082 386.988 349.857 384.313 353.932 384.313C358.257 384.313 360.557 386.788 360.557 391.388H349.207C349.357 394.388 351.032 395.813 354.232 395.813C356.382 395.813 357.882 395.113 358.632 393.663L360.257 394.388C359.307 396.338 357.332 397.588 354.207 397.588ZM349.282 389.788H358.507C358.232 387.363 356.707 386.088 353.957 386.088C351.357 386.088 349.682 387.263 349.282 389.788Z" fill="#B591FF"/>
<path d="M369.053 397.588C365.703 397.588 363.428 396.413 362.578 394.213L364.428 393.513C364.978 395.113 366.703 395.888 369.153 395.888C371.453 395.888 372.803 395.138 372.803 393.838C372.803 390.438 363.028 393.388 363.028 388.113C363.028 385.738 365.203 384.313 368.678 384.313C371.578 384.313 373.603 385.338 374.478 387.263L372.653 387.963C372.028 386.638 370.603 386.013 368.628 386.013C366.428 386.013 365.153 386.738 365.153 387.988C365.153 391.288 374.903 388.388 374.903 393.663C374.903 396.113 372.653 397.588 369.053 397.588Z" fill="#B591FF"/>
<path d="M390.91 402.338H388.91V394.113H388.785C387.985 396.288 385.96 397.588 383.31 397.588C379.66 397.588 377.135 394.938 377.135 390.963C377.135 386.988 379.66 384.313 383.31 384.313C385.96 384.313 388.01 385.663 388.81 387.838H388.91V384.563H390.91V402.338ZM384.035 395.738C387.16 395.738 388.985 393.963 388.985 390.963C388.985 387.938 387.16 386.163 384.035 386.163C381.035 386.163 379.26 387.938 379.26 390.963C379.26 393.963 381.035 395.738 384.035 395.738Z" fill="#B591FF"/>
<path d="M399.876 397.588C396.801 397.588 394.901 395.738 394.901 392.513V384.563H396.901V392.088C396.901 394.488 398.251 395.738 400.551 395.738C402.951 395.738 404.751 394.288 404.751 391.163V384.563H406.751V397.338H404.751V394.138H404.651C403.826 396.588 402.076 397.588 399.876 397.588Z" fill="#B591FF"/>
<path d="M417.146 397.588C412.721 397.588 410.021 395.038 410.021 390.988C410.021 386.988 412.796 384.313 416.871 384.313C421.196 384.313 423.496 386.788 423.496 391.388H412.146C412.296 394.388 413.971 395.813 417.171 395.813C419.321 395.813 420.821 395.113 421.571 393.663L423.196 394.388C422.246 396.338 420.271 397.588 417.146 397.588ZM412.221 389.788H421.446C421.171 387.363 419.646 386.088 416.896 386.088C414.296 386.088 412.621 387.263 412.221 389.788Z" fill="#B591FF"/>
<path d="M436.485 397.413C434.635 397.413 433.435 396.413 433.435 394.513V386.288H430.685V384.563H433.435V381.188L435.435 380.438V384.563H439.61V386.288H435.435V395.613H439.735V397.413H436.485Z" fill="#B591FF"/>
<path d="M443.287 402.563C442.362 402.563 441.362 402.338 440.437 401.688L441.262 400.113C441.862 400.563 442.537 400.838 443.337 400.838C444.562 400.838 445.287 400.338 445.787 399.288L446.737 397.238L440.787 384.563H442.962L447.812 394.913L452.162 384.563H454.237L447.587 399.738C446.687 401.713 445.512 402.563 443.287 402.563Z" fill="#B591FF"/>
<path d="M456.819 402.338V384.563H458.819V387.838H458.919C459.719 385.663 461.769 384.313 464.419 384.313C468.069 384.313 470.594 386.988 470.594 390.963C470.594 394.938 468.069 397.588 464.419 397.588C461.769 397.588 459.744 396.288 458.944 394.113H458.819V402.338H456.819ZM463.694 395.738C466.694 395.738 468.469 393.963 468.469 390.963C468.469 387.938 466.694 386.163 463.694 386.163C460.569 386.163 458.744 387.938 458.744 390.963C458.744 393.963 460.569 395.738 463.694 395.738Z" fill="#B591FF"/>
<path d="M480.11 397.588C475.685 397.588 472.985 395.038 472.985 390.988C472.985 386.988 475.76 384.313 479.835 384.313C484.16 384.313 486.46 386.788 486.46 391.388H475.11C475.26 394.388 476.935 395.813 480.135 395.813C482.285 395.813 483.785 395.113 484.535 393.663L486.16 394.388C485.21 396.338 483.235 397.588 480.11 397.588ZM475.185 389.788H484.41C484.135 387.363 482.61 386.088 479.86 386.088C477.26 386.088 475.585 387.263 475.185 389.788Z" fill="#B591FF"/>
<path d="M490.438 382.463C490.438 380.788 491.363 379.588 493.563 379.588H496.588V381.263H492.438V384.563H496.163V386.288H492.438V397.338H490.438V386.288H487.863V384.563H490.438V382.463Z" fill="#B591FF"/>
<path d="M502.098 397.588C499.423 397.588 497.498 396.313 497.498 394.088C497.498 391.938 499.098 390.338 502.823 389.888L507.523 389.338V388.938C507.523 387.013 506.323 386.063 503.898 386.063C501.673 386.063 500.423 386.813 499.948 388.388H497.973C498.423 385.863 500.723 384.313 503.973 384.313C507.348 384.313 509.523 385.938 509.523 389.013V395.638H511.898V397.338H510.448C508.598 397.338 507.548 396.538 507.548 394.788V394.088H507.473C506.698 396.363 504.723 397.588 502.098 397.588ZM499.573 393.963C499.573 395.188 500.523 395.938 502.498 395.938C505.448 395.938 507.523 394.388 507.523 391.938V390.863L502.898 391.438C500.473 391.738 499.573 392.713 499.573 393.963Z" fill="#B591FF"/>
<path d="M520.072 397.588C515.922 397.588 513.097 394.938 513.097 390.988C513.097 386.988 515.922 384.313 520.072 384.313C522.922 384.313 525.097 385.588 526.072 387.613L524.147 388.338C523.522 386.963 522.097 386.138 520.072 386.138C517.022 386.138 515.222 387.988 515.222 390.988C515.222 393.938 517.022 395.763 520.072 395.763C522.222 395.763 523.672 394.888 524.272 393.363L526.172 394.088C525.222 396.263 523.022 397.588 520.072 397.588Z" fill="#B591FF"/>
<path d="M535.31 397.588C530.885 397.588 528.185 395.038 528.185 390.988C528.185 386.988 530.96 384.313 535.035 384.313C539.36 384.313 541.66 386.788 541.66 391.388H530.31C530.46 394.388 532.135 395.813 535.335 395.813C537.485 395.813 538.985 395.113 539.735 393.663L541.36 394.388C540.41 396.338 538.435 397.588 535.31 397.588ZM530.385 389.788H539.61C539.335 387.363 537.81 386.088 535.06 386.088C532.46 386.088 530.785 387.263 530.385 389.788Z" fill="#B591FF"/>
<path d="M550.157 397.588C546.807 397.588 544.532 396.413 543.682 394.213L545.532 393.513C546.082 395.113 547.807 395.888 550.257 395.888C552.557 395.888 553.907 395.138 553.907 393.838C553.907 390.438 544.132 393.388 544.132 388.113C544.132 385.738 546.307 384.313 549.782 384.313C552.682 384.313 554.707 385.338 555.582 387.263L553.757 387.963C553.132 386.638 551.707 386.013 549.732 386.013C547.532 386.013 546.257 386.738 546.257 387.988C546.257 391.288 556.007 388.388 556.007 393.663C556.007 396.113 553.757 397.588 550.157 397.588Z" fill="#B591FF"/>
<path d="M568.931 397.413C567.081 397.413 565.881 396.413 565.881 394.513V386.288H563.131V384.563H565.881V381.188L567.881 380.438V384.563H572.056V386.288H567.881V395.613H572.181V397.413H568.931Z" fill="#B591FF"/>
<path d="M574.983 397.338V379.838H576.983V387.763H577.083C577.908 385.313 579.833 384.313 582.058 384.313C585.133 384.313 586.983 386.163 586.983 389.388V397.338H584.983V389.813C584.983 387.413 583.658 386.163 581.383 386.163C578.958 386.163 576.983 387.613 576.983 390.738V397.338H574.983Z" fill="#B591FF"/>
<path d="M590.974 397.338V384.563H592.974V387.563H593.074C593.599 385.413 594.799 384.563 596.824 384.563H598.974V386.413H596.724C593.424 386.413 592.974 388.563 592.974 390.663V397.338H590.974Z" fill="#B591FF"/>
<path d="M606.961 397.588C602.811 397.588 599.986 394.938 599.986 390.988C599.986 386.988 602.811 384.313 606.961 384.313C611.136 384.313 613.961 386.988 613.961 390.988C613.961 394.938 611.136 397.588 606.961 397.588ZM606.961 395.763C610.036 395.763 611.836 393.938 611.836 390.988C611.836 387.988 610.036 386.138 606.961 386.138C603.911 386.138 602.111 387.988 602.111 390.988C602.111 393.938 603.911 395.763 606.961 395.763Z" fill="#B591FF"/>
<path d="M622.044 397.588C618.969 397.588 617.069 395.738 617.069 392.513V384.563H619.069V392.088C619.069 394.488 620.419 395.738 622.719 395.738C625.119 395.738 626.919 394.288 626.919 391.163V384.563H628.919V397.338H626.919V394.138H626.819C625.994 396.588 624.244 397.588 622.044 397.588Z" fill="#B591FF"/>
<path d="M638.914 402.588C635.864 402.588 633.589 401.638 632.464 399.938L633.814 398.838C634.889 400.213 636.514 400.888 638.914 400.888C642.064 400.888 643.914 399.663 643.914 397.563V393.963H643.814C643.014 395.988 641.089 397.213 638.464 397.213C634.714 397.213 632.189 394.638 632.189 390.788C632.189 386.938 634.714 384.363 638.464 384.363C641.064 384.363 643.014 385.563 643.814 387.663H643.914V384.563H645.914V397.538C645.914 400.638 643.039 402.588 638.914 402.588ZM639.089 395.413C642.214 395.413 644.039 393.688 644.039 390.788C644.039 387.863 642.214 386.138 639.089 386.138C636.089 386.138 634.314 387.863 634.314 390.788C634.314 393.688 636.089 395.413 639.089 395.413Z" fill="#B591FF"/>
<path d="M650.056 397.338V379.838H652.056V387.763H652.156C652.981 385.313 654.906 384.313 657.131 384.313C660.206 384.313 662.056 386.163 662.056 389.388V397.338H660.056V389.813C660.056 387.413 658.731 386.163 656.456 386.163C654.031 386.163 652.056 387.613 652.056 390.738V397.338H650.056Z" fill="#B591FF"/>
<path d="M675.902 397.588C673.227 397.588 671.302 396.313 671.302 394.088C671.302 391.938 672.902 390.338 676.627 389.888L681.327 389.338V388.938C681.327 387.013 680.127 386.063 677.702 386.063C675.477 386.063 674.227 386.813 673.752 388.388H671.777C672.227 385.863 674.527 384.313 677.777 384.313C681.152 384.313 683.327 385.938 683.327 389.013V395.638H685.702V397.338H684.252C682.402 397.338 681.352 396.538 681.352 394.788V394.088H681.277C680.502 396.363 678.527 397.588 675.902 397.588ZM673.377 393.963C673.377 395.188 674.327 395.938 676.302 395.938C679.252 395.938 681.327 394.388 681.327 391.938V390.863L676.702 391.438C674.277 391.738 673.377 392.713 673.377 393.963Z" fill="#B591FF"/>
<path d="M264.823 427.588C260.673 427.588 257.848 424.938 257.848 420.988C257.848 416.988 260.673 414.313 264.823 414.313C267.673 414.313 269.848 415.588 270.823 417.613L268.898 418.338C268.273 416.963 266.848 416.138 264.823 416.138C261.773 416.138 259.973 417.988 259.973 420.988C259.973 423.938 261.773 425.763 264.823 425.763C266.973 425.763 268.423 424.888 269.023 423.363L270.923 424.088C269.973 426.263 267.773 427.588 264.823 427.588Z" fill="#B591FF"/>
<path d="M279.886 427.588C275.736 427.588 272.911 424.938 272.911 420.988C272.911 416.988 275.736 414.313 279.886 414.313C284.061 414.313 286.886 416.988 286.886 420.988C286.886 424.938 284.061 427.588 279.886 427.588ZM279.886 425.763C282.961 425.763 284.761 423.938 284.761 420.988C284.761 417.988 282.961 416.138 279.886 416.138C276.836 416.138 275.036 417.988 275.036 420.988C275.036 423.938 276.836 425.763 279.886 425.763Z" fill="#B591FF"/>
<path d="M290.144 427.338V414.563H292.144V417.763H292.244C293.069 415.313 294.994 414.313 297.219 414.313C300.294 414.313 302.144 416.163 302.144 419.388V427.338H300.144V419.813C300.144 417.413 298.819 416.163 296.544 416.163C294.119 416.163 292.144 417.613 292.144 420.738V427.338H290.144Z" fill="#B591FF"/>
<path d="M310.142 427.413C308.292 427.413 307.092 426.413 307.092 424.513V416.288H304.342V414.563H307.092V411.188L309.092 410.438V414.563H313.267V416.288H309.092V425.613H313.392V427.413H310.142Z" fill="#B591FF"/>
<path d="M321.882 427.588C317.457 427.588 314.757 425.038 314.757 420.988C314.757 416.988 317.532 414.313 321.607 414.313C325.932 414.313 328.232 416.788 328.232 421.388H316.882C317.032 424.388 318.707 425.813 321.907 425.813C324.057 425.813 325.557 425.113 326.307 423.663L327.932 424.388C326.982 426.338 325.007 427.588 321.882 427.588ZM316.957 419.788H326.182C325.907 417.363 324.382 416.088 321.632 416.088C319.032 416.088 317.357 417.263 316.957 419.788Z" fill="#B591FF"/>
<path d="M331.404 427.338V414.563H333.404V417.763H333.529C334.379 415.313 336.104 414.313 338.304 414.313C340.904 414.313 342.554 415.638 343.004 417.988H343.104C343.954 415.363 345.779 414.313 348.054 414.313C351.129 414.313 352.904 416.163 352.904 419.388V427.338H350.904V419.813C350.904 417.413 349.704 416.163 347.429 416.163C345.004 416.163 343.154 417.613 343.154 420.738V427.338H341.154V419.813C341.154 417.413 339.954 416.163 337.679 416.163C335.254 416.163 333.404 417.613 333.404 420.738V427.338H331.404Z" fill="#B591FF"/>
<path d="M356.892 432.338V414.563H358.892V417.838H358.992C359.792 415.663 361.842 414.313 364.492 414.313C368.142 414.313 370.667 416.988 370.667 420.963C370.667 424.938 368.142 427.588 364.492 427.588C361.842 427.588 359.817 426.288 359.017 424.113H358.892V432.338H356.892ZM363.767 425.738C366.767 425.738 368.542 423.963 368.542 420.963C368.542 417.938 366.767 416.163 363.767 416.163C360.642 416.163 358.817 417.938 358.817 420.963C358.817 423.963 360.642 425.738 363.767 425.738Z" fill="#B591FF"/>
<path d="M380.008 427.588C375.858 427.588 373.033 424.938 373.033 420.988C373.033 416.988 375.858 414.313 380.008 414.313C384.183 414.313 387.008 416.988 387.008 420.988C387.008 424.938 384.183 427.588 380.008 427.588ZM380.008 425.763C383.083 425.763 384.883 423.938 384.883 420.988C384.883 417.988 383.083 416.138 380.008 416.138C376.958 416.138 375.158 417.988 375.158 420.988C375.158 423.938 376.958 425.763 380.008 425.763Z" fill="#B591FF"/>
<path d="M390.266 427.338V414.563H392.266V417.563H392.366C392.891 415.413 394.091 414.563 396.116 414.563H398.266V416.413H396.016C392.716 416.413 392.266 418.563 392.266 420.663V427.338H390.266Z" fill="#B591FF"/>
<path d="M404.124 427.588C401.449 427.588 399.524 426.313 399.524 424.088C399.524 421.938 401.124 420.338 404.849 419.888L409.549 419.338V418.938C409.549 417.013 408.349 416.063 405.924 416.063C403.699 416.063 402.449 416.813 401.974 418.388H399.999C400.449 415.863 402.749 414.313 405.999 414.313C409.374 414.313 411.549 415.938 411.549 419.013V425.638H413.924V427.338H412.474C410.624 427.338 409.574 426.538 409.574 424.788V424.088H409.499C408.724 426.363 406.749 427.588 404.124 427.588ZM401.599 423.963C401.599 425.188 402.549 425.938 404.524 425.938C407.474 425.938 409.549 424.388 409.549 421.938V420.863L404.924 421.438C402.499 421.738 401.599 422.713 401.599 423.963Z" fill="#B591FF"/>
<path d="M416.267 427.338V414.563H418.267V417.563H418.367C418.892 415.413 420.092 414.563 422.117 414.563H424.267V416.413H422.017C418.717 416.413 418.267 418.563 418.267 420.663V427.338H416.267Z" fill="#B591FF"/>
<path d="M427.662 432.563C426.737 432.563 425.737 432.338 424.812 431.688L425.637 430.113C426.237 430.563 426.912 430.838 427.712 430.838C428.937 430.838 429.662 430.338 430.162 429.288L431.112 427.238L425.162 414.563H427.337L432.187 424.913L436.537 414.563H438.612L431.962 429.738C431.062 431.713 429.887 432.563 427.662 432.563Z" fill="#B591FF"/>
<path d="M449.562 427.338C447.462 427.338 446.587 426.188 446.587 424.588V409.838H448.587V425.638H452.587V427.338H449.562Z" fill="#B591FF"/>
<path d="M460.554 427.588C456.129 427.588 453.429 425.038 453.429 420.988C453.429 416.988 456.204 414.313 460.279 414.313C464.604 414.313 466.904 416.788 466.904 421.388H455.554C455.704 424.388 457.379 425.813 460.579 425.813C462.729 425.813 464.229 425.113 464.979 423.663L466.604 424.388C465.654 426.338 463.679 427.588 460.554 427.588ZM455.629 419.788H464.854C464.579 417.363 463.054 416.088 460.304 416.088C457.704 416.088 456.029 417.263 455.629 419.788Z" fill="#B591FF"/>
<path d="M470.076 427.338V414.563H472.076V417.763H472.176C473.001 415.313 474.926 414.313 477.151 414.313C480.226 414.313 482.076 416.163 482.076 419.388V427.338H480.076V419.813C480.076 417.413 478.751 416.163 476.476 416.163C474.051 416.163 472.076 417.613 472.076 420.738V427.338H470.076Z" fill="#B591FF"/>
<path d="M491.392 427.588C488.042 427.588 485.767 426.413 484.917 424.213L486.767 423.513C487.317 425.113 489.042 425.888 491.492 425.888C493.792 425.888 495.142 425.138 495.142 423.838C495.142 420.438 485.367 423.388 485.367 418.113C485.367 415.738 487.542 414.313 491.017 414.313C493.917 414.313 495.942 415.338 496.817 417.263L494.992 417.963C494.367 416.638 492.942 416.013 490.967 416.013C488.767 416.013 487.492 416.738 487.492 417.988C487.492 421.288 497.242 418.388 497.242 423.663C497.242 426.113 494.992 427.588 491.392 427.588Z" fill="#B591FF"/>
<path d="M499.874 427.338V424.813H502.424V427.338H499.874Z" fill="#B591FF"/>
</g>
<defs>
<clipPath id="clip0_3466_848">
<rect width="760" height="506" fill="white"/>
</clipPath>
</defs>
</svg>
