<svg width="760" height="506" viewBox="0 0 760 506" fill="none" xmlns="http://www.w3.org/2000/svg">
<rect width="760" height="506" fill="#B9B9B9"/>
<g clip-path="url(#clip0_3466_848)">
<rect width="760" height="506" fill="black"/>
<path d="M-210.355 61.9999V-0.311017H-185.519C-173.235 -0.311017 -165.491 4.76287 -165.491 14.8216C-165.491 20.6966 -168.784 25.7705 -174.392 28.619V28.8861H-173.68C-168.339 28.8861 -165.402 31.7346 -165.402 37.1645V61.9999H-172.523V34.5831H-203.233V61.9999H-210.355ZM-203.233 27.9069H-185.964C-177.241 27.9069 -172.612 24.2573 -172.612 16.869C-172.612 9.65873 -177.241 6.36515 -185.964 6.36515H-203.233V27.9069Z" fill="white"/>
<path d="M-132.839 62.89C-146.459 62.89 -154.292 53.8104 -154.292 39.3899C-154.292 25.2364 -146.103 15.7118 -133.997 15.7118C-121 15.7118 -114.413 24.3463 -114.413 40.9032H-147.171C-146.815 51.585 -142.275 56.837 -132.75 56.837C-127.499 56.837 -123.137 54.6116 -120.733 49.8047L-115.392 52.3862C-118.33 58.8843 -124.472 62.89 -132.839 62.89ZM-146.904 35.2062H-121.267C-121.891 26.3936 -126.074 21.7648 -133.908 21.7648C-141.296 21.7648 -145.925 26.2156 -146.904 35.2062Z" fill="white"/>
<path d="M-85.2168 80.6931C-94.7415 80.6931 -101.952 76.7764 -104.355 69.7442L-98.3021 67.2518C-96.1658 72.3257 -91.715 74.8181 -85.2168 74.8181C-76.9384 74.8181 -71.8645 70.4563 -71.8645 64.0472V52.8313H-72.3986C-75.1581 58.3502 -80.143 61.6438 -87.4422 61.6438C-98.4802 61.6438 -106.046 52.4752 -106.046 38.7668C-106.046 25.1474 -98.4802 15.8898 -87.4422 15.8898C-80.143 15.8898 -74.9801 19.2724 -72.3096 25.0584H-71.8645V16.6019H-65.1883V63.9582C-65.1883 74.195 -72.8437 80.6931 -85.2168 80.6931ZM-85.5729 55.5907C-76.7604 55.5907 -71.6865 49.2706 -71.6865 38.7668C-71.6865 28.174 -76.7604 21.9429 -85.5729 21.9429C-93.9404 21.9429 -98.9252 28.174 -98.9252 38.7668C-98.9252 49.2706 -93.9404 55.5907 -85.5729 55.5907Z" fill="white"/>
<path d="M-35.7444 62.89C-44.7349 62.89 -50.699 57.104 -50.699 46.1551V16.6019H-44.0228V44.7308C-44.0228 53.0093 -39.8391 56.6589 -33.2519 56.6589C-26.2197 56.6589 -21.6799 52.4752 -21.6799 41.5263V16.6019H-15.0038V61.9999H-21.6799V53.3653H-22.125C-24.9735 60.3976 -29.9584 62.89 -35.7444 62.89Z" fill="white"/>
<path d="M9.96094 61.9999C2.75068 61.9999 -0.275848 58.0832 -0.275848 52.5642V-0.311017H6.40033V56.2138H18.4174V61.9999H9.96094Z" fill="white"/>
<path d="M38.4264 62.89C30.6821 62.89 23.7389 58.8843 23.7389 50.8729C23.7389 42.9505 29.9699 37.0755 41.542 35.3842L53.6481 33.6039V30.8444C53.6481 24.5243 50.4435 21.6758 43.4113 21.6758C36.8242 21.6758 33.6196 23.9012 31.9283 29.5982H25.3412C26.6764 20.7857 33.9757 15.7118 43.8564 15.7118C54.1822 15.7118 60.4133 20.7857 60.4133 31.1115V56.2138H67.9796V61.9999H63.7068C58.0099 61.9999 53.9151 59.4184 53.9151 53.8994V53.5434H53.5591C50.7996 59.4184 45.4586 62.89 38.4264 62.89ZM30.8601 50.1608C30.8601 54.2555 33.3525 57.104 39.1385 57.104C47.328 57.104 53.6481 51.6741 53.6481 44.5528V38.7668L41.542 40.7251C34.6878 41.7933 30.8601 45.2649 30.8601 50.1608Z" fill="white"/>
<path d="M76.8408 61.9999V16.6019H83.517V23.5451H83.962C85.9204 18.5603 89.7481 16.6019 94.5549 16.6019H100.964V22.833H93.9318C84.9412 22.833 83.517 28.619 83.517 36.0963V61.9999H76.8408Z" fill="white"/>
<path d="M149.902 62.89C135.66 62.89 125.868 56.7479 125.868 45.888C125.868 36.6304 132.633 32.4467 140.378 29.3312C134.948 24.2573 132.099 19.9845 132.099 14.5546C132.099 5.11893 139.577 -1.20117 151.06 -1.20117C162.365 -1.20117 168.685 4.58484 168.685 13.6644C168.685 23.6342 160.495 27.4618 151.95 30.6664L171.266 46.1551C173.759 41.8823 175.183 36.4524 175.628 29.6872L182.66 30.3993C182.304 38.6778 180.257 45.3539 176.696 50.5168L183.461 55.9468H193.253V61.9999H185.687C181.77 61.9999 179.099 60.9317 176.696 58.9733L172.423 55.5017C166.815 60.3976 159.249 62.89 149.902 62.89ZM133.257 45.621C133.257 52.4752 139.755 56.6589 150.169 56.6589C157.38 56.6589 162.899 54.8786 167.082 51.229L145.452 33.6929L144.918 33.2478C138.508 35.8293 133.257 39.0338 133.257 45.621ZM139.399 14.6436C139.399 19.0944 142.069 22.477 147.232 26.8387C155.065 23.9902 162.009 21.0527 162.009 14.0205C162.009 8.4125 158.003 4.76287 151.06 4.76287C143.226 4.76287 139.399 8.9466 139.399 14.6436Z" fill="white"/>
<path d="M234.391 61.9999L212.582 -0.311017H220.059L237.862 50.4278H238.218L257.802 -0.311017H266.792L286.376 50.5168H286.732L304.535 -0.311017H311.389L289.58 61.9999H283.527L262.163 7.7894H261.896L240.622 61.9999H234.391Z" fill="white"/>
<path d="M320.76 61.9999V16.5129H327.881V61.9999H320.76ZM320.404 8.9466V-0.311017H328.504V8.9466H320.404Z" fill="white"/>
<path d="M388.598 61.9999H381.477V50.5168H381.032C378.183 58.2612 370.973 62.89 361.537 62.89C348.541 62.89 339.551 53.4544 339.551 39.3009C339.551 25.1474 348.541 15.6228 361.537 15.6228C370.973 15.6228 378.272 20.4296 381.121 28.174H381.477V-0.311017H388.598V61.9999ZM364.119 56.3029C375.246 56.3029 381.744 49.9828 381.744 39.3009C381.744 28.53 375.246 22.2099 364.119 22.2099C353.437 22.2099 347.117 28.53 347.117 39.3009C347.117 49.9828 353.437 56.3029 364.119 56.3029Z" fill="white"/>
<path d="M425.597 62.89C409.841 62.89 400.227 53.8104 400.227 39.3899C400.227 25.1474 410.108 15.6228 424.617 15.6228C440.017 15.6228 448.207 24.4353 448.207 40.8142H407.794C408.328 51.496 414.292 56.5699 425.686 56.5699C433.341 56.5699 438.682 54.0775 441.352 48.9146L447.138 51.496C443.756 58.4392 436.724 62.89 425.597 62.89ZM408.061 35.1172H440.907C439.928 26.4827 434.498 21.9429 424.706 21.9429C415.449 21.9429 409.485 26.1266 408.061 35.1172Z" fill="white"/>
<path d="M504.299 62.89C488.721 62.89 477.149 56.837 477.149 45.71C477.149 35.8293 485.072 31.8236 493.884 29.0641C487.742 24.2573 484.092 20.2516 484.092 14.5546C484.092 5.11893 492.46 -1.20117 504.833 -1.20117C517.651 -1.20117 524.773 4.9409 524.773 14.1985C524.773 24.3463 516.138 27.9959 506.791 30.8444L528.333 46.3331C531.627 41.7933 533.407 35.9183 533.674 28.9751L540.884 29.5982C540.528 38.4107 538.214 45.2649 534.208 50.5168L541.507 55.7688H552.901V61.9999H545.424C540.528 61.9999 537.324 61.0207 534.653 59.0623L529.579 55.3237C523.259 60.3976 514.714 62.89 504.299 62.89ZM484.894 45.354C484.894 52.4752 492.727 56.6589 504.21 56.6589C512.488 56.6589 518.898 54.7006 523.704 51.0509L499.225 33.0698C491.392 35.4732 484.894 38.3217 484.894 45.354ZM491.748 14.7326C491.748 18.8273 494.685 21.9429 501.361 26.9277C510.085 24.4353 517.562 21.8538 517.562 14.5546C517.562 8.50152 513.111 4.76287 505.011 4.76287C495.664 4.76287 491.748 9.30266 491.748 14.7326Z" fill="white"/>
<path d="M581.132 61.9999V-0.311017H639.971V6.98826H589.143V25.9486H622.524V33.1588H589.143V54.7006H640.861V61.9999H581.132Z" fill="white"/>
<path d="M644.326 61.9999L665.601 38.7668L644.682 16.5129H654.385L670.674 34.227L686.964 16.5129H696.222L675.392 38.7668L696.489 61.9999H686.608L669.962 43.6627L653.406 61.9999H644.326Z" fill="white"/>
<path d="M721.822 61.9999C714.967 61.9999 710.25 58.4392 710.25 51.6741V22.744H698.856V16.5129H710.25V4.05075L717.816 1.38028V16.5129H736.242V22.744H717.816V55.4127H736.242V61.9999H721.822Z" fill="white"/>
<path d="M769.405 62.89C751.423 62.89 740.119 53.8104 740.119 39.3899C740.119 25.1474 751.691 15.6228 768.604 15.6228C786.407 15.6228 796.198 24.5243 796.198 40.8142H748.219C748.842 51.229 756.141 56.3029 769.494 56.3029C779.463 56.3029 785.872 53.6324 788.81 48.0244L795.041 50.6949C791.213 57.9942 783.202 62.89 769.405 62.89ZM748.486 35.1172H788.365C787.03 26.6607 780.354 22.2099 768.693 22.2099C757.566 22.2099 750.266 26.3046 748.486 35.1172Z" fill="white"/>
<path d="M807.212 61.9999V16.5129H814.778V30.5774H815.045C818.072 20.2516 825.727 15.6228 835.697 15.6228C848.604 15.6228 856.437 23.0111 856.437 35.0281V61.9999H848.871V36.6304C848.871 27.8179 843.085 22.566 833.382 22.566C823.235 22.566 814.778 28.708 814.778 39.924V61.9999H807.212Z" fill="white"/>
<path d="M924.444 61.9999H916.878V48.1134H916.611C913.584 57.015 904.237 62.89 892.576 62.89C877.711 62.89 867.296 53.4544 867.296 39.3009C867.296 25.0584 877.711 15.6228 892.576 15.6228C904.237 15.6228 913.495 21.4978 916.611 30.3993H916.878V-0.311017H924.444V61.9999ZM895.87 56.0358C909.311 56.0358 917.234 49.8047 917.234 39.3009C917.234 28.708 909.311 22.477 895.87 22.477C882.874 22.477 875.307 28.708 875.307 39.3009C875.307 49.8047 882.874 56.0358 895.87 56.0358Z" fill="white"/>
<path d="M965.082 62.89C947.101 62.89 935.796 53.8104 935.796 39.3899C935.796 25.1474 947.368 15.6228 964.281 15.6228C982.084 15.6228 991.876 24.5243 991.876 40.8142H943.897C944.52 51.229 951.819 56.3029 965.171 56.3029C975.141 56.3029 981.55 53.6324 984.488 48.0244L990.719 50.6949C986.891 57.9942 978.88 62.89 965.082 62.89ZM944.164 35.1172H984.043C982.707 26.6607 976.031 22.2099 964.37 22.2099C953.243 22.2099 945.944 26.3046 944.164 35.1172Z" fill="white"/>
<path d="M1057.01 61.9999H1049.44V48.1134H1049.18C1046.15 57.015 1036.8 62.89 1025.14 62.89C1010.28 62.89 999.863 53.4544 999.863 39.3009C999.863 25.0584 1010.28 15.6228 1025.14 15.6228C1036.8 15.6228 1046.06 21.4978 1049.18 30.3993H1049.44V-0.311017H1057.01V61.9999ZM1028.44 56.0358C1041.88 56.0358 1049.8 49.8047 1049.8 39.3009C1049.8 28.708 1041.88 22.477 1028.44 22.477C1015.44 22.477 1007.87 28.708 1007.87 39.3009C1007.87 49.8047 1015.44 56.0358 1028.44 56.0358Z" fill="white"/>
<path d="M-171.839 151.801L-193.559 99.0148H-193.915V151H-202.728V88.689H-188.396L-171.305 130.259L-154.214 88.689H-140.061V151H-149.674V99.0148H-150.031L-171.839 151.801Z" fill="white"/>
<path d="M-107.367 151.89C-121.254 151.89 -129.532 142.721 -129.532 128.301C-129.532 114.058 -120.986 104.534 -108.346 104.534C-94.2818 104.534 -87.3386 113.791 -87.6946 130.437H-119.918C-119.384 140.14 -115.467 144.68 -107.011 144.68C-102.293 144.68 -98.3765 142.543 -96.2401 138.004L-88.6738 140.674C-91.6113 147.795 -98.2875 151.89 -107.367 151.89ZM-119.74 123.939H-96.7742C-97.3083 116.106 -101.047 111.744 -108.079 111.744C-114.844 111.744 -118.761 115.839 -119.74 123.939Z" fill="white"/>
<path d="M-37.5984 151H-46.767V142.098H-47.3011C-50.0605 148.596 -54.9564 151.89 -61.9886 151.89C-73.0265 151.89 -80.5038 142.543 -80.5038 128.212C-80.5038 113.88 -73.0265 104.534 -61.9886 104.534C-54.9564 104.534 -49.8825 107.827 -47.2121 114.503H-46.767V88.689H-37.5984V151ZM-58.9621 144.413C-51.0397 144.413 -46.5889 138.449 -46.5889 128.212C-46.5889 117.886 -51.0397 112.011 -58.9621 112.011C-66.6174 112.011 -70.9792 117.886 -70.9792 128.212C-70.9792 138.449 -66.6174 144.413 -58.9621 144.413Z" fill="white"/>
<path d="M-24.4547 151V105.424H-15.2861V151H-24.4547ZM-24.7217 98.3027V88.689H-14.93V98.3027H-24.7217Z" fill="white"/>
<path d="M12.3936 151.89C3.04695 151.89 -2.561 145.659 -2.561 134.977V105.424H6.60757V133.464C6.60757 140.763 10.2572 144.057 16.1322 144.057C22.3633 144.057 26.28 140.407 26.28 130.882V105.424H35.4486V151H26.28V142.543H25.8349C23.0754 149.309 18.2686 151.89 12.3936 151.89Z" fill="white"/>
<path d="M48.7397 151V105.424H57.9083V113.88H58.4424C61.2909 107.204 66.7209 104.534 72.5959 104.534C79.6281 104.534 84.346 108.005 86.3043 114.503H86.7494C89.7759 107.293 95.74 104.534 101.882 104.534C111.229 104.534 116.748 110.765 116.748 121.358V151H107.579V122.96C107.579 115.661 104.285 112.367 98.4104 112.367C92.1793 112.367 87.3725 116.017 87.3725 125.452V151H78.2039V122.96C78.2039 115.661 74.9103 112.367 69.0353 112.367C62.8042 112.367 57.9083 116.017 57.9083 125.452V151H48.7397Z" fill="white"/>
<path d="M167.122 151.89C153.77 151.89 145.758 145.57 145.758 134.977C145.758 126.432 151.633 121.981 158.22 118.598C153.414 113.168 151.633 108.896 151.633 103.822C151.633 94.297 158.31 87.7988 169.258 87.7988C179.317 87.7988 185.281 93.4068 185.281 102.397C185.281 111.744 178.071 115.928 170.861 119.399L185.637 133.286C187.329 129.547 188.397 124.829 188.931 119.043L197.565 120.111C197.12 127.678 195.073 134.176 191.868 139.161L197.031 143.968H205.755V151H196.497C193.204 151 190.978 149.932 188.397 147.439L186.349 145.481C181.276 149.665 174.777 151.89 167.122 151.89ZM154.838 134.443C154.838 140.674 159.556 144.413 168.19 144.413C173.353 144.413 177.448 143.077 180.741 140.229L162.849 123.316C158.22 125.986 154.838 129.102 154.838 134.443ZM160.446 103.644C160.446 107.827 162.671 111.299 166.143 114.86C172.285 111.922 177.448 108.806 177.448 102.753C177.448 98.1246 174.421 95.0091 169.258 95.0091C163.739 95.0091 160.446 98.3917 160.446 103.644Z" fill="white"/>
<path d="M241.853 151L224.05 88.689H233.842L246.927 135.778H247.194L261.704 88.689H273.098L287.607 135.778H287.963L300.96 88.689H309.861L292.058 151H283.157L267.045 98.9258H266.778L250.666 151H241.853Z" fill="white"/>
<path d="M318.22 151V105.424H327.389V151H318.22ZM317.953 98.3027V88.689H327.745V98.3027H317.953Z" fill="white"/>
<path d="M380.705 151H371.536V142.098H371.002C368.243 148.596 363.347 151.89 356.315 151.89C345.277 151.89 337.8 142.543 337.8 128.212C337.8 113.88 345.277 104.534 356.315 104.534C363.347 104.534 368.421 107.827 371.091 114.503H371.536V88.689H380.705V151ZM359.341 144.413C367.264 144.413 371.714 138.449 371.714 128.212C371.714 117.886 367.264 112.011 359.341 112.011C351.686 112.011 347.324 117.886 347.324 128.212C347.324 138.449 351.686 144.413 359.341 144.413Z" fill="white"/>
<path d="M413.165 151.89C399.279 151.89 391 142.721 391 128.301C391 114.058 399.546 104.534 412.186 104.534C426.25 104.534 433.194 113.791 432.838 130.437H400.614C401.148 140.14 405.065 144.68 413.521 144.68C418.239 144.68 422.156 142.543 424.292 138.004L431.858 140.674C428.921 147.795 422.245 151.89 413.165 151.89ZM400.792 123.939H423.758C423.224 116.106 419.485 111.744 412.453 111.744C405.688 111.744 401.771 115.839 400.792 123.939Z" fill="white"/>
<path d="M487.888 151.89C470.975 151.89 459.314 145.926 459.314 134.621C459.314 124.74 467.147 120.735 475.782 118.064C470.263 113.613 466.702 109.519 466.702 104.089C466.702 94.386 475.515 87.7988 488.867 87.7988C502.309 87.7988 510.142 93.9409 510.142 103.644C510.142 113.88 501.418 117.53 492.161 120.111L512.189 133.998C515.483 129.725 517.352 124.117 517.708 117.441L527.144 118.242C526.61 127.055 523.939 133.998 519.667 139.25L525.364 143.166H537.559V151H529.191C523.85 151 520.112 149.932 516.551 147.439L513.347 145.125C506.67 149.665 497.947 151.89 487.888 151.89ZM469.818 133.82C469.818 140.318 476.761 144.146 487.799 144.146C495.187 144.146 501.151 142.632 505.869 139.784L482.28 122.871C475.426 124.918 469.818 127.589 469.818 133.82ZM476.583 104.267C476.583 107.916 479.165 110.765 485.485 115.394C493.674 113.168 500.706 110.676 500.706 104C500.706 98.5697 496.523 95.1871 488.956 95.1871C480.411 95.1871 476.583 99.2818 476.583 104.267Z" fill="white"/>
<path d="M563.897 151V88.689H624.427V97.7686H574.846V114.414H607.782V123.138H574.846V141.92H625.318V151H563.897Z" fill="white"/>
<path d="M628.058 151L648.709 127.945L628.592 105.246H641.588L656.365 122.248L671.23 105.246H683.514L663.397 127.678L683.692 151H670.429L655.207 133.553L639.897 151H628.058Z" fill="white"/>
<path d="M710.558 151C702.369 151 697.028 146.994 697.028 138.894V112.901H685.723V105.246H697.028V92.9617L707.532 89.9352V105.246H725.513V112.901H707.532V142.899H725.513V151H710.558Z" fill="white"/>
<path d="M758.716 151.89C740.29 151.89 728.629 142.721 728.629 128.301C728.629 113.969 740.557 104.356 758.093 104.356C776.698 104.356 786.756 113.791 786.489 130.081H739.756C740.557 139.606 747.055 143.879 758.894 143.879C767.885 143.879 773.493 141.386 776.074 136.401L785.243 139.072C781.326 147.083 772.692 151.89 758.716 151.89ZM740.112 123.761H775.629C774.472 116.195 768.508 112.189 758.182 112.189C748.213 112.189 741.803 115.928 740.112 123.761Z" fill="white"/>
<path d="M796.064 151V105.246H806.568V119.933H806.835C809.594 109.341 817.072 104.445 827.308 104.445C840.127 104.445 847.782 111.833 847.782 124.028V151H837.278V126.343C837.278 117.975 832.115 113.168 823.214 113.168C813.956 113.168 806.568 118.776 806.568 128.835V151H796.064Z" fill="white"/>
<path d="M915.861 151H905.357V137.024H905.09C901.974 146.193 893.162 151.89 881.768 151.89C867.347 151.89 857.111 142.632 857.111 128.212C857.111 113.702 867.347 104.356 881.768 104.356C893.162 104.356 901.885 110.053 905.09 119.31H905.357V88.689H915.861V151ZM886.664 143.523C898.592 143.523 905.802 137.826 905.802 128.212C905.802 118.42 898.592 112.723 886.664 112.723C875.003 112.723 868.149 118.509 868.149 128.212C868.149 137.826 875.003 143.523 886.664 143.523Z" fill="white"/>
<path d="M955.872 151.89C937.446 151.89 925.785 142.721 925.785 128.301C925.785 113.969 937.713 104.356 955.249 104.356C973.853 104.356 983.912 113.791 983.645 130.081H936.912C937.713 139.606 944.211 143.879 956.05 143.879C965.04 143.879 970.649 141.386 973.23 136.401L982.399 139.072C978.482 147.083 969.847 151.89 955.872 151.89ZM937.268 123.761H972.785C971.628 116.195 965.664 112.189 955.338 112.189C945.368 112.189 938.959 115.928 937.268 123.761Z" fill="white"/>
<path d="M1049.21 151H1038.71V137.024H1038.44C1035.32 146.193 1026.51 151.89 1015.12 151.89C1000.7 151.89 990.46 142.632 990.46 128.212C990.46 113.702 1000.7 104.356 1015.12 104.356C1026.51 104.356 1035.23 110.053 1038.44 119.31H1038.71V88.689H1049.21V151ZM1020.01 143.523C1031.94 143.523 1039.15 137.826 1039.15 128.212C1039.15 118.42 1031.94 112.723 1020.01 112.723C1008.35 112.723 1001.5 118.509 1001.5 128.212C1001.5 137.826 1008.35 143.523 1020.01 143.523Z" fill="white"/>
<path d="M-239.468 240.89C-253.621 240.89 -263.057 235.015 -266.083 225.134L-254.779 221.93C-252.909 228.072 -247.479 231.543 -239.023 231.543C-230.744 231.543 -225.759 228.606 -225.759 223.176C-225.759 208.043 -264.748 220.773 -264.748 196.115C-264.748 184.187 -254.957 176.799 -239.824 176.799C-227.184 176.799 -218.905 181.784 -215.79 190.952L-226.828 193.979C-228.519 188.905 -233.148 186.145 -239.913 186.145C-247.657 186.145 -252.82 188.905 -252.82 194.424C-252.82 208.577 -213.653 196.471 -213.653 221.396C-213.653 233.947 -223.356 240.89 -239.468 240.89Z" fill="white"/>
<path d="M-184.949 240.89C-199.103 240.89 -207.826 231.632 -207.826 217.212C-207.826 202.88 -198.925 193.356 -185.75 193.356C-170.618 193.356 -163.408 203.414 -164.031 219.971H-195.809C-195.186 228.606 -191.714 232.434 -184.326 232.434C-180.142 232.434 -176.671 230.475 -174.802 226.202L-164.921 229.051C-167.947 236.706 -175.069 240.89 -184.949 240.89ZM-195.631 212.672H-175.425C-175.781 205.729 -179.074 201.634 -185.305 201.634C-191.358 201.634 -194.741 205.729 -195.631 212.672Z" fill="white"/>
<path d="M-155.434 240V194.246H-143.773V202.435H-143.328C-140.569 196.115 -135.228 193.356 -129.264 193.356C-122.054 193.356 -117.514 197.005 -115.644 203.147H-115.288C-112.44 196.382 -106.565 193.356 -100.245 193.356C-90.5421 193.356 -85.3792 200.032 -85.3792 210.358V240H-96.9512V211.96C-96.9512 205.64 -99.8887 202.791 -104.963 202.791C-110.393 202.791 -114.576 205.907 -114.576 213.918V240H-126.237V211.96C-126.237 205.64 -129.086 202.791 -134.249 202.791C-139.679 202.791 -143.773 205.907 -143.773 213.918V240H-155.434Z" fill="white"/>
<path d="M-74.4164 240V194.246H-62.7553V240H-74.4164ZM-74.7724 187.748V177.689H-62.3993V187.748H-74.7724Z" fill="white"/>
<path d="M-51.3801 240V177.689H-39.7191V203.058H-39.274C-36.5145 196.293 -31.6187 193.356 -24.9425 193.356C-13.9046 193.356 -6.5163 202.613 -6.5163 217.123C-6.5163 231.721 -13.9046 240.89 -24.9425 240.89C-31.7077 240.89 -36.5145 237.774 -39.274 231.365H-39.8081V240H-51.3801ZM-29.0372 232.077C-22.2721 232.077 -18.4444 226.737 -18.4444 217.123C-18.4444 207.42 -22.2721 202.079 -29.0372 202.079C-36.1585 202.079 -39.9861 207.42 -39.9861 217.123C-39.9861 226.737 -36.1585 232.077 -29.0372 232.077Z" fill="white"/>
<path d="M22.3706 240.89C9.19634 240.89 -0.328339 231.632 -0.328339 217.212C-0.328339 202.702 9.19634 193.356 22.3706 193.356C35.634 193.356 45.1586 202.702 45.1586 217.212C45.1586 231.632 35.634 240.89 22.3706 240.89ZM22.3706 232.166C29.3138 232.166 33.2305 226.826 33.2305 217.212C33.2305 207.42 29.3138 202.079 22.3706 202.079C15.5164 202.079 11.5998 207.42 11.5998 217.212C11.5998 226.826 15.5164 232.166 22.3706 232.166Z" fill="white"/>
<path d="M64.9291 240C56.6506 240 53.5351 236.261 53.5351 228.784V177.689H65.1961V231.721H75.7V240H64.9291Z" fill="white"/>
<path d="M123.645 240H112.073V231.365H111.539C108.78 237.774 103.973 240.89 97.2076 240.89C86.1697 240.89 78.7814 231.721 78.7814 217.123C78.7814 202.613 86.1697 193.356 97.2076 193.356C103.884 193.356 108.78 196.293 111.539 203.058H111.984V177.689H123.645V240ZM101.302 232.077C108.424 232.077 112.251 226.737 112.251 217.123C112.251 207.42 108.424 202.079 101.302 202.079C94.5372 202.079 90.7095 207.42 90.7095 217.123C90.7095 226.737 94.5372 232.077 101.302 232.077Z" fill="white"/>
<path d="M177.604 240.89C161.492 240.89 151.7 234.837 151.7 223.71C151.7 214.541 158.288 210.358 166.032 207.331C161.136 202.613 158.644 198.43 158.644 193.445C158.644 183.564 166.744 176.799 179.562 176.799C191.668 176.799 199.146 182.674 199.146 192.377C199.146 201.99 191.401 205.907 183.212 208.844L199.146 221.485C201.638 217.479 203.062 212.494 203.418 206.797L214.545 207.954C213.922 216.055 211.43 222.731 207.335 227.983L211.43 231.187H222.557V240H212.409C207.691 240 204.309 238.754 200.748 235.816L199.68 234.926C193.627 238.843 185.971 240.89 177.604 240.89ZM163.807 222.642C163.807 228.428 169.058 231.899 178.316 231.899C183.657 231.899 188.197 230.742 191.846 228.606L172.352 212.761C167.456 214.897 163.807 217.657 163.807 222.642ZM170.038 193.267C170.038 196.738 172.085 199.676 176.714 203.592C183.39 201.189 188.642 198.43 188.642 192.733C188.642 188.282 185.348 185.433 179.651 185.433C173.331 185.433 170.038 188.727 170.038 193.267Z" fill="white"/>
<path d="M261.107 240L238.853 177.689H252.294L267.783 221.307H268.139L284.518 177.689H299.472L315.851 221.396H316.207L331.696 177.689H343.713L321.459 240H309.887L291.372 191.308H291.105L272.768 240H261.107Z" fill="white"/>
<path d="M350.229 240V194.068H362.78V240H350.229ZM349.784 187.748V177.689H363.314V187.748H349.784Z" fill="white"/>
<path d="M423.991 240H411.44V228.695H411.084C408.058 236.706 401.559 240.89 392.569 240.89C380.107 240.89 371.383 231.721 371.383 217.123C371.383 202.524 380.107 193.178 392.569 193.178C401.47 193.178 408.058 197.45 411.084 205.64H411.44V177.689H423.991V240ZM397.91 231.543C406.633 231.543 411.796 226.291 411.796 217.123C411.796 207.776 406.633 202.524 397.91 202.524C389.275 202.524 384.379 207.865 384.379 217.123C384.379 226.291 389.275 231.543 397.91 231.543Z" fill="white"/>
<path d="M459.462 240.89C442.905 240.89 432.579 231.632 432.579 217.123C432.579 202.791 443.172 193.178 458.839 193.178C476.108 193.178 484.92 203.147 484.297 219.615H445.664C446.466 228.25 451.005 231.988 459.907 231.988C466.049 231.988 470.144 229.763 472.191 225.401L483.229 228.161C479.668 236.439 471.479 240.89 459.462 240.89ZM445.932 212.494H471.657C470.945 205.818 466.672 201.901 459.106 201.901C451.629 201.901 447.178 205.551 445.932 212.494Z" fill="white"/>
<path d="M538.891 240.89C520.643 240.89 508.893 235.104 508.893 223.532C508.893 213.74 516.37 209.646 525.182 206.975C519.931 202.791 516.726 198.786 516.726 193.712C516.726 183.653 526.073 176.799 540.315 176.799C554.291 176.799 562.925 183.03 562.925 193.089C562.925 203.325 554.291 206.975 545.033 209.379L563.459 221.752C566.842 217.568 568.8 212.138 569.156 205.907L580.728 206.886C580.016 215.699 577.078 222.642 572.539 227.894L576.633 230.653H589.719V240H580.372C574.586 240 570.313 238.754 565.863 235.727L564.438 234.748C557.584 238.843 548.683 240.89 538.891 240.89ZM522.067 222.286C522.067 228.161 528.209 231.721 538.891 231.721C545.3 231.721 550.819 230.475 555.27 228.25L532.749 212.494C526.607 214.363 522.067 216.856 522.067 222.286ZM528.832 193.712C528.832 197.005 530.968 199.676 537.022 203.949C544.944 201.901 551.353 199.498 551.353 193.445C551.353 188.727 547.347 185.7 540.404 185.7C532.482 185.7 528.832 189.261 528.832 193.712Z" fill="white"/>
<path d="M614.162 240V177.689H676.295V188.549H628.138V202.88H660.54V213.117H628.138V229.14H677.185V240H614.162Z" fill="white"/>
<path d="M679.292 240L699.41 217.123L679.915 193.979H696.205L709.468 210.358L722.91 193.979H738.22L718.726 216.5L738.398 240H721.752L708.044 223.621L693.891 240H679.292Z" fill="white"/>
<path d="M766.535 240C756.921 240 751.135 235.549 751.135 226.113V203.058H739.83V193.979H751.135V181.873L764.577 178.49V193.979H782.024V203.058H764.577V230.386H782.024V240H766.535Z" fill="white"/>
<path d="M815.357 240.89C796.397 240.89 784.38 231.632 784.38 217.123C784.38 202.791 796.664 193.089 814.823 193.089C834.228 193.089 844.554 202.969 843.931 219.348H798.533C799.423 227.805 805.031 231.454 815.535 231.454C823.546 231.454 828.264 229.229 830.579 224.689L842.685 227.36C838.679 236.083 829.511 240.89 815.357 240.89ZM798.978 212.316H830.045C828.976 205.64 823.724 202.168 814.912 202.168C806.099 202.168 800.58 205.462 798.978 212.316Z" fill="white"/>
<path d="M852.067 240V193.979H865.508V209.379H865.864C868.268 198.697 875.656 193.178 886.16 193.178C898.8 193.178 906.455 200.655 906.455 213.117V240H893.014V216.055C893.014 208.221 888.296 203.771 880.285 203.771C871.917 203.771 865.508 208.844 865.508 217.835V240H852.067Z" fill="white"/>
<path d="M974.607 240H961.165V225.935H960.809C957.605 235.46 949.415 240.89 938.11 240.89C924.224 240.89 914.165 231.81 914.165 217.123C914.165 202.346 924.224 193.089 938.11 193.089C949.326 193.089 957.516 198.608 960.809 208.221H961.076V177.689H974.607V240ZM944.697 231.098C955.201 231.098 961.521 225.846 961.521 217.123C961.521 208.221 955.201 202.969 944.697 202.969C934.371 202.969 928.229 208.31 928.229 217.123C928.229 225.846 934.371 231.098 944.697 231.098Z" fill="white"/>
<path d="M1013.9 240.89C994.943 240.89 982.926 231.632 982.926 217.123C982.926 202.791 995.21 193.089 1013.37 193.089C1032.77 193.089 1043.1 202.969 1042.48 219.348H997.079C997.97 227.805 1003.58 231.454 1014.08 231.454C1022.09 231.454 1026.81 229.229 1029.12 224.689L1041.23 227.36C1037.23 236.083 1028.06 240.89 1013.9 240.89ZM997.525 212.316H1028.59C1027.52 205.64 1022.27 202.168 1013.46 202.168C1004.65 202.168 999.127 205.462 997.525 212.316Z" fill="white"/>
<path d="M1108.65 240H1095.21V225.935H1094.85C1091.65 235.46 1083.46 240.89 1072.16 240.89C1058.27 240.89 1048.21 231.81 1048.21 217.123C1048.21 202.346 1058.27 193.089 1072.16 193.089C1083.37 193.089 1091.56 198.608 1094.85 208.221H1095.12V177.689H1108.65V240ZM1078.74 231.098C1089.25 231.098 1095.57 225.846 1095.57 217.123C1095.57 208.221 1089.25 202.969 1078.74 202.969C1068.42 202.969 1062.27 208.31 1062.27 217.123C1062.27 225.846 1068.42 231.098 1078.74 231.098Z" fill="white"/>
<path d="M-168 329V266.689H-137.112C-124.293 266.689 -118.329 271.496 -118.329 280.575C-118.329 287.875 -122.157 292.503 -130.346 294.195V294.462C-120.466 296.242 -115.659 301.494 -115.659 310.218C-115.659 321.701 -123.848 329 -137.379 329H-168ZM-153.401 318.229H-140.316C-134.174 318.229 -131.147 314.935 -131.147 309.951C-131.147 305.144 -134.085 302.117 -139.604 302.117H-153.401V318.229ZM-153.401 292.503H-140.85C-135.687 292.503 -133.017 289.566 -133.017 284.759C-133.017 279.863 -135.865 277.549 -141.562 277.549H-153.401V292.503Z" fill="white"/>
<path d="M-87.0194 329.89C-100.728 329.89 -110.698 320.632 -110.698 306.123C-110.698 291.435 -100.728 282.178 -87.0194 282.178C-73.311 282.178 -63.3413 291.435 -63.3413 306.123C-63.3413 320.632 -73.311 329.89 -87.0194 329.89ZM-87.0194 319.831C-80.8773 319.831 -77.6728 315.202 -77.6728 306.123C-77.6728 296.954 -80.8773 292.147 -87.0194 292.147C-93.1615 292.147 -96.366 296.954 -96.366 306.123C-96.366 315.202 -93.1615 319.831 -87.0194 319.831Z" fill="white"/>
<path d="M-44.3907 329C-53.2032 329 -56.4078 325.261 -56.4078 316.805V266.689H-42.2543V319.475H-32.4626V329H-44.3907Z" fill="white"/>
<path d="M16.7122 329H2.64774V320.543H2.20264C-0.645858 327.041 -5.45269 329.801 -11.7728 329.801C-22.8107 329.801 -30.199 320.81 -30.199 305.945C-30.199 291.257 -22.8107 282.089 -11.7728 282.089C-5.45269 282.089 -0.556818 285.115 2.11365 291.524H2.55872V266.689H16.7122V329ZM-6.60989 319.831C-0.378805 319.831 2.91476 315.113 2.91476 306.034C2.91476 296.865 -0.378805 292.058 -6.60989 292.058C-12.6629 292.058 -15.8675 296.865 -15.8675 306.034C-15.8675 315.113 -12.6629 319.831 -6.60989 319.831Z" fill="white"/>
<path d="M70.1243 329.89C53.0333 329.89 43.2416 323.837 43.2416 312.621C43.2416 303.541 49.8288 299.269 57.3951 296.331C52.7663 291.702 50.4519 287.608 50.4519 282.801C50.4519 272.742 58.9083 265.799 72.4387 265.799C84.9899 265.799 92.9123 271.763 92.9123 281.733C92.9123 291.168 85.613 294.996 77.6016 297.844L91.7551 309.149C94.2475 305.233 95.6717 300.604 96.0278 295.352L109.113 296.687C108.401 304.788 105.552 311.553 101.369 316.627L104.039 318.763H115.789V329H104.306C99.4994 329 95.9388 327.754 91.8441 324.549C85.524 328.11 78.0467 329.89 70.1243 329.89ZM57.6621 311.197C57.6621 316.36 62.2909 319.564 71.0145 319.564C75.4652 319.564 79.4709 318.674 82.6755 317.161L64.6053 302.473C60.5106 304.432 57.6621 307.013 57.6621 311.197ZM63.9822 282.534C63.9822 285.56 65.9406 288.409 70.1243 291.969C75.9993 289.833 80.6281 287.163 80.6281 282.089C80.6281 278.261 77.6906 275.769 72.5277 275.769C67.0087 275.769 63.9822 278.528 63.9822 282.534Z" fill="white"/>
<path d="M153.265 329L130.744 266.689H147.212L161.543 306.746H161.899L176.587 266.689H194.657L209.345 306.835H209.701L224.032 266.689H238.631L216.199 329H201.778L184.776 283.068H184.42L167.596 329H153.265Z" fill="white"/>
<path d="M243.763 329V282.89H258.985V329H243.763ZM243.229 277.193V266.689H259.43V277.193H243.229Z" fill="white"/>
<path d="M320.529 329H305.396V317.695H304.951C301.925 325.795 295.694 329.89 286.97 329.89C274.686 329.89 266.141 320.899 266.141 305.945C266.141 291.168 274.686 282 286.97 282C295.605 282 301.836 286.183 304.862 294.373H305.307V266.689H320.529V329ZM293.646 319.208C301.302 319.208 305.664 314.49 305.664 306.034C305.664 297.399 301.302 292.682 293.646 292.682C286.08 292.682 281.807 297.488 281.807 306.034C281.807 314.49 286.08 319.208 293.646 319.208Z" fill="white"/>
<path d="M355.281 329.89C338.279 329.89 327.598 320.543 327.598 306.034C327.598 291.613 338.546 282 354.747 282C372.995 282 382.075 292.325 381.096 308.971H343.531C344.332 316.449 348.16 319.653 355.904 319.653C361.245 319.653 364.628 317.606 366.408 313.689L380.028 316.538C376.467 325.35 367.744 329.89 355.281 329.89ZM343.709 301.138H365.874C365.34 295.174 361.601 291.88 355.192 291.88C348.605 291.88 344.867 295.174 343.709 301.138Z" fill="white"/>
<path d="M436.029 329.89C416.356 329.89 404.606 324.193 404.606 312.532C404.606 302.918 411.995 298.646 420.54 296.064C415.822 292.236 412.796 288.142 412.796 283.246C412.796 272.831 422.677 265.888 437.898 265.888C452.497 265.888 461.843 272.03 461.843 282.534C461.843 292.771 453.476 296.331 444.218 298.646L460.953 309.505C464.336 305.5 466.294 300.426 466.739 294.373L480.537 295.619C479.735 304.075 476.62 311.019 471.724 316.449L474.128 318.051H487.925V329H477.688C471.457 329 466.561 327.576 461.487 324.193C454.366 327.932 445.553 329.89 436.029 329.89ZM420.54 310.752C420.54 315.915 425.881 319.208 436.029 319.208C441.548 319.208 446.444 318.318 450.538 316.716L429.175 302.206C424.19 303.808 420.54 306.123 420.54 310.752ZM427.127 283.246C427.127 286.183 428.997 288.587 434.872 292.592C442.349 290.723 448.046 288.409 448.046 282.979C448.046 278.795 444.396 276.125 437.898 276.125C430.777 276.125 427.127 279.151 427.127 283.246Z" fill="white"/>
<path d="M510.476 329V266.689H574.301V279.329H527.389V291.346H559.346V303.185H527.389V316.36H575.191V329H510.476Z" fill="white"/>
<path d="M576.573 329L596.245 306.212L577.463 282.801H596.957L608.707 298.2L620.724 282.801H639.061L620.101 305.5L639.15 329H619.122L606.838 313.6L593.931 329H576.573Z" fill="white"/>
<path d="M668.645 329C657.785 329 651.376 324.104 651.376 313.244V293.305H640.249V282.801H651.376V270.873L667.754 267.134V282.801H684.667V293.305H667.754V317.784H684.667V329H668.645Z" fill="white"/>
<path d="M718.218 329.89C698.723 329.89 686.439 320.543 686.439 306.034C686.439 291.524 699.08 281.911 717.773 281.911C738.068 281.911 748.75 291.969 747.771 308.526H703.708C704.598 315.915 709.405 319.03 718.396 319.03C725.428 319.03 729.434 316.894 731.392 313.066L746.525 315.737C742.43 325.172 732.549 329.89 718.218 329.89ZM704.064 300.96H730.769C730.057 295.085 725.517 292.058 717.862 292.058C710.295 292.058 705.578 294.996 704.064 300.96Z" fill="white"/>
<path d="M754.468 329V282.801H770.847V298.735H771.114C773.339 287.697 780.639 282 791.32 282C803.872 282 811.349 289.566 811.349 302.117V329H794.97V305.856C794.97 298.379 790.875 294.373 783.754 294.373C776.277 294.373 770.847 298.913 770.847 306.746V329H754.468Z" fill="white"/>
<path d="M879.746 329H863.367V314.935H863.1C859.807 324.727 852.062 329.89 841.025 329.89C827.583 329.89 817.791 320.899 817.791 305.945C817.791 291.079 827.583 281.911 841.025 281.911C851.973 281.911 859.718 287.43 863.011 297.221H863.367V266.689H879.746V329ZM849.214 318.585C858.204 318.585 863.812 313.867 863.812 305.945C863.812 297.933 858.204 293.216 849.214 293.216C840.134 293.216 834.882 298.111 834.882 305.945C834.882 313.956 840.134 318.585 849.214 318.585Z" fill="white"/>
<path d="M918.329 329.89C898.834 329.89 886.55 320.543 886.55 306.034C886.55 291.524 899.191 281.911 917.884 281.911C938.179 281.911 948.861 291.969 947.882 308.526H903.819C904.709 315.915 909.516 319.03 918.507 319.03C925.539 319.03 929.545 316.894 931.503 313.066L946.636 315.737C942.541 325.172 932.66 329.89 918.329 329.89ZM904.175 300.96H930.88C930.168 295.085 925.628 292.058 917.973 292.058C910.406 292.058 905.689 294.996 904.175 300.96Z" fill="white"/>
<path d="M1014.49 329H998.108V314.935H997.841C994.547 324.727 986.803 329.89 975.765 329.89C962.323 329.89 952.532 320.899 952.532 305.945C952.532 291.079 962.323 281.911 975.765 281.911C986.714 281.911 994.458 287.43 997.752 297.221H998.108V266.689H1014.49V329ZM983.954 318.585C992.945 318.585 998.553 313.867 998.553 305.945C998.553 297.933 992.945 293.216 983.954 293.216C974.875 293.216 969.623 298.111 969.623 305.945C969.623 313.956 974.875 318.585 983.954 318.585Z" fill="white"/>
<path d="M-288.941 418V355.689H-239.538V368.507H-271.85V380.079H-250.665V392.63H-271.85V405.182H-238.737V418H-288.941Z" fill="white"/>
<path d="M-237.344 418L-223.101 395.568L-236.365 371.801H-218.294L-211.707 386.577L-204.141 371.801H-187.406L-200.669 393.432L-186.605 418H-205.387L-212.864 403.134L-221.054 418H-237.344Z" fill="white"/>
<path d="M-164.642 418.089C-174.522 418.089 -179.418 412.837 -179.418 404.469V382.661H-186.005V371.801H-179.418V361.653L-162.772 358.27V371.801H-153.07V382.661H-162.772V406.873H-152.892V418.089H-164.642Z" fill="white"/>
<path d="M-147.263 418V371.801H-130.707V381.147H-130.172C-128.214 374.204 -124.654 371.801 -118.868 371.801H-113.081V386.844H-120.737C-128.392 386.844 -130.707 390.494 -130.707 399.04V418H-147.263Z" fill="white"/>
<path d="M-95.7534 418.89C-104.744 418.89 -110.708 414.706 -110.708 407.14C-110.708 397.615 -103.409 392.452 -88.3651 390.939L-81.5109 390.227V387.379C-81.5109 383.551 -83.2912 381.949 -87.0298 381.949C-90.9465 381.949 -92.9939 383.551 -93.795 387.557H-109.907C-109.195 377.676 -100.026 371 -86.9408 371C-73.4995 371 -64.776 376.964 -64.776 388.714V407.229H-58.8119V418H-69.0487C-74.5677 418 -79.9976 416.131 -80.6207 408.653H-81.1548C-83.3802 415.062 -88.6321 418.89 -95.7534 418.89ZM-94.5962 403.846C-94.5962 406.161 -92.8159 407.585 -89.5223 407.585C-84.9825 407.585 -81.5109 404.826 -81.5109 400.731V398.06L-88.5431 398.951C-92.5488 399.396 -94.5962 401.443 -94.5962 403.846Z" fill="white"/>
<path d="M-54.423 418V355.689H-37.7771V380.079H-37.3321C-34.5726 373.581 -29.8548 370.911 -23.8907 370.911C-12.8528 370.911 -5.55353 379.99 -5.55353 394.856C-5.55353 409.988 -12.8528 418.801 -23.8907 418.801C-29.9438 418.801 -34.6616 416.22 -37.5101 409.81H-37.9552V418H-54.423ZM-30.1218 407.496C-24.9589 407.496 -22.2885 403.401 -22.2885 394.945C-22.2885 386.399 -24.9589 382.127 -30.1218 382.127C-35.5517 382.127 -38.2222 386.399 -38.2222 394.945C-38.2222 403.401 -35.5517 407.496 -30.1218 407.496Z" fill="white"/>
<path d="M23.0413 418.89C8.97687 418.89 -1.616 409.721 -1.616 395.034C-1.616 380.168 8.97687 371 23.0413 371C37.1948 371 47.7876 380.168 47.7876 395.034C47.7876 409.721 37.1948 418.89 23.0413 418.89ZM23.0413 407.585C28.3823 407.585 31.0527 403.49 31.0527 395.034C31.0527 386.399 28.3823 382.216 23.0413 382.216C17.7894 382.216 15.1189 386.399 15.1189 395.034C15.1189 403.49 17.7894 407.585 23.0413 407.585Z" fill="white"/>
<path d="M65.6533 418C56.3067 418 53.1021 414.35 53.1021 404.915V355.689H69.748V407.229H78.7386V418H65.6533Z" fill="white"/>
<path d="M129.232 418H112.764V409.81H112.319C109.471 416.22 104.753 418.801 98.6996 418.801C87.6617 418.801 80.3625 409.988 80.3625 394.856C80.3625 379.99 87.6617 370.911 98.6996 370.911C104.664 370.911 109.382 373.581 112.141 380.079H112.586V355.689H129.232V418ZM104.931 407.496C110.361 407.496 113.031 403.401 113.031 394.945C113.031 386.399 110.361 382.127 104.931 382.127C99.7679 382.127 97.0974 386.399 97.0974 394.945C97.0974 403.401 99.7679 407.496 104.931 407.496Z" fill="white"/>
<path d="M178.097 418.89C160.116 418.89 150.324 412.926 150.324 401.532C150.324 392.452 156.822 388.18 164.388 385.242C160.026 380.791 157.89 376.786 157.89 372.246C157.89 362.009 166.703 354.799 180.856 354.799C193.852 354.799 202.309 360.763 202.309 371.089C202.309 380.346 195.277 384.263 187.532 387.022L199.905 396.725C202.309 393.076 203.733 388.714 204.089 383.907L219.222 385.42C218.332 393.521 215.305 400.197 210.854 405.36L212.19 406.339H224.652V418H211.834C207.116 418 203.555 416.932 199.549 414.083C193.14 417.288 185.663 418.89 178.097 418.89ZM167.059 399.752C167.059 404.38 171.153 407.229 179.254 407.229C182.814 407.229 186.108 406.606 188.957 405.538L172.578 392.274C169.195 394.055 167.059 396.28 167.059 399.752ZM173.468 371.89C173.468 374.382 175.07 376.964 179.076 380.346C184.239 378.388 188.155 375.896 188.155 371.445C188.155 368.24 185.485 366.104 181.034 366.104C176.227 366.104 173.468 368.418 173.468 371.89Z" fill="white"/>
<path d="M260.875 418L238.265 355.689H257.581L270.756 392.096H271.112L284.197 355.689H305.294L318.379 392.274H318.735L331.909 355.689H349.089L326.479 418H309.299L293.633 374.827H293.276L277.966 418H260.875Z" fill="white"/>
<path d="M352.749 418V371.623H370.73V418H352.749ZM352.304 366.638V355.689H371.175V366.638H352.304Z" fill="white"/>
<path d="M432.523 418H414.631V406.784H414.186C411.07 415.062 405.195 418.89 396.739 418.89C384.722 418.89 376.265 409.988 376.265 394.856C376.265 379.812 384.722 370.733 396.739 370.733C405.106 370.733 410.981 374.738 414.097 383.106H414.542V355.689H432.523V418ZM404.75 406.784C411.249 406.784 414.987 402.6 414.987 394.945C414.987 387.022 411.249 382.839 404.75 382.839C398.252 382.839 394.692 387.111 394.692 394.945C394.692 402.689 398.252 406.784 404.75 406.784Z" fill="white"/>
<path d="M466.379 418.89C449.11 418.89 437.983 409.454 437.983 394.945C437.983 380.435 449.288 370.733 466.023 370.733C485.25 370.733 494.686 381.682 493.351 398.416H456.676C457.477 404.737 460.771 407.318 467.18 407.318C471.809 407.318 474.568 405.538 476.082 401.977L492.282 404.826C488.633 414.35 479.375 418.89 466.379 418.89ZM456.854 389.871H475.459C475.013 384.797 471.898 381.771 466.557 381.771C460.86 381.771 457.922 384.619 456.854 389.871Z" fill="white"/>
<path d="M548.534 418.89C527.526 418.89 515.687 413.371 515.687 401.443C515.687 391.918 522.809 387.646 531.354 385.064C527.081 381.593 524.322 377.409 524.322 372.869C524.322 362.098 534.737 354.888 550.849 354.888C565.981 354.888 576.129 361.119 576.129 371.979C576.129 382.216 567.85 385.776 558.771 387.824L573.725 397.259C577.197 393.343 579.244 388.447 579.69 382.839L595.623 384.263C594.644 392.719 591.262 399.663 586.188 405.093L586.9 405.538H601.587V418H590.371C584.318 418 579.333 416.665 574.171 413.638C566.782 417.11 557.881 418.89 548.534 418.89ZM534.292 399.218C534.292 403.757 538.831 406.784 548.623 406.784C553.163 406.784 557.347 406.161 561.085 405.004L541.146 391.74C537.14 393.165 534.292 395.39 534.292 399.218ZM540.879 372.691C540.879 375.272 542.392 377.498 548.089 381.147C555.032 379.456 560.195 377.32 560.195 372.424C560.195 368.952 556.724 366.638 550.849 366.638C544.35 366.638 540.879 369.13 540.879 372.691Z" fill="white"/>
<path d="M622.331 418V355.689H687.758V370.109H642.271V379.812H673.693V393.165H642.271V403.579H688.648V418H622.331Z" fill="white"/>
<path d="M689.483 418L708.711 395.301L690.462 371.534H713.25L723.398 386.043L734.08 371.534H755.444L737.017 394.322L755.533 418H732.122L721.173 403.757L709.601 418H689.483Z" fill="white"/>
<path d="M786.297 418C774.013 418 767.159 412.659 767.159 400.464V383.462H756.032V371.534H767.159V359.784L786.475 355.689V371.534H802.854V383.462H786.475V405.271H802.854V418H786.297Z" fill="white"/>
<path d="M836.535 418.89C816.506 418.89 803.866 409.454 803.866 394.856C803.866 380.346 816.862 370.644 836.179 370.644C857.275 370.644 868.224 381.147 866.889 397.793H824.162C825.052 404.113 829.057 406.606 836.713 406.606C842.766 406.606 845.881 404.737 847.573 401.354L865.643 404.024C861.459 414.172 851.044 418.89 836.535 418.89ZM824.607 389.515H846.95C846.326 384.53 842.41 382.038 836.268 382.038C829.859 382.038 826.031 384.441 824.607 389.515Z" fill="white"/>
<path d="M872.06 418V371.534H891.377V388.18H891.733C893.602 377.053 900.812 370.733 911.761 370.733C924.134 370.733 931.612 378.388 931.612 391.206V418H912.295V395.568C912.295 388.625 908.646 384.975 902.414 384.975C895.827 384.975 891.377 388.981 891.377 395.746V418H872.06Z" fill="white"/>
<path d="M1000.08 418H980.765V403.846H980.409C977.026 413.994 969.905 418.89 958.956 418.89C946.049 418.89 936.435 410.077 936.435 394.856C936.435 379.723 946.049 370.644 958.956 370.644C969.727 370.644 976.937 375.985 980.32 386.132H980.676V355.689H1000.08V418ZM968.837 406.161C976.403 406.161 981.121 401.888 981.121 394.856C981.121 387.735 976.403 383.462 968.837 383.462C961.093 383.462 956.553 387.913 956.553 394.856C956.553 401.977 961.093 406.161 968.837 406.161Z" fill="white"/>
<path d="M1037.95 418.89C1017.92 418.89 1005.28 409.454 1005.28 394.856C1005.28 380.346 1018.28 370.644 1037.59 370.644C1058.69 370.644 1069.64 381.147 1068.3 397.793H1025.58C1026.47 404.113 1030.47 406.606 1038.13 406.606C1044.18 406.606 1047.3 404.737 1048.99 401.354L1067.06 404.024C1062.87 414.172 1052.46 418.89 1037.95 418.89ZM1026.02 389.515H1048.36C1047.74 384.53 1043.82 382.038 1037.68 382.038C1031.27 382.038 1027.45 384.441 1026.02 389.515Z" fill="white"/>
<path d="M1135.43 418H1116.11V403.846H1115.76C1112.37 413.994 1105.25 418.89 1094.3 418.89C1081.4 418.89 1071.78 410.077 1071.78 394.856C1071.78 379.723 1081.4 370.644 1094.3 370.644C1105.08 370.644 1112.29 375.985 1115.67 386.132H1116.02V355.689H1135.43V418ZM1104.19 406.161C1111.75 406.161 1116.47 401.888 1116.47 394.856C1116.47 387.735 1111.75 383.462 1104.19 383.462C1096.44 383.462 1091.9 387.913 1091.9 394.856C1091.9 401.977 1096.44 406.161 1104.19 406.161Z" fill="white"/>
<path d="M-207.207 507V444.689H-171.601C-158.338 444.689 -152.463 448.962 -152.463 458.041C-152.463 465.074 -156.023 469.257 -164.213 471.038V471.394C-154.51 473.53 -150.059 478.693 -150.059 487.327C-150.059 499.166 -159.05 507 -172.58 507H-207.207ZM-187.624 493.469H-177.031C-173.114 493.469 -170.889 490.799 -170.889 487.06C-170.889 483.411 -173.114 481.185 -177.031 481.185H-187.624V493.469ZM-187.624 469.435H-178.455C-174.094 469.435 -172.046 467.21 -172.046 463.649C-172.046 460.267 -174.094 458.308 -178.366 458.308H-187.624V469.435Z" fill="white"/>
<path d="M-132.943 507C-142.823 507 -146.117 503.439 -146.117 493.024V444.689H-126.979V494.983H-118.7V507H-132.943Z" fill="white"/>
<path d="M-102.068 507.89C-111.326 507.89 -117.112 503.617 -117.112 496.229C-117.112 486.259 -109.457 481.274 -93.6118 479.85L-88.0038 479.316V476.468C-88.0038 473.352 -89.428 472.017 -92.3655 472.017C-95.6591 472.017 -97.4394 473.53 -97.9735 477.091H-116.489C-115.866 466.765 -106.252 459.822 -92.3655 459.822C-78.1231 459.822 -68.8654 465.964 -68.8654 478.159V494.983H-63.2574V507H-75.0075C-80.4375 507 -86.2235 505.309 -87.0246 497.475H-87.5587C-89.6951 504.062 -94.858 507.89 -102.068 507.89ZM-98.6856 492.312C-98.6856 494.182 -97.0834 495.25 -94.4129 495.25C-90.8523 495.25 -88.0038 493.113 -88.0038 489.82V487.862L-93.7898 488.485C-97.1724 488.841 -98.6856 490.532 -98.6856 492.312Z" fill="white"/>
<path d="M-36.9749 507.89C-51.4845 507.89 -62.6114 498.81 -62.6114 483.945C-62.6114 468.901 -51.4845 459.822 -36.9749 459.822C-25.759 459.822 -16.7684 465.163 -13.3858 474.509L-30.0317 479.494C-31.0999 474.509 -32.9692 472.284 -36.4408 472.284C-41.0696 472.284 -43.4731 475.933 -43.4731 483.945C-43.4731 491.778 -41.0696 495.339 -36.4408 495.339C-32.9692 495.339 -31.0999 493.202 -30.0317 488.396L-13.4748 493.38C-16.8574 502.549 -25.759 507.89 -36.9749 507.89Z" fill="white"/>
<path d="M20.027 507L11.4815 489.998L8.72205 492.668V507H-10.4163V444.689H8.72205V474.153L21.6293 460.623H41.2127L24.8339 476.824L42.0139 507H20.027Z" fill="white"/>
<path d="M83.2218 507.89C64.3505 507.89 54.4698 501.926 54.4698 490.354C54.4698 481.363 60.7899 477.091 68.3562 474.153C64.3505 469.88 62.3922 465.964 62.3922 461.691C62.3922 451.187 71.5607 443.799 86.4263 443.799C99.7787 443.799 108.769 449.852 108.769 460.445C108.769 469.435 102.004 473.352 94.4377 476.022L105.209 484.39C107.523 481.007 108.947 476.913 109.303 472.462L126.394 474.153C125.415 482.165 122.211 488.752 117.582 493.915H130.489V507H116.425C111.885 507 108.324 506.021 104.318 503.439C97.6423 506.466 90.343 507.89 83.2218 507.89ZM73.6081 488.218C73.6081 492.312 77.0797 494.805 84.557 494.805C87.2275 494.805 89.8089 494.449 92.0343 493.826L77.5248 482.076C75.2104 483.5 73.6081 485.458 73.6081 488.218ZM80.1062 461.157C80.1062 463.204 81.1744 465.519 85.0911 468.723C89.5419 466.943 92.7464 464.717 92.7464 460.801C92.7464 458.13 90.432 456.439 86.5154 456.439C82.5097 456.439 80.1062 458.219 80.1062 461.157Z" fill="white"/>
<path d="M165.464 507L142.587 444.689H164.93L176.947 477.536H177.303L188.786 444.689H212.909L224.392 477.625H224.748L236.765 444.689H256.527L233.65 507H213.621L199.468 466.587H199.112L185.225 507H165.464Z" fill="white"/>
<path d="M258.714 507V460.445H279.366V507H258.714ZM258.269 455.994V444.689H279.9V455.994H258.269Z" fill="white"/>
<path d="M341.494 507H320.931V495.873H320.486C317.371 504.24 311.763 507.801 303.484 507.801C291.734 507.801 283.456 499.167 283.456 483.767C283.456 468.456 291.734 459.555 303.484 459.555C311.585 459.555 317.282 463.382 320.397 471.75H320.753V444.689H341.494V507ZM312.92 494.449C318.261 494.449 321.287 490.799 321.287 483.767C321.287 476.646 318.261 472.907 312.92 472.907C307.49 472.907 304.553 476.735 304.553 483.767C304.553 490.799 307.49 494.449 312.92 494.449Z" fill="white"/>
<path d="M374.629 507.89C356.915 507.89 345.432 498.365 345.432 483.767C345.432 469.257 357.093 459.555 374.451 459.555C394.658 459.555 404.272 471.038 402.669 487.772H366.885C367.775 493.024 370.357 494.983 375.609 494.983C379.436 494.983 381.484 493.47 382.73 490.176L401.601 493.202C397.862 503.439 388.071 507.89 374.629 507.89ZM367.063 478.515H382.107C381.929 474.509 379.258 471.75 375.074 471.75C370.357 471.75 367.953 474.331 367.063 478.515Z" fill="white"/>
<path d="M458.103 507.89C435.76 507.89 423.832 502.46 423.832 490.354C423.832 480.918 430.686 476.557 439.232 473.975C435.493 470.949 432.912 466.765 432.912 462.403C432.912 451.365 443.772 443.888 460.863 443.888C476.618 443.888 487.478 450.119 487.478 461.424C487.478 471.572 479.467 475.132 470.565 477.091L483.561 485.013C487.033 481.363 489.169 476.735 489.704 471.305L507.863 472.907C506.795 480.918 503.412 487.683 498.516 492.935H512.224V507H500.118C494.243 507 489.258 505.932 483.74 502.994C476.262 506.199 467.361 507.89 458.103 507.89ZM445.196 487.683C445.196 491.6 448.845 494.271 458.192 494.271C461.842 494.271 465.313 493.915 468.429 493.202L450.359 481.363C447.154 482.699 445.196 484.568 445.196 487.683ZM451.694 462.225C451.694 464.272 452.673 466.231 457.658 469.257L458.459 469.702C464.779 468.189 469.319 466.231 469.319 461.869C469.319 459.02 466.114 457.062 460.773 457.062C455.077 457.062 451.694 459.109 451.694 462.225Z" fill="white"/>
<path d="M531.076 507V444.689H598.194V460.89H553.953V468.278H584.931V483.144H553.953V490.799H599.084V507H531.076Z" fill="white"/>
<path d="M599.195 507L617.977 484.39L600.352 460.267H626.433L635.068 473.708L644.326 460.267H668.716L650.735 483.233L668.716 507H641.922L632.487 493.826L622.072 507H599.195Z" fill="white"/>
<path d="M701.014 507C687.394 507 679.917 501.214 679.917 487.683V473.619H668.879V460.267H679.917V448.695L702.171 444.244V460.267H718.105V473.619H702.171V492.757H718.105V507H701.014Z" fill="white"/>
<path d="M751.913 507.89C731.44 507.89 718.443 498.365 718.443 483.767C718.443 469.168 731.796 459.377 751.735 459.377C773.633 459.377 784.849 470.414 783.247 487.06H741.855C742.745 492.312 746.038 494.182 752.18 494.182C757.254 494.182 759.569 492.49 760.904 489.731L781.912 492.401C777.639 503.261 766.601 507.89 751.913 507.89ZM742.211 478.159H760.192C759.747 474.064 756.631 472.017 751.824 472.017C746.572 472.017 743.457 473.975 742.211 478.159Z" fill="white"/>
<path d="M786.979 507V460.267H809.233V477.536H809.589C811.191 466.142 818.224 459.555 829.44 459.555C841.724 459.555 849.023 467.21 849.023 480.206V507H826.769V485.28C826.769 478.782 823.743 475.577 818.313 475.577C812.616 475.577 809.233 479.049 809.233 484.657V507H786.979Z" fill="white"/>
<path d="M917.565 507H895.311V492.757H894.955C891.483 503.172 884.896 507.89 874.214 507.89C861.752 507.89 852.317 499.256 852.317 483.767C852.317 468.367 861.752 459.377 874.214 459.377C884.718 459.377 891.394 464.539 894.866 475.043H895.222V444.689H917.565V507ZM885.697 493.648C891.75 493.648 895.756 489.909 895.756 483.767C895.756 477.447 891.75 473.708 885.697 473.708C879.288 473.708 875.461 477.714 875.461 483.767C875.461 489.998 879.288 493.648 885.697 493.648Z" fill="white"/>
<path d="M954.719 507.89C934.246 507.89 921.249 498.365 921.249 483.767C921.249 469.168 934.602 459.377 954.541 459.377C976.439 459.377 987.655 470.414 986.053 487.06H944.661C945.551 492.312 948.844 494.182 954.986 494.182C960.06 494.182 962.375 492.49 963.71 489.731L984.718 492.401C980.445 503.261 969.407 507.89 954.719 507.89ZM945.017 478.159H962.998C962.553 474.064 959.437 472.017 954.63 472.017C949.378 472.017 946.263 473.975 945.017 478.159Z" fill="white"/>
<path d="M1053.61 507H1031.36V492.757H1031C1027.53 503.172 1020.94 507.89 1010.26 507.89C997.796 507.89 988.361 499.256 988.361 483.767C988.361 468.367 997.796 459.377 1010.26 459.377C1020.76 459.377 1027.44 464.539 1030.91 475.043H1031.27V444.689H1053.61V507ZM1021.74 493.648C1027.79 493.648 1031.8 489.909 1031.8 483.767C1031.8 477.447 1027.79 473.708 1021.74 473.708C1015.33 473.708 1011.5 477.714 1011.5 483.767C1011.5 489.998 1015.33 493.648 1021.74 493.648Z" fill="white"/>
<rect x="34.8887" y="404.265" width="257.447" height="123.454" rx="5.44251" transform="rotate(-11.7131 34.8887 404.265)" fill="#B591FF"/>
<path d="M77.9994 437.886L77.4408 435.191L85.0129 433.622L82.4374 421.199L75.9398 425.919L75.3364 423.008L84.9484 416.772L88.3005 432.94L95.6302 431.42L96.1889 434.115L77.9994 437.886Z" fill="black"/>
<path d="M108.608 431.821C102.761 433.034 98.5533 431.854 97.8661 428.54C97.341 426.007 99.1438 423.722 103.577 422.465L103.56 422.384C99.9036 422.777 97.4878 421.564 96.9962 419.192C96.3537 416.093 99.3579 413.503 104.586 412.419C109.76 411.346 113.61 412.431 114.269 415.611C114.755 417.955 113.216 420.017 109.596 421.133L109.613 421.214C114.078 420.653 116.641 422.033 117.16 424.539C117.853 427.881 114.429 430.614 108.608 431.821ZM108.116 429.31C111.996 428.505 114.176 426.816 113.762 424.822C113.349 422.828 110.678 422.145 106.797 422.95C102.863 423.766 100.716 425.476 101.124 427.443C101.537 429.437 104.208 430.12 108.116 429.31ZM106.333 420.713C109.675 420.021 111.515 418.459 111.141 416.653C110.767 414.848 108.468 414.2 105.127 414.893C101.731 415.597 99.8798 417.105 100.254 418.91C100.628 420.716 102.938 421.417 106.333 420.713Z" fill="black"/>
<path d="M137.419 425.848C132.488 426.87 128.229 426.123 125.45 423.833L127.172 421.564C129.506 423.469 132.673 424.106 136.877 423.234C140.758 422.429 142.83 420.904 142.462 419.125C141.411 414.059 125.974 421.616 124.421 414.125C123.689 410.595 126.795 407.815 132.4 406.653C136.738 405.753 140.402 406.343 143.001 408.305L141.306 410.568C139.146 408.964 136.579 408.512 132.968 409.261C129.277 410.026 127.349 411.438 127.695 413.108C128.656 417.743 144.158 410.089 145.811 418.065C146.571 421.73 143.321 424.624 137.419 425.848Z" fill="black"/>
<path d="M156.037 421.707L152.685 405.538L144.035 407.332L143.476 404.637L164.01 400.38L164.569 403.075L155.972 404.857L159.325 421.025L156.037 421.707Z" fill="black"/>
<path d="M178.135 417.125L176.543 409.445L164.604 400.257L168.43 399.463L177.682 406.399L183.413 396.357L187.132 395.586L179.852 408.731L181.449 416.438L178.135 417.125Z" fill="black"/>
<path d="M193.403 413.96L189.493 395.097L192.807 394.409L196.159 410.578L210.064 407.695L210.623 410.39L193.403 413.96Z" fill="black"/>
<path d="M213.167 409.862L209.256 390.999L227.58 387.2L228.15 389.949L213.14 393.061L214.185 398.1L224.155 396.033L224.703 398.673L214.732 400.741L215.911 406.426L231.19 403.259L231.76 406.007L213.167 409.862Z" fill="black"/>
<path d="M244.287 403.691C239.356 404.714 235.098 403.966 232.318 401.676L234.04 399.408C236.374 401.313 239.542 401.949 243.746 401.077C247.626 400.273 249.699 398.747 249.33 396.968C248.279 391.902 232.842 399.459 231.289 391.968C230.557 388.438 233.663 385.658 239.268 384.496C243.606 383.596 247.27 384.186 249.869 386.148L248.174 388.411C246.015 386.807 243.448 386.355 239.837 387.104C236.145 387.869 234.217 389.281 234.564 390.952C235.525 395.587 251.026 387.932 252.68 395.908C253.439 399.573 250.189 402.468 244.287 403.691Z" fill="black"/>
<path d="M97.8453 462.648C93.1026 463.631 89.5754 462.48 87.4018 460.401L89.1452 458.1C90.9655 459.831 93.5307 460.816 97.2764 460.04C100.726 459.325 102.672 457.46 102.236 455.358C101.823 453.364 99.8968 452.751 96.5284 453.45L92.2168 454.343L97.2937 445.618L85.7063 448.02L85.1476 445.326L103.014 441.622L96.5967 452.424L96.8392 452.373C102.04 451.295 105.081 452.407 105.685 455.317C106.439 458.955 103.208 461.536 97.8453 462.648Z" fill="black"/>
<path d="M122.31 457.295L110.477 440.074L113.845 439.376L122.935 452.444L123.069 452.416L126.591 436.733L130.391 435.945L139.836 448.968L139.971 448.94L143.11 433.308L146.128 432.683L142.116 453.188L139.449 453.742L129.064 439.846L129.01 439.857L125.059 456.725L122.31 457.295Z" fill="black"/>
<path d="M152.588 451.017L148.677 432.154L151.992 431.467L155.902 450.33L152.588 451.017Z" fill="black"/>
<path d="M160.272 449.424L156.361 430.561L165.415 428.684C173.661 426.974 178.457 429.634 179.675 435.508C180.904 441.437 177.572 445.837 169.326 447.547L160.272 449.424ZM163.022 446.015L168.762 444.825C174.933 443.546 177.151 440.416 176.279 436.212C175.425 432.089 172.151 430.126 165.98 431.406L160.24 432.596L163.022 446.015Z" fill="black"/>
<path d="M190.379 443.182L187.027 427.014L178.377 428.807L177.818 426.112L198.352 421.855L198.911 424.55L190.315 426.332L193.667 442.501L190.379 443.182Z" fill="black"/>
<path d="M221.263 436.779L219.559 428.56L206.409 431.287L208.113 439.506L204.798 440.193L200.887 421.33L204.202 420.642L205.85 428.592L219 425.865L217.352 417.916L220.667 417.229L224.578 436.092L221.263 436.779Z" fill="black"/>
<path d="M238.524 433.481C233.593 434.504 229.335 433.757 226.555 431.466L228.277 429.198C230.611 431.103 233.779 431.739 237.982 430.868C241.863 430.063 243.936 428.537 243.567 426.759C242.516 421.693 227.079 429.249 225.526 421.758C224.794 418.228 227.9 415.448 233.505 414.286C237.843 413.387 241.507 413.976 244.106 415.939L242.411 418.201C240.251 416.597 237.685 416.146 234.074 416.894C230.382 417.66 228.454 419.071 228.801 420.742C229.761 425.377 245.263 417.722 246.916 425.699C247.676 429.364 244.426 432.258 238.524 433.481Z" fill="black"/>
<path d="M90.963 492.67C85.843 493.732 81.9386 492.658 81.229 489.236C80.6089 486.245 82.7288 484.541 85.1751 483.19C83.225 482.189 81.8901 481.173 81.5493 479.529C80.9403 476.592 83.1947 474.045 87.2368 473.207C91.3058 472.363 94.0627 473.731 94.6717 476.668C95.3142 479.767 92.9024 481.42 90.2619 482.782L97.1966 485.729C97.9255 484.229 98.1394 482.414 97.8282 480.37L100.735 480.021C101.126 482.722 100.754 484.991 99.7898 486.849L101.76 487.678L105.452 486.912L105.944 489.284L103.411 489.809C101.794 490.144 100.595 490.055 99.3607 489.524L98.2453 489.025C96.5092 490.818 94.008 492.039 90.963 492.67ZM84.3585 488.334C84.7664 490.301 87.1085 491.024 90.45 490.332C92.6866 489.868 94.3971 489.036 95.6465 487.877L87.4439 484.238C85.4975 485.288 83.9674 486.448 84.3585 488.334ZM84.5516 478.963C84.7807 480.068 85.741 480.768 87.9447 481.773C90.2842 480.585 92.2566 479.389 91.8376 477.368C91.4968 475.725 90.018 474.963 87.7275 475.438C85.1405 475.974 84.2388 477.454 84.5516 478.963Z" fill="black"/>
<path d="M120.891 486.184L107.118 469.366L110.917 468.578L121.425 481.436L121.613 481.397L126.143 465.422L129.619 464.701L123.64 485.615L120.891 486.184Z" fill="black"/>
<path d="M130.161 484.263L135.816 463.416L139.697 462.612L153.255 479.475L149.752 480.201L145.874 475.327L134.988 477.585L133.395 483.592L130.161 484.263ZM135.719 474.875L144.126 473.132L138.191 465.65L135.719 474.875Z" fill="black"/>
<path d="M155.627 478.983L151.717 460.12L164.247 457.522C168.586 456.622 171.401 457.865 171.971 460.614C172.474 463.039 170.923 465.047 167.53 466.172L167.541 466.226L169.697 465.779C172.176 465.265 173.711 466.296 174.197 468.64L175.488 474.865L172.173 475.552L170.598 467.953L157.366 470.696L158.942 478.295L155.627 478.983ZM156.808 468.002L165.539 466.191C168.072 465.666 169.182 463.974 168.803 462.142C168.451 460.444 167.037 459.726 164.531 460.245L155.584 462.1L156.808 468.002Z" fill="black"/>
<path d="M179.154 474.105L175.243 455.242L178.557 454.555L182.468 473.418L179.154 474.105Z" fill="black"/>
<path d="M184.898 472.914L190.553 452.068L194.434 451.263L207.992 468.126L204.488 468.852L200.611 463.979L189.724 466.236L188.131 472.244L184.898 472.914ZM190.456 463.527L198.863 461.784L192.927 454.302L190.456 463.527Z" fill="black"/>
<path d="M210.364 467.634L206.453 448.771L219.011 446.168C222.81 445.38 225.479 446.457 226.032 449.124C226.512 451.442 225.031 453.379 222.097 454.409L222.108 454.463C226.023 453.961 228.321 455.283 228.935 458.247C229.594 461.427 227.476 464.087 223.056 465.003L210.364 467.634ZM213.126 464.279L221.91 462.458C224.417 461.938 225.88 460.455 225.488 458.568C225.142 456.897 223.604 456.12 221.098 456.64L211.936 458.539L213.126 464.279ZM211.449 456.195L220.207 454.379C222.363 453.932 223.245 452.625 222.909 451.009C222.552 449.284 221.025 448.561 218.869 449.008L210.327 450.779L211.449 456.195Z" fill="black"/>
<path d="M233.233 462.893L229.322 444.03L232.636 443.343L235.988 459.511L249.893 456.628L250.452 459.323L233.233 462.893Z" fill="black"/>
<path d="M252.996 458.796L249.085 439.932L267.409 436.133L267.979 438.882L252.969 441.994L254.014 447.033L263.984 444.966L264.532 447.607L254.561 449.674L255.74 455.36L271.019 452.192L271.589 454.941L252.996 458.796Z" fill="black"/>
</g>
<defs>
<clipPath id="clip0_3466_848">
<rect width="760" height="506" fill="white"/>
</clipPath>
</defs>
</svg>
