<svg width="760" height="506" viewBox="0 0 760 506" fill="none" xmlns="http://www.w3.org/2000/svg">
<rect width="760" height="506" fill="#B591FF"/>
<path d="M463.945 32.1599C461.017 32.1599 458.681 31.2319 457.369 29.5999L458.617 28.5119C459.721 29.8719 461.449 30.6079 463.945 30.6079C466.249 30.6079 467.609 29.9839 467.609 28.9279C467.609 25.9199 457.929 28.3999 457.929 23.9519C457.929 21.8559 460.025 20.6399 463.353 20.6399C465.929 20.6399 467.945 21.4079 469.193 22.8319L467.961 23.9199C466.921 22.7519 465.513 22.1919 463.369 22.1919C461.177 22.1919 459.913 22.7679 459.913 23.7599C459.913 26.5119 469.641 23.9839 469.641 28.7199C469.641 30.8959 467.449 32.1599 463.945 32.1599Z" fill="black"/>
<path d="M445.5 32V20.8H456.38V22.432H447.468V25.424H453.388V26.992H447.468V30.368H456.54V32H445.5Z" fill="black"/>
<path d="M431.531 32V20.8H438.971C441.547 20.8 443.003 21.84 443.003 23.472C443.003 24.912 441.883 25.872 439.819 26.112V26.144H441.099C442.571 26.144 443.323 26.912 443.323 28.304V32H441.355V27.488H433.499V32H431.531ZM433.499 25.888H438.683C440.187 25.888 441.019 25.056 441.019 23.968C441.019 22.96 440.299 22.384 438.811 22.384H433.499V25.888Z" fill="black"/>
<path d="M423.197 32.16C419.757 32.16 417.309 30.288 417.309 26.768V20.8H419.293V26.672C419.293 29.232 420.925 30.496 423.229 30.496C425.533 30.496 427.181 29.232 427.181 26.672V20.8H429.085V26.768C429.085 30.288 426.637 32.16 423.197 32.16Z" fill="black"/>
<path d="M408.907 32V22.4H403.771V20.8H415.963V22.4H410.859V32H408.907Z" fill="black"/>
<path d="M392.098 32L397.778 20.8H400.082L405.81 32H403.73L402.098 28.768H395.634L394.018 32H392.098ZM396.37 27.312H401.362L398.866 22.352L396.37 27.312Z" fill="black"/>
<path d="M380.453 32V20.8H391.333V22.432H382.421V25.424H388.341V26.992H382.421V30.368H391.493V32H380.453Z" fill="black"/>
<path d="M368.031 32V20.8H378.911V22.432H369.999V25.696H376.815V27.296H369.999V32H368.031Z" fill="black"/>
<path d="M349.875 32V20.8H352.483L359.763 28.928H359.827V20.8H361.667V32H360.099L351.779 22.768H351.715V32H349.875Z" fill="black"/>
<path d="M340.659 32.1599C337.043 32.1599 334.611 29.9359 334.611 26.5759C334.611 23.1039 337.331 20.6399 341.571 20.6399C344.115 20.6399 346.227 21.5359 347.379 23.0719L345.939 24.1919C345.043 22.9279 343.507 22.2559 341.667 22.2559C338.579 22.2559 336.627 24.0159 336.627 26.5119C336.627 28.9919 338.451 30.5279 341.315 30.5279C343.875 30.5279 345.651 29.2319 345.859 27.4559H340.355V26.0319H347.715V31.9999H345.939V28.4799H345.907C345.507 30.5759 343.619 32.1599 340.659 32.1599Z" fill="black"/>
<path d="M330.656 32V20.8H332.624V32H330.656Z" fill="black"/>
<path d="M323.148 32.1599C320.22 32.1599 317.884 31.2319 316.572 29.5999L317.82 28.5119C318.924 29.8719 320.652 30.6079 323.148 30.6079C325.452 30.6079 326.812 29.9839 326.812 28.9279C326.812 25.9199 317.132 28.3999 317.132 23.9519C317.132 21.8559 319.228 20.6399 322.556 20.6399C325.132 20.6399 327.148 21.4079 328.396 22.8319L327.164 23.9199C326.124 22.7519 324.716 22.1919 322.572 22.1919C320.38 22.1919 319.116 22.7679 319.116 23.7599C319.116 26.5119 328.844 23.9839 328.844 28.7199C328.844 30.8959 326.652 32.1599 323.148 32.1599Z" fill="black"/>
<path d="M304.703 32V20.8H315.583V22.432H306.671V25.424H312.591V26.992H306.671V30.368H315.743V32H304.703Z" fill="black"/>
<path d="M290 32V20.8H295.376C300.272 20.8 302.688 22.88 302.688 26.368C302.688 29.888 300.272 32 295.376 32H290ZM291.968 30.384H295.376C299.04 30.384 300.672 28.864 300.672 26.368C300.672 23.92 299.04 22.416 295.376 22.416H291.968V30.384Z" fill="black"/>
<path d="M486.193 454.966L588.351 325.685H502.163V277.522H710.533L606.855 406.802H699.887V454.966H486.193Z" fill="black"/>
<path d="M274.635 454.966V277.522H413.548C459.684 277.522 484.272 294.506 484.272 321.122C484.272 346.218 462.472 359.907 418.872 363.455V363.962H441.179C472.865 363.962 485.793 379.425 485.793 403.507V454.966H420.646V404.521H339.782V454.966H274.635ZM339.782 360.16H396.564C410.506 360.16 419.125 352.302 419.125 339.374C419.125 328.474 410.506 321.629 396.564 321.629H339.782V360.16Z" fill="black"/>
<path d="M55.8003 454.966V277.522H197.756C237.554 277.522 256.566 290.45 256.566 314.278C256.566 336.585 239.835 347.992 203.332 351.034V351.541C245.919 354.837 265.438 369.286 265.438 401.733C265.438 431.898 241.103 454.966 203.332 454.966H55.8003ZM120.948 410.605H183.307C192.179 410.605 198.009 404.521 198.009 394.888C198.009 386.27 192.432 380.693 183.307 380.693H120.948V410.605ZM120.948 350.02H175.195C184.574 350.02 190.404 344.951 190.404 336.078C190.404 327.206 184.574 322.136 175.195 322.136H120.948V350.02Z" fill="black"/>
<circle cx="380.126" cy="436.968" r="55.4721" stroke="white" stroke-width="3"/>
<circle cx="690.821" cy="286.693" r="55.4721" stroke="white" stroke-width="3"/>
<circle cx="213.667" cy="350.684" r="55.4721" stroke="white" stroke-width="3"/>
<path d="M379.959 128.169C365.995 143.01 360 151.864 360 164.629C360 171.683 363.248 177.937 368.238 181.794C368.238 174.3 371.76 169.101 379.959 160.387C388.386 169.343 391.68 174.302 391.68 181.798C396.671 177.944 399.919 171.692 399.919 164.629C399.919 151.862 394.309 143.419 379.961 128.169H379.959Z" fill="black"/>
<path d="M333.332 164.995C329.298 164.995 326.559 163.58 325.535 160.931L327.763 160.088C328.425 162.015 330.502 162.948 333.452 162.948C336.222 162.948 337.848 162.045 337.848 160.48C337.848 156.386 326.077 159.938 326.077 153.586C326.077 150.726 328.696 149.01 332.88 149.01C336.372 149.01 338.811 150.245 339.865 152.562L337.667 153.405C336.914 151.81 335.198 151.057 332.82 151.057C330.171 151.057 328.636 151.93 328.636 153.436C328.636 157.409 340.376 153.917 340.376 160.269C340.376 163.219 337.667 164.995 333.332 164.995Z" fill="black"/>
<path d="M315.455 164.995C310.126 164.995 306.875 161.925 306.875 157.048C306.875 152.231 310.217 149.01 315.123 149.01C320.331 149.01 323.101 151.991 323.101 157.53H309.434C309.614 161.142 311.631 162.858 315.485 162.858C318.074 162.858 319.88 162.015 320.783 160.269L322.74 161.142C321.596 163.49 319.218 164.995 315.455 164.995ZM309.524 155.603H320.632C320.301 152.683 318.465 151.148 315.154 151.148C312.023 151.148 310.006 152.562 309.524 155.603Z" fill="black"/>
<path d="M296.07 164.694L289.628 149.311H292.247L297.515 162.346H297.666L302.934 149.311H305.372L298.93 164.694H296.07Z" fill="black"/>
<path d="M278.707 164.694V149.311H281.115V152.924H281.235C281.867 150.335 283.312 149.311 285.751 149.311H288.34V151.539H285.63C281.657 151.539 281.115 154.128 281.115 156.657V164.694H278.707Z" fill="black"/>
<path d="M265.437 164.995C261.735 164.995 259.447 162.768 259.447 158.884V149.311H261.855V158.373C261.855 161.262 263.481 162.768 266.25 162.768C269.14 162.768 271.308 161.022 271.308 157.259V149.311H273.716V164.694H271.308V160.841H271.187C270.194 163.791 268.087 164.995 265.437 164.995Z" fill="black"/>
<path d="M246.574 164.995C239.891 164.995 235.646 160.6 235.646 154.188C235.646 147.746 239.891 143.321 246.574 143.321C251.18 143.321 254.551 145.428 255.936 149.04L253.558 149.853C252.534 147.144 250.005 145.639 246.574 145.639C241.456 145.639 238.265 149.1 238.265 154.188C238.265 159.245 241.456 162.647 246.574 162.647C250.066 162.647 252.594 161.142 253.588 158.403L255.966 159.185C254.641 162.858 251.27 164.995 246.574 164.995Z" fill="black"/>
<path d="M221.971 164.785C219.744 164.785 218.299 163.581 218.299 161.293V151.389H214.987V149.311H218.299V145.247L220.707 144.344V149.311H225.734V151.389H220.707V162.617H225.885V164.785H221.971Z" fill="black"/>
<path d="M206.8 146.782C206.8 144.766 207.914 143.321 210.563 143.321H214.205V145.338H209.208V149.311H213.694V151.388H209.208V164.694H206.8V151.388H203.699V149.311H206.8V146.782Z" fill="black"/>
<path d="M193.594 164.995C188.597 164.995 185.195 161.804 185.195 157.048C185.195 152.231 188.597 149.01 193.594 149.01C198.622 149.01 202.023 152.231 202.023 157.048C202.023 161.804 198.622 164.995 193.594 164.995ZM193.594 162.798C197.297 162.798 199.464 160.6 199.464 157.048C199.464 153.436 197.297 151.208 193.594 151.208C189.922 151.208 187.754 153.436 187.754 157.048C187.754 160.6 189.922 162.798 193.594 162.798Z" fill="black"/>
<path d="M173.255 164.995C168.318 164.995 164.675 163.099 163.05 159.757L165.368 158.673C166.662 161.323 169.221 162.677 173.375 162.677C177.439 162.677 179.998 161.353 179.998 159.005C179.998 152.743 163.863 157.62 163.863 149.311C163.863 145.578 167.385 143.321 172.683 143.321C177.048 143.321 180.119 144.826 181.714 147.746L179.426 148.799C178.192 146.632 176.115 145.639 172.743 145.639C168.92 145.639 166.391 146.843 166.391 149.1C166.391 155.031 182.557 150.034 182.557 158.734C182.557 162.707 178.975 164.995 173.255 164.995Z" fill="black"/>
<path d="M589.925 164.996C585.891 164.996 583.152 163.581 582.128 160.932L584.356 160.089C585.018 162.015 587.096 162.949 590.046 162.949C592.815 162.949 594.441 162.045 594.441 160.48C594.441 156.386 582.67 159.938 582.67 153.586C582.67 150.726 585.289 149.01 589.474 149.01C592.966 149.01 595.404 150.245 596.458 152.563L594.26 153.406C593.508 151.81 591.792 151.058 589.414 151.058C586.764 151.058 585.229 151.931 585.229 153.436C585.229 157.409 596.97 153.917 596.97 160.269C596.97 163.219 594.26 164.996 589.925 164.996Z" fill="black"/>
<path d="M572.048 164.996C566.719 164.996 563.468 161.925 563.468 157.048C563.468 152.232 566.81 149.01 571.717 149.01C576.925 149.01 579.694 151.991 579.694 157.53H566.027C566.208 161.142 568.225 162.858 572.078 162.858C574.667 162.858 576.473 162.015 577.376 160.269L579.333 161.142C578.189 163.49 575.811 164.996 572.048 164.996ZM566.117 155.603H577.226C576.895 152.683 575.058 151.148 571.747 151.148C568.616 151.148 566.599 152.563 566.117 155.603Z" fill="black"/>
<path d="M551.105 171.016C547.432 171.016 544.693 169.872 543.338 167.825L544.964 166.501C546.258 168.156 548.215 168.969 551.105 168.969C554.898 168.969 557.126 167.494 557.126 164.965V160.63H557.005C556.042 163.069 553.724 164.544 550.563 164.544C546.047 164.544 543.007 161.443 543.007 156.807C543.007 152.171 546.047 149.071 550.563 149.071C553.694 149.071 556.042 150.516 557.005 153.044H557.126V149.311H559.534V164.935C559.534 168.668 556.072 171.016 551.105 171.016ZM551.315 162.376C555.078 162.376 557.276 160.299 557.276 156.807C557.276 153.285 555.078 151.208 551.315 151.208C547.703 151.208 545.566 153.285 545.566 156.807C545.566 160.299 547.703 162.376 551.315 162.376Z" fill="black"/>
<path d="M539.074 164.694H536.666V160.811H536.515C535.552 163.43 533.113 164.995 529.922 164.995C525.527 164.995 522.487 161.804 522.487 157.018C522.487 152.231 525.527 149.01 529.922 149.01C533.113 149.01 535.582 150.636 536.545 153.255H536.666V143.622H539.074V164.694ZM530.795 162.768C534.558 162.768 536.756 160.63 536.756 157.018C536.756 153.375 534.558 151.238 530.795 151.238C527.183 151.238 525.046 153.375 525.046 157.018C525.046 160.63 527.183 162.768 530.795 162.768Z" fill="black"/>
<path d="M503.116 164.694V143.622H520.396V145.97H505.675V152.533H515.549V154.881H505.675V162.316H520.667V164.694H503.116Z" fill="black"/>
<path d="M474.975 170.715V149.312H477.383V153.255H477.504C478.467 150.636 480.936 149.01 484.127 149.01C488.522 149.01 491.562 152.232 491.562 157.018C491.562 161.805 488.522 164.996 484.127 164.996C480.936 164.996 478.497 163.43 477.534 160.811H477.383V170.715H474.975ZM483.254 162.768C486.866 162.768 489.003 160.631 489.003 157.018C489.003 153.376 486.866 151.238 483.254 151.238C479.491 151.238 477.293 153.376 477.293 157.018C477.293 160.631 479.491 162.768 483.254 162.768Z" fill="black"/>
<path d="M464.189 164.996C460.155 164.996 457.416 163.581 456.392 160.932L458.62 160.089C459.282 162.015 461.359 162.949 464.309 162.949C467.079 162.949 468.705 162.045 468.705 160.48C468.705 156.386 456.934 159.938 456.934 153.586C456.934 150.726 459.553 149.01 463.737 149.01C467.229 149.01 469.668 150.245 470.721 152.563L468.524 153.406C467.771 151.81 466.055 151.058 463.677 151.058C461.028 151.058 459.493 151.931 459.493 153.436C459.493 157.409 471.233 153.917 471.233 160.269C471.233 163.219 468.524 164.996 464.189 164.996Z" fill="black"/>
<path d="M450.368 164.694V149.311H452.777V164.694H450.368ZM450.248 146.753V143.622H452.987V146.753H450.248Z" fill="black"/>
<path d="M437.551 164.695V149.312H439.959V152.924H440.079C440.712 150.335 442.157 149.312 444.595 149.312H447.184V151.539H444.475C440.501 151.539 439.959 154.128 439.959 156.657V164.695H437.551Z" fill="black"/>
<path d="M424.556 164.995C417.873 164.995 413.628 160.6 413.628 154.188C413.628 147.746 417.873 143.321 424.556 143.321C429.162 143.321 432.534 145.428 433.918 149.041L431.54 149.853C430.517 147.144 427.988 145.639 424.556 145.639C419.438 145.639 416.247 149.101 416.247 154.188C416.247 159.246 419.438 162.647 424.556 162.647C428.048 162.647 430.577 161.142 431.57 158.403L433.948 159.185C432.624 162.858 429.252 164.995 424.556 164.995Z" fill="black"/>
</svg>
