<svg width="760" height="506" viewBox="0 0 760 506" fill="none" xmlns="http://www.w3.org/2000/svg">
<rect width="760" height="506" fill="#B9B9B9"/>
<g clip-path="url(#clip0_3466_848)">
<rect width="760" height="506" fill="white"/>
<path d="M-105.707 83.6396L-65.0838 -6.34921H-26.5172L15.9061 83.6396H-18.9324L-26.0029 67.6987H-68.0406L-74.7255 83.6396H-105.707ZM-59.5559 47.2584H-35.0018L-47.6003 18.462L-59.5559 47.2584Z" fill="black"/>
<path d="M21.5314 83.6396V-6.34921H93.5225C113.706 -6.34921 123.347 0.207114 123.347 12.2913C123.347 23.6042 114.863 29.3892 96.3507 30.9319V31.189C117.948 32.8602 127.847 40.1879 127.847 56.643C127.847 71.9411 115.505 83.6396 96.3507 83.6396H21.5314ZM54.5702 61.1424H86.1948C90.6943 61.1424 93.651 58.0571 93.651 53.172C93.651 48.8011 90.8228 45.9729 86.1948 45.9729H54.5702V61.1424ZM54.5702 30.4176H82.0811C86.8376 30.4176 89.7944 27.8465 89.7944 23.3471C89.7944 18.8477 86.8376 16.2765 82.0811 16.2765H54.5702V30.4176Z" fill="black"/>
<path d="M192.675 84.9252C156.679 84.9252 132.382 66.6703 132.382 38.7738C132.382 10.4916 156.679 -7.63477 192.675 -7.63477C218.386 -7.63477 238.312 2.26401 247.054 20.776L217.486 31.4461C213.758 22.5758 206.43 16.7908 193.189 16.7908C176.734 16.7908 167.092 24.8898 167.092 38.7738C167.092 52.4006 176.734 60.4996 193.189 60.4996C206.687 60.4996 213.887 53.5576 217.615 44.4302L247.697 55.3574C239.212 74.2551 218.9 84.9252 192.675 84.9252Z" fill="black"/>
<path d="M254.408 83.6396V-6.34921H308.401C345.939 -6.34921 367.279 10.2344 367.279 38.0024C367.279 66.4132 345.939 83.6396 308.401 83.6396H254.408ZM287.446 59.7283H308.401C325.37 59.7283 332.569 51.2436 332.569 38.0024C332.569 25.7897 325.37 17.5621 308.401 17.5621H287.446V59.7283Z" fill="black"/>
<path d="M376.746 83.6396V-6.34921H473.677V17.0479H409.785V27.718H454.522V49.1867H409.785V60.2425H474.963V83.6396H376.746Z" fill="black"/>
<path d="M484.522 83.6396V-6.34921H580.939V17.0479H517.561V32.4745H562.041V54.9717H517.561V83.6396H484.522Z" fill="black"/>
<path d="M628.48 84.9252C598.398 84.9252 581.943 66.2846 581.943 38.7738C581.943 10.4916 605.854 -7.63477 643.007 -7.63477C664.99 -7.63477 682.216 -1.46411 693.015 9.72022L671.417 26.8181C665.89 19.3619 655.091 16.2765 644.292 16.2765C627.194 16.2765 616.653 24.3755 616.653 38.2595C616.653 52.1435 625.137 61.271 643.392 61.271C655.605 61.271 666.661 57.4143 670.132 50.4723H639.664V32.346H698.028V83.6396H670.646V56.7715H670.389C666.404 74.8978 650.077 84.9252 628.48 84.9252Z" fill="black"/>
<path d="M783.307 83.6396V50.3437H741.398V83.6396H708.359V-6.34921H741.398V27.2038H783.307V-6.34921H816.346V83.6396H783.307Z" fill="black"/>
<path d="M828.438 83.6396V-6.34921H861.477V83.6396H828.438Z" fill="black"/>
<path d="M-102.446 192.925C-135.099 192.925 -151.811 176.599 -151.811 152.559V141.374L-118.772 136.232V152.559C-118.772 162.972 -112.087 168.5 -102.317 168.5C-90.6186 168.5 -85.4764 163.486 -85.4764 152.687V101.651H-52.4377V152.302C-52.4377 179.813 -73.6493 192.925 -102.446 192.925Z" fill="black"/>
<path d="M-41.3026 191.64V101.651H-8.26381V132.89L29.4029 101.651H70.0265L29.5315 134.818L71.9548 191.64H29.7886L5.23451 154.744L-8.26381 165.8V191.64H-41.3026Z" fill="black"/>
<path d="M76.0143 191.64V101.651H109.053V168.5H167.674V191.64H76.0143Z" fill="black"/>
<path d="M240.293 195.496L205.712 129.419H205.197V191.64H175.63V101.651H225.509L243.378 135.718L261.376 101.651H309.199V191.64H276.16V129.419H275.517L240.293 195.496Z" fill="black"/>
<path d="M321.319 191.64V101.651H360.014L398.195 146.131H398.838V101.651H428.406V191.64H402.181L351.658 136.232H350.887V191.64H321.319Z" fill="black"/>
<path d="M497.855 192.925C461.859 192.925 437.82 174.413 437.82 146.774C437.82 118.877 461.859 100.365 497.855 100.365C533.851 100.365 557.89 118.877 557.89 146.774C557.89 174.413 533.851 192.925 497.855 192.925ZM497.855 169.014C513.025 169.014 523.18 160.401 523.18 146.774C523.18 133.018 513.025 124.277 497.855 124.277C482.685 124.277 472.53 133.018 472.53 146.774C472.53 160.401 482.685 169.014 497.855 169.014Z" fill="black"/>
<path d="M567.252 191.64V101.651H631.915C655.055 101.651 668.939 113.349 668.939 132.376C668.939 151.787 655.055 164 631.915 164H600.291V191.64H567.252ZM600.291 143.046H624.588C631.915 143.046 634.229 138.418 634.229 133.147C634.229 128.519 631.915 124.148 624.588 124.148H600.291V143.046Z" fill="black"/>
<path d="M734.246 192.925C698.251 192.925 674.211 174.413 674.211 146.774C674.211 118.877 698.251 100.365 734.246 100.365C770.242 100.365 794.282 118.877 794.282 146.774C794.282 157.958 790.425 167.6 783.355 175.185L791.196 179.041V206.295L757.643 189.968C750.701 191.897 742.731 192.925 734.246 192.925ZM708.921 146.774C708.921 158.987 717.02 167.214 729.875 168.757V148.445L754.687 160.786C757.901 157.058 759.572 152.43 759.572 146.774C759.572 133.018 749.416 124.277 734.246 124.277C719.077 124.277 708.921 133.018 708.921 146.774Z" fill="black"/>
<path d="M803.769 191.64V101.651H874.217C897.614 101.651 910.084 110.264 910.084 123.762C910.084 136.489 899.028 143.431 876.917 145.231V145.488H888.23C904.299 145.488 910.855 153.33 910.855 165.543V191.64H877.817V166.057H836.807V191.64H803.769ZM836.807 143.56H865.604C872.674 143.56 877.045 139.575 877.045 133.018C877.045 127.49 872.674 124.019 865.604 124.019H836.807V143.56Z" fill="black"/>
<path d="M-53.8919 300.925C-76.2606 300.925 -98.7578 295.269 -112.385 286.656L-102.614 266.472C-89.6304 274.186 -71.1184 278.942 -53.3777 278.942C-43.6075 278.942 -38.851 277.4 -38.851 274.186C-38.851 262.23 -106.6 275.214 -106.6 238.319C-106.6 219.164 -88.859 208.365 -57.7486 208.365C-38.2082 208.365 -18.5392 212.865 -5.81219 220.064L-15.711 240.504C-27.6666 234.205 -43.6075 230.348 -58.9056 230.348C-68.5473 230.348 -72.7896 231.891 -72.7896 234.719C-72.7896 245.646 -3.24109 233.434 -3.24109 270.458C-3.24109 289.869 -21.6245 300.925 -53.8919 300.925Z" fill="black"/>
<path d="M36.4624 299.64V232.791H-0.818634V209.651H105.497V232.791H68.3442V299.64H36.4624Z" fill="black"/>
<path d="M166.55 300.797C133.896 300.797 112.428 285.884 112.428 257.216V209.651H145.466V254.774C145.466 269.943 153.823 276.885 167.835 276.885C182.362 276.885 190.846 269.943 190.846 254.774V209.651H221.314V257.216C221.314 285.884 199.46 300.797 166.55 300.797Z" fill="black"/>
<path d="M270.2 299.64L226.363 209.651H263.001L285.37 258.502H286.141L308.51 209.651H342.706L298.997 299.64H270.2Z" fill="black"/>
<path d="M380.471 299.64L342.933 209.651H378.8L398.854 257.731H399.626L418.78 209.651H455.933L475.216 258.116H475.73L496.042 209.651H527.41L489.872 299.64H458.761L435.364 245.518H434.721L411.838 299.64H380.471Z" fill="black"/>
<path d="M525.86 299.64L563.398 253.617L528.302 209.651H568.412L585.767 233.948L603.25 209.651H642.717L607.621 253.617L645.545 299.64H605.436L585.381 273.157L565.326 299.64H525.86Z" fill="black"/>
<path d="M686.916 299.64V267.244L643.078 209.651H680.36L704.657 241.275L728.696 209.651H763.535L719.955 266.729V299.64H686.916Z" fill="black"/>
<path d="M761.633 299.64L813.441 234.076H769.732V209.651H875.404L822.825 275.214H870.005V299.64H761.633Z" fill="black"/>
<path d="M-142.186 407.64V384.5H-108.119V347.99L-137.944 357.889V332.692L-75.4657 317.651V384.5H-42.8126V407.64H-142.186Z" fill="black"/>
<path d="M10.6414 367.659C20.1545 360.203 23.1113 354.675 23.1113 350.175C23.1113 344.647 18.8689 338.991 9.74147 338.991C-0.671521 338.991 -6.97073 346.576 -9.79895 358.917L-38.7239 350.047C-36.667 329.992 -16.9981 316.365 11.2841 316.365C39.3092 316.365 55.8929 328.964 55.8929 350.561C55.8929 357.632 53.4503 368.559 26.7108 384.243L26.3251 384.5H59.2353V407.64H-40.3951L10.6414 367.659Z" fill="black"/>
<path d="M116.16 408.925C94.6915 408.925 80.0362 403.654 67.6949 394.141L81.9645 374.601C94.0487 383.343 104.59 386.428 115.646 386.428C127.216 386.428 133.644 382.957 133.644 375.501C133.644 369.459 127.473 366.502 118.86 366.502H90.7063L112.818 340.791H70.9088V317.651H169.125L130.044 361.488H130.173C151.513 361.488 165.397 368.173 165.397 382.443C165.397 399.541 145.471 408.925 116.16 408.925Z" fill="black"/>
<path d="M166.529 391.956L209.852 317.651H241.348L209.981 370.101H234.149V340.148H263.845V370.101H274.901V391.956H263.845V407.64H234.149V391.956H166.529Z" fill="black"/>
<path d="M325.013 408.925C304.058 408.925 288.889 403.397 277.061 394.141L291.331 374.601C302.773 383.086 313.571 386.428 325.913 386.428C338.64 386.428 345.324 382.828 345.324 375.501C345.324 369.202 340.696 365.988 331.44 365.988C324.241 365.988 316.014 367.916 310.872 371.773L282.718 365.988L285.675 317.651H373.221V340.791H311.9L310.486 366.502L310.872 366.63C316.142 354.161 328.355 346.961 344.81 346.961C364.736 346.961 377.463 357.632 377.463 374.858C377.463 396.327 356.766 408.925 325.013 408.925Z" fill="black"/>
<path d="M435.931 408.925C402.378 408.925 382.452 392.084 382.452 363.674C382.452 334.106 406.363 316.365 441.33 316.365C458.428 316.365 473.083 320.608 484.653 327.935L469.484 346.704C459.842 341.176 451.486 339.12 443.001 339.12C422.561 339.12 413.305 347.347 413.305 365.602V368.173H413.562C416.776 357.246 430.274 350.432 447.244 350.432C468.97 350.432 484.396 361.231 484.396 377.558C484.396 396.455 464.727 408.925 435.931 408.925ZM434.388 389.642C446.858 389.642 454.443 385.271 454.443 377.558C454.443 369.973 446.858 365.731 434.26 365.731C421.661 365.731 414.076 369.973 414.076 377.558C414.076 385.271 421.79 389.642 434.388 389.642Z" fill="black"/>
<path d="M493.756 407.64L545.435 340.791H487.457V317.651H595.443L531.68 407.64H493.756Z" fill="black"/>
<path d="M644.141 408.925C611.745 408.925 591.561 400.055 591.561 383.857C591.561 371.644 602.617 363.159 628.714 361.745V361.36C606.345 359.56 596.575 351.204 596.575 340.148C596.575 325.236 614.316 316.365 644.141 316.365C673.451 316.365 691.835 324.721 691.835 340.405C691.835 351.204 682.836 359.56 659.953 361.36V361.745C685.793 363.288 697.105 371.644 697.105 383.857C697.105 399.926 676.794 408.925 644.141 408.925ZM644.526 388.485C656.353 388.485 663.424 384.885 663.424 378.586C663.424 372.415 656.353 368.816 644.526 368.816C632.442 368.816 625.243 372.415 625.243 378.586C625.243 384.885 632.442 388.485 644.526 388.485ZM644.655 354.161C655.196 354.161 661.496 350.818 661.496 345.29C661.496 339.505 655.196 336.163 644.655 336.163C633.728 336.163 627.3 339.505 627.3 345.29C627.3 350.818 633.728 354.161 644.655 354.161Z" fill="black"/>
<path d="M741.56 408.925C724.463 408.925 709.807 404.683 698.237 397.355L713.407 378.586C723.048 384.114 731.405 386.171 739.889 386.171C760.33 386.171 769.586 377.943 769.586 359.688V357.117H769.328C766.115 368.045 752.616 374.858 735.647 374.858C713.921 374.858 698.494 364.059 698.494 347.733C698.494 328.835 718.163 316.365 746.96 316.365C780.513 316.365 800.439 333.206 800.439 361.617C800.439 391.185 776.528 408.925 741.56 408.925ZM748.631 359.56C761.229 359.56 768.814 355.318 768.814 347.733C768.814 340.019 761.101 335.649 748.502 335.649C736.033 335.649 728.448 340.019 728.448 347.733C728.448 355.318 736.033 359.56 748.631 359.56Z" fill="black"/>
<path d="M854.664 408.925C824.454 408.925 804.399 390.413 804.399 362.645C804.399 334.877 824.454 316.365 854.664 316.365C885.132 316.365 905.315 334.877 905.315 362.645C905.315 390.413 885.132 408.925 854.664 408.925ZM854.664 386.171C865.077 386.171 872.276 377.815 872.276 362.645V360.974L840.78 377.558C843.737 383.086 848.751 386.171 854.664 386.171ZM837.566 364.059L868.934 347.604C865.848 342.076 860.835 339.12 854.664 339.12C844.637 339.12 837.566 347.476 837.566 362.645V364.059Z" fill="black"/>
<path d="M-113.908 482.729L-119.436 425.651H-80.2267L-85.6261 482.729H-113.908ZM-116.736 515.64V488.643H-83.1835V515.64H-116.736Z" fill="black"/>
<path d="M-36.2959 472.316V460.232H-18.2981V452.905H-33.4677V425.651H-1.84305V452.905C-1.84305 461.004 -4.67127 472.316 -23.6975 472.316H-36.2959ZM-73.1913 472.316V460.232H-55.1936V452.905H-70.3631V425.651H-38.7385V452.905C-38.7385 461.004 -41.5667 472.316 -60.5929 472.316H-73.1913Z" fill="black"/>
<path d="M56.1184 542.636C40.1775 542.636 24.1081 539.679 11.8953 533.766L20.6371 515.511C31.5643 520.653 44.4198 523.224 55.2185 523.224C65.8886 523.224 66.917 519.753 66.917 517.311C66.917 506.769 5.21042 511.526 5.21042 483.758C5.21042 475.016 10.7383 468.974 21.4084 466.017C16.2662 462.418 13.1809 457.79 13.1809 451.362C13.1809 435.55 29.3788 424.365 54.9614 424.365C70.9023 424.365 86.9717 427.322 99.1845 433.236L90.4427 451.49C79.5155 446.348 66.6599 443.777 55.8613 443.777C45.1912 443.777 44.1627 447.248 44.1627 449.691C44.1627 460.232 105.869 455.476 105.869 483.244C105.869 491.857 100.341 498.028 89.6714 500.984C94.8136 504.584 97.8989 509.212 97.8989 515.64C97.8989 531.452 81.7009 542.636 56.1184 542.636ZM33.3641 477.973C33.3641 487.229 55.2185 488.772 73.3448 493.914C76.5587 492.5 77.7157 490.7 77.7157 489.029C77.7157 479.773 55.9898 478.23 37.8635 473.088C34.6496 474.502 33.3641 476.302 33.3641 477.973Z" fill="black"/>
<path d="M156.447 529.138V512.04C138.706 510.883 121.737 506.384 110.681 500.084L119.68 480.801C132.021 487.486 149.248 491.6 165.317 491.6C173.159 491.6 177.144 490.571 177.144 488.129C177.144 478.487 116.08 489.543 116.08 456.247C116.08 439.792 130.607 430.15 156.447 429.122V412.024H170.717V429.379C185.243 430.536 198.999 433.878 209.026 439.021L200.027 458.432C188.714 453.033 173.673 449.691 159.918 449.691C151.819 449.691 148.605 450.848 148.605 452.776C148.605 461.646 211.34 451.362 211.34 484.658C211.34 500.984 196.556 510.883 170.717 512.169V529.138H156.447Z" fill="black"/>
<path d="M245.125 515.64L279.964 465.632L306.06 425.651H328.172L294.233 475.145L267.494 515.64H245.125ZM247.439 476.43C230.341 476.43 217.357 465.117 217.357 450.205C217.357 435.55 230.341 424.365 247.439 424.365C264.537 424.365 277.392 435.55 277.392 450.205C277.392 465.117 264.537 476.43 247.439 476.43ZM247.439 461.132C254.767 461.132 259.138 457.275 259.138 450.205C259.138 443.134 254.767 439.149 247.439 439.149C239.983 439.149 235.612 443.134 235.612 450.205C235.612 457.275 239.983 461.132 247.439 461.132ZM326.115 464.86C343.213 464.86 356.068 476.173 356.068 491.086C356.068 505.741 343.213 516.925 326.115 516.925C309.017 516.925 296.033 505.741 296.033 491.086C296.033 476.173 309.017 464.86 326.115 464.86ZM326.115 480.158C318.659 480.158 314.288 484.015 314.288 491.086C314.288 498.156 318.659 502.141 326.115 502.141C333.443 502.141 337.814 498.156 337.814 491.086C337.814 484.015 333.443 480.158 326.115 480.158Z" fill="black"/>
<path d="M410.523 516.925C378.255 516.925 361.029 509.083 361.029 491.6C361.029 477.973 370.928 471.674 383.269 467.946C377.87 463.575 374.141 457.533 374.141 451.233C374.141 435.292 389.825 424.494 414.508 424.494C437.262 424.494 452.946 433.493 452.946 449.819C452.946 464.475 441.376 469.617 428.52 472.445L447.289 483.886C452.303 478.616 455.389 471.931 456.16 464.089L482.385 466.403C480.842 477.973 475.957 487.743 468.887 495.328H488.684V515.64H471.201C462.716 515.64 455.517 514.097 447.547 509.855C436.748 514.483 423.892 516.925 410.523 516.925ZM391.882 487.743C391.882 493.4 397.153 497.256 410.651 497.256C415.922 497.256 420.936 496.742 425.435 495.714L399.338 478.616C394.71 480.544 391.882 483.244 391.882 487.743ZM401.267 450.976C401.267 453.933 402.681 456.761 409.88 461.132L411.037 461.775C420.164 459.589 426.721 456.761 426.721 450.462C426.721 446.348 422.093 443.52 414.379 443.52C406.152 443.52 401.267 446.477 401.267 450.976Z" fill="black"/>
<path d="M493.025 532.866L537.248 423.594H567.202L522.85 532.866H493.025Z" fill="black"/>
<path d="M601.255 532.866C583.257 518.725 573.872 499.956 573.872 477.973C573.872 455.99 583.386 437.349 601.255 423.594H629.408C610.768 442.363 603.697 457.147 603.697 477.973C603.697 499.185 610.768 514.097 629.408 532.866H601.255Z" fill="black"/>
<path d="M632.489 532.866C651.129 514.097 658.2 499.185 658.2 477.973C658.2 457.147 651.129 442.363 632.489 423.594H660.642C678.512 437.349 688.025 455.99 688.025 477.973C688.025 499.956 678.64 518.725 660.642 532.866H632.489Z" fill="black"/>
<path d="M703.961 497.899V477.073H786.75V497.899H703.961ZM703.961 463.96V443.134H786.75V463.96H703.961Z" fill="black"/>
<path d="M823.235 482.729C823.235 463.06 850.103 464.217 850.103 453.676C850.103 449.176 847.146 446.605 840.847 446.605C834.419 446.605 830.177 450.462 828.506 457.533L800.095 451.233C803.566 434.393 818.478 424.365 842.647 424.365C865.273 424.365 881.213 432.721 881.213 450.976C881.213 475.787 852.931 471.417 852.031 482.729H823.235ZM820.664 515.64V488.643H854.217V515.64H820.664Z" fill="black"/>
</g>
<defs>
<clipPath id="clip0_3466_848">
<rect width="760" height="506" fill="white"/>
</clipPath>
</defs>
</svg>
