<svg width="760" height="506" viewBox="0 0 760 506" fill="none" xmlns="http://www.w3.org/2000/svg">
<rect width="760" height="506" fill="#B9B9B9"/>
<rect width="760" height="506" fill="#B591FF"/>
<path d="M290.629 32.0001V20.8001H296.005C300.901 20.8001 303.317 22.8801 303.317 26.3681C303.317 29.8881 300.901 32.0001 296.005 32.0001H290.629ZM292.597 30.3841H296.005C299.669 30.3841 301.301 28.8641 301.301 26.3681C301.301 23.9201 299.669 22.4161 296.005 22.4161H292.597V30.3841Z" fill="black"/>
<path d="M305.332 32.0001V20.8001H316.212V22.4321H307.3V25.4241H313.22V26.9921H307.3V30.3681H316.372V32.0001H305.332Z" fill="black"/>
<path d="M323.777 32.1601C320.849 32.1601 318.513 31.2321 317.201 29.6001L318.449 28.5121C319.553 29.8721 321.281 30.6081 323.777 30.6081C326.081 30.6081 327.441 29.9841 327.441 28.9281C327.441 25.9201 317.761 28.4001 317.761 23.9521C317.761 21.8561 319.857 20.6401 323.185 20.6401C325.761 20.6401 327.777 21.4081 329.025 22.8321L327.793 23.9201C326.753 22.7521 325.345 22.1921 323.201 22.1921C321.009 22.1921 319.745 22.7681 319.745 23.7601C319.745 26.5121 329.473 23.9841 329.473 28.7201C329.473 30.8961 327.281 32.1601 323.777 32.1601Z" fill="black"/>
<path d="M331.285 32.0001V20.8001H333.253V32.0001H331.285Z" fill="black"/>
<path d="M341.288 32.1601C337.672 32.1601 335.24 29.9361 335.24 26.5761C335.24 23.1041 337.96 20.6401 342.2 20.6401C344.744 20.6401 346.856 21.5361 348.008 23.0721L346.568 24.1921C345.672 22.9281 344.136 22.2561 342.296 22.2561C339.208 22.2561 337.256 24.0161 337.256 26.5121C337.256 28.9921 339.08 30.5281 341.944 30.5281C344.504 30.5281 346.28 29.2321 346.488 27.4561H340.984V26.0321H348.344V32.0001H346.568V28.4801H346.536C346.136 30.5761 344.248 32.1601 341.288 32.1601Z" fill="black"/>
<path d="M350.504 32.0001V20.8001H353.112L360.392 28.9281H360.456V20.8001H362.296V32.0001H360.728L352.408 22.7681H352.344V32.0001H350.504Z" fill="black"/>
<path d="M368.66 32.0001V20.8001H379.54V22.4321H370.628V25.6961H377.444V27.2961H370.628V32.0001H368.66Z" fill="black"/>
<path d="M381.082 32.0001V20.8001H391.962V22.4321H383.05V25.4241H388.97V26.9921H383.05V30.3681H392.122V32.0001H381.082Z" fill="black"/>
<path d="M392.727 32.0001L398.407 20.8001H400.711L406.439 32.0001H404.359L402.727 28.7681H396.263L394.647 32.0001H392.727ZM396.999 27.3121H401.991L399.495 22.3521L396.999 27.3121Z" fill="black"/>
<path d="M409.536 32.0001V22.4001H404.4V20.8001H416.592V22.4001H411.488V32.0001H409.536Z" fill="black"/>
<path d="M423.826 32.1601C420.386 32.1601 417.938 30.2881 417.938 26.7681V20.8001H419.922V26.6721C419.922 29.2321 421.554 30.4961 423.858 30.4961C426.162 30.4961 427.81 29.2321 427.81 26.6721V20.8001H429.714V26.7681C429.714 30.2881 427.266 32.1601 423.826 32.1601Z" fill="black"/>
<path d="M432.16 32.0001V20.8001H439.6C442.176 20.8001 443.632 21.8401 443.632 23.4721C443.632 24.9121 442.512 25.8721 440.448 26.1121V26.1441H441.728C443.2 26.1441 443.952 26.9121 443.952 28.3041V32.0001H441.984V27.4881H434.128V32.0001H432.16ZM434.128 25.8881H439.312C440.816 25.8881 441.648 25.0561 441.648 23.9681C441.648 22.9601 440.928 22.3841 439.44 22.3841H434.128V25.8881Z" fill="black"/>
<path d="M446.129 32.0001V20.8001H457.009V22.4321H448.097V25.4241H454.017V26.9921H448.097V30.3681H457.169V32.0001H446.129Z" fill="black"/>
<path d="M464.574 32.1601C461.646 32.1601 459.31 31.2321 457.998 29.6001L459.246 28.5121C460.35 29.8721 462.078 30.6081 464.574 30.6081C466.878 30.6081 468.238 29.9841 468.238 28.9281C468.238 25.9201 458.558 28.4001 458.558 23.9521C458.558 21.8561 460.654 20.6401 463.982 20.6401C466.558 20.6401 468.574 21.4081 469.822 22.8321L468.59 23.9201C467.55 22.7521 466.142 22.1921 463.998 22.1921C461.806 22.1921 460.542 22.7681 460.542 23.7601C460.542 26.5121 470.27 23.9841 470.27 28.7201C470.27 30.8961 468.078 32.1601 464.574 32.1601Z" fill="black"/>
<path d="M55.8003 454.966V277.521H197.756C237.554 277.521 256.566 290.45 256.566 314.278C256.566 336.585 239.835 347.992 203.332 351.034V351.541C245.919 354.836 265.438 369.285 265.438 401.732C265.438 431.898 241.103 454.966 203.332 454.966H55.8003ZM120.948 410.605H183.307C192.179 410.605 198.009 404.521 198.009 394.888C198.009 386.269 192.432 380.693 183.307 380.693H120.948V410.605ZM120.948 350.02H175.195C184.574 350.02 190.404 344.95 190.404 336.078C190.404 327.206 184.574 322.136 175.195 322.136H120.948V350.02Z" fill="black"/>
<path d="M274.635 454.966V277.521H413.548C459.684 277.521 484.272 294.505 484.272 321.122C484.272 346.218 462.472 359.906 418.872 363.455V363.962H441.179C472.865 363.962 485.793 379.425 485.793 403.507V454.966H420.646V404.521H339.782V454.966H274.635ZM339.782 360.16H396.564C410.506 360.16 419.125 352.302 419.125 339.373C419.125 328.473 410.506 321.629 396.564 321.629H339.782V360.16Z" fill="black"/>
<path d="M486.193 454.966L588.351 325.685H502.163V277.521H710.534L606.855 406.802H699.887V454.966H486.193Z" fill="black"/>
<circle cx="379.126" cy="436.968" r="55.4721" stroke="white" stroke-width="3"/>
<circle cx="690.821" cy="286.693" r="55.4721" stroke="white" stroke-width="3"/>
<circle cx="213.667" cy="350.684" r="55.4721" stroke="white" stroke-width="3"/>
<path d="M375.465 128.169C361.5 143.01 355.505 151.864 355.505 164.629C355.505 171.683 358.753 177.937 363.744 181.794C363.744 174.3 367.266 169.101 375.465 160.387C383.891 169.343 387.186 174.302 387.186 181.798C392.177 177.944 395.424 171.692 395.424 164.629C395.424 151.862 389.815 143.419 375.467 128.169H375.465Z" fill="black"/>
<path d="M172.996 164.995C168.059 164.995 164.416 163.099 162.791 159.757L165.109 158.674C166.403 161.323 168.962 162.678 173.116 162.678C177.18 162.678 179.739 161.353 179.739 159.005C179.739 152.743 163.603 157.62 163.603 149.311C163.603 145.579 167.125 143.321 172.424 143.321C176.789 143.321 179.859 144.826 181.455 147.746L179.167 148.8C177.933 146.632 175.856 145.639 172.484 145.639C168.661 145.639 166.132 146.843 166.132 149.101C166.132 155.031 182.298 150.034 182.298 158.734C182.298 162.708 178.715 164.995 172.996 164.995Z" fill="black"/>
<path d="M193.335 164.995C188.338 164.995 184.936 161.805 184.936 157.048C184.936 152.232 188.338 149.01 193.335 149.01C198.362 149.01 201.764 152.232 201.764 157.048C201.764 161.805 198.362 164.995 193.335 164.995ZM193.335 162.798C197.038 162.798 199.205 160.6 199.205 157.048C199.205 153.436 197.038 151.208 193.335 151.208C189.662 151.208 187.495 153.436 187.495 157.048C187.495 160.6 189.662 162.798 193.335 162.798Z" fill="black"/>
<path d="M206.54 146.783C206.54 144.766 207.654 143.321 210.303 143.321H213.946V145.338H208.949V149.311H213.434V151.389H208.949V164.694H206.54V151.389H203.44V149.311H206.54V146.783Z" fill="black"/>
<path d="M221.712 164.785C219.484 164.785 218.039 163.581 218.039 161.293V151.389H214.728V149.311H218.039V145.247L220.448 144.344V149.311H225.475V151.389H220.448V162.617H225.626V164.785H221.712Z" fill="black"/>
<path d="M246.314 164.995C239.631 164.995 235.387 160.6 235.387 154.188C235.387 147.746 239.631 143.321 246.314 143.321C250.92 143.321 254.292 145.428 255.677 149.041L253.298 149.853C252.275 147.144 249.746 145.639 246.314 145.639C241.197 145.639 238.006 149.101 238.006 154.188C238.006 159.246 241.197 162.647 246.314 162.647C249.806 162.647 252.335 161.142 253.328 158.403L255.707 159.185C254.382 162.858 251.011 164.995 246.314 164.995Z" fill="black"/>
<path d="M265.178 164.995C261.475 164.995 259.187 162.768 259.187 158.884V149.311H261.596V158.373C261.596 161.263 263.221 162.768 265.991 162.768C268.881 162.768 271.048 161.022 271.048 157.259V149.311H273.457V164.694H271.048V160.841H270.928C269.934 163.791 267.827 164.995 265.178 164.995Z" fill="black"/>
<path d="M278.447 164.694V149.311H280.856V152.924H280.976C281.608 150.335 283.053 149.311 285.492 149.311H288.081V151.539H285.371C281.398 151.539 280.856 154.128 280.856 156.657V164.694H278.447Z" fill="black"/>
<path d="M295.811 164.694L289.369 149.311H291.988L297.256 162.346H297.406L302.674 149.311H305.113L298.671 164.694H295.811Z" fill="black"/>
<path d="M315.195 164.995C309.867 164.995 306.616 161.925 306.616 157.048C306.616 152.232 309.957 149.01 314.864 149.01C320.072 149.01 322.842 151.991 322.842 157.53H309.174C309.355 161.142 311.372 162.858 315.225 162.858C317.814 162.858 319.62 162.015 320.524 160.269L322.48 161.142C321.336 163.49 318.958 164.995 315.195 164.995ZM309.265 155.603H320.373C320.042 152.683 318.206 151.148 314.894 151.148C311.763 151.148 309.746 152.563 309.265 155.603Z" fill="black"/>
<path d="M333.073 164.995C329.039 164.995 326.299 163.581 325.276 160.931L327.503 160.089C328.166 162.015 330.243 162.948 333.193 162.948C335.963 162.948 337.588 162.045 337.588 160.48C337.588 156.386 325.818 159.938 325.818 153.586C325.818 150.726 328.437 149.01 332.621 149.01C336.113 149.01 338.551 150.245 339.605 152.563L337.408 153.406C336.655 151.81 334.939 151.057 332.561 151.057C329.912 151.057 328.376 151.93 328.376 153.436C328.376 157.409 340.117 153.917 340.117 160.269C340.117 163.219 337.408 164.995 333.073 164.995Z" fill="black"/>
<path d="M424.297 164.996C417.614 164.996 413.369 160.601 413.369 154.188C413.369 147.746 417.614 143.321 424.297 143.321C428.903 143.321 432.274 145.428 433.659 149.041L431.281 149.853C430.257 147.144 427.729 145.639 424.297 145.639C419.179 145.639 415.988 149.101 415.988 154.188C415.988 159.246 419.179 162.648 424.297 162.648C427.789 162.648 430.318 161.142 431.311 158.403L433.689 159.186C432.365 162.858 428.993 164.996 424.297 164.996Z" fill="black"/>
<path d="M437.292 164.695V149.312H439.7V152.924H439.82C440.453 150.335 441.898 149.312 444.336 149.312H446.925V151.539H444.216C440.242 151.539 439.7 154.128 439.7 156.657V164.695H437.292Z" fill="black"/>
<path d="M450.109 164.695V149.312H452.518V164.695H450.109ZM449.989 146.753V143.622H452.728V146.753H449.989Z" fill="black"/>
<path d="M457.518 170.715V149.312H459.926V153.255H460.046C461.01 150.636 463.478 149.011 466.669 149.011C471.064 149.011 474.105 152.232 474.105 157.018C474.105 161.805 471.064 164.996 466.669 164.996C463.478 164.996 461.04 163.43 460.077 160.811H459.926V170.715H457.518ZM465.796 162.768C469.409 162.768 471.546 160.631 471.546 157.018C471.546 153.376 469.409 151.238 465.796 151.238C462.033 151.238 459.836 153.376 459.836 157.018C459.836 160.631 462.033 162.768 465.796 162.768Z" fill="black"/>
<path d="M484.45 164.996C480.416 164.996 477.676 163.581 476.653 160.932L478.881 160.089C479.543 162.015 481.62 162.949 484.57 162.949C487.34 162.949 488.965 162.045 488.965 160.48C488.965 156.386 477.195 159.938 477.195 153.586C477.195 150.726 479.814 149.011 483.998 149.011C487.49 149.011 489.929 150.245 490.982 152.563L488.785 153.406C488.032 151.81 486.316 151.058 483.938 151.058C481.289 151.058 479.754 151.931 479.754 153.436C479.754 157.41 491.494 153.917 491.494 160.269C491.494 163.22 488.785 164.996 484.45 164.996Z" fill="black"/>
<path d="M502.857 164.695V143.622H520.136V145.97H505.416V152.533H515.29V154.881H505.416V162.316H520.407V164.695H502.857Z" fill="black"/>
<path d="M538.815 164.695H536.407V160.811H536.256C535.293 163.43 532.854 164.996 529.663 164.996C525.268 164.996 522.228 161.805 522.228 157.018C522.228 152.232 525.268 149.011 529.663 149.011C532.854 149.011 535.323 150.636 536.286 153.255H536.407V143.622H538.815V164.695ZM530.536 162.768C534.299 162.768 536.497 160.631 536.497 157.018C536.497 153.376 534.299 151.238 530.536 151.238C526.924 151.238 524.787 153.376 524.787 157.018C524.787 160.631 526.924 162.768 530.536 162.768Z" fill="black"/>
<path d="M550.846 171.016C547.173 171.016 544.434 169.872 543.079 167.825L544.704 166.501C545.999 168.157 547.956 168.969 550.846 168.969C554.639 168.969 556.866 167.494 556.866 164.966V160.631H556.746C555.783 163.069 553.465 164.544 550.304 164.544C545.788 164.544 542.748 161.443 542.748 156.807C542.748 152.171 545.788 149.071 550.304 149.071C553.435 149.071 555.783 150.516 556.746 153.044H556.866V149.312H559.275V164.935C559.275 168.668 555.813 171.016 550.846 171.016ZM551.056 162.377C554.819 162.377 557.017 160.299 557.017 156.807C557.017 153.285 554.819 151.208 551.056 151.208C547.444 151.208 545.307 153.285 545.307 156.807C545.307 160.299 547.444 162.377 551.056 162.377Z" fill="black"/>
<path d="M571.788 164.996C566.46 164.996 563.209 161.925 563.209 157.048C563.209 152.232 566.55 149.011 571.457 149.011C576.665 149.011 579.435 151.991 579.435 157.53H565.768C565.948 161.142 567.965 162.858 571.819 162.858C574.407 162.858 576.214 162.015 577.117 160.269L579.074 161.142C577.93 163.49 575.551 164.996 571.788 164.996ZM565.858 155.603H576.966C576.635 152.683 574.799 151.148 571.487 151.148C568.357 151.148 566.34 152.563 565.858 155.603Z" fill="black"/>
<path d="M589.666 164.996C585.632 164.996 582.892 163.581 581.869 160.932L584.097 160.089C584.759 162.015 586.836 162.949 589.786 162.949C592.556 162.949 594.181 162.045 594.181 160.48C594.181 156.386 582.411 159.938 582.411 153.586C582.411 150.726 585.03 149.011 589.214 149.011C592.706 149.011 595.145 150.245 596.198 152.563L594.001 153.406C593.248 151.81 591.532 151.058 589.154 151.058C586.505 151.058 584.97 151.931 584.97 153.436C584.97 157.41 596.71 153.917 596.71 160.269C596.71 163.22 594.001 164.996 589.666 164.996Z" fill="black"/>
</svg>
